<svg width="56" height="57" viewBox="0 0 56 57" fill="none" xmlns="http://www.w3.org/2000/svg">
<g clip-path="url(#clip0_3027_8992)">
<path fill-rule="evenodd" clip-rule="evenodd" d="M22.9807 16.5981C13.5446 16.6043 5.78465 17.8205 4.85594 19.3729C3.94273 20.7425 3.2595 26.6066 3.26411 33.6326C3.26873 40.6585 3.95967 46.5217 4.87467 47.8902C5.80537 49.4414 13.5669 50.6474 23.003 50.6412C32.4392 50.635 40.1991 49.4188 41.1278 47.8664C42.041 46.4967 42.7242 40.6326 42.7196 33.6066C42.715 26.5807 42.024 20.7175 41.109 19.349C40.1783 17.7979 32.4168 16.5919 22.9807 16.5981Z" fill="#FF673D"/>
<path d="M22.9805 16.2484C27.7115 16.2453 32.0296 16.5451 35.2876 17.0431C36.9153 17.2919 38.2887 17.5915 39.3204 17.9311C39.8359 18.1007 40.2756 18.2842 40.6226 18.481C40.9566 18.6705 41.236 18.8912 41.3994 19.1543L41.4003 19.1543C41.6679 19.5545 41.893 20.2337 42.0872 21.0884C42.2845 21.957 42.4592 23.0516 42.6039 24.3166C42.8934 26.8475 43.0677 30.0833 43.07 33.6063C43.0723 37.1294 42.9023 40.3654 42.6161 42.8967C42.4731 44.1619 42.2998 45.2567 42.1036 46.1255C41.9106 46.9805 41.6864 47.66 41.4193 48.0605L41.4184 48.0596C41.2554 48.3233 40.9766 48.5447 40.6424 48.7349C40.2958 48.9322 39.8563 49.1162 39.341 49.2865C38.3098 49.6274 36.9367 49.9289 35.3094 50.1798C32.0521 50.682 27.7343 50.9885 23.0033 50.9916C18.2726 50.9947 13.955 50.6939 10.6971 50.196C9.06937 49.9472 7.69507 49.6476 6.66331 49.308C6.14788 49.1383 5.70807 48.9549 5.3612 48.7581C5.02085 48.5649 4.73648 48.3399 4.57461 48.0701L4.57461 48.0691C4.3114 47.667 4.08835 46.9948 3.89659 46.1506C3.69928 45.282 3.5255 44.1875 3.3808 42.9224C3.09131 40.3915 2.91705 37.1558 2.91473 33.6327C2.91242 30.1096 3.08242 26.8737 3.36859 24.3424C3.51163 23.0772 3.68397 21.9824 3.88014 21.1135C4.07091 20.2686 4.29274 19.5955 4.55564 19.1932L4.62198 19.0935C4.78917 18.8669 5.04384 18.6735 5.34132 18.5042C5.68794 18.3069 6.1275 18.1229 6.64271 17.9525C7.67403 17.6116 9.04793 17.3102 10.6753 17.0593C13.9326 16.5571 18.2497 16.2516 22.9805 16.2484ZM22.9807 16.598C13.5453 16.6043 5.78606 17.8204 4.85654 19.3726C3.94334 20.7423 3.25973 26.6066 3.26434 33.6325C3.26896 40.6584 3.96028 46.5217 4.87527 47.8902C5.80653 49.4413 13.5674 50.6472 23.0031 50.641C32.4392 50.6348 40.1995 49.4188 41.1282 47.8664C42.0414 46.4966 42.724 40.6324 42.7194 33.6066C42.7148 26.5807 42.0244 20.7173 41.1095 19.3488C40.1786 17.7977 32.4167 16.5918 22.9807 16.598Z" fill="#140D1D"/>
<path d="M15.6 15.364C15.6262 14.3431 14.8198 13.4943 13.7989 13.4681C12.778 13.4419 11.9292 14.2482 11.903 15.2691L11.8297 18.1258C11.8035 19.1466 12.6099 19.9955 13.6308 20.0217C14.6517 20.0479 15.5005 19.2415 15.5267 18.2206L15.6 15.364Z" fill="#E4E7FF"/>
<path d="M15.4253 15.359C15.4488 14.435 14.7181 13.6665 13.794 13.6428C12.8701 13.6193 12.1017 14.3492 12.0778 15.2731L12.0045 18.1306C11.9809 19.0546 12.7109 19.8229 13.6348 19.8468C14.559 19.8705 15.3281 19.1406 15.352 18.2165L15.4253 15.359ZM15.7015 18.2255C15.6726 19.3428 14.7432 20.225 13.6258 20.1963C12.5087 20.1674 11.6265 19.2388 11.655 18.1216L11.7283 15.2642C11.7572 14.147 12.6858 13.2649 13.803 13.2933C14.9203 13.322 15.8032 14.2507 15.7748 15.368L15.7015 18.2255Z" fill="#140D1D"/>
<path d="M33.2793 15.364C33.3055 14.3431 32.4991 13.4943 31.4782 13.4681C30.4573 13.4419 29.6085 14.2482 29.5823 15.2691L29.509 18.1258C29.4828 19.1466 30.2892 19.9955 31.31 20.0217C32.3309 20.0479 33.1798 19.2415 33.206 18.2206L33.2793 15.364Z" fill="#E4E7FF"/>
<path d="M33.1046 15.359C33.128 14.435 32.3974 13.6665 31.4733 13.6428C30.5494 13.6193 29.781 14.3492 29.7571 15.2731L29.6837 18.1306C29.6602 19.0546 30.3901 19.8229 31.3141 19.8468C32.2382 19.8705 33.0074 19.1406 33.0313 18.2165L33.1046 15.359ZM33.3808 18.2255C33.3519 19.3428 32.4225 20.225 31.3051 20.1963C30.1879 20.1674 29.3058 19.2388 29.3342 18.1216L29.4076 15.2642C29.4365 14.147 30.3651 13.2649 31.4822 13.2933C32.5996 13.322 33.4825 14.2507 33.4541 15.368L33.3808 18.2255Z" fill="#140D1D"/>
<path d="M42.5958 28.6011C42.6757 30.1618 42.7202 31.8479 42.7214 33.6066C42.726 40.6324 42.0427 46.4967 41.1295 47.8664C40.1997 49.4186 32.4406 50.6348 23.0054 50.641C13.5694 50.6472 5.8082 49.4408 4.87728 47.8897C3.9623 46.5212 3.27077 40.6583 3.26614 33.6325C3.26493 31.8033 3.31121 30.0527 3.39518 28.4399C8.04554 27.5344 14.8975 26.9586 22.539 26.9536C30.6961 26.9482 37.9544 27.5942 42.5958 28.6011Z" fill="white"/>
<path d="M42.5956 28.6011C42.6017 28.7206 42.6055 28.8409 42.6112 28.9619C41.6939 28.7603 40.6681 28.5726 39.5471 28.4013C35.0629 27.7159 29.0943 27.2986 22.5382 27.3029C15.9824 27.3073 10.0149 27.7325 5.53176 28.4237C4.76769 28.5415 4.04775 28.6675 3.37646 28.7997C3.38225 28.679 3.38873 28.5591 3.39494 28.4399C8.04525 27.5344 14.8974 26.9586 22.5388 26.9536C30.6957 26.9482 37.954 27.5943 42.5956 28.6011Z" fill="#140D1D"/>
<path d="M13.3507 36.4399C14.6595 36.4735 15.7478 35.4397 15.7813 34.1309C15.8149 32.8221 14.7811 31.7339 13.4723 31.7003C12.1635 31.6667 11.0753 32.7005 11.0417 34.0093C11.0082 35.3181 12.0419 36.4064 13.3507 36.4399Z" fill="#E4E7FF"/>
<path d="M15.4319 34.1215C15.4602 33.0061 14.5783 32.0784 13.4629 32.0498C12.3477 32.0214 11.4201 32.9026 11.3912 34.0178C11.3626 35.1332 12.2439 36.0616 13.3592 36.0904L13.3502 36.4399L13.1085 36.421C11.9963 36.279 11.133 35.3702 11.0482 34.2522L11.0417 34.0088C11.0756 32.7004 12.1634 31.667 13.4719 31.7003L13.7146 31.7192C14.9061 31.8714 15.8126 32.9038 15.7814 34.1305L15.7624 34.3732C15.6102 35.5649 14.5771 36.4714 13.3502 36.4399L13.3592 36.0904C14.4748 36.1191 15.4032 35.237 15.4319 34.1215Z" fill="#140D1D"/>
<path d="M13.3507 45.1495C14.6595 45.1831 15.7478 44.1493 15.7813 42.8405C15.8149 41.5317 14.7811 40.4434 13.4723 40.4099C12.1635 40.3763 11.0753 41.4101 11.0417 42.7189C11.0082 44.0277 12.0419 45.1159 13.3507 45.1495Z" fill="#E4E7FF"/>
<path d="M15.4319 42.831C15.4602 41.7157 14.5783 40.788 13.4629 40.7593C12.3477 40.731 11.4201 41.6122 11.3912 42.7273C11.3626 43.8427 12.2439 44.7711 13.3592 44.8L13.3502 45.1495L13.1085 45.1306C11.9963 44.9886 11.133 44.0797 11.0482 42.9618L11.0417 42.7184C11.0756 41.41 12.1634 40.3765 13.4719 40.4099L13.7146 40.4288C14.9061 40.5809 15.8126 41.6133 15.7814 42.84L15.7624 43.0827C15.6102 44.2744 14.5771 45.1809 13.3502 45.1495L13.3592 44.8C14.4748 44.8286 15.4032 43.9466 15.4319 42.831Z" fill="#140D1D"/>
<path d="M22.9313 45.1495C24.2401 45.1831 25.3283 44.1493 25.3619 42.8405C25.3955 41.5317 24.3617 40.4434 23.0529 40.4099C21.7441 40.3763 20.6559 41.4101 20.6223 42.7189C20.5887 44.0277 21.6225 45.1159 22.9313 45.1495Z" fill="#E4E7FF"/>
<path d="M25.0124 42.831C25.0408 41.7157 24.1589 40.788 23.0435 40.7593C21.9283 40.731 21.0007 41.6122 20.9718 42.7273C20.9432 43.8427 21.8244 44.7711 22.9398 44.8L22.9308 45.1495L22.689 45.1306C21.5769 44.9886 20.7136 44.0797 20.6288 42.9618L20.6223 42.7184C20.6561 41.41 21.744 40.3765 23.0524 40.4099L23.2952 40.4288C24.4867 40.5809 25.3932 41.6133 25.3619 42.84L25.343 43.0827C25.1908 44.2744 24.1577 45.1809 22.9308 45.1495L22.9398 44.8C24.0553 44.8286 24.9838 43.9466 25.0124 42.831Z" fill="#140D1D"/>
<path d="M32.5119 45.1495C33.8207 45.1831 34.9089 44.1493 34.9425 42.8405C34.9761 41.5317 33.9423 40.4434 32.6335 40.4099C31.3247 40.3763 30.2364 41.4101 30.2029 42.7189C30.1693 44.0277 31.2031 45.1159 32.5119 45.1495Z" fill="#E4E7FF"/>
<path d="M34.593 42.831C34.6214 41.7157 33.7394 40.788 32.624 40.7593C31.5088 40.731 30.5812 41.6122 30.5524 42.7273C30.5238 43.8427 31.405 44.7711 32.5203 44.8L32.5114 45.1495L32.2696 45.1306C31.1575 44.9886 30.2941 44.0797 30.2093 42.9618L30.2029 42.7184C30.2367 41.41 31.3246 40.3765 32.633 40.4099L32.8757 40.4288C34.0673 40.5809 34.9737 41.6133 34.9425 42.84L34.9236 43.0827C34.7714 44.2744 33.7382 45.1809 32.5114 45.1495L32.5203 44.8C33.6359 44.8286 34.5644 43.9466 34.593 42.831Z" fill="#140D1D"/>
<path d="M22.9313 36.4399C24.2401 36.4735 25.3283 35.4397 25.3619 34.1309C25.3955 32.8221 24.3617 31.7339 23.0529 31.7003C21.7441 31.6667 20.6559 32.7005 20.6223 34.0093C20.5887 35.3181 21.6225 36.4064 22.9313 36.4399Z" fill="#E4E7FF"/>
<path d="M25.0124 34.1215C25.0408 33.0061 24.1589 32.0784 23.0435 32.0498C21.9283 32.0214 21.0007 32.9026 20.9718 34.0178C20.9432 35.1332 21.8244 36.0616 22.9398 36.0904L22.9308 36.4399L22.689 36.421C21.5769 36.279 20.7136 35.3702 20.6288 34.2522L20.6223 34.0088C20.6561 32.7004 21.744 31.667 23.0524 31.7003L23.2952 31.7192C24.4867 31.8714 25.3932 32.9038 25.3619 34.1305L25.343 34.3732C25.1908 35.5649 24.1577 36.4714 22.9308 36.4399L22.9398 36.0904C24.0553 36.1191 24.9838 35.237 25.0124 34.1215Z" fill="#140D1D"/>
<path d="M32.5114 36.4399C33.8202 36.4735 34.9084 35.4397 34.942 34.1309C34.9756 32.8221 33.9418 31.7339 32.633 31.7003C31.3242 31.6667 30.236 32.7005 30.2024 34.0093C30.1688 35.3181 31.2026 36.4064 32.5114 36.4399Z" fill="#E4E7FF"/>
<path d="M34.5925 34.1215C34.6209 33.0061 33.7389 32.0784 32.6235 32.0498C31.5083 32.0214 30.5807 32.9026 30.5519 34.0178C30.5233 35.1332 31.4045 36.0616 32.5199 36.0904L32.5109 36.4399L32.2691 36.421C31.157 36.279 30.2936 35.3702 30.2088 34.2522L30.2024 34.0088C30.2362 32.7004 31.3241 31.667 32.6325 31.7003L32.8753 31.7192C34.0668 31.8714 34.9732 32.9038 34.942 34.1305L34.9231 34.3732C34.7709 35.5649 33.7378 36.4714 32.5109 36.4399L32.5199 36.0904C33.6354 36.1191 34.5639 35.237 34.5925 34.1215Z" fill="#140D1D"/>
<path d="M44.2212 24.8968C40.5646 22.6335 37.0667 21.0089 34.5945 20.3204C34.5945 20.3204 34.0499 22.6405 31.4794 22.3308L31.353 22.3579C30.7904 22.5041 29.9695 23.2867 29.2918 24.3816L29.2631 24.4301C28.5854 25.5249 28.251 26.6091 28.371 27.1774L28.3999 27.3013C29.8233 29.4642 27.9895 30.9864 27.9895 30.9864C29.7081 32.8919 32.71 35.2908 36.3662 37.5545L36.3786 37.5622C40.0352 39.8255 43.5331 41.4502 46.0053 42.1386C46.0053 42.1386 46.5499 39.8186 49.1204 40.1282L49.1216 40.1283L49.2481 40.1012C49.8106 39.955 50.6315 39.1723 51.3092 38.0775L51.3396 38.0303C52.0173 36.9355 52.3517 35.8513 52.2318 35.283L52.1995 35.1577C50.7761 32.9948 52.6099 31.4726 52.6099 31.4726C50.8913 29.5671 47.877 27.1605 44.2208 24.8972" fill="#D09AFF"/>
<path d="M34.5056 20.1702C34.4646 20.1944 34.4348 20.2339 34.4239 20.2802L34.4228 20.2841C34.4219 20.2875 34.4212 20.2932 34.4192 20.3006C34.4152 20.3153 34.408 20.3374 34.3989 20.3662C34.3805 20.4243 34.3509 20.5084 34.3079 20.6088C34.2215 20.8101 34.0818 21.0746 33.867 21.3287C33.4433 21.8301 32.7207 22.3038 31.5003 22.1567L31.4425 22.1593L31.3163 22.1864L31.3084 22.188L31.3533 22.3579L31.3084 22.189C30.983 22.2737 30.6108 22.5311 30.2438 22.8883C29.9649 23.16 29.6794 23.4988 29.4085 23.8864L29.1428 24.289L29.1407 24.2928L29.1144 24.3377L28.8716 24.7549C28.6455 25.1702 28.4697 25.5766 28.3509 25.9475C28.1946 26.4358 28.1301 26.8849 28.1995 27.2139L28.2004 27.2168L28.2295 27.3412C28.2342 27.3612 28.2423 27.3807 28.2536 27.3979C28.9292 28.4246 28.8273 29.2826 28.5675 29.8854C28.4359 30.1909 28.2617 30.4341 28.12 30.6011C28.0493 30.6844 27.9879 30.749 27.9441 30.7914C27.9223 30.8125 27.9048 30.828 27.8933 30.8382C27.8876 30.8433 27.8828 30.8471 27.8802 30.8494L27.8771 30.8522L27.8339 30.9061C27.8231 30.927 27.8162 30.9499 27.8145 30.9738C27.8111 31.0212 27.8272 31.0683 27.8591 31.1036C29.4843 32.9057 32.2375 35.1358 35.5943 37.2766L36.2738 37.7031L36.2862 37.7105L36.2861 37.7115C39.9505 39.9795 43.4645 41.6124 45.9584 42.3069C46.0042 42.3196 46.053 42.3131 46.094 42.2889C46.1144 42.2768 46.1319 42.2609 46.1457 42.2422L46.1757 42.1789L46.1757 42.1779C46.1759 42.1772 46.1765 42.1763 46.1768 42.175C46.1777 42.1717 46.1784 42.1659 46.1804 42.1586C46.1845 42.1438 46.1916 42.1209 46.2007 42.0919C46.2191 42.034 46.2479 41.9502 46.2908 41.8503C46.3771 41.649 46.5178 41.3845 46.7326 41.1304C47.1563 40.629 47.8789 40.1553 49.0994 40.3024L49.113 40.3039L49.113 40.3029L49.114 40.303L49.1581 40.2989L49.2843 40.2718L49.2922 40.2712L49.2922 40.2702C49.6178 40.1855 49.9906 39.9284 50.3578 39.5708C50.7297 39.2087 51.1126 38.7269 51.4578 38.1692L51.4579 38.1682L51.487 38.1254L51.4881 38.1226C51.8333 37.5648 52.0933 37.0071 52.2516 36.5127C52.4078 36.0246 52.4722 35.5763 52.4029 35.2473L52.4013 35.2394L52.3693 35.114L52.346 35.0612C51.6703 34.0345 51.7714 33.1766 52.0311 32.5737C52.1628 32.2681 52.337 32.024 52.4787 31.857C52.5493 31.7737 52.6117 31.7101 52.6555 31.6677L52.7185 31.6097C52.7197 31.6086 52.721 31.6083 52.7215 31.6079L52.7215 31.6069C52.758 31.5765 52.7807 31.5327 52.7841 31.4853C52.7876 31.4378 52.7715 31.3908 52.7396 31.3555L52.3997 30.9897C50.6261 29.1331 47.7516 26.8771 44.3192 24.7518C44.3173 24.7505 44.3155 24.7489 44.3135 24.7477C40.6491 22.4796 37.1352 20.8468 34.6412 20.1523L34.5711 20.1465C34.5481 20.1495 34.526 20.1581 34.5056 20.1702ZM34.7096 20.5362C37.1498 21.2434 40.5591 22.8356 44.1274 25.044L44.1283 25.046C47.6972 27.2552 50.6443 29.5973 52.3656 31.4663C52.3221 31.5106 52.2686 31.5646 52.2123 31.6311C52.0547 31.8169 51.8592 32.0893 51.7104 32.4345C51.4115 33.128 51.3086 34.1018 52.0372 35.2265L52.0608 35.3194L52.0745 35.4157C52.098 35.6547 52.0492 35.9955 51.9178 36.4062C51.7696 36.8688 51.5242 37.3996 51.1927 37.9356L51.1624 37.9832L51.1604 37.9851L50.9051 38.3724C50.6456 38.7437 50.3744 39.0649 50.1129 39.3194C49.7611 39.6621 49.443 39.8681 49.2064 39.9305L49.1108 39.951C47.7786 39.7999 46.9527 40.3276 46.4652 40.9045C46.2225 41.1917 46.066 41.4881 45.9699 41.7121C45.9358 41.7916 45.9122 41.8634 45.892 41.922C43.6071 41.2601 40.4719 39.8228 37.1522 37.8289L36.4703 37.4131L36.4589 37.4057L36.4579 37.4057L35.7823 36.9803C32.5197 34.8994 29.8459 32.7411 28.235 30.9919C28.2783 30.9477 28.3314 30.894 28.3873 30.8281C28.5449 30.6422 28.7404 30.3698 28.8892 30.0246C29.1879 29.3315 29.2916 28.3576 28.5643 27.2336L28.5408 27.1379C28.4914 26.8985 28.5352 26.5222 28.6847 26.055C28.8331 25.5915 29.0794 25.0589 29.4119 24.5218L29.4139 24.519L29.4402 24.4741L29.6955 24.0867C29.955 23.7154 30.2262 23.3943 30.4877 23.1397C30.8371 22.7995 31.1532 22.5934 31.3893 22.5295L31.4889 22.5072C32.821 22.6582 33.6469 22.1315 34.1344 21.5546C34.3771 21.2675 34.5336 20.971 34.6297 20.747C34.664 20.6669 34.6893 20.595 34.7096 20.5362Z" fill="#140D1D"/>
<path d="M42.7978 26.5608C38.6511 25.0214 34.7938 24.0942 32.1616 23.9022C32.1616 23.9022 32.0837 26.3522 29.4291 26.5625L29.3071 26.6153C28.7696 26.8772 28.101 27.833 27.6399 29.0748L27.6207 29.1297C27.1596 30.3714 27.043 31.532 27.2793 32.0813L27.3339 32.2003C29.2086 34.0918 27.6688 35.9991 27.6688 35.9991C29.7889 37.5713 33.303 39.3801 37.4497 40.9195L37.4639 40.9247C41.6106 42.4641 45.4679 43.3913 48.1002 43.5833C48.1002 43.5833 48.178 41.1333 50.8327 40.923L50.8339 40.923L50.9559 40.8698C51.4934 40.6079 52.1621 39.6521 52.6231 38.4103L52.6445 38.3564C53.1055 37.1147 53.2221 35.954 52.9858 35.4048L52.9278 35.2852C51.0532 33.3937 52.5929 31.4864 52.5929 31.4864C50.4729 29.9142 46.9449 28.1001 42.7982 26.5608" fill="#EAD1FF"/>
<path d="M32.1054 23.7367C32.0832 23.7443 32.0621 23.7563 32.0443 23.7723C32.0095 23.8038 31.9904 23.8482 31.9885 23.8951L31.9875 23.8961L31.9873 23.901C31.9871 23.9045 31.9861 23.91 31.9856 23.9175C31.9846 23.9332 31.9832 23.9576 31.9798 23.9886C31.973 24.0511 31.9598 24.1426 31.9368 24.2527C31.8905 24.4736 31.8027 24.7691 31.6376 25.0693C31.3318 25.6252 30.7557 26.2099 29.6447 26.3632L29.416 26.3881L29.3597 26.4024L29.2383 26.4551L29.2304 26.4577L29.1143 26.5233C28.8409 26.6945 28.5608 26.9979 28.3005 27.3786C28.0746 27.7088 27.8565 28.1082 27.6622 28.5537L27.4762 29.0143L27.4752 29.0172L27.2975 29.5387C27.154 30.0031 27.0588 30.448 27.0145 30.8456C26.9561 31.3695 26.9823 31.8341 27.1186 32.1507L27.1204 32.1547L27.1214 32.1538L27.1752 32.2733C27.1837 32.2919 27.1958 32.309 27.2103 32.3236C28.1015 33.2229 28.1737 34.1112 28.0339 34.7732C27.9631 35.1084 27.8361 35.3891 27.7271 35.5866C27.6727 35.6851 27.6234 35.7628 27.5878 35.8145C27.57 35.8403 27.5558 35.8598 27.5463 35.8724C27.5416 35.8788 27.5372 35.8828 27.535 35.8857C27.534 35.887 27.5334 35.888 27.533 35.8885L27.5011 35.9517C27.4948 35.974 27.4924 35.9975 27.4953 36.0209C27.5013 36.0682 27.5264 36.1116 27.5647 36.14C29.7028 37.7256 33.2337 39.5412 37.3889 41.0837L37.4034 41.0892C41.5585 42.6317 45.433 43.5638 48.0877 43.7574C48.1352 43.7609 48.1821 43.7448 48.2175 43.7129C48.2527 43.6811 48.2737 43.6366 48.2753 43.5892L48.2762 43.5677C48.2773 43.5519 48.2796 43.5278 48.283 43.4966C48.2898 43.4343 48.302 43.3434 48.325 43.2335C48.3713 43.0126 48.459 42.7163 48.6242 42.4159C48.9504 41.823 49.5847 41.1972 50.8468 41.0972C50.8664 41.0958 50.886 41.0918 50.9041 41.0839L51.0265 41.0303L51.0324 41.0276C51.3423 40.8766 51.6658 40.5417 51.9633 40.1067C52.2639 39.6672 52.5519 39.1057 52.7864 38.4749L52.8072 38.421L52.8093 38.4172C53.0439 37.7852 53.1921 37.1708 53.2512 36.6407C53.3096 36.1169 53.2833 35.6522 53.1471 35.3356L53.1435 35.3286L53.0858 35.209L53.0526 35.1617L52.8952 34.994C52.1531 34.1529 52.0978 33.3338 52.2288 32.713C52.2997 32.3777 52.4257 32.0961 52.5348 31.8986C52.5891 31.8002 52.6394 31.7235 52.675 31.6717C52.6927 31.6461 52.707 31.6264 52.7164 31.6138L52.7289 31.5967L52.7617 31.5345C52.7681 31.512 52.7696 31.4881 52.7665 31.4643C52.7605 31.4171 52.7353 31.3745 52.6971 31.3462C50.5589 29.7605 47.0146 27.9396 42.8594 26.397C38.7041 24.8545 34.8289 23.9214 32.1742 23.7278L32.1054 23.7367ZM32.3177 24.0904C34.9228 24.3071 38.6877 25.221 42.7376 26.7244L43.5056 27.0157C47.2233 28.4526 50.3729 30.0907 52.3534 31.5286C52.318 31.5828 52.2733 31.6493 52.2289 31.7297C52.1079 31.9489 51.9666 32.2627 51.8868 32.6404C51.7267 33.3988 51.8199 34.3997 52.7815 35.3842L52.8284 35.4809C52.9262 35.7142 52.9585 36.1021 52.9029 36.6011C52.8476 37.0981 52.7077 37.684 52.4821 38.2924L52.4603 38.3462L52.4592 38.3491L52.2809 38.7924C52.0946 39.2194 51.8863 39.5983 51.6743 39.9083C51.3879 40.327 51.1067 40.6016 50.8791 40.7125L50.7916 40.7509C49.4171 40.8683 48.6923 41.568 48.3183 42.248C48.1324 42.5862 48.0343 42.9159 47.983 43.1609C47.9643 43.25 47.9547 43.3291 47.9461 43.393C45.3411 43.1764 41.5758 42.2645 37.5253 40.7609L36.7428 40.4641C33.0278 39.0281 29.8913 37.3941 27.9114 35.9567C27.9466 35.9028 27.9898 35.8362 28.0339 35.7565C28.1549 35.5373 28.2962 35.2227 28.376 34.8449C28.5361 34.0864 28.4432 33.0846 27.4813 32.1001L27.4391 32.0084C27.3402 31.7754 27.3069 31.3859 27.3628 30.8843C27.4183 30.3865 27.5585 29.7995 27.7848 29.1901L27.7859 29.1872L27.8046 29.1362L27.9829 28.6929C28.1693 28.2656 28.3775 27.8861 28.5895 27.576C28.8757 27.1576 29.1562 26.8838 29.3837 26.7728L29.4742 26.7335C30.8462 26.6152 31.5707 25.9176 31.9444 25.2382C32.1305 24.8999 32.2285 24.5694 32.2798 24.3244C32.2987 24.2342 32.3092 24.1547 32.3177 24.0904Z" fill="#140D1D"/>
<path d="M44.8992 35.6361C44.8228 35.7971 44.7469 35.9581 44.6717 36.1196C44.1917 37.1485 43.8411 38.3405 43.0436 39.1801C42.5972 39.6498 41.3788 39.8852 40.1833 38.94C38.6619 37.7377 39.5417 35.8103 40.4538 35.3224C41.366 34.8346 42.7331 34.7538 43.6746 36.0617C43.6746 36.0617 43.7488 35.8557 43.9105 35.4942C44.0722 35.1327 44.3638 34.4708 44.3638 34.4708C44.3466 34.3476 42.3153 32.7033 40.7602 32.2383C40.6125 32.3743 39.4992 35.3808 39.0321 35.873C38.5857 36.3427 37.3673 36.5781 36.1718 35.6329C34.6503 34.4306 35.5301 32.5032 36.4423 32.0153C37.3545 31.5275 38.8023 31.5542 39.7442 32.8624C39.7442 32.8624 40.5945 30.5115 40.7806 30.0307C40.9668 29.5505 40.9782 29.2665 41.4468 29.3173C41.9155 29.3682 44.4688 30.8002 45.2656 31.345C46.0625 31.8898 46.4684 32.2738 46.1883 32.8997C45.7764 33.8198 45.3319 34.7246 44.9004 35.6354L44.8992 35.6361Z" fill="#A238FF"/>
<path d="M45.3642 31.2009C45.7597 31.4713 46.0877 31.7203 46.2749 31.9935C46.3714 32.1343 46.4345 32.2865 46.4486 32.4549C46.4627 32.6229 46.4271 32.7938 46.3478 32.9709L46.033 33.6607C45.7131 34.348 45.3806 35.0293 45.058 35.7102L45.0574 35.7109L44.8304 36.1931L44.8298 36.1938L44.6569 36.5813C44.6003 36.7127 44.5446 36.8467 44.4881 36.9817C44.3755 37.2506 44.2605 37.5258 44.1352 37.7951C43.916 38.2662 43.6618 38.7291 43.3217 39.132L43.1704 39.3006C42.6794 39.8174 41.4852 40.0358 40.3096 39.2483L40.0743 39.0775C39.2552 38.43 39.0795 37.5772 39.2348 36.8281C39.3874 36.0928 39.862 35.4404 40.371 35.1681C40.8535 34.91 41.4609 34.7567 42.0779 34.8452C42.6224 34.9233 43.1646 35.1887 43.6251 35.7173L43.7508 35.4227C43.8315 35.2424 43.9449 34.9871 44.038 34.7765C44.0845 34.6712 44.1262 34.5769 44.156 34.5093C44.1576 34.5057 44.1589 34.5021 44.1604 34.4987C44.156 34.4944 44.1514 34.4895 44.1465 34.4848C44.0906 34.4314 44.0074 34.3581 43.9008 34.2703C43.6878 34.095 43.3879 33.8663 43.0397 33.6267C42.3795 33.1725 41.5602 32.6916 40.8398 32.4497C40.834 32.4615 40.8275 32.4742 40.821 32.4879C40.7769 32.5811 40.7198 32.7094 40.6537 32.8634C40.5185 33.1784 40.3583 33.5674 40.1769 33.9913C39.9991 34.4067 39.8102 34.8359 39.6359 35.193C39.5488 35.3716 39.4636 35.5347 39.3852 35.6694C39.3469 35.7352 39.3091 35.7972 39.2712 35.8521L39.1587 35.9939C38.6675 36.5104 37.4733 36.7289 36.2979 35.9415L36.0632 35.77C35.2442 35.1227 35.0679 34.2703 35.2231 33.5213C35.3756 32.786 35.8509 32.1329 36.3599 31.8606C37.2736 31.3721 38.6878 31.368 39.686 32.5079C39.6952 32.4825 39.705 32.4556 39.7152 32.4276C39.7978 32.1997 39.9098 31.891 40.0277 31.5671L40.6179 29.9676C40.6648 29.8467 40.6944 29.7521 40.7327 29.6487C40.7677 29.5539 40.8078 29.4578 40.8629 29.3767C40.9211 29.291 40.9988 29.2193 41.1081 29.1771C41.2133 29.1365 41.3325 29.129 41.4652 29.1434C41.5489 29.1525 41.6595 29.1884 41.776 29.2337C41.8975 29.2808 42.043 29.3447 42.2036 29.4205C42.5255 29.5723 42.9171 29.775 43.3169 29.9921C44.1149 30.4253 44.9584 30.9234 45.3642 31.2009ZM45.9868 32.191C45.8418 31.9796 45.5677 31.7638 45.1664 31.4894C44.7753 31.222 43.9437 30.7313 43.149 30.2998C42.7524 30.0845 42.3677 29.8849 42.0542 29.737C41.8974 29.663 41.76 29.6031 41.6492 29.5601C41.5335 29.5152 41.4615 29.4953 41.428 29.4916C41.3266 29.4806 41.2688 29.49 41.2343 29.5033C41.2039 29.5151 41.1792 29.5342 41.1527 29.5731C41.1232 29.6165 41.0956 29.6781 41.0616 29.7698C41.0308 29.8531 40.9898 29.9747 40.9436 30.0938L40.3572 31.6862C40.2393 32.01 40.1266 32.3196 40.044 32.5474C40.0028 32.6612 39.9692 32.7554 39.9456 32.8206C39.9339 32.8529 39.9245 32.8787 39.9183 32.8959C39.9153 32.9041 39.9132 32.9106 39.9116 32.9149C39.9108 32.9172 39.9096 32.9194 39.9091 32.9206L39.9085 32.9213L39.9092 32.922L39.8864 32.9646C39.8589 33.0029 39.8164 33.0288 39.7683 33.0355C39.704 33.0444 39.6402 33.0169 39.6023 32.9642C38.7199 31.7389 37.3731 31.7166 36.5254 32.1697C36.1223 32.3853 35.7011 32.941 35.5661 33.592C35.434 34.2289 35.578 34.941 36.2798 35.4958L36.4943 35.6517C37.5597 36.3664 38.5595 36.1168 38.9054 35.7528L38.9827 35.6528C39.0124 35.6097 39.0456 35.5564 39.0826 35.493C39.155 35.3685 39.2361 35.2146 39.3213 35.04C39.4917 34.6908 39.678 34.2677 39.8554 33.8532C40.0291 33.4472 40.2025 33.0275 40.3322 32.7253C40.3986 32.5706 40.4575 32.4377 40.5045 32.3385C40.5278 32.2892 40.549 32.2458 40.568 32.2116C40.5774 32.1944 40.5879 32.1775 40.598 32.1624C40.6065 32.1496 40.6213 32.1285 40.6417 32.1097L40.6791 32.0829C40.719 32.0621 40.7663 32.0569 40.8105 32.0702C41.6148 32.3107 42.5293 32.851 43.2376 33.3382C43.5934 33.583 43.9018 33.8178 44.1231 34C44.2333 34.0907 44.3238 34.1704 44.3884 34.2322C44.4202 34.2627 44.4484 34.2915 44.47 34.3166C44.4806 34.329 44.4924 34.3437 44.5026 34.3592C44.5057 34.364 44.513 34.3746 44.52 34.3895L44.5367 34.4467L44.537 34.4944C44.5348 34.5105 44.53 34.5264 44.5234 34.5414L44.5241 34.5421L44.5228 34.5435C44.5223 34.5448 44.5213 34.5469 44.5203 34.5492C44.5182 34.5541 44.5151 34.5619 44.511 34.5711C44.5028 34.5899 44.4904 34.6174 44.4756 34.651C44.4458 34.7186 44.4046 34.8125 44.3582 34.9175C44.2651 35.1281 44.1515 35.3847 44.0704 35.5658L43.8946 35.9784C43.8757 36.0257 43.8614 36.0623 43.8523 36.0863C43.8478 36.0982 43.8447 36.1072 43.8426 36.113C43.8415 36.1159 43.8399 36.118 43.8394 36.1194L43.8395 36.1208L43.8168 36.1634C43.7893 36.2017 43.7473 36.2281 43.6993 36.2349C43.6351 36.2439 43.5706 36.2169 43.5326 36.1644C43.0889 35.548 42.5536 35.2674 42.0288 35.1919C41.4988 35.1159 40.9661 35.2474 40.5365 35.4772C40.1334 35.6928 39.7129 36.2479 39.5778 36.8988C39.4457 37.5357 39.5897 38.2477 40.2915 38.8025L40.5054 38.9592C41.5708 39.674 42.5712 39.4236 42.9171 39.0595L43.0539 38.9054C43.3648 38.5371 43.6038 38.1061 43.8174 37.6471C43.8784 37.516 43.9378 37.3833 43.9954 37.2496L44.3354 36.4431L44.5133 36.0457C44.5887 35.8839 44.6644 35.7226 44.7409 35.5614L44.7422 35.56L45.3932 34.1959C45.5013 33.9688 45.6093 33.7419 45.7153 33.5141L46.0289 32.8285C46.0896 32.6928 46.1076 32.581 46.0995 32.4841C46.0915 32.3877 46.0561 32.2924 45.9868 32.191Z" fill="#140D1D"/>
<path d="M33.671 29.0345C33.3857 28.9286 33.3516 28.3116 33.5948 27.6564C33.8381 27.0012 34.2665 26.5559 34.5518 26.6618C34.8371 26.7677 34.8712 27.3847 34.628 28.0399C34.3847 28.6951 33.9563 29.1404 33.671 29.0345Z" fill="#A238FF"/>
<path d="M33.7595 27.7175C33.8747 27.407 34.0311 27.1538 34.184 26.9949C34.2606 26.9153 34.3305 26.8652 34.3873 26.8402C34.4428 26.8157 34.4748 26.8195 34.4916 26.8258C34.5083 26.832 34.5352 26.85 34.5612 26.9047C34.5878 26.9606 34.6072 27.0441 34.6133 27.1543C34.6255 27.3745 34.5797 27.6687 34.4644 27.9792C34.3491 28.2897 34.1918 28.5426 34.039 28.7015C33.9627 28.7807 33.8935 28.8307 33.8369 28.8557C33.7815 28.8801 33.7495 28.8763 33.7326 28.8701C33.7159 28.8639 33.6892 28.846 33.663 28.7911C33.6364 28.7352 33.6157 28.6522 33.6096 28.5421C33.5974 28.322 33.6442 28.028 33.7595 27.7175ZM33.4308 27.5955C33.3029 27.9401 33.2444 28.2827 33.2598 28.5612C33.2675 28.7 33.2945 28.8316 33.3468 28.9414C33.3996 29.0525 33.4847 29.152 33.6106 29.1988C33.7364 29.2454 33.8651 29.2252 33.9776 29.1756C34.0889 29.1265 34.1951 29.0445 34.2916 28.9443C34.485 28.7432 34.6642 28.4455 34.7922 28.1009C34.9201 27.7562 34.9785 27.4138 34.9631 27.1352C34.9555 26.9962 34.9289 26.8641 34.8765 26.7541C34.8237 26.6432 34.7389 26.5447 34.6132 26.498C34.4874 26.4513 34.3582 26.4703 34.2457 26.5199C34.1343 26.5691 34.0279 26.6518 33.9314 26.7522C33.738 26.9532 33.5587 27.2509 33.4308 27.5955Z" fill="#140D1D"/>
<path d="M32.4312 32.3826C32.1459 32.2766 32.1118 31.6596 32.3551 31.0044C32.5983 30.3492 33.0268 29.904 33.3121 30.0099C33.5973 30.1158 33.6314 30.7328 33.3882 31.388C33.145 32.0432 32.7165 32.4885 32.4312 32.3826Z" fill="#A238FF"/>
<path d="M32.5192 31.0656C32.6345 30.7551 32.7908 30.5019 32.9437 30.343C33.0204 30.2633 33.0903 30.2133 33.147 30.1882C33.2025 30.1638 33.2346 30.1676 33.2513 30.1738C33.2681 30.1801 33.2949 30.1981 33.321 30.2528C33.3476 30.3087 33.367 30.3922 33.3731 30.5024C33.3853 30.7226 33.3394 31.0168 33.2242 31.3273C33.1089 31.6378 32.9516 31.8907 32.7987 32.0496C32.7225 32.1288 32.6532 32.1787 32.5967 32.2038C32.5413 32.2282 32.5092 32.2244 32.4924 32.2182C32.4756 32.212 32.4489 32.1941 32.4228 32.1392C32.3962 32.0833 32.3755 32.0003 32.3694 31.8902C32.3572 31.6701 32.404 31.3761 32.5192 31.0656ZM32.1906 30.9436C32.0626 31.2882 32.0042 31.6307 32.0196 31.9093C32.0272 32.0481 32.0543 32.1796 32.1065 32.2895C32.1594 32.4005 32.2445 32.5001 32.3704 32.5468C32.4962 32.5935 32.6249 32.5733 32.7373 32.5237C32.8487 32.4746 32.9549 32.3925 33.0513 32.2923C33.2448 32.0913 33.424 31.7936 33.5519 31.449C33.6799 31.1043 33.7383 30.7619 33.7229 30.4833C33.7152 30.3443 33.6887 30.2121 33.6363 30.1022C33.5834 29.9913 33.4986 29.8928 33.373 29.8461C33.2471 29.7994 33.118 29.8184 33.0055 29.868C32.894 29.9172 32.7877 29.9999 32.6911 30.1003C32.4977 30.3013 32.3185 30.599 32.1906 30.9436Z" fill="#140D1D"/>
<path d="M31.1964 35.5815C30.9111 35.4756 30.877 34.8586 31.1202 34.2034C31.3634 33.5482 31.7919 33.1029 32.0772 33.2088C32.3625 33.3147 32.3966 33.9317 32.1533 34.5869C31.9101 35.2421 31.4817 35.6874 31.1964 35.5815Z" fill="#A238FF"/>
<path d="M31.2844 34.2645C31.3996 33.954 31.556 33.7008 31.7089 33.5419C31.7855 33.4622 31.8555 33.4121 31.9122 33.3871C31.9677 33.3627 31.9997 33.3665 32.0165 33.3727C32.0332 33.379 32.0601 33.397 32.0861 33.4517C32.1127 33.5076 32.1321 33.5911 32.1382 33.7013C32.1504 33.9214 32.1046 34.2157 31.9893 34.5262C31.874 34.8367 31.7167 35.0896 31.5639 35.2485C31.4876 35.3277 31.4184 35.3776 31.3618 35.4027C31.3064 35.4271 31.2744 35.4232 31.2575 35.4171C31.2408 35.4108 31.2141 35.393 31.1879 35.3381C31.1613 35.2822 31.1406 35.1992 31.1345 35.0891C31.1223 34.869 31.1691 34.575 31.2844 34.2645ZM30.9557 34.1425C30.8278 34.4871 30.7693 34.8296 30.7847 35.1082C30.7924 35.247 30.8194 35.3785 30.8717 35.4884C30.9245 35.5994 31.0096 35.699 31.1355 35.7457C31.2613 35.7924 31.39 35.7722 31.5025 35.7226C31.6138 35.6734 31.72 35.5914 31.8165 35.4912C32.0099 35.2902 32.1891 34.9925 32.3171 34.6479C32.445 34.3032 32.5034 33.9608 32.4881 33.6822C32.4804 33.5432 32.4538 33.411 32.4014 33.301C32.3486 33.1902 32.2638 33.0917 32.1381 33.045C32.0123 32.9982 31.8831 33.0172 31.7706 33.0669C31.6592 33.116 31.5528 33.1988 31.4563 33.2991C31.2629 33.5002 31.0836 33.7979 30.9557 34.1425Z" fill="#140D1D"/>
<path d="M49.2938 12.7682C49.8962 13.2304 49.149 14.7792 47.6249 16.2277C46.1008 17.6762 44.3768 18.4757 43.7744 18.0136C43.172 17.5515 43.9191 16.0026 45.4433 14.5541C46.9674 13.1057 48.6913 12.3061 49.2938 12.7682Z" fill="#EAD1FF"/>
<path d="M47.4859 16.1207C46.7347 16.8346 45.9396 17.3839 45.2667 17.696C44.9295 17.8524 44.6318 17.9446 44.3922 17.9735C44.152 18.0024 43.9956 17.9657 43.9011 17.8933C43.8065 17.8208 43.7464 17.6915 43.7545 17.4843C43.7627 17.2779 43.839 17.0157 43.9851 16.7129C44.2768 16.1083 44.8309 15.3742 45.5821 14.6602C46.3333 13.9464 47.1285 13.3982 47.8013 13.0861C48.1384 12.9298 48.4356 12.837 48.675 12.8081C48.9155 12.7791 49.0725 12.8163 49.167 12.8888C49.2614 12.9613 49.3208 13.0902 49.3127 13.2973C49.3046 13.5037 49.2291 13.7663 49.0829 14.0693C48.7912 14.6737 48.2369 15.4069 47.4859 16.1207ZM47.764 16.334C48.5366 15.5997 49.1181 14.8349 49.4304 14.1875C49.5862 13.8644 49.679 13.562 49.6892 13.3028C49.6993 13.0445 49.627 12.8065 49.4204 12.648C49.2138 12.4895 48.9289 12.4535 48.6292 12.4897C48.3285 12.526 47.9861 12.637 47.6266 12.8038C46.906 13.138 46.0774 13.7132 45.3047 14.4474C44.5319 15.1819 43.95 15.9472 43.6377 16.5946C43.4818 16.9177 43.389 17.2202 43.3789 17.4794C43.3688 17.7377 43.441 17.9757 43.6476 18.1342C43.8543 18.2926 44.1391 18.3287 44.4388 18.2925C44.7396 18.2562 45.0819 18.1452 45.4415 17.9784C46.1621 17.6441 46.9913 17.0684 47.764 16.334Z" fill="#140D1D"/>
<path d="M43.9683 9.1893C44.7089 9.44796 44.7163 11.1767 43.9848 13.0506C43.2534 14.9245 42.06 16.2339 41.3195 15.9753C40.5789 15.7166 40.5715 13.9878 41.3029 12.1139C42.0344 10.24 43.2277 8.93063 43.9683 9.1893Z" fill="#EAD1FF"/>
<path d="M43.82 12.9928C43.4602 13.9145 42.989 14.69 42.525 15.1993C42.2927 15.4542 42.0683 15.6355 41.8675 15.7377C41.6669 15.8397 41.5061 15.8554 41.3827 15.8123C41.2594 15.7691 41.1486 15.6585 41.0663 15.4579C40.9839 15.2568 40.9379 14.981 40.9365 14.6445C40.9337 13.9722 41.1083 13.0931 41.4681 12.1714C41.828 11.2495 42.2991 10.4741 42.7631 9.96489C42.9956 9.70985 43.2198 9.52859 43.4206 9.42647C43.621 9.32457 43.7808 9.3095 43.9042 9.35244C44.0277 9.39556 44.1394 9.50542 44.2218 9.70629C44.3043 9.90737 44.3502 10.183 44.3517 10.5197C44.3545 11.192 44.1798 12.0709 43.82 12.9928ZM44.1501 13.1081C44.5216 12.1563 44.7088 11.2341 44.7057 10.509C44.7042 10.147 44.6549 9.82429 44.5506 9.56992C44.4462 9.31549 44.2784 9.11202 44.0317 9.02585C43.7851 8.93989 43.5185 8.99163 43.2645 9.12072C43.0104 9.24991 42.7513 9.46488 42.5014 9.73907C42.0009 10.2883 41.5096 11.1043 41.1381 12.0561C40.7665 13.008 40.579 13.9309 40.5821 14.6561C40.5836 15.018 40.6333 15.3399 40.7376 15.5942C40.8419 15.8487 41.009 16.0517 41.2555 16.138C41.5024 16.2242 41.7694 16.1727 42.0237 16.0434C42.2777 15.9143 42.5366 15.7001 42.7864 15.426C43.287 14.8767 43.7785 14.06 44.1501 13.1081Z" fill="#140D1D"/>
</g>
<defs>
<clipPath id="clip0_3027_8992">
<rect width="52" height="52" fill="white" transform="translate(2 2.5)"/>
</clipPath>
</defs>
</svg>
