<svg xmlns="http://www.w3.org/2000/svg" width="1005" height="845" fill="none"><path fill="#950800" d="M420.851 769.864s-382.92 8.54-376.68 15.49c6.25 6.95 184.82 21.14 323.46-2.96 14.09-2.09 55.12-3.52 55.83 2.96.71 6.49-62.87 10.21-18.26 15.3 20.37 2.32 168.5 29.42 252.26 34.43 0 0 6.39-2.35 21.13-9 14.74-6.65 75.13-31.7 107.22-72 5.28-9.1-39.91-27.42-33.85-28.99 6.07-1.57 102.98 12.69 159.07 1.99 56.09-10.7 85.71-26.61 90.689-47.15 4.98-20.54-6.369-33.85-6.369-33.85l-574.5 123.78Z"/><path fill="#EBD1FF" d="m742.971 104.844-54.21 165.78s-2.34 5.46 1.96 8.69c4.3 3.24 40.07 13.72 80.1 20.48 40.03 6.76 76.79 5.29 76.79 5.29s18.71-.79 42.83-2.46c24.11-1.68 62.4-9.75 80.49-15.13 18.09-5.38 25.84-7.35 27.15-8.89 1.31-1.54 3.259-3.56 2.329-6.51-.929-2.96-30.549-113.74-30.549-113.74l-14.77-55.22-212.12 1.72v-.01ZM710.101 649.244v36.47s-1.79 34.78 110.52 39.05c82.19 3.09 129.69-17.14 129.69-17.14s45.05-15.02 51.399-33.69c6.35-18.66-.32-44.68-.32-44.68s-8.719-26.61-81.439-32.48c-72.72-5.87-120.88 3.98-151 11.67-30.12 7.69-61.02 25.77-58.87 40.8h.02Z"/><path fill="#A238FF" d="m825.071 304.794 5.74 336s4.31 9.24 15.17 8.68c10.86-.56 16.51-5.06 17.74-9.27 0-2.45-5.89-335.41-5.89-335.41h-32.76Z"/><path fill="#D09AFF" d="M384.151 477.214c-6.93-6.661-12.59-14.09-12.59-14.09s-2.88-3.5-3.86-15.53 14.62-29.821 14.62-29.821l11.23-12.969s31.09-30.29 4.39-73.74c-34.52-47.16-97.05-38.82-97.05-38.82l.09-141.07s6.16.2 11.15-.2c4.99-.39 11.25-.881 16.53-3.911 5.28-3.029 4.63-16.54 4.63-16.54s.43-75.62.31-82.66c-.12-7.04-4.75-11.44-11.47-12.95-6.72-1.51-21.26.04-41.71-.58s-57.93 3.15-63.51 3.98c-5.58.83-2.58.48-11.51 3.73-13.25 6.55-14.12 19.56-14.12 19.56s-1.71 13.04-2.28 34.69c-.57 21.651.48 46.101.93 50.491.45 4.39 1.18 4.11 5.38 7.73s18.98 3.94 18.98 3.94 2.55.099 4.37.439c1.82.34 1.35 3.72 1.35 3.72l-3.6 127.72-1.92.081-22.29 2.589s-.79.101-20.81 3.411c-25.6 5.06-45.52 14.8-66.95 28.109-21.43 13.31-32.25 29.77-35.43 54.18-3.18 24.41 10.86 41.641 18.2 50.601 7.34 8.97 10.93 16.44 11.92 18.87.99 2.43 2.28 5.97-.16 13.06-2.44 7.09-21.48 20.08-21.48 20.08s-42.07 32.63-63.04 87.25c-16.53 47.51-13.72 70.6-13.72 70.6s-5.88 52.7 32.35 92.99c40.31 42.119 143.39 53.82 143.39 53.82l17.95.27s15.34.019 46.01-1.71c28.86-1.62 34.62-2.91 34.62-2.91s11.03-2.53 18.41-4.931c7.37-2.409 40.55-10.56 79.11-43.19 38.56-32.63 51.14-82.06 51.14-82.06s7.07-22.569 7.07-59.219c-.01-33.13-12.63-82.34-46.63-115v-.01Z"/><path fill="#FFDAC6" d="M216.941 272.024s5.3-3.13 8.62-2.51c3.32.62 22.47 3.78 41.51 1.83 19.04-1.95 25.17-4.04 25.17-4.04l8.48-1.43.02-114.88s15.28.78 21.6-1.57c6.33-2.35 8.61-4.99 8.61-4.99s2.22-3.49 2.05-7c-.17-3.51.91-58.85.91-58.85v-28.58s2.25-13.21-14.14-15.76h-23.48s-55.17.11-82.3 4.68c-13.04 3.91-17.57 9.7-20 13.73-2.42 4.04-2.39 12.75-3.35 20.44-.96 7.69-1.75 43.83-1.75 43.83s.5 21.22.54 24.54c.04 3.32-.36 8.8 4.19 11.88 4.55 3.08 13.16 4.5 13.16 4.5l9.1.88s2.93-.24 3.47.83c.54 1.07.68 1.29.68 1.29l-2.29 82.97-.8 28.22v-.01Z"/><path fill="#D09AFF" d="M334.841 72.354h11.74s6.43-15.03 18.91-11.87c17.38 4.4 17.35 31.3 2.35 36.52-15 5.22-20.87-13.3-20.87-13.3h-12.91M334.061 117.354h11.74s6.43-15.03 18.91-11.87c17.38 4.4 17.35 31.3 2.35 36.52-15 5.22-20.87-13.3-20.87-13.3h-12.13"/><path fill="#1A7F43" d="M714.531 192.264c.6-.06 1.2-.09 1.81-.09 9.78 0 17.71 7.93 17.71 17.71 0 9.78-7.93 17.71-17.71 17.71-4.6 0-8.79-1.75-11.93-4.62M844.431 258.384c9.781 0 17.71-7.929 17.71-17.71s-7.929-17.71-17.71-17.71-17.71 7.929-17.71 17.71 7.929 17.71 17.71 17.71Z"/><path fill="#FFBB95" d="M204.591 42.364s-10.83 5.41-12.72 15.52c-1.89 10.11-3.04 53.8-2.86 61.89.18 8.09-.93 28.66 3.18 32.67 4.11 4.01 16.18 5.48 21.33 5.97 5.15.49 6.5.61 6.5 2.41 0 1.8-.82 34.86-.82 34.86l-2.05 75.52s4.85-1.64 6.39-1.7l1.54-.06 2.54-74.67 1.71-39.35s.64-6.07-3.86-6.6c-4.5-.53-11.64-.59-11.64-.59s-10.4-1.08-11.58-4.47c-1.18-3.39-3.07-33.52-3.07-33.52l1.09-35.43s1.65-28.29 4.33-32.46l-.01.01Z"/><path fill="#D09AFF" d="M190.391 75.614h-7.29s-6.43-15.03-18.91-11.87c-17.38 4.4-17.35 31.3-2.35 36.52 15 5.22 20.87-13.3 20.87-13.3h7.67c3 0 5.46-2.37 5.6-5.37v-.15c.12-3.18-2.42-5.83-5.6-5.83h.01ZM190.391 120.614h-7.29s-6.43-15.03-18.91-11.87c-17.38 4.4-17.35 31.3-2.35 36.52 15 5.22 20.87-13.3 20.87-13.3h7.67c3 0 5.46-2.37 5.6-5.37v-.15c.12-3.18-2.42-5.83-5.6-5.83h.01Z"/><path fill="#FFEEE6" d="m200.361 126.834 100.96-92.83s15.71-.17 19.95 1.05c4.49 1.3 8.27 3.26 8.27 3.26l-114.32 109.54s-11.98-.26-12.98-4.09-1.89-16.94-1.89-16.94"/><path fill="#FFF4EB" d="m253.641 35.644-53.28 42.95s1.06-34.31 5.94-36.87c4.88-2.56 29.01-6.21 47.34-6.08Z"/><path fill="#FFEEE6" d="m296.552 266.724-1.04-115.06h5.23l-.02 114.2-4.17.86Z"/><path fill="#A238FF" d="M743.531 103.124s-2.03 10.15 25.95 17.09c27.98 6.94 47.83 9.11 71.9 8.93 24.07-.18 52.63-1.23 75.62-6.21 22.99-4.98 29.84-10.6 29.84-10.6s7.57-4.07 8.25-9.2c.68-5.13-18.85-15.73-36.61-19.83-17.76-4.1-60.15-6.19-71.47-5.69-11.31.49-38.89-.46-77.54 8.23-20.45 6.22-25.08 14.63-25.95 17.29l.01-.01Z"/><path fill="#FFC261" d="M923.811.704c-34.05-.54-52.21 26.03-60.67 66.97 0 0-5.56-8.26-15.59-6.48-10.03 1.78-13.22 8.68-13.22 8.68l.26-2.41s-9.06-68.21-65.11-64.49c0 0-25.15.97-35.81 24.79-10.66 23.82-5.46 51.78 4.04 67.13 9.5 15.35 20.85 17.05 29.32 18.22 8.48 1.17 17.61-1.3 17.61-1.3s8.22-2.48 15.39-4.83 12.48-5.37 12.48-5.37l11.99-7.22-2.82 3.59s-19.53 21.68-22.27 25.6c-2.74 3.91-6.46 15.16-6.46 15.16s-7.01 18.72-9.1 30.59c-2.09 11.87-2.69 20.87-2.69 20.87v3.35s10.25-13.79 13.38-16.66c3.13-2.87 4.17-3.78 4.17-3.78s.78.13 1.04.91 6.13 9 7.3 12.78c1.17 3.78 1.83 8.09 1.83 8.09l.78-1.57 8.8-45s3.46-15.39 7.63-21.13c4.17-5.74 12.39-19.43 12.39-19.43l7.96-13.37h1.43l8.92 15.98 11.17 17.22 1.7 2.87s3.39 9.39 4.7 14.61c1.3 5.22 2.61 12.91 2.61 12.91l5.35 24.91 1.97 12s2.86-10.57 10.16-21.91c0 0 10.11 7.63 17.93 19.96 0 0 .2-5.09-1.17-13.89-1.37-8.8-8.54-40.5-15.98-54.07-5.87-9.78-24.23-30.18-24.23-30.18l-7.88-9.22.77-1.16s14.89 15.52 40.33 22.57c23.87 7.53 35.74 2.48 35.74 2.48s14.15-3.98 19.96-15.68c5.8-11.69 9.69-20.46 10.91-40.93 1.22-20.48-12.99-51.61-47.04-52.15l.02-.01Zm-98.99 79.8c-.22.84-4.77 4.34-6.43 5.42-1.66 1.08-8.8 3.33-8.8 3.33s-28.57 6.07-42.26-4.4c-13.7-10.47-17.71-24.46-13.99-37.66 3.72-13.21 25.24-20.54 44.79-8.26 19.55 12.29 26.92 40.05 26.92 40.05s0 .68-.22 1.53l-.01-.01Zm93.71 7.25c-14.74 2.8-21.52.91-21.52.91l-10.83-1.96-10.89-5.14s-2.82-3.2-2.26-4.54c0 0 6.01-25.04 25.47-38.93 19.47-13.89 43.73-7.14 47.74 10.76 4.01 17.9-12.98 36.1-27.72 38.9h.01Z"/><path fill="#EE9043" d="M834.771 68.594s-3.56-20.66-14.59-39.52c-11.02-18.86-26.57-22.67-26.57-22.67s31.54 20.82 29.17 43.32c-.74 7.05-21.79-8.82-21.79-8.82s16.05 11.1 24.04 38.07c.11 2.94-5.02 5.8-5.02 5.8l-8.05 3.37s12.72-3.46 14.09-1.17c1.37 2.28-9.85 12.43-9.85 12.43s10.89-7.21 16.83-12.63c0 0-4.77-8.02 1.74-18.18Z"/><path fill="#EE9043" d="M832.561 87.194s-20.82 20.84-26.89 28.27-7.04 9.2-8.02 11.93c0 0 3.42-3.91 8.71-3.52 5.28.39 15.16 2.25 16.43 3.03 1.27.78.88 4.3.88 4.3s12.57-19.81 13.8-21.85c1.23-2.04 7.43-12.34 7.43-12.34l1.56-2.62s-7.14.26-13.9-7.21v.01ZM847.671 94.404l21.21 34.75s.94-3.64 5.56-5.18c12.33-4.11 14.67-1.57 16.14-1.17 1.47.39 4.7 3.11 4.7 3.11s-6.55-10.74-10.91-15.54c-4.35-4.79-12.9-15.07-12.9-15.07l-8.48-9.39s-3.85 8.59-15.33 8.48l.01.01ZM863.141 67.684s5.49-32.43 21.41-48.86c0 0 4.96-5.35 8.87-8.35 3.91-3 7.04-4.43 7.04-4.43s-16.17 20.48-13.96 28.3c2.22 7.83 20.74-1.37 20.74-1.37s-25.84 11.48-34.21 44.05c0 4.89 7.77 8.51 18.33 10.86 10.57 2.35 23.37.52 23.37.52s-15.38 6.38-31.59 2.6c-16.2-3.78 3.72 8.72 3.72 8.72s-9.9-3.2-22.95-15.29c0 0 3.19-7.7-.77-16.74v-.01Z"/><path fill="#FFBB95" d="m225.761 269.204-.44-.26v-11.23s2.59 8.61 23.53 10.57c20.93 1.96 42.2-.64 42.2-.64s-42.2 8.36-65.29 1.57v-.01Z"/><path fill="#FFEEE6" d="m333.732 54.814-96.72 96.63h13.63l83.44-83.32-.35-13.31Z"/><path fill="#EE9043" d="M775.381 32.794s-23.58-3.6-29.97 15.37c-5.95 17.67 7.53 35.48 27.62 39.91 0 0-22.46-11.87-21.01-31.43 1.45-19.57 9.4-20.31 23.36-23.85Z"/><path fill="#6E14BD" d="m830.741 128.704 15.72-29.74 17.81 29.51 4.61-.01-21.62-34.06h-.8l-19.79 32.08-.78 1.23v.99h4.85ZM743.991 104.704s7.82 18.18 36.24 13.3c27.26-4.68 36.85-14.89 36.85-14.89l6.28-7.27s-31 19.26-54.29 17.48c-20.95-1.84-25.07-10.84-25.07-10.84s-.8 1.24 0 2.22h-.01ZM863.921 84.424l-.77 1.16s24.6 30.86 69.8 32.23c10.17 0 20.26-9.35 20.83-11.46.57-2.11 1.06-4.22 1.06-4.22l-.53-1.02s-9.68 10.47-26.7 10.06c-17.02-.41-35.48-8.37-35.48-8.37s-16.17-8.48-21.52-12.85c-5.35-4.37-6.68-5.54-6.68-5.54l-.01.01Z"/><path fill="#FBBBFF" d="m216.941 272.024-.72 18.07s3.71.39 5.77-1.17c2.06-1.57 2.25-2.3 2.25-2.3l.84-17.16s-5.07-.29-8.14 2.57v-.01Z"/><path fill="#D09AFF" d="M728.491 149.124s4.5-14.67 21.71-17.9c17.22-3.23 33.85 1.57 35.22 8.95 1.37 7.38-1.92 31.25-1.92 31.25s9.57-33.53 12.09-39.51c2.53-5.99 2.37-5.8 2.37-5.8s-43.32-4.37-55-21.26c.53.73-14.48 44.28-14.48 44.28l.01-.01ZM809.421 194.904s16.82-51.29 23.86-53.9c7.04-2.61 26.2-2.05 29.85.95 3.65 3 21.16 52.96 21.16 52.96s-9.9-57.75-15.42-66.44c-3.48.38-27.5.69-27.5.69l-13.31-.17-3.25-.17s-2.86 6.06-3.98 10.77-11.42 55.32-11.42 55.32l.01-.01Z"/><path fill="#EAD1FF" d="M161.391 92.884c3.999 0 7.24-4.76 7.24-10.63 0-5.871-3.241-10.63-7.24-10.63-3.998 0-7.24 4.759-7.24 10.63 0 5.87 3.242 10.63 7.24 10.63ZM162.431 137.464c3.999 0 7.24-4.76 7.24-10.63 0-5.871-3.241-10.63-7.24-10.63-3.998 0-7.24 4.759-7.24 10.63 0 5.87 3.242 10.63 7.24 10.63ZM368.341 89.114c3.999 0 7.24-4.76 7.24-10.63 0-5.871-3.241-10.63-7.24-10.63-3.998 0-7.24 4.759-7.24 10.63 0 5.87 3.242 10.63 7.24 10.63ZM369.381 133.694c3.999 0 7.24-4.76 7.24-10.63 0-5.871-3.241-10.63-7.24-10.63-3.998 0-7.24 4.759-7.24 10.63 0 5.87 3.242 10.63 7.24 10.63Z"/><path fill="#A238FF" d="M709.991 651.814v34.7s1.27 39.78 140.68 38.19c0 0 44.51-.56 79.73-11.33 35.02-9.39 48.72-18.39 48.72-18.39l13.29-9.05s8.359-7.25 10.449-15.21c2.09-7.96 1.28-21.24 1.28-21.24l-1.11-12.02-1.73 2.87s-3.649 18.26-47.609 31.3-77.35 15.13-77.35 15.13-142.77 12.65-166.34-34.96l-.01.01Z"/><mask id="a" width="431" height="753" x="0" y="35" maskUnits="userSpaceOnUse" style="mask-type:luminance"><path fill="#fff" d="M383.391 478.094c-6.93-6.66-12.59-14.09-12.59-14.09s-2.88-3.5-3.86-15.53 14.62-29.82 14.62-29.82l11.23-12.97s31.09-30.29 4.39-73.74c-34.52-47.16-97.05-38.82-97.05-38.82l.09-141.07s6.16.2 11.15-.2c4.99-.39 11.25-.88 16.53-3.91 5.28-3.03 4.63-16.54 4.63-16.54s.43-75.62.31-82.66c-.12-7.05-4.75-11.44-11.47-12.95-6.72-1.51-21.26.04-41.71-.58s-57.93 3.15-63.51 3.98c-5.58.83-2.58.48-11.51 3.73-13.25 6.55-14.12 19.56-14.12 19.56s-1.71 13.04-2.28 34.69c-.57 21.65.48 46.1.93 50.49.45 4.39 1.18 4.11 5.38 7.73s18.98 3.94 18.98 3.94 2.55.1 4.37.44c1.82.34 1.35 3.72 1.35 3.72l-3.6 127.72-1.92.08-22.29 2.59s-.79.1-20.81 3.41c-25.6 5.06-45.52 14.8-66.95 28.11-21.43 13.31-32.25 29.77-35.43 54.18-3.18 24.41 11.62 40.75 18.96 49.72 7.34 8.97 11.45 16.44 12.44 18.87.99 2.43 1 6.85-1.45 13.94-2.44 7.09-21.48 20.08-21.48 20.08s-42.07 32.63-63.04 87.25c-16.53 47.51-12.96 69.72-12.96 69.72 1.18-.02-2.96 52.08 32.76 93.43 40.31 42.12 142.22 54.26 142.22 54.26l17.95.27s15.34.02 46.01-1.71c28.86-1.62 34.62-2.91 34.62-2.91s11.03-2.53 18.41-4.93c7.37-2.41 40.55-10.56 79.11-43.19 38.56-32.63 51.14-82.06 51.14-82.06s7.07-22.57 7.07-59.22c-.01-33.13-12.63-82.34-46.63-115l.01-.01Z"/></mask><g stroke="#C376FF" stroke-miterlimit="10" stroke-width="9" mask="url(#a)"><path d="m40.601 383.634 372.02-120.21M40.601 356.513l372.02-120.21M43.761 411.183l372.02-120.21M49.311 435.453l372.02-120.21M49.311 466.073l372.02-120.209M49.311 493.293l372.02-120.21M24.951 534.103l372.02-120.21M-13.029 574.953l413.16-133.5M-10.109 600.073l415.79-134.35M-10.109 630.693l422.73-136.599M-10.109 657.913l434.91-140.54M-5.729 690.423l435.75-145.57M10.971 718.633l427.04-143.68M33.401 742.074l400.11-133.92M57.701 760.214l375.81-121.44M75.811 781.583l357.7-115.59M108.801 803.864l300.35-97.05M112.271 826.444l300.35-97.06"/></g><path fill="#EAD1FF" d="M9.171 694.124c-15.62-40.09-4.6-91.111-4.6-91.111s5.28-31.02 20.8-57.76 30.65-45.329 39.65-53.149 22.18-18.081 22.18-18.081l7.57-6.679s10.85-9.281 2.43-23.761c-8.41-14.479-16.7-22.979-16.7-22.979s-16.16-17.38-10.02-50.32c6.14-32.94 44.67-55.101 69.1-64.271 19.26-6.63 31.41-9.43 31.41-9.43l6.46-1.239s-49.57 10.429-62.35 52.429c-6.91 22.7 1.83 42.391 1.83 42.391l7.18 10.77s17.8 19.169 22.88 28.269c5.09 9.1 6.07 11.641 6.07 11.641s3.14 9.08 2.16 13.88c-.98 4.8-.72 10.699-17.55 24.659-14.45 11.24-28.3 20.481-28.3 20.481s-43.37 29.8-57.85 82.24c-14.48 52.43-6.32 97.11 11.68 125.219 0 0 15.87 28.431 51.37 49.271s69.28 26.32 69.28 26.32l15.51 2.539s-42.19 3.66-96.66-12.169c-48.83-16.201-66.5-38.031-66.5-38.031s-6.66-6.24-11.02-12.36c-4.36-6.12-13.6-22.95-13.6-22.95l-2.42-5.81.01-.009Z"/><path fill="#B888E2" d="M38.571 524.213s38.02-39.93 61.51-43.53c3.26-.5 6.2-.73 8.78-.8 10.65-.29 20.99-3.67 29.55-10.01 3.11-2.31 5.7-4.55 6.74-6.25 3.52-5.77 3.95-9.32 3.95-9.32l-5.26 1.23s-37.98 9.2-48.09 11.17c0 .62-17.42 14.35-17.42 14.35s-27.32 23.42-39.75 43.15l-.01.01ZM98.92 448.173s-2.07-8.15-13.88-21.54c-11.8-13.38-12.59-17.97-15.33-29.83 0 0 14.74 24.63 33.391 28.69 18.65 4.06 21.59-14.59 21.59-14.59s13.23 10.75 20.02 24.61l-45.8 12.66h.01Z"/><path fill="#FBF8FF" d="M25.38 545.253s-15.21 26.81-19.83 53.87c-4.61 27.06 24.03 43.68 38.62 30.35 0 0-.06-34.27 16.17-70.66 0 0-14.39 24.85-27.65 22.5-13.26-2.35-7.32-36.07-7.32-36.07l.01.01ZM.731 639.154s13.23 9.4 26.08 9.79c12.85.39 17.36-1.83 17.36-1.83l1.22 8.35s-28.38 7.44-44.54-7.96l-.12-8.36v.01Z"/><path fill="#B888E2" d="M28.42 726.834s19.08 18.38 32.7 11.98c10.29-4.84 9.59-21.33 9.59-21.33s42.261 61.11 131.671 67.92h12.52s-128.14 11.35-186.48-58.58M170.271 297.374s-37.23 5.14-71.83 31.65c-5.05 3.62-10.92 8.9-10.92 8.9l-8.15 10.34s17.74-18.95 31.83-22.47c14.09-3.52 7.63 12.52 7.63 12.52s18.03-30.43 51.44-40.94Z"/><path fill="#1A7F43" d="M98.921 448.174s2.74 6.32.73 10.81c-2.01 4.5-2.98 6.6-2.98 6.6l-.93 1.12 51.07-11.98 7.78-1.78 1.35-.04s12.13-1.17 19.83-1.04c7.7.13 8.55-.06 8.55-.06l.7.04s3.08 27.93 9.15 35.37c6.07 7.43 17.4 1.18 17.4 1.18l10.43-6.06 5.31-3.39s-17.09 19.23-28.63 41.33c-11.54 22.11-16.24 47.93-16.24 47.93s-2.83 17.86-2.88 30.71c.08.65.14 1.18.14 1.18s9.88-20.93 18.49-30.33c.2.59.39 7.14.39 7.14s1.76 21.62 2.84 26.51l1.08 4.89s2.25-7.73 4.7-16.43c2.45-8.71 13.99-49.21 22.11-70.24 8.12-21.03 20.45-43.83 20.45-43.83l9.39-13.98 2.03-2.77s22.13 24.62 37.05 67.19c6.32 14.66 10.82 30.24 10.82 30.24l9.26 29.61 6.29 23.74s2.05-10.17 3.33-18.49c1.27-8.32 1.47-20.45 1.47-20.45s11.54 14.22 18.46 29.74c0 0-.13-8.09-1.04-17.09s-4.43-37.7-23.22-71.35c-13.66-20.01-15.33-22.11-15.33-22.11l-7.24-8.22-2.77-3.26s8.02 8.41 18.13 9.68c10.11 1.27 17.27-5.3 20.25-11.71 2.98-6.41 5.28-13.7 6.26-19.57.98-5.87 1.37-8.67 1.37-8.67s14.47-.12 23.77 1.41c0 0-.41-7.12.49-10.28.91-3.17 2.1-5.97 2.1-5.97s-17.03-2.83-24.4-1.79l-.58-.2s1.26-40.72-11.75-50.99c-13.01-10.27-29.25 3.52-41.28 15.85-11.02 12.46-18.07 27.12-18.07 27.12s-3.1-5.1-13.14-4.42c-10.04.68-11.28 3.13-11.28 3.13s-13.34-39.46-32.38-43.04c-19.04-3.59-28.75 13.08-32.41 52.03l-1.43.25-33.24 1.09-51.7 13.64-.05.01Z"/><path fill="#0F4C27" d="M170.241 433.564s6.83-.15 10.35 5.55c3.52 5.7-6.13 12.58-6.13 12.58l10.55.14.26-17.85-15.02-.42h-.01ZM250.141 425.494s-9.74-29.05-22.1-38.39c-12.36-9.34-21.25-5.47-21.25-5.47s17.86 8.13 24.72 20.91c6.86 12.78-5.8 15-5.8 15s16.83 6 14.35 14.67c-1.11 3.88-12.78 6.89-12.78 6.89s10.46-.3 12.21 2.96-4.38 9-4.38 9 11.87-4.04 13.7 0-16.43 22.3-16.43 22.3l21.61-21.06s-1.73-18.23-3.84-26.82l-.01.01ZM273.721 424.564s17.74-29.58 32.22-38.58c0 0-17.869 22.17-13.369 25.96 4.5 3.78 10.109 2.09 10.109 2.09s-17.74 11.09-15.13 14.48c2.61 3.39 6.78 3.72 6.78 3.72s-10.059 4.76-9.069 7.76c.99 3 7.31 5.74 7.31 5.74s-8.41 5.09-5.28 14.61 14.609 23.35 14.609 23.35-12.88-8.71-27.18-31.94c.18-.67 3.83-20.04-1-27.18v-.01ZM254.611 451.734s3.65 5.38 9.46 5.43c-.85 1.16-8.09 11.2-10.5 14.66-2.41 3.46-14.32 25.9-19.01 37.11-4.69 11.21-5.01 12.01-5.01 12.01s15.67-42.04 13.91-46.93c-1.76-4.89-27.85 19.58-27.85 19.58s8.94-12.51 12.07-15.51c3.13-3 11.54-10.63 15.33-13.96 3.78-3.33 9.67-10.17 9.67-10.17l1.94-2.22h-.01Z"/><path fill="#0F4C27" d="M261.721 461.384s17.6 21.84 26.29 42.29c8.69 20.45 9.15 20.42 9.15 20.42s-18.11-42.97-15.49-50.71c2.62-7.74 19.9 11.18 19.9 11.18s-16.79-18.58-19.33-22.06c-2.54-3.47-7.04-10.27-7.04-10.27s-2.15 3.38-4.55 3.91c-2.4.53-4.21.88-4.21.88l-2.38.13-2.35 4.22.01.01Z"/><path fill="#9749DA" d="M179.681 600.104s9.39-19.05 13.51-24.36c4.12-5.31 5.12-6.36 5.12-6.36s.35 26.61 4.16 38.93c0 0 13.39-49.44 22.34-74.24 8.94-24.8 18.65-45.21 18.65-45.21s11.38-19.24 14.63-23.41l3.25-4.18s19.95 23.32 30.78 51.62l11.48 30 10.75 32.66 3.86 13.64 4.57 16.43 1.79 6.2s2.26-8.4 3.09-16.97c.83-8.57 1.61-22.46 1.61-22.46s13.7 18.49 18.29 31.01c0 0-9-15.07-15.46-20.93 0 0-1.76 37.56-11.54 49.76 0 0-32.86-118.04-59.41-156.13 0 0-38.97 78-54.35 146.48l-2.2 11.09s-13.57-21.91-12.39-41.87l-12.52 21.13s-2.09-7.04 0-12.85l-.01.02ZM155.411 452.943s17.62-1.26 29.6-1.11c0 0 1.6 36.47 14.9 38.79 5.47 0 9.46-2.07 16.42-4.72 6.53-3.38 9.95-6.32 9.95-6.32s-19.49 27.6-33.45 27.45c-14.47-.16-15.08-49.88-15.08-49.88s-14.93-.89-22.35 0v-4.21h.01ZM301.901 483.684s11.32 17.71 24.42 17.71c13.1 0 21.23-22.24 22.53-44.23 0-4.21 2.71-6.58 6.52-6.56 3.81.02-10.86-.96-10.86-.96s-2.45 38.61-23.05 40.57c-6.91 1.04-18.26-3.65-19.57-6.52l.01-.01Z"/><path fill="#0F4C27" d="M99.27 448.464s2.611 5.06.39 10.52c-2.22 5.46-3.91 7.73-3.91 7.73l11.481-2.2 28.09-6.92 13.79-3.28 6.31-1.36s-2.04-11.91-5.37-18.37l-27.59 7.34-23.18 6.55-.01-.01Z"/><path fill="#950800" d="M168.781 844.473c27.476 0 49.75-3.68 49.75-8.22 0-4.539-22.274-8.22-49.75-8.22s-49.75 3.681-49.75 8.22c0 4.54 22.274 8.22 49.75 8.22ZM917.001 825.203c27.476 0 49.75-3.68 49.75-8.22 0-4.539-22.274-8.22-49.75-8.22s-49.75 3.681-49.75 8.22c0 4.54 22.274 8.22 49.75 8.22Z"/><path fill="#D09AFF" d="m768.971 608.454 62.27 33.12-.92-28.55-32.89-11.19-28.46 6.62Z"/><path fill="#FBF8FF" d="M912.601 596.234s53.92 4.45 76.99 20.11c23.949 15.66 6.15 32.48 6.15 32.48s-14.02 22.43-107.67 36.52c0 0-37.53 3.56-63 3.18-25.47-.38-59.9-3.22-88.37-14.47-28.47-11.25-27.87-24.4-25.48-31.67 2.39-7.27 12.9-14.28 16.78-16.66 3.88-2.38 11.85-6.62 11.85-6.62s-27.6 15.23-23.1 31.47 67.16 33.26 131.28 30.53c64.76-2.75 130.04-20.92 144.13-39.53 14.089-18.62-21.24-38.85-79.55-45.35l-.01.01Z"/><path fill="#6E14BD" d="m789.801 722.664 6.47.5 1.58-36.28s-37.21-4.54-52.21-9.62c-15-5.09-18.87-8.43-22.11-10.3-3.24-1.87-5.17-3.37-6.92-5.02-1.74-1.65-3.68-4.42-3.68-4.42l-1.96-2.86-.23.2-.65 32.44s.82 11.94 23.44 22.05c18.11 6.08 26.44 8.06 26.44 8.06l13.77 2.67 19.49 2.86M825.491 324.424s.23-.85.96-2.06c5.78-9.58 20.57-5.76 21.33 5.4 4.33 63.23 5.78 320.5 5.78 320.5s9.3-2.3 10.15-7.87l-6.23-335.31h-27.46l-4.53.13v19.21Z"/><path fill="#FBFFB7" d="m826.421 365.363.46 28.16s24.65-4.03 32.44-14.08l-.67-26.74s-14.6 13.32-32.23 12.66Z"/><path fill="#DDB3FF" d="m828.361 490.554.46 28.16s24.65-4.03 32.44-14.08l-.39-26.96s-14.88 13.54-32.5 12.88h-.01ZM829.931 578.874l.46 28.16s24.44-3.94 32.23-13.99l-.44-26.95s-14.62 13.44-32.24 12.78h-.01Z"/><path fill="#FBFFB7" d="m827.831 451.394.4 28.16s24.03-3.76 31.81-13.81v-26.74s-14.59 13.06-32.21 12.4v-.01ZM829.391 536.693l.4 28.16s24.03-3.76 31.81-13.81v-26.74s-14.59 13.06-32.21 12.4v-.01Z"/><path fill="#DDB3FF" d="m827.121 412.054.46 28.13s24.7-4.05 32.49-14.1l-.75-26.42s-14.58 13.06-32.2 12.39Z"/><path fill="#E6E08A" d="m849.241 358.573.81 26.8s7.83-4.54 8.74-6.49l-.48-25.89-9.07 5.58ZM851.311 444.394l.45 27.67s7.12-5.22 8.04-7.17l-.48-25.89-8.01 5.39ZM852.531 530.314l.29 26.56s8.25-4.5 9.16-6.46l-.37-26.12-9.08 6.02Z"/><path fill="#E251FF" d="m852.971 572.364.25 27.2s8.19-4.81 9.1-6.77l-.48-25.89-8.87 5.46ZM850.541 405.574l.55 26.63s4.39-1.99 8.23-6.43c.75.3 0-26.12 0-26.12s-8.81 4.81-8.78 5.92ZM851.921 483.544l.36 26.56s4.51-1.88 8.35-6.31c.75.3 0-26.12 0-26.12s-8.74 4.76-8.71 5.87Z"/><path fill="#0F4C27" d="M357.431 433.813s-6.81 2.13-7.2 8.13c-.39 6 5.91 8.53 5.91 8.53l-11.19-.8.97-15.71s3.49-1.2 11.51-.14"/><path fill="#FBF8FF" d="M688.891 270.234s-1.1 3.32-.85 5.37c.24 2.05 2.68 4 5.14 4.99 2.45.99 30.58 10.13 52.02 14.59 9.44 1.87 47.53 10.78 98.4 9.9 50.87-.88 92.11-8.63 113.23-13.92 21.12-5.29 32.8-9.27 32.8-9.27s8.87-2.35 10.17-5.61c1.299-3.26-2.48-15.55-2.48-15.55s3.259 11.77-4.5 15.55c-7.76 3.78-77.13 23.41-149.94 24.13-65.98.65-144.32-21.2-149.02-24.33-4.7-3.13-2.15-13.11-2.15-13.11l-2.82 7.25v.01Z"/><path fill="#1A7F43" d="M755.361 297.154c-.01-.28-.02-.56-.02-.85 0-9.78 7.93-17.71 17.71-17.71 9.78 0 17.71 7.93 17.71 17.71 0 2.11-.37 4.139-1.05 6.019"/><path fill="#21A657" d="M756.331 291.824s21.22 4.18 33.93 5.3c0 .49-1.17 4.65-1.17 4.65s-23.98-2.85-28.42-3.9c-4.43-1.04-4.99-1.08-4.99-1.08s-.07-2.55.65-4.98v.01Z"/><path fill="#A238FF" d="M392.681 613.334c3.39 22.96 19.1 117.08-91.1 160.81 0 0 30.81-10.01 59.52-31.21 22.97-18.07 26.75-24.17 26.75-24.17l4.83-105.42v-.01ZM145.122 771.424s-31.66-42.211 15.39-77.691c47.05-35.47 115.43 34.31 91.98 90.04 0 0-44.5 6.43-107.37-12.36v.011Z"/><path fill="#21A657" d="M368.241 435.514s-4.45 9.36-1.96 15.39c.2 0 1.32.3 1.32.3s-.1-7.29.98-10.52c1.08-3.23 2-4.55 2-4.55l-2.34-.63v.01Z"/><path fill="#950800" d="M312.922 827.913c9.615 0 17.41-2.458 17.41-5.49s-7.795-5.49-17.41-5.49c-9.616 0-17.41 2.458-17.41 5.49s7.794 5.49 17.41 5.49ZM379.681 844.753c9.616 0 17.41-2.458 17.41-5.49s-7.794-5.49-17.41-5.49c-9.615 0-17.41 2.458-17.41 5.49s7.795 5.49 17.41 5.49ZM807.172 805.373c9.615 0 17.41-2.458 17.41-5.49s-7.795-5.49-17.41-5.49c-9.616 0-17.41 2.458-17.41 5.49s7.794 5.49 17.41 5.49ZM36.662 828.743c9.615 0 17.41-2.458 17.41-5.49s-7.795-5.49-17.41-5.49-17.41 2.458-17.41 5.49 7.795 5.49 17.41 5.49ZM727.512 843.583c9.615 0 17.41-2.458 17.41-5.49s-7.795-5.49-17.41-5.49c-9.616 0-17.41 2.458-17.41 5.49s7.794 5.49 17.41 5.49Z"/><path stroke="#14041E" stroke-linecap="round" stroke-linejoin="round" stroke-width="1.4" d="M277.702 781.073s-6.78 2.27-53.89 4.6c-58.43 4.17-184.7-35.48-179.48-156.52 5.22-121.04 95.54-136.97 109.04-167.09 6.07-13.54-3.39-29.55-11.31-40.21-11.17-15.04-25.7-25.18-28.61-44.8-7.33-49.42 36.16-79.34 79.82-84.17 8.45-.94 17.15-2.66 25.7-2.58 3.03.03 5.51-2.39 5.6-5.42.7-21.78 3.22-99.63 4.64-131.26.12-2.7-2.01-4.95-4.7-4.99-6.62-.1-17.96-.69-21.57-3.4-5.22-3.91-4.43-94.43 2.09-102.78 6.52-8.35 83.48-8.09 104.87-8.61 21.39-.52 23.41 8.48 23.67 12.65.26 4.17.98 80.41-.98 93.91s-31.7 10.37-31.7 10.37v141.46c10.26-1.17 16.76-.5 27.01.64 43.67 4.84 87.15 34.75 79.82 84.17-2.91 19.62-17.43 29.76-28.61 44.8-2.62 3.53-5.41 7.64-7.75 12.06-6.47 12.21-3.97 27.25 5.99 36.83 3.12 3 6.85 6.58 10.88 10.63 30.83 30.95 42.11 73.8 42.53 117.49.6 63.26-31.69 152.02-153.07 182.22h.01Z"/><path stroke="#14041E" stroke-linecap="round" stroke-linejoin="round" stroke-width="1.4" d="M182.362 294.623s-48.95 4.66-90.43 39.37c-25.41 21.26-31.7 63.25-10.3 88.56 21.39 25.3 26.61 36.52 4.43 52.17-22.17 15.65-87.65 74.54-85.3 172.79 2.35 98.25 88.43 144.42 223.04 138.16M189.021 131.723c.22 9.39.76 16.44 1.73 18.48 3.2 6.77 17.49 8.16 26.76 8.38 1.43.03 2.56 1.22 2.52 2.65-.5 18.53-3.6 129.12-3.6 129.12M189.621 86.903c-.44 10.68-.72 22.17-.72 32.87M205.821 41.723s-11.36 5.37-13.9 16.13c-.63 2.65-1.23 8.57-1.73 16.97"/><path stroke="#14041E" stroke-linecap="round" stroke-linejoin="round" stroke-width="1.4" d="M190.402 75.193h-7.29s-6.43-15.03-18.91-11.87c-17.38 4.4-17.35 31.3-2.35 36.52 15 5.22 20.87-13.3 20.87-13.3h7.67c3 0 5.46-2.37 5.6-5.37v-.15c.12-3.18-2.42-5.83-5.6-5.83h.01ZM190.402 120.193h-7.29s-6.43-15.03-18.91-11.87c-17.38 4.4-17.35 31.3-2.35 36.52 15 5.22 20.87-13.3 20.87-13.3h7.67c3 0 5.46-2.37 5.6-5.37v-.15c.12-3.18-2.42-5.83-5.6-5.83h.01ZM334.862 71.933h11.74s6.43-15.03 18.91-11.87c17.38 4.4 17.35 31.3 2.35 36.52-15 5.22-20.87-13.3-20.87-13.3h-12.91M334.082 116.933h11.74s6.43-15.03 18.91-11.87c17.38 4.4 17.35 31.3 2.35 36.52-15 5.22-20.87-13.3-20.87-13.3h-12.13M250.742 427.733s-16.83-55.96-44.22-46.17c-27.39 9.78-26.61 99.39-9 108s56.74-37.57 56.74-37.57M274.092 425.253s28.61-54.42 56.09-44.89c22.15 7.68 18.52 89.27 1.96 104.49-25.18 23.12-57.02-32.87-57.02-32.87"/><path stroke="#14041E" stroke-linecap="round" stroke-linejoin="round" stroke-width="1.4" d="M249.721 424.633s1.741-2.84 8.131-3.36c6.39-.52 13.039-.25 16.239 3.98 3.2 4.23 2.61 25.95-.78 29.41-3.39 3.46-17.999 5.02-19.959-6.98-1.96-12-1.261-18.71-3.631-23.05Z"/><path stroke="#14041E" stroke-linecap="round" stroke-linejoin="round" stroke-width="1.4" d="M230.372 475.823s-50.84 46.99-50.84 124.86c0 0 10.17-22.7 18.78-31.3 0 0 .78 30.13 4.7 39.91 0 0 23.09-109.17 61.43-152.14"/><path stroke="#14041E" stroke-linecap="round" stroke-linejoin="round" stroke-width="1.4" d="M261.141 461.063c38.35 42.96 63.25 151.19 63.25 151.19 3.91-9.78 4.7-39.91 4.7-39.91 8.61 8.61 18.78 31.3 18.78 31.3 0-77.87-50.86-123.85-50.86-123.85M150.132 434.533s23.51-1.6 35.13-.93M155.231 452.943s18.41-1.77 30.04-1.09M99.662 448.173s37.95-11.2 50.48-13.64M94.782 467.333s47.33-11.95 59.86-14.39M225.721 417.553s17.67 5.81 25.99 15.88M227.292 439.113s15.45-2.78 24.42-1.08M252.682 442.993s-11.3 4.17-17.56 8.08M275.471 429.123s13.38-11.18 27.21-15.09M276.191 437.223s11.69-4.4 18.14-4.99M276.202 442.993s11.68 2.54 16.37 2.73M345.601 433.433s8.1-.7 24.98 2.08M344.282 450.073s10.83-.21 23.71 1.68M228.792 151.443h72.11M228.792 178.203h72.11M227.612 205.603h73.29M226.242 235.863h74.66M185.262 432.673l-1.9 1.04M300.721 265.863s-20.74 4.57-39.78 5.87c-19.04 1.3-34.87-2.22-34.87-2.22s-3.86-1.13-9.13 2.51M743.532 103.123l-55.16 168.71a6.759 6.759 0 0 0 4.05 8.41c28.05 10.56 151.43 50.37 303.35-.32a6.775 6.775 0 0 0 4.408-8.18l-45.618-170.63"/><path stroke="#14041E" stroke-linecap="round" stroke-linejoin="round" stroke-width="1.4" d="M798.122 125.913c-32.55-4.43-54.59-12.98-54.59-22.79M868.882 128.693c-6.41.3-13.02.46-19.79.46-8.23 0-16.25-.23-23.94-.67M873.032 77.773c20.73 1.19 39.13 3.88 53.18 7.58M769.482 86.033c14.26-4.03 33.49-6.97 55.34-8.24M825.152 304.793l5.79 334.78c.02 1.43.56 2.8 1.52 3.86.03.03.06.07.09.1 4.49 4.81 11.21 6.82 17.68 5.61 12.59-2.34 13.47-8.75 13.47-8.75l-5.89-335.6"/><path stroke="#14041E" stroke-linecap="round" stroke-linejoin="round" stroke-width="1.4" d="M834.772 68.593s-8.88-65.38-58.96-65.9c-50.09-.52-60 60.52-36 95.48s85.04.09 93.39-11.43"/><path stroke="#14041E" stroke-linecap="round" stroke-linejoin="round" stroke-width="1.4" d="M825.042 78.533s-13.89-48.91-50.87-45.59c-36.98 3.33-24.85 54.39 10.17 57.72 25.89 2.54 42.29-7.45 40.7-12.13ZM863.142 67.683s9.15-66.46 59.24-66.98c50.09-.52 60 60.52 36 95.48s-85.91-.59-94.26-12.11"/><path stroke="#14041E" stroke-linecap="round" stroke-linejoin="round" stroke-width="1.4" d="M873.142 76.553s13.89-48.91 50.87-45.59c36.98 3.33 24.85 54.39-10.17 57.72-25.89 2.54-42.29-7.45-40.7-12.13ZM859.672 64.303c-11.4-7.99-27.47-.25-28.16 13.66-.04.76-.04 1.54 0 2.34.59 12.52 16.83 18.23 26.8 10.78 9.98-7.45 8.41-21.73 1.57-26.63l-.21-.15Z"/><path stroke="#14041E" stroke-linecap="round" stroke-linejoin="round" stroke-width="1.4" d="M828.162 91.663s-26.73 26.31-30.04 34.26c-3.31 7.95-15.96 37.29-17.07 67.81 0 0 12.2-17.61 18.06-20.74 0 0 9 12.52 10.17 22.7 0 0 10.21-59.69 15.86-67.21 5.66-7.53 21.31-34.07 21.31-34.07M863.422 86.313s28.88 31.65 32.19 39.6c3.31 7.94 15.96 37.29 17.07 67.81 0 0-12.2-17.61-18.06-20.74 0 0-9 12.52-10.17 22.7 0 0-10.21-59.69-15.86-67.21-5.66-7.53-21.31-34.07-21.31-34.07M714.322 192.263c.6-.06 1.2-.09 1.81-.09 9.78 0 17.71 7.93 17.71 17.71 0 9.78-7.93 17.71-17.71 17.71-4.6 0-8.79-1.75-11.93-4.62M755.152 297.153c-.01-.28-.02-.56-.02-.85 0-9.78 7.93-17.71 17.71-17.71 9.78 0 17.71 7.93 17.71 17.71 0 2.11-.37 4.14-1.05 6.02M844.222 258.383c9.781 0 17.71-7.929 17.71-17.71s-7.929-17.71-17.71-17.71-17.71 7.929-17.71 17.71 7.929 17.71 17.71 17.71Z"/><path stroke="#14041E" stroke-linecap="round" stroke-linejoin="round" stroke-width="1.4" d="M837.472 91.073s-7.84 9.91-14.68 19.3M856.822 92.063s10.58 12.78 14.2 19.12M824.822 55.203s5.03 10.87 6.66 20.74M879.972 41.253s-10.03 15.13-14.86 32.35"/><path fill="#FCFF60" stroke="#14041E" stroke-linecap="round" stroke-linejoin="round" stroke-width="1.4" d="M439.412 176.993s98.68 16.17 101.33-95.43c0 0-.61 100.05 96.29 88.66 0 0-99.84 8.58-102.53 118.45 0 0 18.22-109.65-95.08-111.69l-.01.01ZM30.122 226.213s52.51 8.6 53.92-50.78c0 0-.33 53.24 51.24 47.18 0 0-53.13 4.57-54.56 63.03 0 0 9.7-58.35-50.6-59.43Z"/><path fill="#FFC261" d="M166.282 838.143c43.078 0 78-34.921 78-78 0-43.078-34.922-78-78-78s-78 34.922-78 78c0 43.079 34.922 78 78 78Z"/><path stroke="#14041E" stroke-linecap="round" stroke-linejoin="round" stroke-width="1.4" d="M166.282 838.113c43.078 0 78-34.921 78-77.999 0-43.079-34.922-78-78-78s-78 34.921-78 78c0 43.078 34.922 77.999 78 77.999Z"/><path fill="#fff" stroke="#14041E" stroke-linecap="round" stroke-linejoin="round" stroke-width="1.4" d="M126.032 712.063c-2.76.36-5.31-1.56-5.81-4.3-1.42-7.84-3.88-23.15-2.3-27.5 2.15-5.94 12.75-11.57 17.05-9.59 3.3 1.51 12.99 15.86 17.34 22.5 1.36 2.08 1.11 4.83-.64 6.6-3.99 4.03-12.33 10.56-25.65 12.3l.01-.01Z"/><path fill="#fff" stroke="#14041E" stroke-linecap="round" stroke-linejoin="round" stroke-width="1.4" d="M129.664 681.322c5.001-2.698 8.071-6.71 6.857-8.961-1.214-2.25-6.253-1.887-11.254.812-5.002 2.699-8.072 6.711-6.858 8.961 1.215 2.25 6.253 1.887 11.255-.812Z"/><path stroke="#14041E" stroke-linecap="round" stroke-linejoin="round" stroke-width="1.4" d="M123.292 683.893s2.1 16.12 5.42 27.75M129.401 681.813s5.37 14.59 9.21 26.9M134.762 678.033s9.09 12.71 14.12 24.3M240.532 152.103v119.1M255.401 152.103v119.1M270.072 152.103v118.57M285.721 152.103v116.47M227.612 150.443l-9.16 8.34"/><path fill="#fff" stroke="#14041E" stroke-linecap="round" stroke-linejoin="round" stroke-width="1.4" d="M102.592 783.553c3.26 9.36 8.91 18.81 15.92 25.84 5.59 5.61 13.16 9.79 21.17 10.25 6.62.39 14.99-2.5 13.68-10.82-.57-3.63-2.8-6.77-5.21-9.54-7.77-8.92-12.61-19.7-16.37-30.81-2.9-8.54-4.25-18.4-9.47-26.15-4.14-6.14-12.68-11.71-18.65-4.41-6.06 7.42-5.54 21.51-4.54 30.44.57 5.1 1.75 10.23 3.48 15.19l-.01.01ZM164.461 827.323c1.1.8 2.44 1.19 3.76 1.48 2.28.51 4.67.78 6.94.2 5.84-1.49 7.48-9.26 2.92-13.15-3.98-3.41-11.48-2.04-14.59 1.94-2.21 2.84-2.1 7.3.97 9.53Z"/><path stroke="#fff" stroke-linecap="round" stroke-linejoin="round" stroke-width="3" d="M73.642 544.203s-15.39 27.65-19.57 50.87M52.382 603.293s-2.87 12.39-2.74 22.57M49.632 632.253s-.52 12.78.66 18.91"/><path fill="#FFE2B6" d="M184.801 699.983c-2.71.5-5.46 1.54-7.24 3.65-1 1.19-1.62 2.64-2.15 4.09-1.64 4.5-2.46 9.63-.5 14.01 1.23 2.75 3.44 4.92 5.55 7.07 10.77 10.94 20.68 23.48 24.58 38.33 1.04 3.95 1.66 8.08 3.57 11.7 1.91 3.62 5.54 6.71 9.62 6.5 4.63-.23 8.04-4.48 9.92-8.72 3.56-8.04 3.92-17.14 3.34-25.92-.54-8.19-1.87-16.41-5.03-23.99-6.35-15.23-24.03-29.98-41.66-26.73v.01Z"/><path stroke="#14041E" stroke-linecap="round" stroke-linejoin="round" stroke-width="1.4" d="m826.132 364.873.46 28.16s24.65-4.03 32.44-14.08l-.38-26.74s-14.9 13.32-32.52 12.66ZM828.362 489.943l.48 28.14s24.33-3.89 32.12-13.94l-.39-26.96s-14.58 13.42-32.21 12.76ZM829.932 578.263l.45 28.16s24.16-3.82 31.94-13.87l-.44-26.95s-14.33 13.32-31.95 12.66ZM827.832 450.793l.46 28.12s23.68-3.61 31.46-13.66v-26.74s-14.3 12.95-31.92 12.29v-.01ZM829.392 536.093l.25 28.21s24.73-4.06 32.51-14.11l-.47-26.52s-14.67 13.09-32.29 12.43v-.01ZM827.032 411.563l.54 28s24.42-3.93 32.2-13.98l-.75-26.42s-14.37 13.06-32 12.4h.01Z"/><path fill="#fff" stroke="#14041E" stroke-linecap="round" stroke-linejoin="round" stroke-width="1.4" d="M124.582 350.483c-1.82 3.92-3.37 8.25-2.53 12.49.85 4.24 5 8.07 9.2 7.08 1.46-.34 2.76-1.22 3.84-2.27 3.56-3.47 4.76-8.61 6.83-13.13 4.53-9.83 13.37-16.82 20.69-24.79 1.8-1.96 3.56-4.08 4.25-6.65.69-2.57 0-5.69-2.25-7.09-6.42-4-18.04 6.07-22.28 9.86-7.57 6.78-13.5 15.3-17.76 24.5h.01ZM175.321 309.213c-.66 1.04-1.18 2.22-1.23 3.45-.05 1.23.42 2.53 1.41 3.27.72.54 1.64.74 2.54.8 4.02.31 7.91-1.7 10.91-4.39 3.59-3.21 2.07-8.57-2.85-9.16-3.95-.48-8.78 2.88-10.78 6.02v.01Z"/><path fill="#FFD83C" d="M65.522 227.693s16.43-3.91 18.52-17.61c0 0 2.87 14.61 12.65 15.26 5.09.52 7.17.39 7.17.39s-19.04 6.9-20.61 22.17c0 0 1.81-20.6-17.74-20.21h.01ZM510.032 180.693s27.28-6.5 30.74-29.23c0 0 4.76 24.25 21 25.33 8.44.87 11.91.65 11.91.65s-31.61 11.45-34.21 36.79c0 0 3.01-34.19-29.45-33.54h.01Z"/><path stroke="#14041E" stroke-linecap="round" stroke-linejoin="round" stroke-width="1.4" d="M236.422 278.773s29.74 3.39 50.35-3.78M243.981 285.164s13.17 1.7 29.74-1.3M862.922 594.883c76.55-2.52 138.178 14.42 139.468 39.03 1.34 25.57-62.998 49.74-143.718 53.97-80.71 4.24-147.23-13.06-148.58-38.64-1.21-22.99 50.68-44.85 119.83-52.1"/><path stroke="#14041E" stroke-linecap="round" stroke-linejoin="round" stroke-width="1.4" d="M1002.4 671.873c-5.408 21.55-63.848 48.29-143.718 52.48-80.71 4.24-147.23-13.06-148.58-38.64-.01-.24.03-.21.03-.45"/><path stroke="#14041E" stroke-linecap="round" stroke-linejoin="round" stroke-width="1.4" d="M710.212 646.553s.35 32.5-.11 39.17"/><path fill="#D09AFF" d="M399.812 463.973c.07-.02.15-.03.22-.05l-.23.05h.01Z"/><path fill="#17723C" d="M791.382 459.333c-4.9-4.02-16.9-5.51-16.9-5.51-26.45-4.45-157.82-40.78-374.46 10.09-6.94 1.88-7.88 48.34-6.22 51.58.58 1.12 2.59 1.9 4.99 2.44-.71 9.7-18.63 256.61-8.45 270.19 10.39 13.85 245.15 44.09 269.63 38.15 24.48-5.94 120.54-61.89 127.22-78.96 6.68-17.06 3.36-243.79 3.36-243.79l-3.92.14c2.59-1.02 4.91-2.06 6.88-3.11 1.48-5.14 2.76-37.21-2.15-41.24l.02.02Z"/><path fill="#0F4C27" d="M659.632 462.453s6.16 12.761 4.83 33.411c-1.33 20.66-2.32 32.85-2.32 32.85v.679l-2.53-.039s-4.56 105.46-3.51 193.45c-.72 87.27-.01 78.579-.01 78.579l-.98 12.97-1.27 10.231-1.28 2.809s4.35 1.47 15.54-3.41c11.19-4.87 22.4-10.339 24.97-11.679 2.57-1.34 37.53-20.32 53.18-30.89 15.65-10.57 32.11-22.611 35.74-26.781 3.64-4.17 5.01-5.96 5.38-7.38.37-1.42 1.25-7.829 3.09-41.959 1.85-34.13.92-116.98.92-116.98l-.59-65.63-.54-20.101s2.79-.829 3.53-2.789c.74-1.96 2.77-35.351-2.97-40.471l-58.79 3.091-56.96.109-15.43-.08v.01Z"/><path fill="#0F4C27" d="m398.351 525.003 260.42 13.6.32-8.82-246.98-10.15-13.33-1.46-.43 6.83Z"/><path fill="#07371A" d="M659.612 537.683s25.38-3.36 57.07-9.64c31.7-6.28 67.15-17.36 74.14-21.41l-.51-4.57s-36.19 15.9-94.69 22.13c-31.16 5.45-35.61 4.75-35.61 4.75l-.4 8.72v.02Z"/><path fill="#D09AFF" d="M485.132 460.333s-7.09 39.391-3.3 61.981l7.02.819-2.85 66.841-4.17 85.32-4.09 54.25-1.39 22.349s-1.69 22.441-1.54 29.211c.15 6.77.52 14.84.52 14.84s.28 8.069 2.6 12.289c1.23.46 71.16 9.941 71.16 9.941s-.49-2.78-1.08-7.23c-.59-4.45-.62-7.54-.62-7.54s-.83-18.671.09-29.521c.93-10.85 7.64-110.949 7.64-110.949l5.07-114.69.98-21.991h2.78s-2.52-8.979-.54-28.889c.74-18.55 3.09-32.4 3.09-32.4l.78-6.141-82.15 1.521v-.011Z"/><path fill="#D4B0FF" d="m483.572 639.643 75.53-65.7-2.95 65.7-76.49 67.6 3.91-67.6Z"/><path fill="#0F4C27" d="m561.172 531.273-5.64 122.23s-3.6 57.95-4.07 64.14c-.47 6.18-1.08 17.78-1.08 17.78s-3.36 41.62-3.33 52.89c.03 11.28.75 27.55 2.97 30.39.39 0 8.88.87 8.88.87s-8.52 0-7.58-31.84c.62-20.74 4.14-52.57 6.49-84.65 2.35-32.09 7.26-171.8 7.26-171.8h-3.9v-.01Z"/><path fill="#D4B0FF" d="m554.641 667.403-77.29 69.61-1.75 26.65 77.54-69.86 1.5-26.4Z"/><path fill="#9749DA" d="m488.851 528.963 71.96 3.44v-6.17l-70.36-3.03-1.22.42-.38 5.34Z"/><path fill="#DDB3FF" d="M485.452 460.733s-1.45 6.08-1.76 8.58c-.31 2.5-2.64 24.7-2.97 35.14-.33 10.44 1.11 16.9 1.11 16.9s-.91 1.29 2.41 1.46c3.33.17 79.63 3.15 79.63 3.15s-2.05-24.48.68-45.55c2.73-21.07 2.18-21.31 2.18-21.31l-81.28 1.62v.01Z"/><path fill="#21A657" d="M397.102 469.693s.28-5.53 4.81-5.53c4.53 0 58.63-3.01 58.63-3.01l24.36-.85-.74 4.16s-78.62 2.06-82.03 2.27c-4.71.28-5.04 2.97-5.04 2.97l.01-.01ZM566.732 463.973s59.15-.35 94.21 1.85l-1.8-3.49s-27.59-2.48-59.73-3-31.7-.23-31.7-.23l-.99 4.86.01.01Z"/><path fill="#FBF8FF" d="M484.862 464.393s63.54-.45 69.22-.43c5.68.02 12.38.2 12.38.2l.81-5.35-81.82 1.91-.59 3.67Z"/><path fill="#17723C" d="M401.911 463.353s61.09-1.85 70.48-2.47c9.39-.62 85.77-2.06 85.77-2.06s51.24-.04 58.04.7c6.8.74 38.7 2.23 42.54 2.47 3.83.25 75.8 0 75.8 0l44.27-2.1 10.54-1.08s-1.76-2.29-13.73-4.61c-11.96-2.32-29.14-5.86-29.14-5.86l-26.05-4.27-134.9-12.45-94.97 12.66-15.77 4.8-72.89 14.27h.01Z"/><path fill="#0F4C27" d="M509.092 455.573s34.66-1.369 51.4-5.279c16.75-3.91 16.42 1.79 34.81-2.8 8.18-2.04 14.28-1.37 21.85.59 7.57 1.96 64.83 9.37 89.87 5.4 25.04-3.97-79.49-18.4-115.99-20.12-36.49-1.72-117.2 17.19-114.17 20.12 1.83 1.77 14.22 2.349 32.22 2.089h.01Z"/><path fill="#17723C" d="M661.572 465.683s11.15.08 18 .14c6.85.06 64.24-1.09 79.63-1.85s33.12-3.4 33.12-3.4-.12-1.4-2.45-1.23c-2.33.17-9.49.52-9.49.52s-59.79 2.12-87.73 2.13h-32.32l1.24 3.69Z"/><path fill="#21A657" d="M390.342 788.133s6.1 3.88 13.59 5.87c7.49 1.99 30.75 7.02 30.75 7.02l34.6 6.11 7.94 1.27v-.58c-.28-.39-1.19-3.46-1.62-5.74 0 0-6.1 1.7-10.27 1.31-4.17-.39-65.06-9.38-74.99-15.26Z"/><path fill="#DDB3FF" d="M592.192 441.863c-8.91 3.82-19.25 3.17-27.28-2.26-5.22-3.53-11.32-9.07-12.31-18.65-2.47-23.99 28.94-36.11 44.76-27.2 14.78 8.31 32.57 31.93-5.17 48.11Z"/><path fill="#DDB3FF" d="M564.652 397.063s-47.67-78-97.63-51.53c-53.88 28.54-30.91 97.69 18.05 106.1 48.97 8.41 81.65-10.9 81.65-10.9l-2.08-43.67h.01Zm-11.65 25.88s-21.5 9-39.18 6.03c-23.74-2.84-32.27-18.92-30.05-30.79 2.23-11.87 13.97-14.84 13.97-14.84 37.96-8.9 57.62 23.99 57.62 23.99-3.59 6.18-2.36 15.61-2.36 15.61ZM715.082 340.053c-50.99-7.34-106.31 63.27-106.31 63.27l-8.1 34.25c194.23 58.13 169.69-89.56 114.41-97.52Zm-13.24 71.98s-10.14 14.06-43.99 17.87c-19.94 2.04-44.42-3.8-44.42-3.8s2.7-8.23 1.86-12.23c0 0 41.91-50.93 76.04-39.98 30.98 11.07 10.51 38.15 10.51 38.15v-.01Z"/><path fill="#B888E2" d="M565.192 397.063s-11.61-22.2-40.38-44.19c0 0 24.45 25.95 20.69 26.92-3.75.97-14.15-6.87-14.15-6.87s14.06 11.58 10.02 13.57c-4.04 1.99-20.61-3.74-20.61-3.74s24.31 5.51 34.6 24.59c0 0 3.1-7.05 9.82-10.28h.01ZM609.622 402.913s16.96-22.84 50.3-46.49c0 0-32.65 28.5-30.71 34.91 1.94 6.42 17.2-5.5 17.2-5.5s-19.82 14.34-30.45 27.46l-.71.83s-1.32-7.5-5.63-11.21ZM445.812 424.343s22.45 30.39 60.57 22.36c17.84-3.75-17.05-29.42-17.05-29.42s11.72 17.52 44.11 11.1c13.15-2.36 19.66-5.26 19.66-5.26s4.77 13.08 13.84 17.15c0 0-21.45 13.47-57.55 13.2-17.46.03-45.54-1.02-63.59-29.14l.01.01ZM701.842 412.033c-8.97 10.26-27.94 14.91-27.94 14.91-28.17 7.43-60.47-.63-60.47-.63-4.24 7.24-11.44 10.8-11.44 10.8s15.37 7.18 50.58 11.77c51.25 7.84 75.21-8.63 75.21-8.63s11.37-5.8 19.64-17.64c8.27-11.84 7.74-26.44 7.74-26.44s-13.17 45.54-62.21 42.83c-28.72-1.59 4.75-10.7 8.9-26.96"/><path stroke="#14041E" stroke-linecap="round" stroke-linejoin="round" stroke-width="1.4" d="M398.801 517.943s-18.84 256.34-8.45 270.19c10.39 13.85 245.15 44.09 269.63 38.15 24.48-5.94 120.54-61.89 127.22-78.96 6.68-17.06 3.36-243.79 3.36-243.79M399.811 463.973c26.75-6.29 52.19-11.24 76.3-15.09M790.821 458.903c-29.75 3.61-120.08 3.09-131.21 3.09-84.95-8.16-259.8 1.98-259.8 1.98"/><path stroke="#14041E" stroke-linecap="round" stroke-linejoin="round" stroke-width="1.4" d="M659.612 461.993s2.48 2.78 4.33 14.84-1.85 52.04-1.85 52.04M659.612 528.933s-2.81 95.92-3.55 140.06c-.74 44.14 2.44 154.97-3.49 157.98M592.732 441.593c-8.91 3.82-19.25 3.17-27.28-2.26-5.22-3.53-11.32-9.07-12.31-18.65-2.47-23.99 28.94-36.11 44.76-27.2 14.78 8.31 32.57 31.93-5.17 48.11Z"/><path stroke="#14041E" stroke-linecap="round" stroke-linejoin="round" stroke-width="1.4" d="M565.202 396.793s-47.67-78-97.63-51.53c-53.88 28.54-30.91 97.69 18.05 106.1 48.97 8.41 81.65-10.9 81.65-10.9"/><path stroke="#14041E" stroke-linecap="round" stroke-linejoin="round" stroke-width="1.4" d="M555.361 407.723s-17.44-30.68-53.24-25.49c-35.79 5.19-20.71 67.39 50.87 40.71M609.312 403.053s55.32-70.61 106.31-63.27c55.27 7.96 79.81 155.65-114.41 97.52"/><path stroke="#14041E" stroke-linecap="round" stroke-linejoin="round" stroke-width="1.4" d="M614.952 414.263s41.32-49.1 74.15-41.31c38.68 9.18 23.35 72.71-76.14 53.26M478.301 808.243c-7.75-7.94-.59-69.26 2.43-116.25 3.01-46.99 8.12-168.86 8.12-168.86M561.172 526.403s-5.11 121.87-8.12 168.86c-3.01 46.99-9.55 105.05-3.68 122.63M558.162 432.843s-10.46 7.01-39.89 8.87M530.512 372.343s21.21 14.03 29.99 28.28M608.722 431.633s35.43 10.36 66.34 7.25M485.132 460.333s-7.17 40.7-3.21 62.48"/><path stroke="#14041E" stroke-linecap="round" stroke-linejoin="round" stroke-width="1.4" d="M720.652 444.114c27.54 3.94 45.67 8.349 53.83 9.719 0 0 11.99 1.481 16.9 5.511 4.9 4.02 3.63 36.099 2.15 41.239-28.56 15.21-128.96 28.19-128.96 28.19-29.18 1.73-238.55-8.409-255.36-9.649 0 0-13.73-.371-15.4-3.621s-.72-49.739 6.22-51.589"/><path stroke="#14041E" stroke-linecap="round" stroke-linejoin="round" stroke-width="1.4" d="M567.282 459.333s-7.17 43.69-3.21 67.07"/><path fill="#F6DCFF" d="M736.712 357.183c-6.93-7.51-16.92-11.99-27.6-11.44-2.06.11-4.12.4-6.1.96-2.05.58-5.93 2.44-5.16 5.18.64 2.28 4.2 3.05 5.55 4.86.09.12.17.24.2.38.15.63-.71.96-1.34 1.04-1.59.2-3.22.54-4.55 1.44-1.63 1.1-2.62 3.3-1.81 5.2.81 1.9 3.22 2.82 4.86 3.98 5.39 3.79 9.76 8.28 12.53 14.32 1.39 3.03 2.33 6.27 2.75 9.58.46 3.6-.45 7.45.5 10.95.31 1.15 1.03 2.26 2.12 2.74 3.8 1.67 7.16-4.31 8.35-7.03 2.42-5.54 2-12.08-.21-17.62-.59-1.48-1.36-3.11-.76-4.71.48-1.29 1.36-1.7 2.08-.28.68 1.35 1.02 2.84 1.59 4.23.79 1.91 2.54 4.34 4.93 3.36 1.86-.76 2.26-3.24 2.1-5.01-.12-1.36-3.44-8.92-1.59-9.64.4-.16.85-.03 1.25.13 1.77.68 3.25 1.88 4.38 3.39.85 1.13 1.82 3.13 3.51 1.97 2.35-1.61-.61-7.04-1.46-8.86a35.953 35.953 0 0 0-6.12-9.11v-.01Z"/><path stroke="#fff" stroke-linecap="round" stroke-linejoin="round" stroke-width="3" d="M651.692 632.233s-.88 43.19-1.75 69.53M649.932 713.593v31.99"/><path fill="#F6DCFF" d="M456.241 361.483c-8.57 7.66-12.18 21.04-9.55 32.09.6 2.54 2.24 5.39 5.26 5.18 1.26-2.89 2.92-7.16 5.88-8.78.53-.29 1.26-.3 1.68.13.23.24.33.57.42.89.49 1.71.75 8.62 3.63 8.04 1.01-.2 1.74-1.07 2.37-1.89 1.45-1.86 4.64-8.97 7.86-7.78 1.02.37 1.4 1.57 1.98 2.48 2.27 3.59 5.07-.7 6.18-2.89 1.76-3.48 3.37-15.86-4.33-13.42-1.51.48-2.52 1.87-3.85 2.72-1.33.85-3.6.77-3.98-.77-.17-.69.12-1.4.41-2.05.89-1.99 2.88-4.39 2.94-6.67.07-2.42-2.48-1.44-4.02-1.73-4.78-.92-3.6-12.41-10.91-7.16-.69.49-1.35 1.03-1.98 1.59l.01.02Z"/><path stroke="#fff" stroke-linecap="round" stroke-linejoin="round" stroke-width="3" d="M651.692 619.663s.29-13.4 0-18.39M392.552 734.123s-.2 22.3 0 28.37M392.462 724.923s.09-18 .09-19.76"/><path fill="#1A7F43" d="M917.002 818.873c43.078 0 78-34.922 78-78s-34.922-78-78-78c-43.079 0-78 34.922-78 78s34.921 78 78 78Z"/><path stroke="#14041E" stroke-linecap="round" stroke-linejoin="round" stroke-width="1.4" d="M917.002 818.843c43.078 0 78-34.922 78-78s-34.922-78-78-78c-43.079 0-78 34.922-78 78s34.921 78 78 78Z"/><path fill="#FFDAC6" stroke="#14041E" stroke-linecap="round" stroke-linejoin="round" stroke-width="1.4" d="M957.242 692.793c2.76.36 5.31-1.56 5.81-4.3 1.42-7.84 3.88-23.15 2.3-27.5-2.15-5.94-12.75-11.57-17.05-9.59-3.3 1.51-12.99 15.86-17.34 22.5-1.36 2.08-1.11 4.83.64 6.6 3.99 4.03 12.33 10.56 25.65 12.3l-.01-.01Z"/><path fill="#FFBB95" stroke="#14041E" stroke-linecap="round" stroke-linejoin="round" stroke-width="1.4" d="M964.79 662.747c1.215-2.25-1.856-6.262-6.857-8.961-5.001-2.698-10.04-3.062-11.254-.811-1.215 2.25 1.855 6.262 6.857 8.961 5.001 2.698 10.04 3.062 11.254.811Z"/><path stroke="#14041E" stroke-linecap="round" stroke-linejoin="round" stroke-width="1.4" d="M959.992 664.633s-2.1 16.12-5.42 27.75M953.882 662.553s-5.37 14.59-9.21 26.9M948.512 658.763s-9.09 12.71-14.12 24.3"/><path fill="#21A657" d="M898.482 680.713c2.71.5 5.46 1.54 7.24 3.65 1 1.19 1.62 2.64 2.15 4.09 1.64 4.5 2.46 9.63.5 14.01-1.23 2.75-3.44 4.92-5.55 7.07-10.77 10.94-20.68 23.48-24.58 38.33-1.04 3.95-1.66 8.08-3.57 11.7-1.91 3.61-5.54 6.71-9.62 6.5-4.63-.23-8.04-4.48-9.92-8.72-3.56-8.04-3.92-17.14-3.34-25.92.54-8.19 1.87-16.41 5.03-23.99 6.35-15.23 24.03-29.98 41.66-26.73v.01Z"/><path fill="#D09AFF" stroke="#14041E" stroke-linecap="round" stroke-linejoin="round" stroke-width="1.4" d="M312.922 824.903c9.615 0 17.41-2.458 17.41-5.49s-7.795-5.49-17.41-5.49c-9.616 0-17.41 2.458-17.41 5.49s7.794 5.49 17.41 5.49ZM379.681 841.743c9.616 0 17.41-2.458 17.41-5.49s-7.794-5.49-17.41-5.49c-9.615 0-17.41 2.458-17.41 5.49s7.795 5.49 17.41 5.49ZM807.172 802.353c9.615 0 17.41-2.458 17.41-5.49s-7.795-5.49-17.41-5.49c-9.616 0-17.41 2.458-17.41 5.49s7.794 5.49 17.41 5.49Z"/><path fill="#fff" stroke="#14041E" stroke-linecap="round" stroke-linejoin="round" stroke-width="1.4" d="M36.662 825.733c9.615 0 17.41-2.458 17.41-5.49s-7.795-5.49-17.41-5.49-17.41 2.458-17.41 5.49 7.795 5.49 17.41 5.49ZM727.512 840.563c9.615 0 17.41-2.458 17.41-5.49s-7.795-5.49-17.41-5.49c-9.616 0-17.41 2.458-17.41 5.49s7.794 5.49 17.41 5.49Z"/><path stroke="#fff" stroke-linecap="round" stroke-linejoin="round" stroke-width="3" d="M324.072 384.033s7.96-.2 11.74 9.46M315.191 385.683s2.48-.98 3.78-1.04M482.552 344.963s11.15-3.13 24.65 2.93M511.512 349.663s4.64 2.21 6.09 3.21M356.771 306.643s18.39 5.93 31.48 25.81M391.962 339.123s2.15 2.13 3.33 5.85M745.772 18.813s11.22-10.68 27.65-10.49M779.942 8.323s7.96.45 11.74 3.06"/><path fill="#F6DCFF" d="M560.772 415.093c-.25 2.2-.15 4.47.57 6.57.72 2.1 2.1 4.01 4.02 5.12 3.06 1.78 7.12 1.24 10.03-.78 2.9-2.03 4.74-5.32 5.63-8.74 1.05-4 .92-8.29-.36-12.22-.65-1.98-1.62-3.93-3.24-5.26-3.99-3.28-7.54-.43-10.49 2.53-3.4 3.42-5.63 7.99-6.17 12.79l.01-.01Z"/></svg>