<?xml version="1.0" encoding="UTF-8"?>
<svg id="Calque_1" xmlns="http://www.w3.org/2000/svg" version="1.1" viewBox="0 0 1133.86 311.81">
  <!-- Generator: Adobe Illustrator 29.8.2, SVG Export Plug-In . SVG Version: 2.1.1 Build 3)  -->
  <defs>
    <style>
      .st0 {
        fill: #ffde00;
      }

      .st1 {
        fill: #1d1d1b;
      }

      .st2 {
        fill: #008acf;
      }

      .st3 {
        fill: #e30518;
      }
    </style>
  </defs>
  <g>
    <path class="st2" d="M620.97,49.02c-59.48-58.03-152.72-57.97-212.37.24l-69.24,69.24-8.62,8.62h0s-28.55,28.55-28.55,28.55l-.27.27-68.99,69c-36.06,36.91-100.12,37.25-136.7-.26-13.87-13.88-22.75-30.57-26.68-48.06l-29.18-19.08-24.82,14.04c3.62,33.94,18.7,65.51,43.24,90.05,56.05,57.62,156.06,57.28,211.59.26l69.01-69.01,29.89-29.89h0s7.04-7.04,7.04-7.04l.24-.24,68.99-69c38.93-37.92,99.88-37.86,138.21-.48,15.84,16.25,25.03,36.35,27.65,57.06l27.81-15.72,25.15,16.44c-2.68-34.32-17.11-68.01-43.4-94.98Z"/>
    <path class="st0" d="M277.84,131.32l37.52-36.82.13-.13-18.62-18.62-26.49-26.49C214.44-6.68,115.05-6.73,59.03,49.26c-25.4,25.4-40.64,58.05-43.74,93.03l26.05-14.73,26.47,17.31c2.38-21.19,11.84-41.81,28.42-58.4,37.1-37.1,99.82-37.14,136.94,0l44.66,44.86Z"/>
    <path class="st3" d="M633.62,157.54l-27.62,15.62c-3.39,18.77-12.24,36.77-26.61,51.52-38.76,38.76-99.45,38.76-138.21,0l-33.82-33.82-7.37-7.37-.13.13-37.16,37.18,9.58,9.58.16-.03.19.19,31.34,31.34c28.62,28.62,66.34,44.37,106.31,44.37s77.7-15.75,106.57-44.63c24.24-24.89,38.29-55.67,42.2-87.46l-25.44-16.63Z"/>
  </g>
  <g>
    <g>
      <path class="st1" d="M762.85,96.86V29.74s15.82-3.67,15.82,33.67-15.82,33.46-15.82,33.46M770.87,7.29h-40.75s3.46,24.17,3.46,56.12-3.46,55.9-3.46,55.9h40.75c13.66,0,37.07-9.07,37.07-55.9s-23.19-56.12-37.07-56.12"/>
      <path class="st1" d="M842.83,67.5l6.94-37.77,6.93,37.77h-13.87ZM898.33,119.3s-9.11-29.14-14.53-55.9c-5.42-26.74-8.23-56.12-8.23-56.12h-51.59s-2.82,29.36-8.23,56.12c-5.42,26.76-14.31,55.9-14.31,55.9h35.98s-1.3-4.96,0-14.68c1.3-9.71,3.68-14.68,3.68-14.68h17.35s2.82,5.61,3.69,14.89c.89,9.57,0,14.46,0,14.46h36.2Z"/>
      <path class="st1" d="M927.81,55.42v-29.14s12.35-.21,12.35,14.46-12.35,14.68-12.35,14.68M979.62,119.3s-6.29-13.67-14.74-28.06c-8.24-14.03-13.01-21.15-13.01-21.15,0,0,19.51-5.83,19.51-31.3s-19.08-31.51-26.23-31.51h-50.08s3.25,20.5,3.25,56.12-3.69,55.9-3.69,55.9h36.63s-2.17-6.69-3.47-18.77c-1.3-12.09,0-19.21,0-19.21,0,0,5.2,6.91,9.1,19,3.9,12.08,3.25,18.99,3.25,18.99h39.46Z"/>
      <path class="st1" d="M969.65,7.29v25.69s6.72-3.24,19.29-3.24c0,0,1.08,20.26,0,39.49-1.08,19.43-3.47,50.08-3.47,50.08h35.99s-2.39-30.87-3.25-50.08c-.87-19.21,0-39.49,0-39.49,0,0,9.54-.44,18.86,3.24V7.29h-67.41Z"/>
      <path class="st1" d="M1068.27,7.29h-32.73s14.53,27.63,20.81,56.12c6.28,28.49,2.6,55.9,2.6,55.9h36.2s-3.9-27.63,2.39-55.9c6.28-28.28,21.03-56.12,21.03-56.12h-32.73l-8.89,32.59-8.68-32.59Z"/>
    </g>
    <g>
      <path class="st1" d="M772.66,149.87c1.53,7.67,15.71,38.71,22.81,51.36,7.28-12.65,21.65-43.69,23-51.36h42.74c-1.34,6.13-2.3,27.6-2.3,56.34v41.97c0,28.75.96,50.21,2.3,56.34h-38.14c1.15-6.13,2.3-27.6,2.3-56.34v-40.44l-29.71,58.64-29.7-58.64v40.44c0,28.75.96,50.21,2.11,56.34h-37.95c1.15-6.13,2.3-27.6,2.3-56.34v-41.97c0-28.75-1.15-50.21-2.3-56.34h42.54Z"/>
      <path class="st1" d="M962.98,149.87l20.89,98.51c4.6,20.7,9.01,40.05,13.8,56.15h-40.82c0-10.35-2.11-22.04-4.98-37.37h-36.03c-2.88,15.33-4.79,27.02-4.79,37.37h-39.86c4.79-16.1,9.01-35.45,13.41-56.15l20.89-98.51h57.49ZM946.31,238.02l-12.27-68.22-12.65,68.22h24.91Z"/>
      <path class="st1" d="M1076.32,304.52c-.96-6.13-7.28-27.4-13.03-41.59l-4.22-11.31-4.41,11.5c-6.13,13.99-12.65,35.45-13.8,41.39h-38.14c2.88-5.94,11.5-27.6,22.81-55.96l9.2-23-7.28-19.36c-11.12-28.55-19.93-50.21-22.8-56.34h39.1c.77,6.13,6.9,27.79,13.41,43.12l2.3,6.13,2.49-6.13c6.52-15.52,13.22-36.99,13.8-43.12h37.75c-2.68,6.13-11.5,27.79-22.62,56.34l-7.28,19.36,9.01,22.81c11.12,28.55,19.93,50.21,23,56.15h-39.29Z"/>
    </g>
  </g>
</svg>