<svg fill="none" xmlns="http://www.w3.org/2000/svg" viewBox="0 0 280 280"><path d="M143.635 41.261c-38.966-.905-75.125 19.165-96.24 53.784-24.693 40.477-18.229 98.008 16.335 130.929 34.403 32.765 102.41 36.279 141.316 8.797 30.654-21.654 43.847-62.448 40.387-98.74-5.001-52.398-49.172-93.546-101.804-94.77h.006Z" fill="#D71F14"/><path d="M80.395 238.243s-7.82 15.201-11.651 16.766c-3.832 1.565-20.809-4.785-21.51-8.143-.702-3.364 13.624-23.752 13.624-23.752s5.9 5.726 10.674 9.444c4.773 3.718 8.869 5.691 8.869 5.691l-.006-.006ZM200.44 238.243s7.82 15.201 11.652 16.766c3.832 1.565 20.808-4.785 21.51-8.143.701-3.358-14.212-24.922-14.212-24.922s-6.543 8.383-18.95 16.305v-.006Z" fill="#E2E2E2"/><path d="M102.648 48.355s5.265-4.227 4.036-10.56c-1.805-9.295-25.03-19.555-52.092-1.409 0 0-21.354 11.382-25.228 34.258-3.873 22.877 8.323 30.697 20.473 20.569" fill="#D71F14"/><path d="M58.88 33.718s-5.236-6.837-12.39-1.793c-7.153 5.043-3.094 13.036-3.094 13.036s3.832-3.832 9.42-7.448c5.59-3.61 6.063-3.795 6.063-3.795Z" fill="#E2E2E2"/><path d="M177.893 47.888s-5.265-4.228-4.036-10.56c1.805-9.295 25.03-19.555 52.092-1.41 0 0 21.354 11.382 25.228 34.259 3.874 22.877-9.031 30.684-21.18 20.556" fill="#D71F14"/><path d="M237.139 44.5s4.06-7.994-3.094-13.037c-7.154-5.043-12.389 1.793-12.389 1.793s2.711 1.487 6.153 3.562c3.442 2.075 9.336 7.681 9.336 7.681h-.006Z" fill="#E2E2E2"/><path d="M151.982 24.927s-12.965-.762-20.94 0c-7.976.761-6.921 2.638 1.055 3.106 7.975.468 19.711 0 21.821-.762 2.111-.761 2.939-2.134-1.936-2.344Z" fill="#D71F14"/><path d="M125.447 26.402s-1.488 1.589-1.056 4.761c.432 3.166 1.841 4.851 16.623 4.851 14.781 0 14.313-2.686 14.781-4.803.468-2.117-.3-5.463-.3-5.463" fill="#D71F14"/><path d="M136.828 35.954v5.181h6.267v-5.127l-6.267-.054Z" fill="#E2E2E2"/><path d="M143.532 64.978c-30.241-.702-58.305 14.877-74.693 41.742-19.165 31.416-14.146 76.067 12.683 101.618 26.696 25.425 79.484 28.16 109.677 6.83 23.884-16.874 34.043-48.356 31.344-76.636-3.88-40.669-38.168-72.607-79.011-73.554Z" fill="#fff"/><path d="M139.965 133.195s-6.464.312-6.62 6.572c-.156 6.255 8.683 7.742 12.125 2.741 3.442-5.008.887-10.015-5.499-9.307l-.006-.006Z" fill="#D71F14"/><path d="M137.157 133.657s-6.386-11.124-7.321-22.272c-.942-11.147-.336-22.997 10.338-23.464 12.359-.006 12.568 21.252 3.046 45.472M142.453 144.93s2.399 11.274 21.402 27.231c19.009 15.956 32.813 6.92 20.646-8.096-10.788-13.318-38.588-22.283-38.588-22.283M82.194 90.157s4.93 6.285 5.925 6.267c.995-.018 3.814-3.136 3.814-3.136s1.073-1.17.977-1.404c-.096-.234-4.935-5.54-4.935-5.54l-.941-1.026-4.84 4.84ZM137.31 65.062s-.552 8.437.096 8.61c.647.175 6.002.199 6.452-.275.45-.474.252-8.173.252-8.173s-3.592-.6-6.806-.162h.006ZM196.142 86.056s-6.764 4.965-5.96 6.272c.803 1.307 4.005 4.354 4.437 4.282.432-.072 6.392-5.943 6.392-5.943l-4.791-4.611h-.084.006ZM58.73 135.887s7.934-.557 8.018 0c.083.558.605 6.363-.097 6.573-.701.209-9.012.647-9.012.647s.743-7.19 1.091-7.214v-.006ZM81.575 207.954s5.17-6.764 5.949-6.392c.78.372 4.773 3.892 4.575 4.713-.198.822-5.559 6.171-5.559 6.171s-5.175-3.628-4.97-4.492h.005ZM137.369 229.398s-.372-7.975.174-8.479c.545-.504 6.416-.294 6.512.156.096.449-.174 8.323-.174 8.323h-6.512ZM196.501 210.994s-6.98-4.683-6.237-6.128c.744-1.445 3.91-4.539 4.42-4.264.51.276 6.572 5.907 6.572 5.907L196.501 211v-.006ZM222.214 135.629s-8.233-.299-8.503.108c-.27.408-.666 6.249 0 6.645.666.395 7.154.557 7.154.557h1.991s-.234-6.386-.648-7.316l.006.006ZM67.496 70.465l-4.719-5.511s-9.936 9.049-14.865 14.721c-4.93 5.673-9.385 11.184-6.764 13.493 2.62 2.308 10.403-4.222 10.403-4.222s5.457-7.94 10.207-12.749c4.749-4.809 5.744-5.732 5.744-5.732h-.005ZM78.603 61.386l-4.402-5.84s9.985-7.88 18.71-11.742c8.725-3.862 11.399-2.89 11.723-1.661.324 1.23-2.465 4.665-2.465 4.665l-2.758 2.932s-8.33 2.873-20.814 11.64l.006.006ZM202.18 60.972l4.401-5.889s-9.726-7.453-17.408-10.973c-7.687-3.52-9.384-4.138-12.203-3.197-2.818.942 3.52 7.334 3.52 7.334l2.345 1.787s12.731 5.517 19.345 10.938ZM218.005 64.492l-4.726 5.679s7.88 7.783 10.848 12.203c2.974 4.42 4.989 6.494 5.487 7.022.498.528 8.095 5.337 9.972 3.136 1.877-2.2-.617-6.129-3.873-10.236-3.257-4.108-15.783-16.683-17.714-17.804h.006Z" fill="#140D1D"/><path d="m62.777 64.954 4.72 5.51s4.095-3.963 6.704-5.762c2.608-1.8 4.401-3.316 4.401-3.316l-4.06-5.84s-7.045 4.964-11.765 9.408ZM206.575 55.083l-4.401 5.889 6.128 4.863 4.798 4.168 4.653-5.511s-9.607-8.863-11.178-9.409Z" fill="#E2E2E2"/><path d="M53.932 36.83s18.625-10.404 32.105-5.949c14.314 4.725-2.236 17.924-2.236 17.924s8.299-5.649 14.787-7.334c6.495-1.679 6.962.468 5.709 2.74-1.253 2.273-4.54 5.164-4.54 5.164l4.15-1.8s4.048-5.037 2.705-10.056c-1.338-5.019-7.322-10.05-20.113-11.111-12.79-1.062-22.679 4.665-32.573 10.422h.006ZM227.028 36.452s-18.625-10.404-32.105-5.949c-14.314 4.726 2.236 17.924 2.236 17.924s-8.299-5.649-14.787-7.334c-6.495-1.679-6.962.468-5.709 2.74 1.253 2.267 4.539 5.164 4.539 5.164l-4.149-1.8s-4.048-5.036-2.705-10.055c1.338-5.02 7.322-10.05 20.113-11.112 12.791-1.061 22.679 4.665 32.573 10.422h-.006ZM46.466 203.265c-2.764-4.929-4.503-10.392-4.899-16.035-.36-5.121.306-10.986 4.114-14.824 5.654-5.708 12.85 2.573 16.64 8.018 1.355 1.949 2.489 4.03 3.46 6.194 1.775 3.976 6.482 13.013 15.741 21.726 12.197 11.483 30.937 20.694 59.954 21.048.522.006 1.043.012 1.559.042 9.481.558 36.981-3.268 52.698-17.78 16.005-14.77 19.585-25.228 21.828-32.465 2.242-7.238 25.047-17.924 20.67 8.994a38.42 38.42 0 0 1-2.843 9.475c-2.824 6.302-9.168 17.894-21.725 30.331-18.745 18.565-48.339 24.975-74.292 25.209-25.953.24-54.46-9.504-71.143-23.368-10.962-9.109-18.128-20.101-21.756-26.571l-.006.006ZM125.682 26.726s-1.08.353-1.2 3.831c-.12 3.478 1.601 4.186 8.917 5.043 7.316.858 19.519.888 21.804-2.452 1.127-3.298.384-6.584.384-6.584s-.678 1.42-12.102 1.649c-11.417.228-17.474-.558-17.809-1.493l.006.006Z" fill="#950800"/><path d="M34.256 57.194s-8.233 14.764-4.54 28.352c3.695 13.588 12.858 9.558 13.997 9.289 1.14-.27 3.004-1.415 3.004-1.415l1.65-1.074 1.247-.953.287-.738s-8.31 5.26-9.27 1.211c-1.757-1.703 3.963-8.419 6.362-11.123 2.393-2.705 1.793-2.369 3.262-3.832 1.47-1.463-14.901 13.972-18.265-.078C28.81 63.551 34.256 57.2 34.256 57.2v-.006ZM246.508 56.684s8.233 14.764 4.539 28.352c-3.694 13.588-12.856 9.559-13.996 9.289-1.139-.27-3.004-1.415-3.004-1.415l-1.649-1.074-1.247-.953-.288-.738s8.311 5.26 9.271 1.212c1.757-1.703-3.964-8.42-6.363-11.124-2.398-2.704-1.793-2.369-3.262-3.832-1.469-1.463 14.902 13.972 18.266-.078 3.178-13.282-2.267-19.633-2.267-19.633v-.006Z" fill="#FF3D3D"/><path d="M143.754 41.261c-38.966-.905-75.125 19.165-96.24 53.784-24.693 40.477-18.229 98.008 16.335 130.929 34.403 32.765 102.41 36.279 141.316 8.797 30.654-21.654 43.847-62.448 40.387-98.74-5.001-52.398-49.172-93.546-101.804-94.77h.006Z" stroke="#140D1D" stroke-width=".72" stroke-linecap="round" stroke-linejoin="round"/><path d="M143.651 64.978c-30.24-.702-58.304 14.877-74.693 41.742-19.165 31.416-14.146 76.067 12.683 101.618 26.696 25.425 79.484 28.16 109.677 6.83 23.885-16.874 34.043-48.356 31.344-76.636-3.88-40.669-38.168-72.607-79.011-73.554ZM60.977 223.108s-14.325 20.388-13.624 23.752c.702 3.364 17.678 9.708 21.51 8.143 3.832-1.565 11.651-16.766 11.651-16.766M219.509 221.938s14.913 21.558 14.212 24.922c-.702 3.364-17.678 9.708-21.51 8.143-3.832-1.565-11.651-16.766-11.651-16.766M102.767 48.355s5.265-4.227 4.035-10.56c-1.805-9.294-25.03-19.555-52.092-1.409 0 0-21.354 11.382-25.228 34.258-3.873 22.877 8.324 30.697 20.473 20.569" stroke="#140D1D" stroke-width=".72" stroke-linecap="round" stroke-linejoin="round"/><path d="M51.153 89.432s-9.822 7.49-10.841 1.937c-1.02-5.553 24.718-30.463 42.551-41.964 17.834-11.496 29.563-11.262 15.693.671" stroke="#140D1D" stroke-width=".72" stroke-linecap="round" stroke-linejoin="round"/><path d="M62.776 64.954s3.196 3.634 4.726 5.51M74.198 55.545s2.549 3.526 4.402 5.84M43.514 44.961s-4.06-7.993 3.095-13.036c7.154-5.044 12.389 1.793 12.389 1.793M178.012 47.888s-5.265-4.228-4.036-10.56c1.805-9.295 25.03-19.555 52.092-1.41 0 0 21.354 11.382 25.228 34.259 3.874 22.877-9.031 30.684-21.18 20.556" stroke="#140D1D" stroke-width=".72" stroke-linecap="round" stroke-linejoin="round"/><path d="M229.576 89.414s9.864 7.046 10.883 1.493c1.02-5.553-24.718-30.463-42.551-41.964-17.834-11.495-29.564-11.262-15.693.672" stroke="#140D1D" stroke-width=".72" stroke-linecap="round" stroke-linejoin="round"/><path d="M218.004 64.492s-3.197 3.634-4.726 5.51M206.574 55.083s-2.548 3.526-4.401 5.841M237.258 44.5s4.059-7.994-3.095-13.037c-7.154-5.043-12.389 1.793-12.389 1.793M152.101 24.927s-12.965-.762-20.94 0c-7.976.761-6.92 2.638 1.055 3.106 7.976.468 19.711 0 21.822-.762 2.11-.761 2.938-2.134-1.937-2.344Z" stroke="#140D1D" stroke-width=".72" stroke-linecap="round" stroke-linejoin="round"/><path d="M125.566 26.402s-1.487 1.589-1.056 4.761c.432 3.166 1.841 4.851 16.623 4.851 14.781 0 14.314-2.686 14.781-4.803.468-2.117-.299-5.463-.299-5.463M136.947 35.954v5.181M143.213 36.008v5.127M140.04 133.165s-6.464.312-6.62 6.572c-.156 6.261 8.683 7.742 12.125 2.741 3.442-5.008.888-10.015-5.499-9.307l-.006-.006Z" stroke="#140D1D" stroke-width=".72" stroke-linecap="round" stroke-linejoin="round"/><path d="M137.235 133.627s-6.387-11.124-7.322-22.272c-.942-11.147-.336-22.997 10.338-23.464 12.359-.006 12.569 21.252 3.046 45.472M142.53 144.9s2.399 11.274 21.402 27.231c19.009 15.957 32.813 6.92 20.646-8.096-10.788-13.318-38.588-22.283-38.588-22.283M137.3 65.074s-.546 7.837 0 8.383c.546.546 6.416.234 6.572 0 .156-.234.312-8.461.312-8.461M143.945 229.392s.545-7.838 0-8.383c-.546-.546-6.417-.234-6.573 0-.156.234-.311 8.461-.311 8.461M82.384 90.307s4.959 6.093 5.733 6.123c.773.024 4.845-4.216 4.797-4.492-.048-.275-5.559-6.392-5.559-6.392M57.636 142.945s8.533-.078 9.102-.605c.564-.528.162-6.501-.065-6.663-.228-.161-8.234.192-8.234.192M222.735 142.945s-8.533-.078-9.103-.605c-.569-.528-.162-6.501.066-6.663.228-.161 8.635-.042 8.635-.042M195.972 86.056s-6.015 5.055-6.027 5.828c-.012.774 4.288 4.774 4.57 4.726.282-.048 6.302-5.655 6.302-5.655M81.575 207.684s4.96-6.092 5.733-6.122c.773-.024 4.845 4.215 4.797 4.491-.048.276-5.559 6.393-5.559 6.393M195.972 210.994s-6.015-5.055-6.027-5.828c-.012-.774 4.288-4.773 4.57-4.726.282.048 6.302 5.655 6.302 5.655" stroke="#140D1D" stroke-width=".72" stroke-linecap="round" stroke-linejoin="round"/></svg>