<svg width="280" height="280" fill="none" xmlns="http://www.w3.org/2000/svg"><g clip-path="url(#clip0_5118_113)"><path d="M230.29 118.007c-29.402-28.919-69.514-38.157-69.727-31.302-.214 6.854 20.779 19.601 16.173 36.952-4.036 15.208-15.726 8.858-18.553 7.058a2.882 2.882 0 0 1-1.034-1.142c-1.608-3.188-2.622-9.743-3.437-14.861-.883-5.542-.883-13.335-2.008-13.655-1.125-.323-3.455 10.283-4.417 10.845-.965.563-11.045.602-12.893.322-1.847-.279-4.859-7.029-5.382-8.554-.522-1.525-1.125-2.209-1.084-1.004.041 1.205-.282 8.916-1.567 14.097-1.047 4.221-3.609 10.548-4.52 12.749a2.78 2.78 0 0 1-1.092 1.293c-3.055 1.909-14.438 7.818-18.411-7.148-4.606-17.351 16.389-30.098 16.173-36.952-.216-6.855-40.325 2.383-69.727 31.302-29.402 28.92-13.978 68.685-2.41 76.636 0 0-2.517-28.464 14.298-31.463 16.816-3 20.673 22.92 20.673 22.92s4.498-23.136 15.637-22.92c11.139.213 10.819 17.458 10.819 17.458s1.928-14.781 9.854-17.245c7.926-2.463 8.246 4.605 8.462 8.14.201 3.324 1.729 6.742 3.203 8.074.176.158.279.38.275.618-.019 1.096-.14 4.153-.908 4.59-.938.536-4.071.429-6.078 4.66-2.008 4.231 2.289 6.855 4.84 4.205 0 0 1.082 1.201 2.447 1.088 1.366-.113 1.669-.548 1.669-.548s-.055-.035-.145-.103c1.597 1.154 3.767 1.168 4.524-1.297l-.864-.037s-1.706-.232-2.262-2.682c-.557-2.449.275-7.431.275-7.431s2.525 1.178 6.446 1.445c3.921.267 6.506-2.57 6.506-2.57s.772 6.105.215 8.554c-.556 2.45-2.194 2.936-2.194 2.936l-.85.025c.733 2.389 2.744 2.301 4.305 1.186.088.107 1.001 1.115 3.325-.01.306-.148.561-.339.772-.562h.013c2.549 2.65 6.848.026 4.84-4.205-2.007-4.231-5.14-4.124-6.078-4.66-.768-.439-.889-3.496-.908-4.59a.824.824 0 0 1 .275-.618c1.472-1.33 3.002-4.751 3.203-8.074.213-3.535.536-10.604 8.462-8.14 7.926 2.463 9.854 17.244 9.854 17.244s-.322-17.244 10.819-17.458c11.139-.213 15.637 22.921 15.637 22.921s3.855-25.92 20.673-22.921c16.815 3 14.298 31.463 14.298 31.463 11.568-7.953 26.992-47.715-2.41-76.635l-.006.006zm-100.65 73.716c-.764-1.794-.185-3.026-.185-3.026s-.384 1.671.351 3.388a7.826 7.826 0 0 1-.168-.364l.002.002z" fill="#6E14BD"/><path d="M147.601 128.116s-12.221-.181-15.75.34c-3.531.522-3.948 2.187-3.258 4.882.69 2.696 1.686 7.058 10.638 7.411 8.951.355 11.02-9.02 11.279-10.736.259-1.717-2.141-1.889-2.909-1.897z" fill="#FCFF60"/><path opacity=".98" d="M134.042 118.328c-.811.392-1.489 1.03-1.832 1.884-.396.988-.24 2.164.263 3.084.505.921 1.523 1.404 2.54 1.492 2.2.193 4.53-1.718 4.333-4.003-.226-2.624-3.186-3.484-5.304-2.457zM142.807 117.872c-.81.392-1.488 1.03-1.831 1.884-.396.988-.24 2.164.263 3.084.505.922 1.523 1.404 2.539 1.492 2.201.193 4.531-1.718 4.334-4.003-.226-2.623-3.186-3.484-5.305-2.457z" fill="#14041E"/><path d="M127.304 157.388s-.08 20.08 9.279 22.252c11.549 2.681 14.362-15.021 16.066-24.582 1.706-9.56-2.234-8.462-6.35-7.203-4.114 1.258-7.267 1.794-14.227 0-6.959-1.795-4.91 6.489-4.77 9.531l.002.002z" fill="#A238FF"/><path opacity=".98" d="M132.68 119.951c-.264.39-.447.85-.429 1.322.023.583.378 1.142.893 1.411.516.269 1.177.24 1.669-.072.651-.417.936-1.24.947-2.012.01-.792-.417-1.476-1.234-1.649-.712-.149-1.472.454-1.844 1h-.002zM142.212 119.642c-.265.39-.448.85-.429 1.322.022.583.378 1.141.893 1.41.515.269 1.176.24 1.669-.072.651-.417.936-1.24.946-2.012.01-.792-.417-1.476-1.234-1.648-.712-.15-1.472.454-1.843 1h-.002z" fill="#4B0F70"/><path d="M46.372 194.642s-2.62-1.445-5.954-6.546c-3.334-5.102-3.334-6.266-3.334-6.266s2.782 3.615 4.644 1.526c1.862-2.088 4.34-22.157 18.103-23.818 13.762-1.661 19.012 11.514 19.868 14.567.856 3.053 2.517-4.124 2.517-4.124s.213 4.444 1.498 3.748c1.285-.695 4.804-5.542 4.804-5.542s-4.196 5.06-7.177 17.377c0 0-4.212-23.136-18.19-22.493-13.135.08-15.184 13.816-16.47 20.806-.882 6.688-.311 10.763-.311 10.763l.002.002zM232.688 194.642s2.619-1.445 5.953-6.546c3.334-5.102 3.334-6.266 3.334-6.266s-2.782 3.615-4.644 1.526c-1.862-2.09-4.339-22.157-18.102-23.818-13.763-1.661-19.012 11.514-19.868 14.567-.856 3.053-2.517-4.124-2.517-4.124s-.214 4.444-1.499 3.748c-1.285-.695-4.803-5.542-4.803-5.542s4.196 5.06 7.176 17.377c0 0 4.213-23.136 18.191-22.493 13.135.08 15.184 13.816 16.469 20.806.882 6.688.312 10.763.312 10.763l-.002.002z" fill="#6E14BD"/><path d="M127.469 193.68c-2.549 2.65-6.848.026-4.84-4.205 2.007-4.231 5.14-4.124 6.078-4.66.768-.439.889-3.496.908-4.59a.824.824 0 0 0-.275-.618c-1.472-1.33-3.002-4.75-3.203-8.074-.213-3.535-.536-10.603-8.462-8.14-7.926 2.464-9.854 17.245-9.854 17.245s.322-17.245-10.819-17.458c-11.141-.214-15.637 22.92-15.637 22.92s-3.855-25.92-20.673-22.92c-16.815 2.999-14.298 31.463-14.298 31.463-11.568-7.953-26.992-47.716 2.41-76.636 29.402-28.919 69.514-38.157 69.727-31.302.214 6.854-20.78 19.601-16.173 36.952 3.973 14.966 15.356 9.055 18.411 7.148a2.78 2.78 0 0 0 1.092-1.293c.913-2.201 3.473-8.528 4.52-12.749 1.285-5.181 1.608-12.892 1.567-14.097-.041-1.205.562-.521 1.084 1.004.521 1.525 3.535 8.273 5.382 8.554 1.848.282 11.93.241 12.893-.322.962-.562 3.293-11.166 4.418-10.845 1.124.322 1.124 8.113 2.007 13.655.815 5.118 1.827 11.671 3.437 14.861a2.91 2.91 0 0 0 1.034 1.142c2.827 1.8 14.515 8.15 18.553-7.058 4.604-17.351-16.389-30.098-16.173-36.952.213-6.855 40.325 2.383 69.727 31.302 29.402 28.92 13.978 68.685 2.41 76.636 0 0 2.517-28.464-14.299-31.463-16.815-3-20.672 22.92-20.672 22.92s-4.498-23.136-15.637-22.92c-11.139.213-10.819 17.458-10.819 17.458s-1.928-14.781-9.854-17.245c-7.926-2.463-8.247 4.605-8.462 8.14-.201 3.324-1.729 6.742-3.203 8.074a.811.811 0 0 0-.275.618c.019 1.096.14 4.153.908 4.59.938.536 4.07.429 6.078 4.66s-2.289 6.855-4.841 4.205" stroke="#14041E" stroke-width=".411" stroke-linecap="round" stroke-linejoin="round"/><path d="M126.625 189.042s-.823 4.018 1.626 5.202c2.449 1.185 3.334 0 3.334 0" stroke="#14041E" stroke-width=".411" stroke-linecap="round" stroke-linejoin="round"/><path d="M129.477 188.699s-.556 2.41.944 4.418c1.499 2.008 4.605 2.757 5.543-.294l-.864-.037s-1.706-.232-2.262-2.681c-.557-2.449.275-7.431.275-7.431s2.525 1.178 6.446 1.445c3.921.267 6.506-2.57 6.506-2.57s.771 6.105.215 8.554-2.194 2.936-2.194 2.936l-.85.025c.938 3.052 3.962 2.061 5.46.053 1.499-2.008.945-4.418.945-4.418" stroke="#14041E" stroke-width=".411" stroke-linecap="round" stroke-linejoin="round"/><path d="M152.492 189.042s.823 4.018-1.626 5.202c-2.449 1.185-3.334 0-3.334 0M131.764 181.69s.714.76 1.538 1.066M146.062 181.551s.723-.924 1.206-1.608M147.717 128.019s-12.221-.18-15.75.341c-3.531.521-3.948 2.186-3.258 4.882.69 2.695 1.686 7.058 10.638 7.411 8.951.355 11.02-9.021 11.279-10.737.259-1.716-2.141-1.889-2.909-1.897zM134.158 118.229c-.811.392-1.489 1.031-1.831 1.885-.397.987-.241 2.163.262 3.083.505.922 1.524 1.404 2.54 1.492 2.201.193 4.531-1.718 4.333-4.003-.225-2.623-3.186-3.483-5.304-2.457zM142.924 117.773c-.811.392-1.488 1.03-1.831 1.884-.397.988-.241 2.164.262 3.084.505.922 1.524 1.404 2.54 1.492 2.201.193 4.531-1.718 4.334-4.003-.226-2.623-3.187-3.484-5.305-2.457zM127.418 157.29s-.08 20.079 9.279 22.251c11.55 2.681 14.362-15.021 16.066-24.581 1.706-9.561-2.234-8.462-6.35-7.204-4.114 1.258-7.267 1.794-14.226 0-6.96-1.794-4.911 6.489-4.771 9.532l.002.002z" stroke="#14041E" stroke-width=".411" stroke-linecap="round" stroke-linejoin="round"/><path d="M128.779 133.515s4.097.158 11.032.131c6.935-.026 10.049-.843 10.049-.843M132.698 128.271s-1.182 8.013 1.207 11.378M136.985 128.271s-.294 8.489.907 12.1M141.443 128.103s.616 5.1 0 12.445M146.264 128.103s.484 5.192-1.255 11.164M124.066 157.103s1.061 6.165 1.566 10.299M155.763 159.357s-1.772 3.91-2.277 8.045" stroke="#14041E" stroke-width=".411" stroke-linecap="round" stroke-linejoin="round"/></g><defs><clipPath id="clip0_5118_113"><path fill="#fff" transform="translate(31.85 84.548)" d="M0 0h215.382v110.452H0z"/></clipPath></defs></svg>