<svg xmlns="http://www.w3.org/2000/svg" fill="none" viewBox="0 0 280 280"><path fill="#ff3d3d" d="M82.154 206.485c30.461 30.46 79.848 30.46 110.309-.001 30.461-30.46 30.461-79.847 0-110.308s-79.848-30.461-110.309 0-30.46 79.848 0 110.309"/><path stroke="#14041e" stroke-linecap="round" stroke-linejoin="round" stroke-width=".8" d="M82.176 206.463c30.461 30.461 79.848 30.461 110.308 0s30.461-79.848 0-110.309-79.847-30.46-110.308 0-30.461 79.848 0 110.309"/><path fill="#fff" stroke="#14041e" stroke-linecap="round" stroke-linejoin="round" stroke-width=".8" d="M142.853 88.878c-2.207-1.697-2.652-4.858-1.068-7.149 4.539-6.547 13.626-19.113 17.819-21.071 5.72-2.68 17.197.834 18.837 5.275 1.266 3.4-2.029 20.4-3.648 28.17-.51 2.433-2.631 4.201-5.12 4.215-5.671.029-16.186-1.251-26.835-9.44z"/><path fill="#fff" stroke="#14041e" stroke-linecap="round" stroke-linejoin="round" stroke-width=".8" d="M167.161 69.712c5.445 1.628 10.453.962 11.186-1.488.732-2.45-3.088-5.756-8.532-7.384-5.445-1.628-10.453-.962-11.186 1.487-.732 2.45 3.088 5.756 8.532 7.385"/><path stroke="#14041e" stroke-linecap="round" stroke-linejoin="round" stroke-width=".8" d="M160.827 67.015s-9.913 12.883-15.79 23.454M166.626 69.871s-6.52 14.114-12.509 25.534M173.096 70.981s-2.56 15.415-7.199 27.168"/><path fill="#fff" stroke="#14041e" stroke-linecap="round" stroke-linejoin="round" stroke-width=".8" d="M75.72 122.848c-4.313 8.923-7 19.601-7.014 29.528-.014 7.92 2.383 16.228 7.721 22.218 4.406 4.956 12.368 8.831 17.324 2.022 2.164-2.97 2.808-6.767 3.062-10.43.813-11.802 5.014-22.847 10.211-33.361 3.988-8.089 10.005-16.016 11.794-25.187 1.415-7.269-.686-17.247-10.069-16.306-9.532.962-19.127 11.292-24.734 18.314-3.204 4.009-5.997 8.471-8.28 13.202zM88.525 197.554c.212 1.343.884 2.566 1.613 3.705 1.251 1.973 2.75 3.854 4.765 5.049 5.184 3.075 11.837-1.259 11.364-7.234-.403-5.226-6.675-9.56-11.689-8.945-3.57.445-6.647 3.677-6.053 7.425"/><path fill="#f99" d="M192.944 121.886c-2.27-1.563-4.95-2.772-7.701-2.538-1.548.134-3.012.721-4.412 1.371-4.342 2.023-8.549 5.07-10.26 9.553-1.075 2.815-1.047 5.912-1.075 8.924-.12 15.351-1.98 31.226-9.722 44.484-2.058 3.529-4.54 6.887-5.749 10.798-1.209 3.91-.828 8.662 2.206 11.398 3.436 3.112 8.853 2.518 13.18.849 8.203-3.168 14.892-9.348 20.69-15.967 5.41-6.173 10.282-12.926 13.407-20.52 6.279-15.259 4.207-38.191-10.557-48.359z"/></svg>