<svg fill="none" xmlns="http://www.w3.org/2000/svg" viewBox="0 0 280 280"><path d="M104.624 194.432S24.5 213.475 23.331 212.828c-1.163-.648 65.651-40.577 71.08-45.624 5.43-5.04 3.105-6.203-8.917-5.945s-44.844-.515-46.654-2.2c-1.81-1.684 38.298-15.377 45.102-18.739 6.804-3.362 8.785-4.221 5.258-6.289-3.534-2.067-70.011-37.737-72.977-43.338-1.552-2.926 36.356 3.448 48.596 5.86 12.234 2.41 32.743 6.202 34.46 5.257 1.725-.945-5.944-8.871-8.698-12.233-2.755-3.362-14.301-16.712-14.301-18.093 0-1.38 34.097 14.757 37.36 16.243 3.263 1.486 5.463.39 4.069-3.395-1.387-3.778-26.072-66.722-25.88-69.43.192-2.708 51.569 57.448 54.409 59.773 0 0 5.813 7.755 9.822 5.945 4.01-1.81 6.46-20.035 8.402-34.117 1.936-14.09 3.812-29.27 6.077-27.142 4.393 4.135 15.12 51.047 18.35 56.219 3.23 5.172 7.108 1.42 11.89-4.135 4.783-5.555 41.615-43.55 44.719-45.234 3.105-1.678-1.552 10.212-4.908 17.88-3.362 7.67-21.025 56.259-22.399 66.603-1.374 10.344 6.546 12.749 15.166 17.749 8.614 5.001 29.335 12.663 30.24 15.833.905 3.171-32.651 5.708-41.271 9.156-8.613 3.448-19.473 8.27-7.068 28.601 12.405 20.332 46.007 72.548 47.731 79.266 1.724 6.717-3.19 1.981-7.754-1.982-4.565-3.963-46.959-51.007-61.174-56.305-14.214-5.298-20.939 11.243-21.969 18.092 0 0-7.623-19.902-13.568-15.509-5.945 4.392-34.764 57.454-37.869 59.072-3.104 1.625-2.926-53.861-3.448-63.511-.172-11.031-12.577-6.718-12.577-6.718l-.006-.006Z" fill="#FF673D"/><path d="M92.938 115.701s17.624 10.8 19.486 18.766c1.863 7.967-22.537 16.098-22.537 16.098s27.875-5.086 30.583 4.069c2.708 9.155-22.115 27.961-22.115 27.961s26.091-15.081 33.721-6.778c7.622 8.303 1.862 34.738 1.862 34.738s11.441-26.435 23.892-27.194c12.452-.76 15.252 10.932 15.252 10.932s-2.794-9.994 2.966-17.115c5.76-7.121 18.132 7.544 18.132 7.544s-10.423-23.133.931-32.618c11.355-9.492 27.03-10.675 27.03-10.675s-19.572-3.897-20.246-21.011c-.68-17.115 5.252-28.635 5.252-28.635s-8.515 13.937-19.572 11.52c-11.058-2.418-11.943-23.892-11.943-23.892s-.68 22.875-17.286 24.737c-16.607 1.863-20.193-13.897-20.193-13.897s6.466 18.805-5.906 20.675c-12.372 1.862-15.76-7.623-15.76-7.623s7.497 18.726-23.555 12.411l.006-.013Z" fill="#FCFF60"/><path d="M126.535 127.182s8.475 7.034 15.8 3.051c7.326-3.983 4.657-13.554 4.657-13.554s4.32 12.795 15.08 8.812c10.76-3.984 11.52-13.218 11.52-13.218s-1.777 16.943 13.218 11.863c0 0-7.115 12.201 8.131 13.852 0 0-16.137 1.856-13.726 17.795 0 0-12.201.251-13.343 13.218 0 0-4.281-7.372-11.864-6.48-7.583.891-11.394 7.371-11.394 7.371s2.543-8.428-2.246-12.411c-4.789-3.983-12.795 1.565-12.795 1.565s5.252-12.477-3.831-16.797c0 0 12.405-4.215.786-15.061l.007-.006Z" fill="#FFFFE9"/><path d="M104.624 194.432S24.5 213.475 23.331 212.828c-1.163-.648 65.651-40.577 71.08-45.624 5.43-5.04 3.105-6.203-8.917-5.945s-44.844-.515-46.654-2.2c-1.81-1.684 38.298-15.377 45.102-18.739 6.804-3.362 8.785-4.221 5.258-6.289-3.534-2.067-70.011-37.737-72.977-43.338-1.552-2.926 36.356 3.448 48.596 5.86 12.234 2.41 32.743 6.202 34.46 5.257 1.725-.945-5.944-8.871-8.698-12.233-2.755-3.362-14.301-16.712-14.301-18.093 0-1.38 34.097 14.757 37.36 16.243 3.263 1.486 5.463.39 4.069-3.395-1.387-3.778-26.072-66.722-25.88-69.43.192-2.708 51.569 57.448 54.409 59.773 0 0 5.813 7.755 9.822 5.945 4.01-1.81 6.46-20.035 8.402-34.117 1.936-14.09 3.812-29.27 6.077-27.142 4.393 4.135 15.12 51.047 18.35 56.219 3.23 5.172 7.108 1.42 11.89-4.135 4.783-5.555 41.615-43.55 44.719-45.234 3.105-1.678-1.552 10.212-4.908 17.88-3.362 7.67-21.025 56.259-22.399 66.603-1.374 10.344 6.546 12.749 15.166 17.749 8.614 5.001 29.335 12.663 30.24 15.833.905 3.171-32.651 5.708-41.271 9.156-8.613 3.448-19.473 8.27-7.068 28.601 12.405 20.332 46.007 72.548 47.731 79.266 1.724 6.717-3.19 1.981-7.754-1.982-4.565-3.963-46.959-51.007-61.174-56.305-14.214-5.298-20.939 11.243-21.969 18.092 0 0-7.623-19.902-13.568-15.509-5.945 4.392-34.764 57.454-37.869 59.072-3.104 1.625-2.926-53.861-3.448-63.511-.172-11.031-12.577-6.718-12.577-6.718l-.006-.006Z" stroke="#140D1D" stroke-width=".793" stroke-linecap="round" stroke-linejoin="round"/><path d="M92.938 115.701s17.624 10.8 19.486 18.766c1.863 7.967-22.537 16.098-22.537 16.098s27.875-5.086 30.583 4.069c2.708 9.155-22.115 27.961-22.115 27.961s26.091-15.081 33.721-6.778c7.622 8.303 1.862 34.738 1.862 34.738s11.441-26.435 23.892-27.194c12.452-.76 15.252 10.932 15.252 10.932s-2.794-9.994 2.966-17.115c5.76-7.121 18.132 7.544 18.132 7.544s-10.423-23.133.931-32.618c11.355-9.492 27.03-10.675 27.03-10.675s-19.572-3.897-20.246-21.011c-.68-17.115 5.252-28.635 5.252-28.635s-8.515 13.937-19.572 11.52c-11.058-2.418-11.943-23.892-11.943-23.892s-.68 22.875-17.286 24.737c-16.607 1.863-20.193-13.897-20.193-13.897s6.466 18.805-5.906 20.675c-12.372 1.862-15.76-7.623-15.76-7.623s7.497 18.726-23.555 12.411l.006-.013Z" stroke="#140D1D" stroke-width=".793" stroke-linecap="round" stroke-linejoin="round"/><path d="M126.535 127.182s8.475 7.034 15.8 3.051c7.326-3.983 4.657-13.554 4.657-13.554s4.32 12.795 15.08 8.812c10.76-3.984 11.52-13.218 11.52-13.218s-1.777 16.943 13.218 11.863c0 0-7.115 12.201 8.131 13.852 0 0-16.137 1.856-13.726 17.795 0 0-12.201.251-13.343 13.218 0 0-4.281-7.372-11.864-6.48-7.583.891-11.394 7.371-11.394 7.371s2.543-8.428-2.246-12.411c-4.789-3.983-12.795 1.565-12.795 1.565s5.252-12.477-3.831-16.797c0 0 12.405-4.215.786-15.061l.007-.006Z" stroke="#140D1D" stroke-width=".793" stroke-linecap="round" stroke-linejoin="round"/></svg>