<svg xmlns="http://www.w3.org/2000/svg" fill="none" viewBox="0 0 280 280"><g clip-path="url(#a)"><path fill="#D09AFF" d="M186.031 100.92s.476-14.89-.006-17.893c-.481-3-8.999-2.46-8.999-2.46s-29.195-1.054-49.222-1.214c-8.232-.064-14.918.022-17.387.393-8.481 1.279-6.938 22.122-6.938 22.122l1.377.227 7.361-.147c.273 0 .567-.074.84-.089 0 0-.84-10.925 1.141-11.64 1.982-.714 27.073-.815 43.144 0 16.071.816 18.482-.232 19.203.727.721.96.015 9.971.015 9.971h9.474l-.003.003Z"/><path fill="#D09AFF" d="M149.938 101.111s-82.89 1.039-94.25 4.241S0 159.36 0 163.439c0 4.079 30.723 30.244 38.163 34.323 7.44 4.079 72.968.721 123.856 1.199 50.885.482 71.833 2.117 80.651-6.002 21.123-19.442 36.964-31.443 37.326-37.565.362-6.122-22.684-47.407-40.924-51.486-18.242-4.08-89.131-2.8-89.131-2.8l-.003.003Z"/><path fill="#A238FF" d="M78.169 115.268s-22.963-.319-32.085 21.043c-9.121 21.362 29.358 32.139 46.165 10.56 15.642-20.083 1.76-32.483-14.08-31.603ZM220.244 111.284s22.862 2.159 29.625 24.383c6.762 22.224-32.655 28.784-47.036 5.517-13.382-21.653 1.757-32.482 17.411-29.9ZM123.338 114.793s-13.842 35.942-12.002 38.614c1.841 2.671 67.905 1.272 67.448-.93-2.482-12.001-6.199-38.485-10.661-40.086-4.463-1.601-43.028.801-43.746 1.12-.717.319-1.039 1.279-1.039 1.279v.003Z"/><path fill="#A238FF" d="M.123 164.16s3.3 4.376 5.935 6.947c2.637 2.57 21.187 18.736 21.187 18.736s9.186 7.652 11.992 8.345c2.81.694 15.369 1.641 26.471 1.617 11.103-.025 58.308-.681 58.308-.681l73.008.267s24.563.598 32.016-1.141c7.453-1.739 8.508-1.684 13.63-5.285 5.122-3.6 7.018-6.532 21.592-19.347 14.575-12.817 15.391-16.727 15.391-16.727l.223-2.748s-.358 3.601-3.781 4.441c-3.42.84-2.159 1.199-13.501 1.92-11.342.721-37.056 1.96-37.056 1.96l-75.4 1.46-76.29 1.199-53.167.905H6.3s-4.98-.065-5.91-2.525c-.39-.061-.27.66-.27.66l.003-.003ZM103.537 93.581s.515 4.147 4.536 4.628c4.021.482 4.855-3.422 4.855-3.422l.126 7.072-9.686.236.169-8.517v.003ZM176.784 93.71s.84 3.901 4.861 3.901 4.579-5.76 4.579-5.76l-.193 9.073h-9.474l.227-7.211v-.003Z"/><path fill="#8122D6" d="M73.624 199.747s46.631-35.311 51.192-35.431c4.561-.119 92.413-1.539 92.413-1.539l35.225-1.5s17.641-1.426 20.641-2.064c2.999-.638 3.999-.908 5.149-1.791 1.151-.884 1.592-2.804 1.592-2.804s1.138 2.779-3.38 7.318c-4.52 4.543-28.183 26.064-28.183 26.064l-6.799 5.919s-4.981 4.064-14.823 4.739c-9.842.678-70.99.481-70.99.481l-47.465.181-34.572.424v.003Z"/><path fill="#FCFF60" d="M78.372 111.487s-22.963-.319-32.084 21.043c-9.122 21.361 29.357 32.139 46.165 10.559 15.641-20.083 1.76-32.483-14.081-31.602Z"/><path fill="#A238FF" d="M76.593 116.584s-16.442-.23-22.972 15.065c-6.53 15.296 21.021 23.012 33.053 7.56 11.201-14.378 1.261-23.257-10.08-22.628v.003Z"/><path fill="#FCFF60" d="M219.584 108.042s22.862 2.159 29.624 24.383c6.763 22.224-32.654 28.784-47.036 5.518-13.381-21.653 1.758-32.483 17.412-29.901Z"/><path fill="#A238FF" d="M220.803 113.302s16.368 1.546 21.211 17.458c4.843 15.912-23.38 20.607-33.676 3.95-9.581-15.504 1.258-23.257 12.465-21.408Z"/><path fill="#FCFF60" d="M123.338 111.885s-13.842 35.943-12.002 38.614c1.841 2.672 67.905 1.273 67.448-.929-2.482-12.001-6.199-38.485-10.661-40.086-4.463-1.601-43.028.8-43.746 1.119-.717.319-1.039 1.279-1.039 1.279v.003Z"/><path fill="#EAD1FF" d="M37.63 119.525s11.64-10.934 23.521-12.795c11.882-1.862 114.072-3.181 142.037-2.699 27.966.481 42.804 1.478 53.628 12.501 0 0-8.26-9.799-17.743-12.621 0 0-1.319-.181-8.162-1.199-6.839-1.021-27.121-1.442-27.121-1.442l-33.726-.319-63.088 1.12-33.56 1.377s-14.222.644-18.494 2.175c-4.273 1.53-17.292 13.905-17.292 13.905v-.003Z"/><path fill="#FFD83C" d="M52.878 133.02s1.248-5.226-1.07-6.066c-2.322-.841-5.877 2.87-6.898 9.455s2.337 17.792 24.049 18.209c21.472 0 28.471-21.11 29.336-23.352.865-2.242-.72-4.849-4.5-4.432-3.778.417-1.435 3.401-5.336 9.41-3.904 6.008-8.447 11.658-22.166 11.262-14.74-2.604-14.78-11.063-13.409-14.489l-.006.003ZM238.643 123.773s6.346 8.744 2.187 15.624c-4.162 6.879-19.614 7.781-28.223.371-8.612-7.41-6.959 1.57-4.371 5.26 2.589 3.689 13.82 9.051 27.174 6.56 13.351-2.49 14.155-11.406 14.262-14.071.107-2.666-1.451-9.06-4.782-14.011-3.33-4.95-9.014-6.033-6.247.267Z"/><path fill="#FFFEDC" d="M198.689 117.161c-.515 1.493-.672 3.34.429 4.474.295.304.69.54 1.114.519.331-.016.631-.184.907-.365a10.296 10.296 0 0 0 4.291-5.76c.31-1.08.39-2.242-.435-3.107-.657-.684-1.448-.997-2.35-.629-1.953.798-3.297 2.96-3.956 4.864v.004ZM73.296 112.453c-.5.214-1.058.579-1.04 1.125.019.577.666.899 1.221 1.049a11.2 11.2 0 0 0 4.846.218c.782-.138 1.555-.362 2.239-.764 1.395-.822.543-2.082-.687-2.481-1.138-.368-2.74-.138-3.88.055-.93.157-1.837.426-2.702.798h.003Z"/><path fill="#FFD83C" d="m131.187 151.827 29.612-43.015s7.493-.629 8.679 2.095c0 0 2.307 4.524 3.626 10.765 1.319 6.241 2.8 13.363 2.8 13.363l2.23 12.86.3 1.712s-3.37.95-9.17 1.23c-5.8.279-38.074.99-38.074.99h-.003Z"/><path fill="#A238FF" d="M120.937 138.851s-2.325 5.349-1.926 5.91c.399.561 51.146-.586 51.225-1.626.08-1.039-.174-6.802-1.214-6.882-1.04-.08-46.125 1.38-46.926 1.46-.8.08-1.159 1.141-1.159 1.141v-.003ZM128.205 116.047s-5.935 15.523-5.426 16.642c.509 1.12 44.003-.319 45.616-1.04 1.61-.72-2.205-17.282-3.729-17.522-1.525-.239-13.906.319-20.519.319-6.612 0-15.602 0-15.939 1.601h-.003Z"/><path fill="#FCFF60" d="M131.73 122.914c-.703 1.408-.295 3.331 1.021 4.19.978.638 2.322.622 3.334.034 1.012-.589 1.674-1.7 1.806-2.862.157-1.38-.699-3.285-2.211-3.561-1.512-.276-3.312.926-3.95 2.199ZM143.188 122.368c-.703 1.408-.295 3.331 1.021 4.19.978.638 2.322.623 3.334.034s1.674-1.699 1.806-2.862c.157-1.38-.699-3.285-2.211-3.561-1.512-.276-3.312.927-3.95 2.199ZM155.407 122.068c-.702 1.408-.294 3.331 1.022 4.189.978.638 2.321.623 3.334.034 1.012-.589 1.674-1.699 1.806-2.861.156-1.381-.699-3.285-2.211-3.561-1.479-.273-3.313.926-3.951 2.199Z"/><path stroke="#14041E" stroke-linecap="round" stroke-linejoin="round" stroke-width=".657" d="M186.031 100.92s.476-14.89-.006-17.893c-.481-3-8.999-2.46-8.999-2.46s-29.195-1.054-49.222-1.214c-8.232-.064-14.918.022-17.387.393-8.481 1.279-6.938 22.122-6.938 22.122"/><path stroke="#14041E" stroke-linecap="round" stroke-linejoin="round" stroke-width=".657" d="M113.054 101.862s-.84-10.925 1.141-11.64c1.981-.714 27.073-.815 43.144 0 16.071.817 18.482-.232 19.203.728.72.96.015 9.971.015 9.971"/><path stroke="#14041E" stroke-linecap="round" stroke-linejoin="round" stroke-width=".657" d="M149.938 101.111s-82.89 1.039-94.25 4.241S0 159.36 0 163.439c0 4.079 30.723 30.244 38.163 34.323 7.44 4.079 72.968.721 123.856 1.199 50.885.482 71.833 2.117 80.651-6.002 21.123-19.442 36.964-31.443 37.326-37.565.362-6.122-22.684-47.407-40.924-51.486-18.242-4.08-89.131-2.8-89.131-2.8l-.003.003Z"/><path stroke="#14041E" stroke-linecap="round" stroke-linejoin="round" stroke-width=".657" d="M.92 161.436s-2.437 3.202 3.163 4.322c5.6 1.119 97.133-1.641 163.841-2.163 66.708-.518 104.672-3.119 108.831-5.198 4.162-2.08 2.616-5.993 2.616-5.993M78.169 111.352s-22.963-.319-32.085 21.043c-9.121 21.361 29.358 32.139 46.165 10.559 15.642-20.083 1.76-32.483-14.08-31.602Z"/><path stroke="#14041E" stroke-linecap="round" stroke-linejoin="round" stroke-width=".657" d="M76.393 116.449s-16.443-.23-22.972 15.065c-6.53 15.296 21.021 23.012 33.053 7.56 11.201-14.378 1.26-23.257-10.081-22.628v.003ZM219.385 107.91s22.861 2.159 29.624 24.383c6.763 22.224-32.655 28.784-47.036 5.518-13.381-21.654 1.758-32.483 17.412-29.901Z"/><path stroke="#14041E" stroke-linecap="round" stroke-linejoin="round" stroke-width=".657" d="M220.602 113.167s16.369 1.546 21.212 17.458c4.843 15.912-23.38 20.607-33.676 3.95-9.581-15.504 1.257-23.257 12.464-21.408ZM123.136 111.753s-13.842 35.943-12.002 38.614c1.841 2.672 67.904 1.273 67.447-.929-2.481-12.001-6.198-38.485-10.661-40.086-4.462-1.601-43.027.8-43.745 1.119-.717.319-1.039 1.279-1.039 1.279v.003Z"/><path stroke="#14041E" stroke-linecap="round" stroke-linejoin="round" stroke-width=".657" d="M128.006 115.912s-5.934 15.522-5.425 16.642c.509 1.119 44.003-.319 45.616-1.04 1.613-.721-2.205-17.283-3.73-17.522-1.524-.239-13.906.319-20.518.319-6.613 0-15.602 0-15.94 1.601h-.003Z"/><path stroke="#14041E" stroke-linecap="round" stroke-linejoin="round" stroke-width=".657" d="M131.527 122.779c-.702 1.408-.294 3.331 1.022 4.19.978.638 2.322.622 3.334.034 1.012-.589 1.674-1.7 1.806-2.862.157-1.38-.699-3.285-2.211-3.561-1.479-.273-3.313.926-3.951 2.199ZM142.988 122.237c-.702 1.407-.294 3.33 1.022 4.189.978.638 2.321.623 3.334.034 1.012-.589 1.674-1.699 1.806-2.862.156-1.38-.699-3.285-2.211-3.561-1.479-.273-3.313.927-3.951 2.2ZM155.208 121.933c-.702 1.408-.294 3.331 1.021 4.189.979.638 2.322.623 3.334.034s1.675-1.699 1.807-2.861c.156-1.381-.7-3.285-2.212-3.561-1.512-.276-3.312.926-3.95 2.199ZM120.738 138.716s-2.325 5.349-1.926 5.91c.398.561 51.146-.586 51.225-1.626.08-1.039-.175-6.802-1.214-6.882-1.04-.08-46.125 1.38-46.926 1.46-.8.08-1.159 1.141-1.159 1.141v-.003Z"/></g><defs><clipPath id="a"><path fill="#fff" d="M0 0h280v280H0z"/></clipPath></defs></svg>