<svg xmlns="http://www.w3.org/2000/svg" fill="none" viewBox="0 0 280 280"><g clip-path="url(#a)"><path fill="#FF3D3D" d="M97.987 265.491s-3.417-3.179-7.17-9.263c-2.59-4.205-5.474-9.846-6.963-16.578-3.643-16.483-1.7-23.215-.581-27.762l.93-3.094.17-.456-1.503-3.033s-12.334-27.694-15.952-47.758c-3.617-20.064-9.764-45.52-.698-71.325 4.644-15.125 14.886-30.963 34.519-41.558C122.043 34.397 144.73 29.75 159 28.898c13.061-1.568 32.444 3.218 40.092 12.213 7.648 8.785 13.97 19.034 14.376 34.159.057 11.743-1.963 18.09-1.963 18.09l-1.444 5.898-2.426 7.965s4.433-6.857 12.851-2.684c8.328 3.265 8.239 16.298 8.239 16.298s1.165 26.977-15.478 51.707c-10.662 15.028-21.45 24.048-21.45 24.048l-10.36 8.378s-5.705 3.621-7.562 6.793c0 0-3.299 1.995-2.536 2.301.759.307-5.179 8.368-4.516 14.904.866 6.511 6.492 14.903 6.492 14.903s1.216 8.829 0 10.839c-1.215 2.01 1.207 1.829-1.976 5.871-.837 1.528 1.976 2.554 1.976 2.554s-3.321 10.053-16.853 14.33c-6.379 1.579-9.284 2.017-9.284 2.017s-31.6 4.212-49.187-13.988l-.004-.003Z"/><path fill="#950800" d="M92.125 86.417S87.874 94.974 79.3 98.833c-8.585 3.856-4.298 4.516-2.826 4.591 1.472.057 7.83-1.451 7.83-1.454.042.003-9.402 4.098-10.45 17.701-.007.039 9.277-6.23 11.679-9.13.01.017-5.214 6.878-5.093 16.593.154 9.746 1.593 10.313 2.513 10.431.934.121 2.477-2.702 3.475-4.658.994-1.95 2.434-4.754 4.265-6.362 0 0 .364-.566.16 1.365-.274 1.96-2.612 19.804.421 23.981 2.916 4.237 5.692-9.957 6.323-9.989.573-.018 4.091 12.498 8.164 17.972 4.056 5.463 5.709 3.482 5.488 1.315-.231-2.163-.385-5.292 1.03-7.798.039-.024 7.866 21.18 13.315 20.453 5.491-.741 10.345-18.881 11.931-20.271 1.572-1.404-1.386 14.298-.249 14.277 1.005.021 16.899-15.096 17.17-35.093.025.007 2.145 11.679 6.094 10.695 3.967-1.026 9.245-16.839 7.131-31.8.011.011 2.858 7.855 4.772 6.686 1.957-1.158.549-12.281-4.519-17.263-5.035-4.978-7.765-6.575-7.762-6.568-.01.004 12.171 3.297 14.708.677 2.52-2.633-12.78-3.927-19.879-14.5 0 0 1.18-2.164 1.828-3.465.649-1.3 1.675-5.392-.324-8.09-1.999-2.698-3.439-2.883-3.439-2.883s-2.256-6.397-7.929-5.17c-5.674 1.225-8.015 3.403-8.015 3.403s6.628-4.252 6.115-6.854c-.695-1.999-7.584-2.59-11.732 6.09l-.381.486s2.555-8.507-.093-9.762c-2.648-1.254-5.795 1.807-6.479 10.827 0 0-3.425-11.386-9.558-9.665-1.443.884-1.579 1.347-1.628 2.37-.05 1.023.605 4.045.605 4.045l1.522 3.25s-6.03-5.666-11.283-2.715c-.256.673-.509 1.14-.117 2.184.395 1.044 1.208 2.256 1.208 2.256s-8.158-4.462-13.924 3.767c-5.021 9.113.755 15.656.755 15.656l.004.003Z"/><path fill="#FFD83C" d="M149.36 91.802s-1.148-1.39.15-1.9c1.297-.512 8.171 1.177 8.635-.035.452-1.215-5.539-4.24-5.831-6.806l-.509.05c5.591-2.766 8.906-12.791 1.315-16.64-1.789-.909-3.753-1.155-5.624-.873-9.009 1.404-8.186 11.09-8.179 11.066-6.678-6.736-14.529 4.54-14.579 4.547-5.047-10.52-12.609-2.733-12.648-2.74-2.31-15.083-18.143-16.455-21.878-4.801-3.211 9.978 3.025 14.063 4.704 14.986h-.014s-4.722 9.09-6.679 11.211c0 .007 4.829-3.556 6.746-4.29 0 .02-5.901 10.11-6.924 14.597 0 .021 7.602-6.28 8.385-6.166.774.189-9.205 12.923-7.398 16.868.143 1.45 6.354-6.522 10.81-8.45-.012.025-4.794 13.407-4.349 21.7-.007.011 4.69-5.937 7.791-8.731-.011.007-1.611 10.167-1.041 14.64 0 0 1.319-3.446 4.298-5.435-.018-.004 1.368 16.226 2.256 16.212.862-.018 2.676-6.903 6.696-5.36 4.024 1.536 6.686 19.85 9.804 19.665 3.151-.203 2.181-11.08 5.991-15.524 0 0 .909 5.025 2.213 4.793 1.304-.235 3.956-9.056 3.956-9.056.003 0 1.461 5.888 2.851 5.047 1.404-.841 2.74-12.352 2.73-12.352.018.003 1.657 12.409 3.549 11.393 1.91-1.044 7.559-19.209 4.394-32.177 0 0 4.348 1.938 5.414 6.382 1.09 4.405 4.576-12.059-5.606-19.358 0 0 6.358 1.24 8.671 5.31 1.468 1.465-3.126-11.404-10.111-17.776l.011.003Z"/><path fill="#FFFFC0" d="M105.523 89.956s-1.465 2.37-.628 5.125c.838 2.755 3.279 2.776 5.022 2.626a29.806 29.806 0 0 0 3.346-.499l1.917-1.044 1.29-.873s-8.923-6.728-10.947-5.335ZM132.993 95.288s4.462 3.382 9.205 2.196c4.74-1.187 2.442-7.26 2.442-7.26s-.385-.549-1.362-.463c-.976.086-1.953.364-3.695 1.304-1.743.941-6.173 3.974-6.173 3.974l-.417.242v.007Z"/><path fill="#950800" d="m84.372 208.335-1.75 6.272s1.66 7.573 7.655 15.474c5.994 7.901 19.059 16.176 35.513 17.014 16.454.837 31.771-4.555 31.771-4.555s10.46-3.973 11.401-2.459c.941 1.518 3.546 17.798-4.533 29.512 0 0-.61 1.326-2.947 3.731-2.335 2.406-4.288 3.732-4.288 3.732s2.37-.688 4.444-1.729c2.074-1.04 10.424-3.988 14.68-20.096 3.67-16.201-.628-26.472-.628-26.472s-.509-3.557-6.322-.976c-5.809 2.58-10.039 4.672-10.039 4.672s-14.85 7.947-36.978 4.601c-21.568-2.976-37.334-24.918-37.983-28.717l.004-.004Z"/><path fill="#D71F14" d="M118.59 236.264c-24.404-5.114-35.605-30.727-35.605-30.727s-5.029-10.702-7.075-16.547c-2.045-5.841-5.744-18.083-5.744-18.083l-2.2-9.251s22.446 59.173 56.177 63.553c26.475 3.439 52.038-16.418 52.038-16.418s-5.798 5.937-8.792 19.875c0 0-13.122 8.321-32.181 9.18-13.132-.328-16.621-1.582-16.621-1.582h.003Z"/><path stroke="#14041E" stroke-linecap="round" stroke-linejoin="round" stroke-width=".535" d="M84.403 208.267s-6.365 15.339.649 35.164c7.252 20.499 17.014 32.074 47.135 36.258 0 0 28.449 3.439 38.859-12.552 10.414-15.99 6.415-37.744 3.625-39.697-2.791-1.953-7.516 1.679-15.528 5.114-12.038 5.161-48.856 14.783-71.447-18.685 0 0-17.152-24.543-24.682-78.371-7.53-53.827 17.291-84.6 48.157-95.385 30.866-10.784 87.576-27.704 100.962 25.474 6.693 25.289-14.034 64.334-14.034 64.334s-6.372 12.551-12.37 21.892"/><path stroke="#14041E" stroke-linecap="round" stroke-linejoin="round" stroke-width=".535" d="M167.392 228.649s2.722-14.224 9.137-20.011c6.415-5.788 26.497-17.178 40.442-42.277 13.945-25.1 15.431-55.41 5.207-60.987-10.228-5.578-14.416 1.856-14.416 1.856M82.625 214.856s4.162 19.555 25.203 28.108c29.736 12.085 58.525-5.952 61.033-3.022 2.509 2.929 2.773 32.156-14.65 38.182M92.128 86.634s-4.252 8.557-12.826 12.417c-8.585 3.856-4.298 4.515-2.826 4.59 1.472.057 7.83-1.451 7.83-1.454.042.003-9.402 4.098-10.45 17.701-.007.039 9.277-6.229 11.679-9.13.01.017-5.214 6.878-5.093 16.593.154 9.747 1.593 10.313 2.513 10.431.933.121 2.477-2.702 3.475-4.658.994-1.949 2.434-4.754 4.265-6.361 0 0 .364-.567.16 1.365-.274 1.96-2.612 19.803.421 23.98 2.915 4.238 5.692-9.957 6.322-9.989.574-.018 4.092 12.498 8.165 17.972 4.056 5.463 5.709 3.482 5.488 1.315-.231-2.163-.385-5.292 1.03-7.797.039-.025 7.865 21.179 13.314 20.452 5.492-.741 10.346-18.881 11.932-20.271 1.572-1.404-1.386 14.298-.249 14.277 1.005.021 16.899-15.096 17.17-35.093.025.007 2.145 11.679 6.094 10.695 3.966-1.026 9.244-16.839 7.131-31.799.011.01 2.858 7.854 4.772 6.685 1.957-1.158.549-12.281-4.519-17.263-5.035-4.978-7.765-6.575-7.762-6.568-.01.004 12.171 3.297 14.708.677 2.52-2.633-12.78-3.927-19.879-14.5"/><path stroke="#14041E" stroke-linecap="round" stroke-linejoin="round" stroke-width=".535" d="M95.319 88.87c-.004-.043-8.8-3.725-5.107-15.197 3.731-11.65 19.565-10.281 21.878 4.8.039.004 7.605-7.779 12.648 2.741.05-.007 7.901-11.282 14.579-4.547-.003.025-.83-9.661 8.179-11.066 1.868-.281 3.831-.035 5.624.874 7.951 4.03 3.938 14.84-2.117 16.985"/><path stroke="#14041E" stroke-linecap="round" stroke-linejoin="round" stroke-width=".535" d="M94.903 88.656s-4.722 9.09-6.679 11.208c0 .007 4.829-3.557 6.746-4.291 0 .021-5.901 10.11-6.924 14.597 0 .021 7.601-6.279 8.385-6.165.774.189-9.205 12.922-7.398 16.867.143 1.451 6.354-6.522 10.809-8.45-.01.025-4.793 13.407-4.348 21.7-.007.011 4.69-5.937 7.791-8.731-.011.007-1.611 10.167-1.041 14.64 0 0 1.319-3.446 4.298-5.435-.018-.003 1.368 16.226 2.256 16.212.862-.018 2.676-6.903 6.696-5.36 4.024 1.536 6.686 19.85 9.804 19.665 3.151-.203 2.181-11.08 5.991-15.524 0 0 .909 5.025 2.213 4.793 1.304-.235 3.956-9.055 3.956-9.055.003 0 1.461 5.887 2.851 5.046 1.404-.841 2.74-12.352 2.73-12.352.018.004 1.657 12.409 3.549 11.393 1.91-1.044 7.559-19.208 4.394-32.177 0 0 4.348 1.939 5.414 6.383 1.09 4.405 4.576-12.06-5.606-19.359 0 0 6.358 1.241 8.671 5.31 1.468 1.465-3.126-11.404-10.111-17.776 0 0-1.147-1.39.15-1.9 1.297-.513 8.172 1.177 8.635-.035.452-1.215-5.538-4.24-5.83-6.807M105.938 67.744s-2.096-1.943-2.142-4.26c-.032-2.344 9.554-2.672 12.516 3.33-.039-.022-5.57-9.28-1.629-10.906 3.892-1.636 8.119 3.372 10.05 10.232 0 .007.221-11.693 5.036-11.768 4.847-.042.987 10.553.959 10.556.046-.003 5.477-10.809 11.414-8.21 4.348 1.414-5.21 8.239-5.256 8.281.035-.028 7.997-6.225 12.434-3.171 3.364 2.355 3.806 4.647 3.802 4.647"/><path stroke="#14041E" stroke-linecap="round" stroke-linejoin="round" stroke-width=".535" d="M123.085 96.325s-.784.395-4.009-.125c-3.25-.549-12.16-8.215-13.731-6.002-.841 1.152-.827 2.955-.624 4.405a3.602 3.602 0 0 0 3.072 3.076c.916.132 2.06.178 3.396-.01 3.732-.525 5.296-2.342 5.296-2.342"/><path fill="#14041E" stroke="#14041E" stroke-linecap="round" stroke-linejoin="round" stroke-width=".535" d="M113.838 93.698c-.11 4.112-4.804 4.497-6.104 2.62-1.301-1.879.085-5.942.082-5.942 0 0 2.911 1.262 4.208 2.06 1.298.798 1.814 1.262 1.814 1.262Z"/><path stroke="#14041E" stroke-linecap="round" stroke-linejoin="round" stroke-width=".535" d="M126.588 96.314s.784.389 4.009-.15c3.25-.56 12.16-8.339 13.731-6.133.841 1.151.831 2.969.628 4.43a3.645 3.645 0 0 1-3.072 3.118c-.916.14-2.06.19-3.397.011-3.731-.502-5.299-2.317-5.299-2.317"/><path fill="#14041E" stroke="#14041E" stroke-linecap="round" stroke-linejoin="round" stroke-width=".535" d="M141.86 90.227s1.39 4.077.085 5.976c-1.304 1.9-5.998 1.54-6.108-2.59 0 0 4.715-3.39 6.023-3.39v.004ZM110.937 112.145s1.318 5.338 1.389 8.467c0 0 .464 8.14 4.612 8.906s16.212.731 18.026-.349 2.811-8.888 2.811-8.888c.054-1.558 1.533-9.042 1.533-9.042s-13.429-.235-28.368.902l-.003.004Z"/><path stroke="#14041E" stroke-linecap="round" stroke-linejoin="round" stroke-width=".535" d="M198.752 128.648s.72 13.607-1.443 22.252"/><path fill="#FBBBFF" stroke="#14041E" stroke-linecap="round" stroke-linejoin="round" stroke-width=".49" d="M219.572 53.578c-1.435-.246-3.005-.75-3.682-2.04-.573-1.086-.319-2.463.349-3.494.668-1.03 1.683-1.778 2.705-2.458 7.238-4.815 15.876-7.32 24.551-7.852 3.018-.186 6.669.116 7.673 3.504.874 2.951-1.001 4.301-3.306 5.62-5.348 3.067-11.82 5.23-17.865 6.411-3.43.67-6.964.898-10.422.303l-.003.006ZM218.181 31.274c-3.186 2.987-7.243 5.482-11.112 5.268-1.077-.06-2.217-.378-2.895-1.216-.596-.736-.733-1.752-.637-2.697.276-2.67 2.166-4.868 4.07-6.762 1.79-1.783 3.712-3.495 6.005-4.556 2.696-1.247 7.908-2.021 9.359 1.473.779 1.878-.296 3.478-1.484 4.852-1.086 1.25-2.103 2.506-3.307 3.634l.001.004ZM201.819 15.52c-1.202 4.2-3.402 8.425-6.828 10.224-.953.501-2.096.815-3.108.442-.89-.324-1.53-1.13-1.93-1.988-1.132-2.434-.638-5.29.023-7.892.622-2.447 1.392-4.903 2.813-6.991 1.673-2.453 5.749-5.794 8.788-3.54 1.63 1.21 1.532 3.139 1.217 4.927-.288 1.632-.516 3.23-.973 4.815l-.002.003Z"/><path fill="#fff" stroke="#14041E" stroke-linecap="round" stroke-linejoin="round" stroke-width=".535" d="M119.224 116.838s-1.404 6.515-2.908 6.408c-1.507-.111-3.834-8.817-3.831-8.813 0 0 3.496 1.924 6.736 2.405h.003ZM137.818 114.023s-2.352 9.148-3.859 9.251c-1.501.103-2.905-6.429-2.908-6.429 0 0 4.127-.894 6.764-2.822h.003Z"/><path fill="#FCFF60" stroke="#14041E" stroke-linecap="round" stroke-linejoin="round" stroke-width=".535" d="M135.914 126.842c0 .035-22.584-1.693-24.808 2.02-2.216 3.735 5.635 10.139 14.01 10.763 8.371.602 15.317-8.371 15.103-10.071-.217-1.714-1.693-2.523-4.301-2.709l-.004-.003Z"/><path fill="#FF3D3D" stroke="#14041E" stroke-linecap="round" stroke-linejoin="round" stroke-width=".535" d="M132.825 126.667c-1.03-3.45-4.822-5.118-8.963-4.237-4.142.88-5.759 4.297-5.759 4.297s5.616-.21 7.64-.26c2.021-.05 7.082.196 7.082.196v.004Z"/><path fill="#FCFF60" d="M118.532 104.432s-8.283-.264-9.191 4.961c-.909 5.203 9.319 8.635 18.759 7.808 9.441-.841 12.556-5.424 12.848-7.43.296-2.01-4.551-4.922-9.198-4.498"/><path stroke="#14041E" stroke-linecap="round" stroke-linejoin="round" stroke-width=".535" d="M118.532 104.432s-8.283-.264-9.191 4.961c-.909 5.203 9.319 8.635 18.759 7.808 9.441-.841 12.556-5.424 12.848-7.43.296-2.01-4.551-4.922-9.198-4.498"/><path fill="#14041E" stroke="#14041E" stroke-linecap="round" stroke-linejoin="round" stroke-width=".535" d="M127.326 109.757s5.538-4.402 5.859-7.538c.324-3.136-3.874-2.719-7.366-2.576-3.493.135-8.097.032-8.119 2.591-.025 2.555 5.435 7.462 6.704 7.74 1.265.275 2.363.25 2.922-.217Z"/><path stroke="#14041E" stroke-linecap="round" stroke-linejoin="round" stroke-width=".535" d="M160.009 173.231c0 .078 0 .078 0 0ZM94.331 174.652c0 .078 0 .078 0 0ZM100.743 176.717c0 .077 0 .077 0 0ZM176.184 75.227c0 .078 0 .078 0 0ZM126.586 41.13c0 .077 0 .077 0 0ZM112.664 47.929c0 .077 0 .077 0 0ZM70.2 131.535c0 .078 0 .078 0 0Z"/></g><defs><clipPath id="a"><path fill="#fff" d="M0 0h280v280H0z"/></clipPath></defs></svg>