<svg fill="none" xmlns="http://www.w3.org/2000/svg" viewBox="0 0 280 280"><path d="M133.456 115.721s-15.342-39.646-35.238-55.443C78.322 44.483 59.812 41.14 44.295 41.6c-15.511.454-18.19 12.11-13.514 18.149 4.67 6.038 6.836 4.326 9.683 10.253 2.847 5.922 3.534 9.113 8.542 12.076 5.013 2.964 1.14 10.254 3.872 19.593 2.736 9.339 4.442 9.188 4.326 14.05-.117 4.862.99 23.698 11.849 24.606 0 0-14.353 4.251-17.09 17.468-2.736 13.217 4.862 15.796 4.862 15.796s-5.089 10.557-1.67 20.24c3.417 9.683 10.136 11.278 10.136 11.278s3.913 23.622 21.532 30.912c17.619 7.29 19.442 1.065 27.949-11.238 8.506-12.303 11.697-17.013 15.191-28.862 3.493-11.849 3.452-33.759 3.493-37.672.041-3.913.379-6.265.379-6.265M147.245 115.971s15.342-39.645 35.238-55.442c19.896-15.797 38.411-19.139 53.923-18.685 15.511.454 18.189 12.111 13.52 18.15-4.67 6.037-6.836 4.325-9.683 10.253-2.848 5.927-3.535 9.112-8.542 12.076-5.013 2.963-1.141 10.253-3.872 19.593-2.737 9.339-4.443 9.188-4.326 14.049.116 4.862-.99 23.698-11.849 24.607 0 0 14.353 4.25 17.089 17.467 2.737 13.218-4.862 15.797-4.862 15.797s5.089 10.556 1.671 20.239c-3.417 9.683-10.137 11.278-10.137 11.278s-3.912 23.623-21.532 30.912c-17.619 7.29-19.441 1.066-27.948-11.237-8.507-12.303-11.697-17.014-15.191-28.863-3.493-11.848-3.453-33.759-3.493-37.672-.041-3.912-.379-6.265-.379-6.265" fill="#96F9F3"/><path d="M161.718 63.953c-.378-1.974-4.879-4.292-5.618 4.023 0 0-2.05 2.05-3.418 7.977-1.369 5.921-1.252 10.766-2.679 13.042-1.356 2.166-6.317 10.644-6.795 11.459-1.339-.908-2.556-1.461-2.556-1.461-.46-.128-.733.029-.733.029s-.612.273-1.444.75c-.792-1.35-5.415-9.245-6.714-11.324-1.426-2.277-1.31-7.12-2.678-13.042-1.368-5.922-3.418-7.977-3.418-7.977-.739-8.315-5.24-5.998-5.619-4.024-.378 1.974 3.377 3.686 4.67 7.255 1.292 3.57 1.805 15.68 4.309 18.586 2.299 2.666 6.247 10.964 6.882 12.309-1.042.896-1.916 1.973-2.067 3.132-.419 3.133.891 2.964 1.065 5.98.169 3.022-4.273 9.054-5.071 16.687-.798 7.634 3.435 13.841 4.006 17.946.57 4.099-2.352 26.201 5.962 30.527h.938c8.314-4.326 5.391-26.428 5.962-30.527.57-4.1 4.804-10.312 4.006-17.946-.798-7.633-5.241-13.671-5.072-16.687.169-3.016 1.479-2.847 1.066-5.98-.157-1.199-1.083-2.311-2.16-3.231l1.228.838s4.466-9.596 6.97-12.5c2.504-2.906 3.016-15.017 4.309-18.587 1.292-3.569 5.048-5.28 4.669-7.254Z" fill="#D6ABFF"/><path d="M133.841 151.862s-.343 2.352-.378 6.265c-.041 3.912 0 25.823-3.494 37.672-3.493 11.849-6.684 16.553-15.191 28.862-8.507 12.303-10.329 18.533-27.948 11.238-17.62-7.29-21.532-30.912-21.532-30.912s-6.72-1.596-10.137-11.279c-3.418-9.683 1.671-20.239 1.671-20.239s-7.593-2.579-4.862-15.796c2.737-13.218 17.09-17.468 17.09-17.468-10.86-.914-11.96-19.744-11.85-24.606.117-4.862-1.595-4.711-4.326-14.05-2.736-9.34 1.142-16.635-3.872-19.593C44 78.992 43.318 75.8 40.471 69.88c-2.848-5.922-5.014-4.216-9.683-10.254-4.682-6.038-2.003-17.694 13.508-18.149 15.511-.454 34.021 2.888 53.923 18.685 19.901 15.797 35.238 55.442 35.238 55.442l-1.025 2.481s.419-1.025-.273.605c-.693 1.631-1.584 4.979-1.584 4.979l-.227-.693s-5.089-18.3-18.149-37.596c-13.06-19.296-25.218-34.185-58.028-38.435 0 0 1.217 2.66-.914 6.836-2.125 4.174-2.201 7.976 2.2 12.605 4.409 4.635 9.189 6.073 8.659 13.823-.53 7.744-1.898 6.836.227 12.53 2.125 5.695 1.596 6.609.227 12.303-1.368 5.695 1.066 9.188.99 12.001-.076 2.812-3.342 10.137 5.089 15.377 8.431 5.24 11.337 3.761 11.278 6.894-.058 3.133-14.847 8.641-16.216 20.484-1.368 11.849.379 16.553 3.797 24.379 3.418 7.82 5.391 18.224 10.707 26.201 5.316 7.977 9.34 6.76 13.52 6.836 4.181.076 5.922 4.408 8.734 3.267 2.813-1.142 2.126-4.862 8.658-9.724 6.533-4.862 8.356-4.559 9.264-11.849.914-7.29 1.403-13.631 4.024-21.835 2.62-8.204 1.822-12.984 3.301-20.734 1.479-7.75 3.534-11.505 5.24-13.782 0 0 .92 1.828.943 3.767.024 1.939-.069 5.538-.069 5.538h.011ZM147.244 115.843s15.342-39.646 35.238-55.442c19.896-15.791 38.411-19.133 53.923-18.679 15.511.454 18.189 12.11 13.52 18.149-4.67 6.038-6.836 4.326-9.683 10.253-2.847 5.928-3.535 9.113-8.542 12.077-5.013 2.963-1.141 10.253-3.872 19.592-2.737 9.34-4.443 9.188-4.326 14.05.116 4.862-.99 23.698-11.849 24.606 0 0 14.353 4.251 17.089 17.468 2.737 13.217-4.862 15.797-4.862 15.797s5.089 10.556 1.671 20.239c-3.417 9.683-10.137 11.278-10.137 11.278s-3.912 23.622-21.531 30.912c-17.62 7.29-19.442 1.066-27.949-11.237-8.507-12.303-11.697-17.014-15.191-28.863-3.493-11.849-3.453-33.759-3.493-37.672-.041-3.913-.379-6.265-.379-6.265s-.367-5.782-.163-6.806c.204-1.025 1.037-2.498 1.037-2.498 1.706 2.276 3.761 6.038 5.24 13.782s.681 12.53 3.301 20.734c2.62 8.204 3.115 14.545 4.024 21.834.908 7.29 2.736 6.988 9.263 11.849 6.533 4.862 5.846 8.583 8.658 9.724 2.813 1.141 4.56-3.191 8.734-3.266 4.175-.076 8.204 1.141 13.52-6.836 5.316-7.977 7.29-18.382 10.708-26.202 3.418-7.819 5.165-12.53 3.796-24.379-1.368-11.849-16.157-17.351-16.216-20.483-.058-3.133 2.848-1.654 11.279-6.894 8.431-5.241 5.164-12.571 5.089-15.378-.076-2.806 2.352-6.306.99-12-1.369-5.695-1.899-6.609.227-12.303 2.125-5.695.757-4.786.227-12.53s4.25-9.188 8.658-13.823c4.408-4.635 4.326-8.431 2.201-12.606-2.125-4.175-.914-6.836-.914-6.836-32.81 4.25-44.962 19.14-58.022 38.43-13.06 19.289-18.149 37.596-18.149 37.596l-.361.634-2.754-8v-.006Z" fill="#A238FF"/><path d="M66.991 64.727c-1.251-1.013-.925-3.168.286-4.227 1.21-1.06 2.952-1.258 4.559-1.176 7.482.36 13.846 5.444 19.15 10.73 10.877 10.83 19.983 23.949 23.576 38.872 1.1 4.571 1.677 9.264 3.016 13.77 1.001 3.366 2.305 7.459-1.648 9.59-.46.251-.955.431-1.456.582-11.837 3.558-25.043 2.248-35.96-3.54-3.12-1.653-6.306-4.017-6.987-7.482-.553-2.818.71-5.764.128-8.582-.308-1.479-1.112-2.836-1.27-4.332-.197-1.927.688-3.779 1.142-5.666 1.002-4.134-.093-8.477-1.502-12.489-.35-.996-.722-2.003-.798-3.057-.157-2.154.926-4.18 1.368-6.294.647-3.092-.11-6.288-.855-9.357-.227-.943-.536-1.974-1.06-2.777-.868-1.345-1.473-2.842-1.677-4.431 0-.04-.012-.088-.017-.128l.005-.006ZM215.38 64.727c1.252-1.013.926-3.168-.286-4.227-1.211-1.06-2.952-1.258-4.559-1.176-7.482.36-13.846 5.444-19.15 10.73-10.877 10.83-19.983 23.949-23.576 38.872-1.1 4.571-1.676 9.264-3.016 13.77-1.001 3.366-2.305 7.459 1.648 9.59.46.251.955.431 1.456.582 11.837 3.558 25.043 2.248 35.96-3.54 3.121-1.653 6.306-4.017 6.987-7.482.553-2.818-.71-5.764-.128-8.582.308-1.479 1.112-2.836 1.269-4.332.198-1.927-.687-3.779-1.141-5.666-1.001-4.134.093-8.477 1.502-12.489.35-.996.722-2.003.798-3.057.157-2.154-.926-4.18-1.368-6.294-.647-3.092.11-6.288.856-9.357.227-.943.535-1.974 1.059-2.777.868-1.345 1.473-2.842 1.677-4.431 0-.04.012-.088.018-.128l-.006-.006ZM70.928 165.457c.116 7.575 4.513 14.347 6.638 21.619 1.065 3.64 1.56 7.424 2.55 11.081.99 3.662 2.55 7.301 5.322 9.887 2.538 2.369 5.88 3.662 9.176 4.768.536.181 1.095.361 1.66.315 1.793-.146 2.602-2.3 2.882-4.076.6-3.808.646-7.756-.396-11.465-1.048-3.709-3.267-7.167-6.521-9.234 8.262-4.845 14.824-12.531 18.306-21.451 1.496-3.837 2.445-7.965 2.113-12.076-.244-3.016-1.356-6.207-3.907-7.843-.902-.576-1.927-.925-2.952-1.228-11.86-3.47-26.126-1.642-32.484 10.16-1.572 2.917-2.445 6.224-2.393 9.543h.006ZM209.197 165.457c-.117 7.575-4.513 14.347-6.638 21.619-1.065 3.64-1.56 7.424-2.55 11.081-.99 3.662-2.55 7.301-5.322 9.887-2.539 2.369-5.881 3.662-9.176 4.768-.536.181-1.095.361-1.66.315-1.793-.146-2.602-2.3-2.882-4.076-.6-3.808-.646-7.756.396-11.465 1.042-3.709 3.266-7.167 6.521-9.234-8.262-4.845-14.824-12.531-18.306-21.451-1.496-3.837-2.445-7.965-2.113-12.076.244-3.016 1.356-6.207 3.907-7.843.902-.576 1.927-.925 2.952-1.228 11.86-3.47 26.125-1.642 32.484 10.16 1.572 2.917 2.445 6.224 2.393 9.543h-.006Z" fill="#CFFFFB"/><path d="M133.357 115.459s-15.237-39.384-35.133-55.18c-19.896-15.797-38.412-19.14-53.929-18.68-15.511.455-18.19 12.112-13.514 18.15 4.67 6.038 6.836 4.326 9.683 10.253 2.847 5.922 3.534 9.113 8.542 12.076 5.013 2.964 1.14 10.254 3.872 19.593 2.736 9.34 4.442 9.188 4.326 14.05-.117 4.862.99 23.698 11.849 24.606 0 0-14.353 4.251-17.09 17.468-2.736 13.217 4.862 15.796 4.862 15.796s-5.089 10.557-1.67 20.24c3.417 9.683 10.136 11.278 10.136 11.278s3.913 23.622 21.532 30.912c17.619 7.29 19.442 1.066 27.949-11.238 8.506-12.303 11.697-17.013 15.191-28.862 3.493-11.849 3.452-33.759 3.493-37.672.041-3.913.379-6.265.379-6.265" stroke="#140D1D" stroke-width=".699" stroke-linecap="round" stroke-linejoin="round"/><path d="M130.476 123.488s-5.217-18.702-18.277-37.992c-13.066-19.29-25.218-34.178-58.028-38.429 0 0 1.217 2.661-.914 6.836-2.125 4.175-2.2 7.977 2.201 12.606 4.408 4.634 9.188 6.073 8.658 13.822-.53 7.745-1.898 6.836.227 12.53 2.126 5.695 1.596 6.61.227 12.304-1.368 5.694 1.066 9.188.99 12-.075 2.812-3.342 10.137 5.09 15.377 8.43 5.241 11.336 3.762 11.277 6.894-.058 3.133-14.847 8.641-16.215 20.484-1.369 11.849.378 16.554 3.796 24.379 3.418 7.82 5.392 18.225 10.708 26.202s9.34 6.76 13.52 6.835c4.18.076 5.921 4.408 8.734 3.267 2.812-1.141 2.125-4.862 8.658-9.724 6.533-4.862 8.355-4.559 9.263-11.849.915-7.29 1.404-13.63 4.024-21.834 2.62-8.204 1.822-12.985 3.301-20.735 1.479-7.749 3.534-11.505 5.24-13.782M147.245 115.971s15.342-39.645 35.238-55.442c19.896-15.797 38.411-19.139 53.923-18.685 15.511.454 18.189 12.111 13.52 18.15-4.67 6.037-6.836 4.325-9.683 10.253-2.848 5.927-3.535 9.112-8.542 12.076-5.013 2.963-1.141 10.253-3.872 19.593-2.737 9.339-4.443 9.188-4.326 14.049.116 4.862-.99 23.698-11.849 24.607 0 0 14.353 4.25 17.089 17.467 2.737 13.218-4.862 15.797-4.862 15.797s5.089 10.556 1.671 20.239c-3.417 9.683-10.137 11.278-10.137 11.278s-3.912 23.623-21.532 30.912c-17.619 7.29-19.441 1.066-27.948-11.237-8.507-12.303-11.697-17.014-15.191-28.863-3.493-11.848-3.453-33.759-3.493-37.672-.041-3.912-.379-6.265-.379-6.265" stroke="#140D1D" stroke-width=".699" stroke-linecap="round" stroke-linejoin="round"/><path d="M150.096 123.902s5.351-18.871 18.411-38.161c13.06-19.29 25.212-34.179 58.022-38.43 0 0-1.217 2.662.914 6.836 2.126 4.175 2.201 7.977-2.201 12.606-4.401 4.63-9.188 6.073-8.658 13.823.53 7.744 1.898 6.836-.227 12.53-2.125 5.695-1.595 6.609-.227 12.303 1.368 5.695-1.065 9.188-.99 12 .076 2.813 3.342 10.138-5.089 15.378-8.431 5.24-11.336 3.761-11.278 6.894.058 3.132 14.848 8.64 16.216 20.484 1.368 11.849-.379 16.553-3.796 24.379-3.418 7.819-5.392 18.224-10.708 26.201s-9.339 6.76-13.52 6.836c-4.181.076-5.922 4.408-8.734 3.266-2.812-1.141-2.125-4.861-8.658-9.723-6.533-4.862-8.355-4.559-9.264-11.849-.914-7.29-1.403-13.631-4.023-21.835-2.62-8.204-1.823-12.984-3.302-20.734-1.478-7.75-3.534-11.505-5.24-13.782" stroke="#140D1D" stroke-width=".699" stroke-linecap="round" stroke-linejoin="round"/><path d="M140.652 98.993s5.625 2.562 6.044 5.694c.419 3.133-.891 2.964-1.065 5.98-.175 3.016 4.273 9.054 5.071 16.687.798 7.634-3.435 13.841-4.006 17.946-.57 4.104 2.353 26.201-5.962 30.527h-.938c-8.314-4.326-5.391-26.428-5.962-30.527-.57-4.1-4.803-10.312-4.006-17.946.798-7.633 5.241-13.671 5.072-16.687-.169-3.016-1.479-2.847-1.066-5.98.419-3.132 6.085-5.665 6.085-5.665s.268-.157.733-.03Z" stroke="#140D1D" stroke-width=".699" stroke-linecap="round" stroke-linejoin="round"/><path d="M136.006 101.473s-4.466-9.595-6.97-12.5c-2.503-2.906-3.016-15.017-4.308-18.587-1.293-3.569-5.049-5.28-4.67-7.254.373-1.945 4.757-4.228 5.59 3.685.023.21.099.408.232.57.548.676 2.108 2.93 3.22 7.75 1.369 5.922 1.252 10.767 2.679 13.043 1.426 2.277 6.835 11.529 6.835 11.529M145.776 102.02s4.466-9.595 6.97-12.5c2.504-2.906 3.016-15.017 4.309-18.586 1.292-3.57 5.048-5.281 4.669-7.255-.378-1.974-4.757-4.227-5.589 3.686-.023.21-.099.407-.233.57-.547.676-2.108 2.929-3.22 7.75-1.368 5.922-1.252 10.766-2.678 13.043-1.427 2.276-6.836 11.528-6.836 11.528M133.736 105.63c.134.408.431.839.862.845.204 0 .396-.088.565-.198a2.9 2.9 0 0 0 1.327-2.19c.035-.407-.023-.832-.25-1.17-.227-.338-.64-.565-1.042-.489M145.235 102.411c-.355.069-.646.331-.809.652-.163.32-.204.693-.181 1.048.041.599.262 1.199.676 1.63.413.431 1.03.693 1.624.617M134.504 113.334a16.792 16.792 0 0 1 10.166-.466c.495.134.996.291 1.508.303M135.983 124.903a50.444 50.444 0 0 1 8.542-.477M140.082 132.053l1.601-.105M133.654 144.688c.641-.535 1.433-.844 2.23-1.083a17.026 17.026 0 0 1 10.644.297c.128.047.32.064.349-.07M133.76 152.065c1.898-1.135 4.163-1.572 6.375-1.49 2.213.081 4.379.664 6.44 1.467M134.021 161.678c1.712-1.391 3.931-2.072 6.137-2.16 2.207-.087 4.402.39 6.481 1.13a.296.296 0 0 1-.274-.198M86.713 138.924s20.047-.448 23.925-1.537M193.615 138.155s-20.047-.448-23.925-1.537M163.151 135.914c.74.093 1.485.18 2.225.273" stroke="#140D1D" stroke-width=".699" stroke-linecap="round" stroke-linejoin="round"/></svg>