<svg xmlns="http://www.w3.org/2000/svg" fill="none" viewBox="0 0 280 280"><g clip-path="url(#a)"><mask id="b" width="280" height="280" x="0" y="0" maskUnits="userSpaceOnUse" style="mask-type:luminance"><path fill="#fff" d="M280 0H0v280h280z"/></mask><g mask="url(#b)"><path fill="#fcfbde" d="M120.64 205.37s21.65-94.42 25.96-108.27 15.36-28.56 26.75-18.29c7.99 7.21 3.92 18.23 5.84 27.5 1.39 6.71 6.38 14.17 14.02 13.76 8.47-.45 13.42-9.22 15.15-16.43a76.7 76.7 0 0 0 2.07-17.78c0-14.92-4.35-31.44-16.66-40.96-14.64-11.33-38.22-9.95-52.01 1.98-8.65 7.49-14.51 18.02-18.06 28.79-5.47 16.6-44.54 159.45-44.54 159.45s8.46-3.68 20.09-11.17c11.63-7.48 14.34-10.57 15.14-11.39s6.24-7.18 6.24-7.18z"/><path fill="#d71f14" d="m85.41 211.78 12.6-45.2s7.48-13.12 19.55-17.5c12.07-4.37 16.8-2.64 16.8-2.64l-9.16 38.14s-22.85 2.5-39.78 27.19zM144.02 106.33s2.32-10.4 5.71-17.03 7.48-10.3 7.48-10.3-3.01-10.85-17.02-10.07c-6.65.27-8.91 1.35-12.86 4.17s-5.25 7.85-5.25 7.85l-6.99 24.48-5.43 19.27s5.48-12.53 20.08-17c6.88-1.73 11.15-1.76 12.14-1.44.99.31 2.15.08 2.15.08zM170.271 37.37s8.39 7.05 8.81 15.34c.64 4.77.7 8.1-1 13.4-2.19 4.42-1.64 4.14-1.64 4.14l-2.291 4.11s-2.529 3.38-2.519 3.41 3.57 1.44 5.59 6.67c1.11 1.79 1.23 5.75 1.23 5.75l.089 1.3s10.88 2.92 21.25-3.09c8.93-6.01 9.561-15.14 9.561-15.14l-.83-3.94s-2.86-12.28-10.63-20.68c-7.77-8.39-18.96-11.51-27.61-11.27z"/><path fill="#950800" d="M93.29 227.83S124.58 78.85 143.4 54.22c2.24-2.93 3.38-6.46 5.79-8.42 17.88-14.54 40.18-3.77 40.18-3.77s-26.58-14.98-50.58 7.64c0 0-4.85 4.9-10.28 14.35-1.73 3.05-3.17 7.13-3.17 7.13l-6.85 22.38-16.81 59.82-10.34 37.45-12.08 43.95s-.44.88 4.73-1.96 9.31-4.95 9.31-4.95z"/><path fill="#e6db9e" d="M110.751 152.71c1.85-7.39 3.79-14.9 5.77-22.33 1.72-6.45 3.48-12.83 5.26-19.01-7.53 4.79-11.09 11.35-11.88 12.94l-8.15 29-3.65 13.22c.24-.42 4.9-8.37 12.64-13.81zM138.87 49.64s-4.85 4.9-10.28 14.35c-1.73 3.05-3.17 7.13-3.17 7.13l-2.14 6.98c.82-1.62 2.14-3.6 4.13-5.02 2.87-2.05 4.85-3.18 8.27-3.75 2.74-6.71 5.37-11.95 7.8-15.13 18.82-24.63 45.97-12.19 45.97-12.19s-26.58-14.98-50.57 7.64z"/><path fill="#950800" d="M171.93 38.89s11.64-.14 17.62 3.44c0 0-2.93-2.21-7-3.35s-9.02-1.79-9.02-1.79l-2.76.02-.37-.1zM163.071 75.68s9.52-3.81 15.33 2.82 6.17 13.74 6.17 13.74-3.14 20.19 5.25 27.48c0 0-8.46-2.69-10.15-11.51-1.7-8.82-1.06-15.39-1.06-15.39s0-.44-.05-1.15c-.14-2.14-.62-6.75-2.32-9.38-2.26-3.51-6.66-7.65-13.18-6.61z"/><path fill="#e6db9e" d="m178.561 91.67 6.01.58s-2.78 23.2 7.04 27.87c0 0-7.13-.54-11.32-9.65-2-6.07-1.34-10.28-1.49-12s-.23-6.79-.23-6.79zM163.25 75.63s5.39-2.36 10.4-.33c.06.17-1.8 2.13-1.8 2.13s-3.93-2.7-8.61-1.8zM96.23 214.62c1.13-5.12 2.55-11.52 4.21-18.79-4.94 3.8-10.04 8.85-14.71 15.57l-6.41 23.32s3.39 4.59 5.43 4.48c-.1.35-.83 0-.83 0l3.38 1.89c1.33.38 8.63 3.7 9.48 3.42 5.47.98 8.61 1.01 14.42-.22l10.78-44.81s-7.71 12.13-20.43 19.12c-2.21 1.22-5.88-1.52-5.34-3.98z"/><path stroke="#14041e" stroke-linecap="round" stroke-linejoin="round" stroke-width=".72" d="M79.16 235.11S118.23 92.26 123.7 75.66c3.55-10.77 9.4-21.3 18.06-28.79 13.79-11.93 37.37-13.31 52.01-1.98 12.3 9.53 16.65 26.04 16.66 40.96 0 5.98-.68 11.97-2.07 17.78-1.73 7.21-6.67 15.98-15.15 16.43-7.65.41-12.64-7.05-14.02-13.76-1.91-9.28 2.16-20.3-5.84-27.5-11.39-10.27-22.44 4.45-26.75 18.29-4.31 13.85-35.36 147.08-35.36 147.08s-12.94 6.14-32.08-9.06"/><path stroke="#14041e" stroke-linecap="round" stroke-linejoin="round" stroke-width=".72" d="M85.27 212.85s12.13-23.03 40.431-28.36M97.78 167.4s11.17-23.17 36.58-20.96M109.73 124.96s9.08-20.91 34.29-18.62M121.91 81.5s1.92-11.54 17.31-12.63 17.98 10.14 17.98 10.14M170.07 37.12s19.98 15.79 1.86 40.54M209.38 73.5s-3.43 22.95-30.85 18.09"/></g></g><defs><clipPath id="a"><path fill="#fff" d="M0 0h280v280H0z"/></clipPath></defs></svg>