<svg xmlns="http://www.w3.org/2000/svg" fill="none" viewBox="0 0 280 280"><path fill="#FF3D3D" d="M180.437 120.786c-13.185 1.042-29.885 6.389-37.124 25.451-12.832 33.794 13.078 67.831 41.453 74.69 28.376 6.859 50.938-5.444 63.659-23.752 19.74-28.406 16.78-67.831 0-80.322-15.795-11.759-35.747-6.33-47.598 3.094"/><path fill="#C31C12" d="M150.726 133.903s15.625-13.88 29.567-7.676c7.242 3.223 1.914 8.245 1.914 8.245s6.908 4.162 15.669 2.203c8.759-1.959 11.946-10.448 11.946-10.448s1.624-2.841-1.954-1.611c-3.579 1.23-16.903 6.49-19.677 4.59-2.775-1.899-4.219-8.354-5.984-8.386-1.766-.031-2.157 0-2.157 0s-19.286 1.008-29.321 13.086l-.003-.003Z"/><path fill="#FF3D3D" d="M74.38 160.734c-8.774-1.345-42.163-4.387-53.27 24.867-12.832 33.793 13.078 67.831 41.453 74.689 28.376 6.856 50.937-5.444 63.659-23.752 19.74-28.405 16.78-67.831 0-80.322-10.366-7.716-22.18-8.139-32.663-4.778"/><path fill="#2DAD61" d="M136.549 57.892s6.116-2.732 13.765-1.345c18.135 3.917 40.467 9.671 53.914-2.939 13.447-12.61 22.205-34.447 22.205-34.447s-11.596-1.06-30.926-1.405c-19.327-.341-29.526 8.912-38.411 24.097-8.882 15.182-20.563 11.264-20.563 11.264"/><path fill="#0F4C27" d="M192.093 136.869s-4.877-11.136-15.578-19.744c-10.7-8.608-22.388-9.863-22.388-9.863s17.747-.55 31.509 13.496c20.314 20.733 16.6 1.301 16.6 1.301s3.648 5.58 3.08 8.43c-.567 2.851-3.736 7.338-13.226 6.38h.003Z"/><path fill="#17723C" d="M144.329 53.048s10.55-.735 26.588-9.305c13.819-7.494 19.245-12.06 24.674-15.245 5.429-3.185 16.675-7.244 21.2-8.182 4.524-.939 6.107-1.286 6.107-1.286s-17.498-1.061-23.11-1.124c-5.613-.062-16.146-.6-25.529 4.935-9.386 5.535-15.307 16.064-15.307 16.064s-3.147 5.357-4.874 7.407c-1.728 2.05-4.966 5.6-9.746 6.733l-.003.003Z"/><path fill="#C31C12" d="M85.322 179.333s7.702-3.07 12.64-13.927c4.934-10.858 1.797-12.203-3.907-9.816-2.992 1.227-13.683 7.6-19.368 6.978l-6.003-.366s-12.564-2.388-5.407 9.243c6.908 12.61 22.051 7.885 22.051 7.885l-.006.003Z"/><path fill="#17723C" d="M85.324 179.333c9.131-43.835 38.834-93.305 38.834-94.134-.328 6.856 5.098 19.018 30.431 22.122 25.333 3.101 37.506 29.548 37.506 29.548 8.226 1.142 14.724-4.162 12.996-8.449-9.499-26.446-41.453-29.754-56.382-34.037-14.929-4.287-14.929-10.651-12.955-25.837 1.974-15.182-.246-47.996-7.649-50.199-7.403-2.202-19.986 1.96-18.258 9.794 1.728 7.835 8.882 14.203 10.364 27.182 1.481 12.98-10.61 38.934-30.35 74.756-19.74 35.821-21.303 46.947-21.303 46.947s2.364 2.623 7.916 3.571c5.553.948 8.85-1.268 8.85-1.268v.004Z"/><path fill="#0F4C27" d="M71.786 167.896s-1.132 20.774 10.55-1.101c8.194-15.348 13.16-32.977 22.864-51.097 9.704-18.12 18.958-30.499 18.958-30.499s-11.975 21.008-19.138 37.674c-7.163 16.665-9.77 23.68-9.77 23.68s-6.01 16.058-9.926 32.783c0 0-5.117 3.01-11.965.532-2.471-1.145-4.801-2.51-4.801-2.51s2.396-7.897 3.228-9.459v-.003Z"/><path fill="#2DAD61" d="M204.081 133.067s-5.729-20.004-32.55-29.817c-20.522-7.51-33.764-7.794-36.702-16.652-2.897-8.73 0-12.71.154-11.07.155 1.642-1.1 11.135 5.08 15.112 6.179 3.977 19.125 6.34 19.125 6.34s22.319 5.238 31.541 12.632c9.222 7.394 14.14 15.854 14.642 19.95.123 2.494-1.287 3.508-1.287 3.508l-.003-.003Z"/><path fill="#30C46C" d="M158.949 38.905s7.589-12.61 18.075-17.632c10.487-5.019 27.273-3.229 27.273-3.229s-18.268-.995-29.924 6.962c-11.659 7.957-15.421 13.896-15.421 13.896l-.003.003Z"/><path fill="#0F4C27" d="M159.648 37.663s-6.662 9.869-2.797 14.103c3.865 4.23 17.041 9.418 28.322 9.424 0 0-9.168.892-22.306-1.893-11.937-2.753-14.557-3.213-18.876-2.938-4.32.275-7.387 1.424-7.387 1.424v-4.469s4.559.933 10.275-1.117c2.301-1.142 6.302-4.409 8.799-8.11 2.497-3.705 3.97-6.418 3.97-6.418v-.006Z"/><path fill="#C31C12" d="M65.748 260.982s-13.393-2.356-16.726-12.764c-3.332-10.407 28.407 22.617 65.648.902 0 0-17.766 17.891-48.925 11.862h.003ZM187.962 221.659s-13.394-2.356-16.726-12.763c-3.333-10.407 28.407 22.617 65.648.901 0 0-17.766 17.892-48.925 11.862h.003Z"/><path fill="#fff" stroke="#14041E" stroke-linecap="round" stroke-linejoin="round" stroke-width=".494" d="M28.468 222.201c-.527 1.167-.72 2.515-.35 3.742.369 1.227 1.349 2.3 2.598 2.616.545.138 1.135.128 1.655-.088.835-.35 1.374-1.201 1.541-2.087.168-.882.01-1.796-.227-2.663-.709-2.603-3.647-4.99-5.217-1.523v.003ZM33.982 232.883c-.016.845.218 1.712.763 2.363.543.65 1.419 1.048 2.258.92.365-.057.725-.213.98-.479.416-.426.524-1.083.394-1.662-.129-.579-.46-1.092-.832-1.558-1.11-1.399-3.516-2.093-3.563.413v.003ZM151.969 142.974c-3.654 5.419-5.161 12.14-4.83 18.605.331 6.465 2.403 14.012 7.4 18.105.64.522 1.368.976 2.185 1.107 1.762.285 3.436-1.023 4.313-2.569 2.292-4.042 2.428-8.745 3.298-13.192.876-4.484 2.415-8.799 3.619-13.201 1.003-3.655 2.825-8.846.426-12.322-1.923-2.785-5.524-2.957-8.412-1.887-3.276 1.214-5.952 2.309-8.005 5.354h.006ZM156.539 189.84c-.066 2.519 1.413 5.435 3.421 6.33 2.592 1.158 5.07-.791 5.432-3.417.413-2.988-2.522-7.772-6.047-6.805-1.945.532-2.758 2.112-2.806 3.889v.003ZM25.215 185.948c.776-1.975 1.8-3.946 3.497-5.235 1.696-1.289 4.209-1.718 5.974-.529 1.88 1.264 2.327 3.799 2.371 6.051 1.034-1.814 2.497-3.448 4.383-4.374 1.885-.926 4.221-1.067 6.069-.075 2.85 1.533 3.802 5.385 2.81 8.448-.994 3.064-3.479 5.423-6.14 7.266-2.66 1.84-5.583 3.307-8.083 5.357a21.642 21.642 0 0 0-6.98 10.51c-.404 1.361-1.054 3.085-2.485 3.082-1.441-.006-2.078-1.771-2.32-3.182-1.53-8.905-2.419-18.715.898-27.319h.006Z"/><path fill="#30C46C" d="M109.811 26.9s.189 2.53.914 3.388c.725.857 5.413 2.331 12.075.188 6.662-2.144 8.04-4.716 8.554-5.817.514-1.102.719-1.821.719-1.821l-.848-1.53-21.414 5.588v.003Z"/><path fill="#0F4C27" d="M129.495 19.164c4.187 2.938-.568 8.815-11.013 9.875-9.935 1.011-8.733-3.207-8.733-3.207s.343-4.985 8.156-7.15c7.813-2.162 11.59.479 11.59.479v.003Z"/><path fill="#0A3519" d="M125.932 17.99s-11.275 7.517-12.18 11.206c0 0-5.347-.188-3.537-4.553 1.809-4.365 8.197-7.506 15.717-6.652Z"/><path stroke="#14041E" stroke-linecap="round" stroke-linejoin="round" stroke-width=".494" d="M74.504 160.787c-8.774-1.346-42.163-4.387-53.27 24.866-12.832 33.794 13.078 67.831 41.453 74.69 28.376 6.856 50.937-5.445 63.659-23.753 19.74-28.405 16.78-67.831 0-80.322-10.366-7.716-22.18-8.138-32.663-4.778"/><path stroke="#14041E" stroke-linecap="round" stroke-linejoin="round" stroke-width=".494" d="M180.561 120.838c-13.185 1.042-29.885 6.39-37.124 25.452-12.832 33.793 13.078 67.831 41.453 74.69 28.376 6.859 50.938-5.445 63.659-23.753 19.74-28.405 16.78-67.831 0-80.322-15.795-11.759-35.747-6.33-47.598 3.095"/><path stroke="#14041E" stroke-linecap="round" stroke-linejoin="round" stroke-width=".494" d="M68.686 177.079s1.564-11.129 21.304-46.947c19.74-35.821 31.831-61.777 30.349-74.756-1.481-12.979-8.635-19.347-10.363-27.182-1.728-7.835 10.855-12 18.258-9.793 7.403 2.202 9.623 35.016 7.649 50.198-1.974 15.182-1.974 21.55 12.955 25.837 14.929 4.286 46.883 7.591 56.382 34.037 1.728 4.287-4.77 9.591-12.996 8.449 0 0-12.173-26.447-37.506-29.548-25.333-3.101-30.762-15.263-30.431-22.122 0 .83-29.703 50.302-38.834 94.134"/><path stroke="#14041E" stroke-linecap="round" stroke-linejoin="round" stroke-width=".494" d="M109.877 25.882s-1.202 4.218 8.733 3.207c10.445-1.06 15.2-6.937 11.013-9.875"/><path stroke="#14041E" stroke-linecap="round" stroke-linejoin="round" stroke-width=".494" d="M110.394 29.765s2.052 3.92 13.333.416c7.589-2.356 8.257-7.34 8.257-7.34M63.273 171.447s3.515 7.591 13.632 9.306c10.118 1.715 17.767-9.306 17.767-9.306M182.204 134.472s18.838 10.285 27.616-8.245M136.536 53.173s11.678 3.918 20.563-11.264c8.882-15.182 19.081-24.438 38.411-24.097 19.327.341 30.926 1.405 30.926 1.405s-8.758 21.835-22.205 34.448c-13.447 12.61-35.779 6.855-53.914 2.938-7.649-1.386-13.765 1.345-13.765 1.345"/><path stroke="#14041E" stroke-linecap="round" stroke-linejoin="round" stroke-width=".494" d="M226.432 18.889s-17.271.735-34.297 11.837c-17.025 11.102-31.09 20.526-51.416 22.885"/></svg>