<svg xmlns="http://www.w3.org/2000/svg" fill="none" viewBox="0 0 280 280"><g clip-path="url(#a)"><path fill="#FF3D3D" d="M262.428 69.429c8.925 9.352 12.515 37.124.031 69.782-12.488 32.654-42.272 76.092-99.172 97.58s-89.292 5.407-112.97 10.57c-23.68 5.163-21.034 26.55-31.522 23.609-10.488-2.94-7.203-22.727 12.362-47.317 19.566-24.59 36.235-27.112 69.107-48.52 26.704-17.394 33.813-44.634 41.823-73.244 6.488-23.171 21.557-47.353 48.279-47.932.307-.004.614-.01.917-.013 0 0 16.815-6.394 26.522-4.64 9.711 1.755 44.619 20.129 44.619 20.129l.004-.004Z"/><path fill="#BA1C1C" d="M231.022 69.74s12.939 145.937-136.784 157.313c-25.43 2.242-52.547.754-47.098 11.395 0 0-4.855-4.529-12.653 3.975-7.8 8.501-19.717 22.865-17.021 27.746 0 0 3.801 3.319 7.676-1.283 3.874-4.602 5.318-9.024 8.97-12.529 0 0 5.877-8.096 19.073-9.514 13.196-1.418 22.353.107 22.353.107s32.386 3.38 48.88-.092 45.372-7.196 78.741-31.285c33.37-24.09 49.285-55.087 49.285-55.087s12.803-19.129 17.199-49.121c4.396-29.992-7.024-41.724-7.024-41.724s-11.75-7.596-16.028-6.836c-4.277.759-12.104-1.205-15.576 6.94l.007-.005Z"/><path fill="#21A255" d="M224.819 38.938c-7.102-8.354-31.69 6.25-39.494 7.514-7.803 1.264-11.218-4.398-11.218-4.398s-2.922 8.8 7.683 10.838c10.601 2.04 26.379 1.165 26.379 1.165s-7.47 5.915-18.728 9.602c0 0 24.535 7.194 37.202-3.935 0 0 2.84 14.81 17.135 20.41 0 0 7.346-12.575-.63-23.883l3.456 6.554s12.857 11.228 23.83 4.284c10.973-6.944 10.697-17.827 9.929-17.76-.767.068-12.987 20.189-23.607 2.648-6.77-11.184-15.677-10.404-15.677-10.404l-2.854 10.384c1.789-3.823 8.41-31.816-3.758-42.912s-31.843.665-31.271 2.21c.568 1.54 2.183 3.426 2.183 3.426 6.248-4.165 19.773-5.109 21.705 8.67 1.932 13.78-6.411 24.353-6.411 24.353s3.65-5.566 3.988-6.684c.336-1.113.17-2.08.17-2.08l-.012-.002Z"/><path fill="#2ECC6E" d="M178.394 45.639s1.488 5.923 13.944 1.55c12.456-4.372 27.531-10.018 30.042-2.09l1.944-3.364.663-2.651s-2.096-3.69-10.53-2.445-17.11 5.48-17.11 5.48-9.338 4.147-13.255 4.323c-3.918.173-5.698-.803-5.698-.803ZM239.705 46.977s5.922-2.428 13.301 6.628c7.379 9.055 14.431 11.837 22.744.975 0 0-6.302 7.382-13.31 3.412-7.007-3.971-3.844-6.978-11.217-12.375-5.47-4.02-10.482-4.014-10.482-4.014l-1.035 5.378-.001-.004ZM214.39 48.54s-11.43 11.956-24.954 15.12c0 0 7.805-.154 17.466-5.004 9.661-4.853 12.941-14.26 7.488-10.116Z"/><path fill="#2ECC6E" d="M206.49 9.683s38.672-20.114 32.72 39.262c0 0 3.788-15.894 1.877-25.764-1.911-9.87-8.699-27.255-35.333-14.266l.74.767h-.004Z"/><path fill="#FF3D3D" d="M270.104 107.463s.804-30.492-8.43-25.71c-9.418 4.88 17.71 60.657-38.907 116.771 0 0 17.758-15.7 30.036-38.672 12.274-22.971 17.252-41.962 17.301-52.389Z"/><path fill="#17723C" d="M226.351 52.609s-6.336 11.943-20.799 13.21c0 0 12.775.957 21.085-6.094 0 0 .016-4.726-.286-7.116Z"/><path stroke="#14041E" stroke-linecap="round" stroke-linejoin="round" stroke-width=".9" d="M262.428 69.43c8.926 9.352 12.516 37.124.032 69.782-12.488 32.654-42.273 76.091-99.172 97.58-56.9 21.488-89.292 5.406-112.971 10.569-23.68 5.163-21.033 26.551-31.521 23.61-10.488-2.941-7.204-22.727 12.362-47.317 19.566-24.591 36.235-27.112 69.107-48.52 26.704-17.394 33.813-44.634 41.823-73.244 6.488-23.172 21.557-47.353 48.279-47.932l.916-.014"/><path stroke="#14041E" stroke-linecap="round" stroke-linejoin="round" stroke-width=".9" d="M224.821 38.941c-7.103-8.354-31.691 6.25-39.494 7.514-7.804 1.264-11.219-4.398-11.219-4.398s-2.922 8.8 7.683 10.838c10.601 2.04 26.379 1.165 26.379 1.165s-7.47 5.915-18.728 9.602c0 0 24.535 7.194 37.203-3.935 0 0 2.84 14.81 17.135 20.41 0 0 7.345-12.575-.63-23.883"/><path stroke="#14041E" stroke-linecap="round" stroke-linejoin="round" stroke-width=".9" d="M246.6 62.802s12.857 11.229 23.829 4.285c10.973-6.944 10.697-17.827 9.93-17.76-.768.067-12.988 20.189-23.607 2.648-6.77-11.184-15.678-10.404-15.678-10.404"/><path stroke="#14041E" stroke-linecap="round" stroke-linejoin="round" stroke-width=".9" d="M220.661 47.703s8.338-10.576 6.41-24.353c-1.931-13.78-15.457-12.836-21.704-8.67 0 0-1.612-1.886-2.184-3.427-.568-1.542 19.104-13.302 31.271-2.21 12.168 11.097 5.547 39.09 3.758 42.913"/><path stroke="#14041E" stroke-linecap="round" stroke-linejoin="round" stroke-width=".9" d="M203.29 11.046c.242-.44.706-.928 1.122-1.204.483-.32 1.098-.526 1.638-.314.494.194.804.692.978 1.195.084.247.148.508.141.772a2.403 2.403 0 0 1-.142.7 5.379 5.379 0 0 1-1.623 2.38M214.392 48.54s-4.711 4.46-6.498 5.727M226.75 60.302c-.539-2.528-.284-5.151-.025-7.723"/><path fill="#FFFDE9" stroke="#14041E" stroke-linecap="round" stroke-linejoin="round" stroke-width=".9" d="M162.959 83.792c-4.338 4.032-7.073 9.518-8.915 15.144-1.838 5.63-2.868 11.484-4.346 17.219-2.67 10.365-6.793 20.283-10.486 30.326-.544 1.479-1.059 3.212-.231 4.553.371.604.979 1.035 1.638 1.295 1.579.621 3.402.272 4.897-.528 1.495-.801 2.721-2.011 3.923-3.204 5.505-5.455 11.047-10.953 15.395-17.365 1.868-2.754 3.501-5.661 5.13-8.56 2.017-3.588 4.034-7.176 6.054-10.764 2.324-4.133 4.661-8.296 6.146-12.8 2.059-6.237 2.883-15.03-2.833-19.672-4.593-3.731-12.831 1.06-16.372 4.352v.004ZM119.36 170.241c-.177 1.359-.018 2.88.948 3.854.803.807 2.033 1.073 3.162.911 1.129-.162 2.163-.696 3.118-1.317 2.801-1.814 11.198-11.98 4.793-14.183-5.41-1.861-11.441 6.33-12.021 10.732v.003Z"/></g><defs><clipPath id="a"><path fill="#fff" d="M0 0h280v280H0z"/></clipPath></defs></svg>