<svg xmlns="http://www.w3.org/2000/svg" fill="none" viewBox="0 0 280 280"><path fill="#fff0e9" d="M67.925 144.719s-12.95-4.592-23.414 13.235-17.288 52.04 7.171 62.242c26.935 11.232 46.308-45.256 32.551-57.598"/><path fill="#d71f14" d="M107.226 157.96s-3.363-.169-4.308-4.096a97 97 0 0 1-1.486-7.58l-.129-2.531s-5.645 3.438-11.692 10.907c-6.052 7.468-8.255 14.924-15.12 16.972-6.868 2.049-8.626-7.566-6.561-26.913s9.726-34.963 9.726-34.963 13.267-35.074 51.974-46.039 57.669-4.494 79.29 5.46c22.394 11.65 20.765 27.957 20.651 29.19s-.287 4.351-1.812 6.334-3.299 3.77-3.299 3.77 11.42 1.728 9.142 15.59L107.231 157.96z"/><path fill="#fff0e9" d="M107.226 157.96s-2.595 2.46-3.139 9.928c-.545 7.476 1.49 23.32 6.685 30.332 2.169.443 5.225 7.006 7.686 10.789 2.065-1.063 34.824-17.899 63.245-21.989s39.534-3.483 39.534-3.483 8.849-.731 13.886.587c.723-.144 2.154-1.122 2.154-1.122s7.359-4.031 7.022-17.429c-.336-13.392-.99-19.693-.99-19.693s-1.753-18.753-10.246-21.819-36.627 0-36.627 0-27.128 3.568-40.371 8.675c-13.242 5.108-26.138 8.037-48.839 25.224"/><path fill="#950800" d="M204.964 108.576s16.278-4.938 15.5-18.721-20.7-25.113-20.7-25.113 22.909 7.547 28.757 25.217c4.348 13.268-3.986 18.121-3.986 18.121s11.539 2.883 9.062 15.981l-1.961-.417s-12.039-.914-14.738-.946c0 0 9.444-1.99 9.444-6.954-1.872-9.725-21.378-7.175-21.378-7.175z"/><path fill="#f7cdb8" d="M67.114 150.094s-3.224 26.881.455 32.836c3.68 5.962 7.656-5.74 12.792-1.781 5.135 3.96-6.73 34.102-13.248 38.362 0 0 13.926-8.63 19.933-29.556 6.007-20.932-2.813-27.35-2.813-27.35s-7.458 12.543-13.752 8.336c-5.234-4.214-3.363-20.847-3.363-20.847zM113.239 153.754s-3.209 1.742-7.418 5.329c-1.981 8.154-1.486 5.871-1.981 14.351 1.238 10.436 1.981 13.045 1.981 13.045l3.466 9.133s5.448 9.784 9.172 13.398c0 0 17.09-8.2 21.988-9.922s-14.292 6.288-21.27-17.71c-8.647-29.738 19.071-41.635 19.071-41.635l-25.014 14.011zM212.804 123.011s13.376 3.894 17.352 12.445c3.972 8.552-8.131 13.04-2.907 20.163 11.242 15.316 6.428 20.162.55 27.442l7.785.913s9.211-3.47 8.676-20.058c-.534-16.588-1.896-23.665-1.896-23.665s-2.095-12.922-7.587-15.303-21.968-1.937-21.968-1.937z"/><path stroke="#14041e" stroke-linecap="round" stroke-linejoin="round" stroke-width=".747" d="M118.463 209.009s33.017-17.742 68.544-22.843c35.527-5.107 48.576-2.042 48.576-2.042s8.335-3.744 8.721-18.544c.387-14.807-1.743-41.095-12.984-42.119-11.242-1.024-73.056-4.846-125.376 35.478-7.553 24.279 8.547 47.318 12.519 50.07"/><path stroke="#14041e" stroke-linecap="round" stroke-linejoin="round" stroke-width=".747" d="M107.399 157.831s-3.763 1.748-5.373-7.567c-1.609-9.315-4.229-21.695 37.726-31.78"/><path stroke="#14041e" stroke-linecap="round" stroke-linejoin="round" stroke-width=".747" d="M104.29 124.355s-5.522 2.681-4.943 7.469 6.884.991 6.884.991M233.598 124.062s5.858-21.787-28.634-15.492"/><path stroke="#14041e" stroke-linecap="round" stroke-linejoin="round" stroke-width=".747" d="M223.991 108.335s9.137-3.849 4.095-19.843c-5.036-15.994-46.635-43.73-103.739-22.974-57.1 20.763-59.17 90.245-56.585 100.427s10.593 6.438 17.828-5.473c7.236-11.91 15.709-16.718 15.709-16.718"/><path stroke="#14041e" stroke-linecap="round" stroke-linejoin="round" stroke-width=".747" d="M67.925 144.72s-12.95-4.592-23.414 13.235-17.288 52.04 7.171 62.242c26.935 11.232 46.308-45.256 32.551-57.598"/><path fill="#fff" stroke="#14041e" stroke-linecap="round" stroke-linejoin="round" stroke-width=".747" d="M39.247 198.624c.648 3.464 1.748 6.973 3.872 9.185.52.541 1.105.998 1.758 1.148 1.308.293 2.595-.731 3.492-2.016 2.198-3.144 2.733-7.71 2.822-11.982.13-6.295-.574-12.903-3.377-18.004-1.689-3.072-4.903-5.068-6.71-1.174-1.927 4.155-2.64 9.485-2.65 14.279a46 46 0 0 0 .788 8.564z"/></svg>