<svg fill="none" xmlns="http://www.w3.org/2000/svg" viewBox="0 0 280 280"><path d="M211.784 146.306s9.514 14.845 6.979 23.854c-2.536 9.008-12.693 14.087-20.132 18.652-7.445 4.566-123.636 59.766-139.538 66.621-15.903 6.855-24.023 8.457-32.993-1.609-8.97-10.065 4.144-41.916 12.517-64.759 8.373-22.842 30.457-97.453 30.457-97.453s7.913-25.696 16.409-33.18c8.502-7.485 24.619-6.09 41.3 5.584 16.688 11.674 32.947 25.021 53.591 45.827 20.644 20.813 31.403 36.463 31.403 36.463h.007Z" fill="#FCFF60"/><path d="M184.466 167.436c11.694 5.02 22.609 4.468 22.272-4.326-.337-8.801-4.91-16.409-39.757-51.263-34.854-34.853-48.921-40.593-48.921-40.593s-5.895-5.422-18.84-7.42c-12.946-1.997-11.857 9.326-11.857 9.326s4.852 11.895 17.674 27.5c12.815 15.611 37.221 37.668 37.221 37.668s22.499 20.65 42.208 29.114v-.006Z" fill="#FFD83C"/><path d="M83.951 33.034c-2.185 1.297-3.878 3.917-3.177 6.544.771 2.892 4.027 4.138 6.764 3.56 4.21-.888 6.654-7.387 2.776-10.169-1.913-1.375-4.39-1.109-6.369.065h.007ZM240.632 89.414c-2.185 1.297-3.878 3.917-3.178 6.544.772 2.892 4.028 4.137 6.765 3.56 4.209-.888 6.654-7.387 2.776-10.17-1.914-1.374-4.391-1.108-6.369.066h.006ZM140.526 125.947c-2.186 1.297-3.879 3.917-3.178 6.544.772 2.893 4.027 4.138 6.764 3.561 4.209-.889 6.655-7.387 2.776-10.17-1.913-1.375-4.391-1.109-6.369.065h.007ZM239.53 185.518c-2.186 1.297-3.879 3.917-3.178 6.544.771 2.892 4.027 4.138 6.764 3.56 4.209-.888 6.655-7.387 2.776-10.169-1.913-1.375-4.391-1.109-6.369.065h.007ZM176.203 33.034c-2.185 1.297-3.878 3.917-3.177 6.544.771 2.892 4.027 4.138 6.764 3.56 4.209-.888 6.654-7.387 2.776-10.169-1.913-1.375-4.391-1.109-6.369.065h.006Z" fill="#F673FF"/><path d="M41.542 30.868s-3.204 5.487-3.995 6.693c-.791 1.206-4.157 4.948-3.775 5.396.383.447 10.248 9.709 11.577 9.709 1.33 0 5.331-9.962 7.109-12.75 1.777-2.79 1.9-3.237 1.9-3.237s-11.292-6.538-12.816-5.805v-.006Z" fill="#A238FF"/><path d="M194.253 207.971s-3.204 5.487-3.995 6.693c-.791 1.207-4.157 4.949-3.775 5.396.383.448 10.248 9.709 11.577 9.709 1.33 0 5.331-9.962 7.108-12.751 1.778-2.788 1.901-3.236 1.901-3.236s-11.292-6.537-12.816-5.805v-.006Z" fill="#96F9F3" stroke="#140D1D" stroke-width=".778" stroke-linecap="round" stroke-linejoin="round"/><path d="M234.561 219.859s2.069 6.012 2.465 7.394c.395 1.381 1.037 6.375 1.621 6.382.584.006 14.042-1.427 14.911-2.439.869-1.012-4.073-10.539-5.027-13.704-.953-3.165-1.213-3.554-1.213-3.554s-12.322 4.293-12.763 5.921h.006Z" fill="#A238FF"/><path d="M49.435 77.843s-5.707 3.191-8.574 3.95c-2.866.752-2.77.85-2.873 1.42-.104.571.759 4.93 1.083 7.394.331 2.464-.421 6.868.662 6.959 1.083.09 13.97-3.989 14.618-5.597.649-1.609-1.654-16.52-4.916-14.132v.006Z" fill="#96F9F3" stroke="#140D1D" stroke-width=".778" stroke-linecap="round" stroke-linejoin="round"/><path d="M183.986 196.128c-16.072 3.729-30.288-1.699-73.093-39.763-42.806-38.071-42.034-64.026-42.034-64.026l-9.676 32.22s5.285 27.447 43.635 57.625c40.204 31.65 52.132 28.005 52.132 28.005l27.012-13.068 2.024-.993ZM37.696 191.536s2.16 15.345 23.478 32.772c21.319 17.427 32.195 15.138 32.195 15.138l24.269-11.467s-20.092.428-44.62-21.902c-24.536-22.33-26.164-41.709-26.164-41.709l-9.158 27.162v.006ZM64.722 252.787s-11.246-1.447-23.005-11.006c-11.758-9.56-13.075-24.938-13.075-24.938l-4.475 16.779s2.348 19.223 25.65 25.313l9.275-3.502 5.63-2.646Z" fill="#A238FF"/><path d="M163.42 155.502s4.475 7.348 2.568 15.981c-1.9 8.626-11.771 18.652-11.771 18.652S29.485 255.556 30.886 257.969c1.4 2.419 10.506 5.35 24.366-.921 13.86-6.272 46.801-21.87 46.801-21.87l72.859-34.75s23.874-10.727 31.261-16.324c7.387-5.597 11.337-9.19 12.699-13.717 1.362-4.527-.156-8.775-.156-8.775s1.745 7.075-4.001 9.962c-5.747 2.886-20.703 2.412-37.889-7.997-11.558-7.141-13.38-8.86-13.413-8.081l.007.006Z" fill="#FFD83C"/><path d="M153.802 190.135s-9.222 4.839-22.628 11.928c14.087 8.003 20.644 8.379 22.648 8.223l20.669-9.858s1.466-.661 3.782-1.731l3.268-1.583 2.024-.992c-8.808 2.043-17.064 1.336-29.769-5.987h.006ZM73.29 233.103c11.064 6.531 17.53 6.557 19.287 6.408 5.461-2.575 9.178-4.333 9.178-4.333l15.105-7.205c-2.03-.065-10.416-.701-22.045-6.486a3902.73 3902.73 0 0 0-21.52 11.616h-.006ZM49.448 258.883l7.608-2.873c2.12-.966 4.546-2.088 7.154-3.295-1.038-.162-7.647-1.316-15.702-6.025-4.592 2.588-8.516 4.851-11.519 6.661 3.282 2.244 7.374 4.196 12.46 5.526v.006Z" fill="#6E14BD"/><path d="M87.344 73.595s-2.322-5.539-.44-11.486c1.88-5.947 7.905-10.442 18.191-7.919 10.293 2.523 10.325 11.356 0 10.87 0 0-18.01-6.888-17.75 8.529v.006ZM206.542 162.649s-.214-4.566 4.482-5.921c4.696-1.356 9.054 3.47 7.316 9.475-1.732 6.006-7.614 8.503-17.213 6.596-9.599-1.9-15.352-4.864-15.352-4.864s13.919 5.078 18.355 1.018c1.777-1.563 3.003-4.228 2.412-6.304Z" fill="#FFD83C"/><path d="M92.799 54.469s-8.244 1.226-13.84 12.978C73.36 79.199 68.852 92.339 68.852 92.339s2.186 18.062 13.257 32.22c11.078 14.158 6.051-1.323 11.253-11.732 5.201-10.403 10.947-11.097 9.346-15.254 0 0-14.45-17.596-16.545-29.153-2.102-11.551 8.502-14.107 8.502-14.107l-1.867.156ZM59.3 125.279l-5.26 16.097-7.134 23.368s2.03 11.473 10.403 23.608c8.373 12.135 4.923-7.439 8.218-14.924 3.294-7.484 14.047-9.942 11.609-16.188 0 0-13.821-15.805-17.836-31.961ZM37.696 192.088s-2.036 5.136-2.886 7.244c-.85 2.108-6.174 17.511-6.174 17.511s1.122 7.906 4.118 13.562c3.003 5.655 2.452-2.29 4.229-10.611 1.777-8.314 9.177-7.971 7.847-12.095-1.33-4.125-3.002-5.364-5.33-9.833-2.33-4.468-1.81-5.778-1.81-5.778h.006ZM28.383 244.433s-4.631 3.107-3.237 7.297c1.395 4.189-2.49-2.484-2.03-8.568.454-6.077 1.051-8.353 1.051-8.353s1.868 6.064 2.186 6.193c.317.13 2.03 3.425 2.03 3.425v.006Z" fill="#FFFFAB"/><path d="m68.568 93.318-9.378 32.331s3.307 12.524 17.958 31.598c5.383 4.734 1.148-6.817 5.104-14.171 3.957-7.362 6.266-8.899 3.068-13.704-3.197-4.806-13.535-16.85-16.752-36.048v-.006ZM46.653 165.211l-4.76 14.976-4.197 11.901s3.736 12.712 7.86 15.825c4.126 3.106 2.731-5.014 6.156-9.074 3.424-4.06 9.832-2.73 7.932-7.043-1.9-4.313-2.984-2.348-7.997-12.881-5.014-10.532-4.994-13.704-4.994-13.704ZM32.76 230.405s1.245 1.978.551 3.56c-.694 1.583-2.535 1.966-3.236 4.19-.7 2.218.422 6.427-1.44 5.772-1.861-.655-4.105-8.775-4.105-8.775l-.37-1.53 3.01-12.492 1.31-3.846 1.99 7.53 2.284 5.597.006-.006Z" fill="#B05BFF"/><path d="M211.828 146.163s9.514 14.845 6.978 23.854c-2.535 9.009-12.692 14.087-20.131 18.653-7.445 4.566-123.636 59.765-139.538 66.62-15.903 6.856-24.023 8.457-32.993-1.608-8.97-10.066 4.144-41.917 12.517-64.759 8.373-22.843 30.457-97.454 30.457-97.454s7.912-25.696 16.409-33.18c8.502-7.485 24.619-6.09 41.3 5.584 16.688 11.674 32.947 25.022 53.591 45.828 20.644 20.812 31.403 36.462 31.403 36.462h.007Z" stroke="#140D1D" stroke-width=".778" stroke-linecap="round" stroke-linejoin="round"/><path d="M94.664 54.313s-12.29 3.905-7.555 18.121c4.734 14.21 29.354 45.594 67.424 76.051 38.071 30.456 69.338 31.598 63.475 10.954M83.957 32.93c-2.185 1.297-3.878 3.917-3.178 6.544.772 2.893 4.028 4.138 6.765 3.56 4.21-.888 6.654-7.386 2.776-10.169-1.913-1.375-4.391-1.109-6.37.065h.007ZM240.637 89.31c-2.186 1.297-3.878 3.917-3.178 6.544.772 2.892 4.028 4.138 6.765 3.56 4.209-.888 6.654-7.387 2.775-10.17-1.913-1.374-4.39-1.108-6.368.066h.006Z" stroke="#140D1D" stroke-width=".778" stroke-linecap="round" stroke-linejoin="round"/><path d="M140.537 125.843c-2.185 1.297-3.878 3.918-3.177 6.544.771 2.893 4.027 4.138 6.764 3.561 4.209-.889 6.654-7.387 2.776-10.17-1.913-1.374-4.391-1.109-6.369.065h.006ZM239.535 185.414c-2.186 1.297-3.879 3.917-3.178 6.544.771 2.892 4.027 4.138 6.764 3.561 4.209-.889 6.654-7.388 2.776-10.17-1.913-1.375-4.391-1.109-6.369.065h.007ZM176.208 32.93c-2.185 1.297-3.878 3.917-3.178 6.544.772 2.893 4.028 4.138 6.765 3.56 4.209-.888 6.654-7.386 2.776-10.169-1.913-1.375-4.391-1.109-6.369.065h.006ZM41.547 30.764s-3.204 5.487-3.995 6.693c-.791 1.206-4.157 4.949-3.775 5.396.383.448 10.248 9.71 11.577 9.71 1.33 0 5.331-9.963 7.108-12.752 1.777-2.788 1.9-3.236 1.9-3.236s-11.29-6.538-12.815-5.805v-.006ZM194.258 207.867s-3.204 5.487-3.995 6.693c-.791 1.207-4.157 4.949-3.775 5.396.383.448 10.248 9.709 11.577 9.709 1.33 0 5.331-9.962 7.108-12.75 1.777-2.789 1.901-3.237 1.901-3.237s-11.292-6.537-12.816-5.804v-.007ZM234.567 219.755s2.069 6.013 2.465 7.394c.395 1.388 1.037 6.375 1.621 6.382.584.006 14.041-1.427 14.91-2.439.87-1.011-4.073-10.539-5.026-13.704-.953-3.165-1.213-3.554-1.213-3.554s-12.322 4.293-12.763 5.921h.006ZM49.447 77.74s-5.707 3.19-8.574 3.95c-2.867.752-2.77.849-2.873 1.42-.104.57.759 4.929 1.083 7.393.324 2.465-.422 6.868.662 6.96 1.083.09 13.97-3.99 14.618-5.598.649-1.608-1.654-16.519-4.916-14.132v.006ZM68.858 92.338s-.771 25.956 42.034 64.027c42.805 38.07 57.021 43.492 73.093 39.763M59.182 124.553s5.285 27.447 43.635 57.625c40.204 31.649 52.132 28.005 52.132 28.005M46.852 164.368s1.628 19.379 26.164 41.709c24.535 22.33 44.621 21.902 44.621 21.902M37.695 191.536s2.16 15.345 23.478 32.772c21.319 17.427 32.195 15.138 32.195 15.138M28.642 216.843s1.316 15.378 13.075 24.938c11.758 9.559 23.004 11.006 23.004 11.006M24.166 233.622s2.348 19.223 25.65 25.313" stroke="#140D1D" stroke-width=".778" stroke-linecap="round" stroke-linejoin="round"/><path d="M87.368 73.154s-1.09-11.317 11.856-9.326c12.945 1.99 18.841 7.42 18.841 7.42s14.067 5.739 48.921 40.593c34.854 34.854 39.42 42.468 39.757 51.262.337 8.801-10.371 8.827-22.272 4.326" stroke="#140D1D" stroke-width=".778" stroke-linecap="round" stroke-linejoin="round"/><path d="M116.976 77.804s0 2.601 3.742 5.837c3.742 3.237 2.218 8.036-1.33 9.729-3.554 1.692-7.192 3.638 1.693 9.391s13.283 7.024 18.951 1.355c5.668-5.668 8.289-12.517 2.283-19.71-6.006-7.192-.765-9.222 3.424-11.252 4.19-2.03 13.516-11.356 2.037-18.653-6.473-4.313-8.25-6.537-5.772-8.885 2.477-2.348 9.728.551 12.9-7.951 3.171-8.503-2.413-10.28-8.166-12.647-5.753-2.368-12.264-6.09-16.24-4.91-3.976 1.18-2.873 5.837.337 9.897 3.211 4.06 1.609 8.626-4.65 11-6.258 2.367-7.108 7.024-2.873 10.83 4.235 3.808 8.12 3.724 7.867 7.868-.253 4.144-15.351 5.331-14.19 18.101h-.013ZM198.098 150.314s-2.581-.344-5.286-4.488c-2.704-4.145-7.666-3.276-9.819.026-2.153 3.294-4.566 6.641-9.08-2.932s-5.188-14.1 1.187-18.957c6.376-4.865 13.516-6.545 19.84.363 6.323 6.907 9.034 1.991 11.609-1.894 2.568-3.885 13.056-11.882 18.756.473 3.412 6.992 5.377 9.048 8.036 6.908 2.659-2.141.752-9.716 9.599-11.726 8.846-2.011 9.865 3.761 11.447 9.773 1.583 6.019 4.404 12.972 2.698 16.753-1.706 3.781-6.168 2.069-9.761-1.654-3.593-3.729-8.34-2.743-11.518 3.145-3.185 5.889-7.906 6.103-11.117 1.408-3.21-4.702-2.607-8.548-6.745-8.847-4.138-.298-7.329 14.509-19.833 11.649h-.013Z" fill="#A238FF" stroke="#140D1D" stroke-width=".778" stroke-linecap="round" stroke-linejoin="round"/><path d="M197.643 66.266c-.875.882-2.114 1.297-3.359 1.284-3.425-.038-12.868.234-16.882 4.093-4.949 4.76-5.52 15.098-3.302 17.894 2.218 2.788 15.611 12.945 20.093 13.62 4.481.674 2.873-3.976 1.355-7.783-1.524-3.807-4.994-8.71-2.283-11.084 2.705-2.367 16.753 3.975 26.734-2.199 9.982-6.174 2.789-16.24 1.356-20.56-1.44-4.312 3.217-8.035 13.198-5.752 9.981 2.283 18.529-.045 18.698-14.93.169-14.891-18.951-16.584-22.927-16.409-3.975.169-10.571.085-7.698 5.163 2.873 5.078 3.638 13.114-2.199 14.89-5.837 1.778-8.373-1.439-14.21-.42-5.837 1.018-8.885 4.993-7.698 12.348.888 5.52.726 8.23-.869 9.852l-.007-.007Z" fill="#96F9F3" stroke="#140D1D" stroke-width=".778" stroke-linecap="round" stroke-linejoin="round"/><path d="M125.439 68.257a19.46 19.46 0 0 0-2.088 1.758c-.474.46-.947.92-1.375 1.42a10.472 10.472 0 0 0-2.406 5.578c-.065.558-.072 1.154.175 1.654.382.765 1.297 1.148 2.153 1.148.856 0 1.686-.299 2.497-.564a38.07 38.07 0 0 1 10.844-1.914c.577-.02 1.193-.032 1.673-.35.188-.123.344-.285.493-.447 1.764-1.849 3.522-3.769 5.733-5.046.694-.396 1.434-.74 1.998-1.304.564-.564.908-1.44.597-2.173-.247-.583-.837-.934-1.408-1.212-3.042-1.486-6.492-1.998-9.877-1.888-1.966.065-3.645.603-5.442 1.343a17.01 17.01 0 0 0-3.573 1.984l.006.013ZM143.566 27.618c-1.115-.22-2.263-.317-3.379-.11-1.115.208-2.192.752-2.892 1.647-1.155 1.46-1.096 3.561-.526 5.338.467 1.446 1.246 2.808 2.361 3.846 1.628 1.511 3.892 2.238 6.11 2.238.862 0 1.738-.104 2.555-.383a6.179 6.179 0 0 0 3.463-2.996c.908-1.771 1.109-4.767-.532-6.214-1.958-1.718-4.63-2.873-7.16-3.366ZM210.168 142.732a20.09 20.09 0 0 1-1.933 1.926c-.499.435-.999.863-1.537 1.245a10.534 10.534 0 0 1-5.772 1.914c-.564.013-1.155-.026-1.635-.318-.732-.448-1.031-1.395-.959-2.251.071-.856.441-1.653.784-2.438a38.083 38.083 0 0 0 2.854-10.637c.065-.577.136-1.187.493-1.641a2.72 2.72 0 0 1 .486-.454c1.998-1.595 4.067-3.177 5.526-5.272.454-.655.863-1.362 1.472-1.875.61-.512 1.511-.778 2.218-.402.558.299.857.921 1.084 1.511 1.219 3.159 1.42 6.642 1.018 10.001-.234 1.946-.921 3.574-1.81 5.305a16.992 16.992 0 0 1-2.289 3.386ZM252.24 128.224c.123 1.128.116 2.283-.188 3.379-.305 1.089-.941 2.12-1.894 2.737-1.557 1.018-3.645.778-5.364.058-1.401-.59-2.691-1.492-3.625-2.692-1.362-1.751-1.888-4.073-1.699-6.284.077-.863.252-1.719.603-2.51a6.198 6.198 0 0 1 3.288-3.191c1.848-.752 4.851-.688 6.142 1.07 1.543 2.101 2.451 4.864 2.73 7.433h.007Z" fill="#B05BFF"/><path d="M248.847 35.472c-1.128-1.381-2.613-2.354-4.261-2.672-1.647-.317-3.457.033-5.013 1.084-2.017 1.355-3.483 3.742-4.514 6.22-.837 2.01-1.258 4.24-1.09 6.355.169 2.114.934 4.086 2.225 5.41.668.687 1.466 1.186 2.302 1.569 2.166.979 4.793 1.096 7.005-.377 1.919-1.277 3.45-3.456 4.287-5.876a16 16 0 0 0 .772-6.673c-.182-1.758-.701-3.814-1.706-5.04h-.007Z" fill="#CFFFFB"/></svg>