<svg xmlns="http://www.w3.org/2000/svg" fill="none" viewBox="0 0 280 280"><path fill="#A238FF" d="M275.152 61.702s2.676-17.9-12.528-28.34c-15.204-10.44-53.975-26.74-95.918-20.394-41.943 6.345-60.29 14.97-87.262 28.462-34.31 21.813-48.988 45.217-50.57 61.08-1.59 15.863 246.278-40.808 246.278-40.808Z"/><path fill="#FFFFC0" d="M28.865 102.51s-5.25 25.907 39.044 41.811c44.984 16.147 106.653-1.085 106.653-1.085s41.71-12.761 64.121-28.816c22.411-16.066 30.54-28.361 34.503-40.656 3.963-12.296.912-13.096.912-13.096S253.654 36.98 179.68 42.33C105.707 47.683 48.691 89.434 43.532 91.147c-5.16 1.713-14.677 11.373-14.677 11.373l.01-.01Z"/><path fill="#6E14BD" d="M28.867 102.51s-2.463-25.32 48.542-59.56c12.538-8.068 34.544-16.795 34.544-16.795s-42.44 26.577-43.038 38.173c-.598 11.595 16.856 2.675 16.856 2.675S46.108 85.452 28.857 102.5l.01.01ZM207.675 13.242s47.072 14.829 52.627 26.79c5.554 11.96-9.538 8.119-9.538 8.119s10.967 2.97 23.343 12.497l1.044 1.044s2.352-18.812-11.211-27.377c-13.552-8.565-27.174-17.333-56.265-21.083v.01Z"/><path fill="#ECE78E" d="M29.037 103.301s71.915-53.55 166.415-55.404c57.715-1.135 79.69 13.805 79.69 13.805S248.98 32.034 164.303 43.964C79.626 55.904 29.463 102.5 29.463 102.5l-.437.791.01.01Z"/><path stroke="#14041E" stroke-linecap="round" stroke-linejoin="round" stroke-width=".8" d="M181.169 11.285S72.884 15.248 32.168 89.82c-21.682 47.062 61.343 79.933 152.305 50.011 90.962-29.922 96.02-73.811 88.083-94.438-7.936-20.627-59.793-35.456-91.387-34.108Z"/><path stroke="#14041E" stroke-linecap="round" stroke-linejoin="round" stroke-width=".8" d="M28.693 103.3s35.68-38.081 120.357-56.326c58.404-12.579 106.642-4.754 126.103 14.677"/><path fill="#96F9F3" stroke="#14041E" stroke-linecap="round" stroke-linejoin="round" stroke-width=".8" d="M101.955 144.2c-9.132-2.422-18.944-2.524-28.046.122-4.572 1.328-9.66 3.335-13.4 6.375-3.954 3.224-6.61 7.663-10.299 11.13-9.437 8.869-21.367 13.086-29.82 23.374-11.84 14.403-17.962 34.006-14.971 52.555 2.29 14.221 18.822 38.862 36.165 29.03 5.423-3.071 8.12-9.497 8.88-15.68 1.52-12.265-2.96-24.195-2.93-36.419.02-7.288 1.946-14.738 6.437-20.577 3.922-5.098 10.055-7.703 14.403-12.406 4.997-5.413 5.99-14.059 8.403-20.871 2.676-7.561 10.166-9.284 17.404-9 4.713.182 9.558-.984 14.261-.538 1.703.163 7.876.183 7.876.183-.04-3.73-11.504-6.497-14.12-7.207l-.243-.061v-.01Z"/><path fill="#14041E" stroke="#14041E" stroke-linecap="round" stroke-linejoin="round" stroke-width=".8" d="M123.232 53.532s-26.537 16.451-25.746 49.769c.79 33.317 31.696 44.852 61.607 39.926 29.912-4.926 48.917-30.409 47.063-56.053-1.855-25.644-17.141-42.704-33.825-44.224-6.183.872-49.109 10.592-49.109 10.592l.01-.01Z"/><path fill="#fff" stroke="#14041E" stroke-linecap="round" stroke-linejoin="round" stroke-width=".8" d="M111.302 100.847c1.886 6.224 6.538 12.417 13.025 12.914 3.832.294 7.623-1.531 10.329-4.268 2.696-2.736 4.419-6.304 5.605-9.953 2.818-8.687 2.828-18.266.031-26.962-1.105-3.436-2.747-6.873-5.636-9.032-8.008-5.99-15.417 3.67-19.289 9.782-5.099 8.058-6.832 18.336-4.065 27.519ZM138.425 123.288c-.01 1.754.03 3.589.841 5.139.963 1.835 3.001 3.031 5.068 3.031 2.068 0 4.085-1.186 5.119-2.98.953-1.652 1.064-3.639 1.115-5.544.101-4.126-1.014-11.302-6.72-10.988-4.997.284-5.383 7.724-5.413 11.332l-.01.01ZM13.642 213.369c1.359-4.622 3.558-8.829 6.822-11.981.669-.639 1.399-1.257 2.27-1.571 2.423-.872 3.903 1.115 3.599 3.365-.426 3.233-1.47 6.558-1.399 9.822.101 4.875 3.72 6.233 6.578 9.396 5.464 6.051-2.838 12.579-.71 19.096 1.45 4.43 3.062 13.664-3.922 14.475-5.037.578-8.828-3.781-10.764-7.876-1.592-3.385-2.585-7.136-3.295-10.805-1.378-7.095-1.48-16.106.811-23.921h.01Z"/></svg>