<svg fill="none" xmlns="http://www.w3.org/2000/svg" viewBox="0 0 280 280"><path d="M97.648 105.85s.602 6.052 2.159 11.881c1.556 5.835 6.298 21.454-1.797 30.747 0 0-6.124 6.07-14.71 7.001-8.584.932-12.522-.385-14.653-3.447l.278-.335s4.781.413 7.531-.351c2.75-.765 3.035-1.043 3.035-1.043s-3.57 1.679-7.425 1.623c-3.855-.056-6.23-.575-7.029-3.007 0 0 .006.162 3.537.407 3.526.246 8.914-1.232 8.914-1.232l1.004-.765s-2.025 1.612-7.352 2.025c-5.327.413-7.955-.658-7.625-3.224.329-2.566 2.817-2.27 2.817-2.27s.797.719 4.942.346c4.145-.374 6.342-1.083 6.342-1.083l.497-.675s-1.45 1.64-7.62 1.825c-6.17.184-7.876-1.06-7.33-3.426.547-2.37 4.72-2.733 9.104-2.549 4.384.184 5.439-1.277 7.045-3.464 1.607-2.187 8.786-5.941 12.284-2.443 0 0 .1-.413-.96-1.071-1.06-.658-2.175-.463-2.175-.463S77.387 117.815 77.894 108.7c.508-9.115 11.419-13.31 15.848-16.428 4.43-3.118 7.107-8.038 13.232-12.356 6.125-4.317 15.2-1.255 15.2-1.255l1.172-.083s1.701 2.404 2.326 12.283-1.841 17.337-1.841 17.337l-1.294 2.884s-.92 1.601-2.242 1.679c0 0-.123-2.711-1.668-6.538-1.551-3.826-2.801-4.167-2.801-4.167l.91-.435s-4.474.659-9.545 3.425c-5.065 2.773-8.953 5.216-8.953 5.216M102.663 208.467s4.317-2.627 9.46-7.547c5.138-4.92 7.548-11.704 13.778-14.71 6.231-3.007 11.72.725 11.72.725.118 0 .24.033.357.017l.553 1.88c-1.529-3.498-5.361-9.735-5.361-9.735s-.904-.647.625-.502c1.528.145 4.886.112 9.265-2.476 4.379-2.589 12.016-12.01 12.016-12.01s3.692 20.952 3.469 27.623c-.217 6.672-3.062 12.903-16.734 14.325-13.673 1.423-16.735 6.928-16.735 6.928s.496.497.468 1.629c-.027 1.133-.747 3.436-.747 3.436s.095 2.226.703 3.208c.608.982 2.047 1.367 2.047 1.367s-.028-1.055 2.326-.268c2.717.909 6.716.184 6.716.184s1.328-.022 1.278.535c0 0 1.333-.725 3.006-2.549 1.68-1.824 5.066-1.902 5.211 1.272 0 0-1.049-1.177-3.264.139-2.214 1.317-2.923 2.672-2.923 2.672s1.518-1.93 2.795-2.806c1.277-.875 4.412-.401 4.446 2.371.039 2.773-.658 3.682-.658 3.682s-.168-2.8-2.516-2.8c-.619.072-1.305.742-2.153 1.506-.848.764-2.511 2.532-2.511 2.532s1.529-1.456 2.845-3.246c1.317-1.791 5.322-.257 3.498 4.412-1.824 4.664-6.962 7.246-7.877 6.995 0 0-2.599 1.049-6.498 1.2-3.899.145-6.756.161-10.303-1.468-3.548-1.628-6.047-3.759-6.845-5.868-.797-2.108-1.841-7.48-1.841-7.48l-9.628-15.173h.012Z" fill="#F2A35E"/><path d="M169.523 208.93s-4.373-8.674-5.394-18.079c-1.021-9.405.703-14.37.703-14.37-4.864-.82-8.384-4.105-8.384-4.105l-1.233-8.262s1.478-3.564 4.239-3.681c2.762-.117 12.551-.831 12.551-.831s2.723-.212 3.654-.38c.932-.162 1.612-.29 1.612-.29s10.917 5.048 10.749 13.689c-.161 8.641-3.012 26.497-1.428 35.679 0 0 2.935 1.389 5.919 4.752 0 0 1.461 1.294 2.717 3.749 1.11 2.17 2.287 4.646 2.906 7.681 0 0 .134.028.39.061l3.325-.072c1.01-.134 1.88-.279 3.23-.703 0 0 2.053-.697 3.932-.837 3.119-.234 5.729.43 6.287 2.103l-3.046.949s3.347-1.802 4.848.535c.982 1.529.089 3.877.089 3.877-.011-.24-.028-.508-.178-.697-.09-.112-.218-.179-.335-.257a2.852 2.852 0 0 1-.502-.435c-.034-.033-.062-.067-.101-.084a.352.352 0 0 0-.106-.028c-.167-.022-.334-.022-.502-.022-.278 0-.563 0-.842.006-.151 0-.301 0-.452.016-.279.023-.558.212-.836.212 0 0 2.281-.903 3.486.547 1.205 1.45.614 5.751-4.134 6.186 0 0-3.062 3.018-4.339 3.637-1.278.62-4.959.346-4.959.346s-5.701.279-6.516.034c-.814-.246-7.341-.993-9.327-4.915-3.464-4.635-4.546-9.706-4.546-9.706l-2.432-3.983s-1.885-12.021-11.045-12.322ZM182.682 63.929c-.329-2.55-2.186-3.174-5.031-4.814-2.845-1.64-1.205-5.433-3.063-6.158-1.857-.731-3.57.948-3.642 5.394-.073 4.446 2.002 7.765 3.174 10.537 1.166 2.772 1.221 5.612-.419 10.588-1.64 4.975-2.789 9.823-2.789 9.823s-5.907-2.7-12.25-6.27c-6.342-3.57-9.332-3.888-9.332-3.888s7.107 5.99 11.179 11.954c4.072 5.963 3.403 10.387 3.403 10.387l-.647 2.912-1.222 1.963s6.906 8.245 19.373 6.404c12.467-1.841 11.374-35.522 9.84-39.79" fill="#F2A35E"/><path d="M171.626 54.396s-.58-6.979 3.793-11.318c4.374-4.34 7.793-4.111 8.859-2.605 1.065 1.506-.218 2.705-2.678 4.814-3.224 2.789-2.789 7.246-2.789 7.246s.223-4.613 1.869-7.24c1.64-2.628 3.709-4.653 3.709-4.653s1.969-1.144 3.743 0c1.78 1.143 1.311 3.358-1.205 5.467-2.516 2.103-4.044 4.345-3.938 6.944 0 0-2.343-2.722 6.209-11.1 0 0 1.528-1.724 3.553-.519s.273 3.693-1.506 5.277c-1.78 1.584-3.526 5.06-3.47 7.408 0 0-1.779-4.122 5.383-9.873 0 0 3.085-.731 3.358 2.309.274 3.04-4.044 4.329-5.193 6.95-1.149 2.628-.686 5.177.92 8.97 1.607 3.793 1.93 13.505-9.84 12.356M131.542 73.858s2.928 5.618 11.82 4.586c8.897-1.027 14.381-15.067 8.524-28.806 0 0-1.997 5.857-7.113 7.938-5.115 2.08-8.741.58-8.741.58s1.356 9.583-4.496 15.702h.006Z" fill="#F2A35E"/><path d="M131.821 73.942s-4.033 3.698-7.018 4.072c-.295 0-.357.095 1.969 3.498 2.326 3.408 7.174 9.142 11.949 9.845 4.775.703 8.072-3.029 8.936-6.722.865-3.692.463-6.677.463-6.677l-.926-.859-15.379-3.157h.006Z" fill="#F2A35E"/><path d="M148.209 77.724s1.501 13.009-7.932 13.377c-7.754.658-14.592-12.066-16.015-13.377-1.422-1.31-2.616.357-2.616.357l.318.034.491.457.251-.686s3.447 3.08 2.861 16.93c-.585 13.851-2.95 17.315-5.578 18.118 0 0-.948.072-.435 2.733.508 2.661 1.021 9.004.658 13.087 0 0-4.077 4.92-12.356 16.294-8.278 11.374-23.478 18.81-31.684 18.592-8.2-.217-23.585-3.28-33.062-2.627-9.478.658-13.85 13.125-4.775 24.276 9.076 11.157 20.12 6.231 26.463 7.654 6.343 1.422 13.522 8.746 26.062 5.684 12.539-3.063 17.755-9.332 29.799-8.457 0 0 3.921-4.172 8.568-4.959 4.646-.786 8.473 1.456 8.473 1.456l-4.267-7.893s6.967 1.088 13.259-5.562c6.292-6.649 10.487-11.825 10.487-11.825s-.669-.77 3.13-1.138c3.798-.363 10.838-.776 14.732-.898.256-.006 2.655-.43 2.655-.43s2.7 1.116 4.524 3.007c1.824 1.896 4.92 4.92 5.578 8.272.658 3.353-1.221 19.195-1.221 19.195l.033 4.2c9.952-.875 14.107-5.466 17.605-12.685 3.498-7.218 5.249-12.902 19.468-14.765 14.219-1.858 19.686-11.809 22.419-30.842 2.733-19.028-1.205-20.344-8.747-16.735-7.541 3.609-15.965 15.965-31.824 17.716-15.858 1.752-28.649-1.606-33.904-2.989-5.249-1.384-12.032-4.664-12.032-7.509.507-5.321-.435-9.566-.932-11.647-.496-2.081-.217-2.678-.162-3.336.056-.658.073-.619 1.897-2.588s5.104-6.125 2.114-13.416c-2.99-7.29-15.072-17.755-15.072-17.755l.742.658.027.022Z" fill="#D71F14"/><path d="M158.028 195.615s3.659 1.126 7.067.769c0 0-1.411-6.169-1.255-11.295.156-5.127 1.255-8.641 1.255-8.641s-3.28-.882-5.907-2.109c-2.633-1.227-2.784-2.153-2.784-2.153l1.858 12.356s1.249 7.486-.234 11.067v.006Z" fill="#950800"/><path d="M148.226 228.855s2.109 1.451-.847 5.3c-2.957 3.854-9.221 4.011-9.221 4.011-.53-4.664 0-14.47 0-15.168 0-.697-3.883-.284-3.883 0-1.696 4.608-1.205 15.463-1.205 15.463h-5.249c0-10.387 4.675-15.53 4.1-15.747-.574-.218-1.668-.301-2.9-.435-1.233-.134-1.367.217-2.879 3.146-1.511 2.928-3.464 12.16-3.464 12.16s-2.845-.546-6.671-3.826c-3.827-3.28-3.939-13.304-3.939-13.304 2.7.948 12.105-1.897 13.014-2.477.91-.58 1.166-2.549 1.021-3.793-.145-1.239.764-1.858-4.284-.145-5.048 1.712-12.021 2.331-12.021 2.331-.708-2.571-4.73-4.814-6.069-5.907-1.339-1.093-1.094-2.923-1.094-2.923l.157.848.418-.112 3.118-2.404s-11.028-.586-13.795 7.798c-2.772 8.385 3.498 13.996 4.229 19.831.73 5.835 1.02 10.716 1.606 11.157.586.435 2.773.435 2.99 0 .218-.436-.474-8.602 1.584-12.83 2.059-4.229 2.644-4.814 6.432.875 3.793 5.685 6.342 8.747 10.353 10.499 4.011 1.751 18.593 1.896 25.956-1.239 7.363-3.135 8.601-11.809.948-13.633 0 0-.346 3.263-2.917 5.355-2.572 2.098-5.969 3.983-5.969 3.983l.318 3.308 7.854-3.782 3.035-2.728.954-2.298M216.744 235.75c.586 1.819-3.894 2.326-3.894 2.326.876-10.007-3.274-15.251-3.966-15.691-.692-.441-3.553.083-3.665.602-.111.519 1.177 1.038 2.706 4.836 1.528 3.799.675 11.33.418 11.659-.257.329-5.394.508-5.394.508 2.187-10.828-.636-15.625-1.093-15.932-.458-.307-3.174-.217-3.174-.217 2.443 8.021.435 15.931.435 15.931s-4.759.982-9.567-2.845c-4.814-3.827-7.107-11.976-6.945-11.597 7.877-1.701 13.232-8.596 13.271-9.433.039-.837-2.187-3.866-2.845-3.319-4.117 7.001-12.501 8.752-12.501 8.752-2.99-13.047-11.519-12.272-11.519-12.272s.362 2.204-2.627 5.562c-2.99 3.352-5.211 6.549-3.08 10.71 2.131 4.161 4.541 7.168 5.958 9.907 1.422 2.733 1.584 7.33 1.802 7.821.217.49 2.354.981 3.062 0 .709-.982-2.131-13.076 1.367-14.303 3.497-1.227 6.231 11.731 15.859 14.191 9.622 2.46 24.36-.792 25.537-3.174 1.177-2.376.519-4.407-1.177-4.758l-3.414 1.26.234 2.706 3.671-.764 1.149-.765" fill="#D71F14"/><path d="M129.349 54.39c7.001 6.873 17.059 5.16 21.761-2.605 4.703-7.765 2.734-22.09-20.45-16.076-23.183 6.013-22.257 24.388-22.257 24.388s-13.761-3.939-20.907 2.7c-7.146 6.632 1.166 10.498 1.166 10.498s-17.354-6.783-22.676 7.218c-5.321 13.996 9.087 21.142 19.128 17.242 0 0 5.3-3.268 8.306-5.182 3.007-1.913 10.811-10.503 10.811-10.503s4.853-4.201 9.734-4.424c4.881-.218 8.774.73 8.774.73l-.128-.858s1.065.195 1.394.597c.33.401.318.117.318.117 13.355-2.823 11.704-19.965 11.704-19.965" fill="#F5EBFF"/><path d="M144.227 64.108s.485 5.36 4.819 5.416c4.34.056 4.374-.708 4.541-1.272.167-.563 1.182-3.073.312-3.073-.87 0-6.063 1.439-9.672-1.072Z" fill="#D71F14"/><path d="M33.364 172.699s.737 16.88 16.59 19.942c6.013.547 12.16-.033 14.765.547 2.606.58 13.835 7.051 20.45 6.426 6.616-.63 9.818-1.779 17.449-5.026 7.637-3.241 11.787-4.412 17.8-3.999 0 0 3.972-4.474 8.167-5.311 4.195-.837 7.229.748 7.229.748l2.159.937-4.524-8.172-9.422.106s-3.319-.402-9.003 2.37c-5.684 2.773-14.654 9.517-23.947 11.81-9.294 2.298-18.866-3.827-18.866-3.827s-3.497-2.036-7.274-1.534c-3.77.496-11.536 2.41-18.921.223-7.386-2.187-11.854-9.21-12.652-15.24ZM186.638 193.607s10.353.066 15.005-8.028c4.647-8.094 5.071-9.734 6.527-11.976 1.455-2.243 3.386-4.954 12.578-6.973 7.799-.876 11.514-1.099 17.438-8.055 0 0 4.903-7.503 6.761-16.74 1.857-9.243 2.053-13.449 2.053-13.449l-.117-1.624s-.731 7.364-10.683 15.017c-9.951 7.653-17.828 9.377-17.828 9.377s-6.181 1.958-10.554 1.049-10.442-2.059-11.463-1.869c-1.021.19-4.374.48-4.374.48s-3.023.507-6.632 3.174c-3.609 2.661-5.138 4.301-7.408 4.764-.764-.162 1.038.686 1.367.903.329.218 7.173 4.759 8.523 10.554.558 3.994-.507 13.751-.507 13.751l-.675 9.639-.011.006Z" fill="#950800"/><path d="M138.81 188.753s-3.046-5.667 6.805-9.321c12.055-4.468 12.44 6.398 12.44 6.398l-1.802-14.369-1.177-7.341s-7.904 11.022-14.135 13.159c-6.231 2.131-7.492 1.512-7.492 1.512l5.361 9.968v-.006Z" fill="#EE7810"/><path d="M165.095 176.777s-6.298-5.807-1.328-10.788c6.264-6.287 18.079-5.177 21.214-1.384 0 0-3.598-2.862-4.859-4.022-1.26-1.16-2.85-1.645-2.85-1.645s-6.699.898-8.038.87c-1.339-.028-8.624.374-10.677.892-2.053.519-3.481 3.42-3.481 3.42l1.322 8.072s1.066 1.288 4.323 2.811c3.258 1.528 4.368 1.779 4.368 1.779l.006-.005ZM128.311 76.469s4.803 5.89 10.934 6.443c8.473.764 8.914-4.424 8.914-4.424l-.787-1.194s-3.849 2.037-7.765 1.194c-3.916-.842-5.885-2.65-5.885-2.65l-1.908-2.286s-1.974 2.393-3.508 2.911l.005.006ZM97.821 105.587s14.364-9.098 21.8-10.169c7.436-1.07 5.277 7.509 5.277 7.509s-.826 3.971-1.411 5.65c-.586 1.679-2.187 4.195-2.901 3.939-.714-.257-.859-3.721-2.387-7.18-1.529-3.464-2.7-3.391-2.7-3.391s-4.496 1.171-6.521 2.209c-2.025 1.037-8.245 4.602-8.245 4.602l-2.203 1.026-.709-4.195ZM163.338 97.237c2.181 7.012 9.533 12.021 16.807 11.485 5.361-.396 9.896-4.127 10.565-9.594 0 0-1.868 14.007-11.781 13.784-9.918-.218-12.925-3.364-12.925-3.364l-3.966-3.185s2.845-4.167 1.3-9.126Z" fill="#EE7810"/><path d="M186.727 190.12s.703-9.84 1.154-13.343c.452-3.498.078-11.776-3.927-8.925-3.698 2.633.073 13.901.787 22.262.708 8.368 1.389 12.685 1.389 12.685l.597-12.685v.006ZM143.055 200.501c-.926.692-1.857 1.757-1.522 2.957.156.557.591 1.009 1.098 1.288.508.279 1.094.396 1.668.452 2.444.245 4.892-.547 7.068-1.69.736-.385 1.461-.826 2.003-1.451.63-.73.864-1.84.529-2.755-.463-1.266-1.846-1.389-2.995-1.345-1.372.056-2.566.441-3.882.848a23.211 23.211 0 0 0-3.615 1.445c-.117.078-.24.162-.357.251h.005Z" fill="#F4C59C"/><path d="M136.099 34.604s-12.735 1.267-20.327 8.892c-6.03 6.058 1.919-5.171 20.327-1.506 14.314 2.85 13.745-9.907 0-7.386ZM66.845 78.795c-1.618 3.135-1.858 6.95-.647 10.258 1.277 3.487 5.104 3.81 8.172 2.633 6.002-2.298 11.714-12.272 6.136-17.633-4.797-4.613-11.19-.05-13.661 4.736v.006Z" fill="#fff"/><path d="M78.007 107.707c-.111.865-.117 1.774.246 2.566.362.792 1.166 1.428 2.03 1.372.491-.033.938-.273 1.35-.541 2.717-1.757 4.452-4.948 4.44-8.189 0-.608-.066-1.238-.34-1.779-1.082-2.13-3.374-1.15-4.585.117-1.685 1.768-2.828 4.016-3.146 6.449l.005.005ZM188.076 67.778c.017.87.19 1.763.653 2.5.468.735 1.261 1.299 2.131 1.338.256.011.524-.022.758-.14.257-.128.458-.345.631-.574.976-1.3 1.149-3.035 1.099-4.658-.039-1.115-.184-2.281-.815-3.202-.396-.58-1.026-.982-1.757-.909-.602.056-.976.647-1.294 1.104a7.787 7.787 0 0 0-1.4 4.547l-.006-.006Z" fill="#F4C59C"/><path d="M92.623 60.086c-.776.19-1.562.373-2.288.703-.898.407-1.69 1.01-2.465 1.623-.926.736-1.897 1.562-2.192 2.705-.134.513-.095 1.121.279 1.5.345.347.875.42 1.36.43 3.141.09 6.114-1.294 8.915-2.716.67-.34 1.338-.686 1.935-1.138a6.74 6.74 0 0 0 1.64-1.78c.251-.396.469-.87.335-1.322-.318-1.065-2.008-1.127-2.9-.987-1.557.251-3.091.608-4.62.976v.006Z" fill="#fff"/><path d="M122.459 78.572s-9.075-3.063-15.2 1.255-8.803 9.243-13.232 12.356c-4.429 3.118-15.786 7.307-16.294 16.422-.508 9.115 11.011 22.163 11.011 22.163" stroke="#140D1D" stroke-width=".669" stroke-linecap="round" stroke-linejoin="round"/><path d="M97.927 105.766s.602 6.052 2.159 11.882c1.556 5.834 6.298 21.453-1.796 30.747 0 0-6.125 6.069-14.71 7-8.585.932-12.523-.384-14.654-3.447" stroke="#140D1D" stroke-width=".669" stroke-linecap="round" stroke-linejoin="round"/><path d="M79.775 150.224s-3.57 1.68-7.424 1.624c-3.855-.056-6.231-.575-7.029-3.007" stroke="#140D1D" stroke-width=".669" stroke-linecap="round" stroke-linejoin="round"/><path d="M78.772 147.251s-2.025 1.612-7.352 2.025c-5.333.413-7.955-.658-7.626-3.224.19-1.473 1.082-2.003 1.813-2.187" stroke="#140D1D" stroke-width=".669" stroke-linecap="round" stroke-linejoin="round"/><path d="M78.392 142.365s-1.45 1.64-7.62 1.824c-6.17.184-7.876-1.06-7.33-3.425.547-2.371 4.72-2.734 9.104-2.55 4.385.185 5.439-1.277 7.045-3.464 1.607-2.186 8.786-5.94 12.284-2.443M98.53 110.178s3.882-2.443 8.952-5.215c5.065-2.773 9.545-3.425 9.545-3.425" stroke="#140D1D" stroke-width=".669" stroke-linecap="round" stroke-linejoin="round"/><path d="M115.672 102.017s1.417.38 2.962 4.206c1.551 3.827 1.952 6.454 1.952 6.454" stroke="#140D1D" stroke-width=".669" stroke-linecap="round" stroke-linejoin="round"/><path d="M122.628 78.12s3.447 3.08 2.861 16.93c-.585 13.851-2.951 17.315-5.578 18.118 0 0-.948.073-.435 2.734.513 2.66 1.021 9.003.658 13.086 0 0-4.078 4.92-12.356 16.294-8.278 11.374-23.479 18.81-31.684 18.592-8.2-.217-23.585-3.28-33.062-2.627-9.478.658-13.851 13.126-4.775 24.277 9.076 11.156 20.12 6.23 26.463 7.653 6.342 1.422 13.522 8.747 26.061 5.684 12.54-3.062 17.756-9.332 29.799-8.456M147.379 77.3s12.082 10.465 15.072 17.756c2.99 7.29-.29 11.446-2.114 13.415-1.824 1.969-1.841 1.93-1.896 2.589-.056.658-.33 1.255.161 3.335.491 2.081 1.44 6.326.932 11.648 0 2.845 6.783 6.125 12.032 7.508s18.046 4.742 33.905 2.99c15.859-1.752 24.276-14.107 31.824-17.717 7.547-3.609 11.485-2.298 8.746 16.735-2.733 19.028-8.2 28.979-22.419 30.842-14.219 1.858-15.965 7.548-19.468 14.766s-7.653 11.809-17.605 12.685" stroke="#140D1D" stroke-width=".669" stroke-linecap="round" stroke-linejoin="round"/><path d="M33.415 170.853s.43 16.785 18.509 18.174c7.29.585 11.954-2.042 16.037-1.166 4.083.876 13.103 6.744 21.688 5.539 8.585-1.205 21.761-10.465 26.865-13.087 5.104-2.627 13.377-.909 20.812-1.785 7.436-.875 16.512-12.796 19.357-16.623 2.845-3.826 18.481-.329 24.494-4.591 6.013-4.261 7.436-9.187 23.295-5.578 15.859 3.609 41.547-11.921 42.428-26.575" stroke="#140D1D" stroke-width=".669" stroke-linecap="round" stroke-linejoin="round"/><path d="M133.455 179.019s3.827 6.231 5.361 9.734" stroke="#140D1D" stroke-width=".669" stroke-linecap="round" stroke-linejoin="round"/><path d="M137.9 186.857s-5.489-3.732-11.72-.725c-6.231 3.006-8.64 9.789-13.778 14.709-5.137 4.92-9.461 7.548-9.461 7.548M125.088 212.907s3.062-5.506 16.735-6.928c13.672-1.422 16.511-7.653 16.734-14.325.218-6.671-3.469-27.623-3.469-27.623" stroke="#140D1D" stroke-width=".669" stroke-linecap="round" stroke-linejoin="round"/><path d="M106.333 205.867s-11.028-.585-13.795 7.799c-2.772 8.384 3.498 13.996 4.228 19.83.731 5.835 1.021 10.716 1.607 11.157.586.435 2.772.435 2.99 0 .218-.435-.474-8.602 1.584-12.83 2.059-4.228 2.644-4.814 6.432.876 3.793 5.684 6.342 8.746 10.353 10.498 4.011 1.752 18.592 1.897 25.956-1.238 7.363-3.135 8.601-11.809.948-13.634" stroke="#140D1D" stroke-width=".669" stroke-linecap="round" stroke-linejoin="round"/><path d="M102.642 207.535s-.246 1.83 1.093 2.923c1.339 1.094 5.361 3.336 6.069 5.908 0 0 6.973-.62 12.021-2.332 5.049-1.713 4.139-1.093 4.284.145.145 1.238-.111 3.207-1.02 3.793-.91.586-10.315 3.425-13.015 2.477 0 0 .112 10.024 3.939 13.304 3.826 3.28 6.671 3.827 6.671 3.827s1.953-9.232 3.464-12.161c1.512-2.928 1.646-3.285 2.879-3.146 1.233.139 2.326.218 2.9.435.575.218-4.1 5.361-4.1 15.747h5.25s-.491-10.855 1.204-15.462c0-.285 3.883-.698 3.883 0 0 .697-.53 10.503 0 15.167 0 0 6.264-.156 9.221-4.011 2.956-3.855.848-5.299.848-5.299" stroke="#140D1D" stroke-width=".669" stroke-linecap="round" stroke-linejoin="round"/><path d="M125.088 217.972s.095 2.226.703 3.208c.608.981 2.047 1.366 2.047 1.366M131.921 222.998h2.354M138.157 222.998s1.333-.725 3.007-2.549c1.673-1.824 5.065-1.902 5.21 1.272" stroke="#140D1D" stroke-width=".669" stroke-linecap="round" stroke-linejoin="round"/><path d="M140.188 224.532s1.517-1.93 2.794-2.806c1.278-.875 4.413-.401 4.446 2.371.039 2.772-.658 3.682-.658 3.682" stroke="#140D1D" stroke-width=".669" stroke-linecap="round" stroke-linejoin="round"/><path d="M139.597 229.017s1.528-1.456 2.844-3.246c1.311-1.785 5.322-.257 3.498 4.412-1.824 4.663-6.962 7.246-7.877 6.995M65.322 187.71s22.547-4.881 38.295-25.732M143.568 137.545s3.637 18.18 19.68 22.402M172.329 140.909s16.947 7.915 26.575 9.823M156.448 172.376s3.799 3.202 8.663 4.022c0 0-2.002 5.048-.982 14.453 1.021 9.405 5.395 18.079 5.395 18.079M209.297 222.848c3.113-.285 5.729.429 6.287 2.103M202.129 224.393c1.01-.134 1.88-.279 3.23-.703M195.507 216.723c1.233 2.103 2.287 4.646 2.906 7.681 0 0 .134.028.391.061M177.557 158.848s10.632 5.132 10.47 13.773c-.162 8.641-2.733 26.413-1.149 35.595 0 0 2.934 1.389 5.918 4.752M212.538 225.899s3.347-1.802 4.848.535c.981 1.529.089 3.877.089 3.877" stroke="#140D1D" stroke-width=".669" stroke-linecap="round" stroke-linejoin="round"/><path d="M213.615 229.028s2.281-.903 3.486.547c1.205 1.45.614 5.751-4.133 6.186" stroke="#140D1D" stroke-width=".669" stroke-linecap="round" stroke-linejoin="round"/><path d="M215.717 235.014c1.696.351 2.354 2.382 1.177 4.758s-15.915 5.634-25.537 3.174c-9.623-2.46-12.356-15.418-15.859-14.191-3.498 1.227-.659 13.321-1.367 14.303-.708.981-2.845.49-3.062 0-.218-.491-.385-5.088-1.802-7.821-1.417-2.733-3.827-5.74-5.958-9.907-2.131-4.161.089-7.358 3.079-10.71 2.99-3.353 2.628-5.562 2.628-5.562s8.529-.775 11.519 12.272c0 0 8.384-1.751 12.501-8.752.658-.547 2.878 2.477 2.845 3.319-.039.837-5.395 7.732-13.271 9.433-.162-.374 2.131 7.77 6.945 11.597s9.567 2.845 9.567 2.845 2.002-7.91-.436-15.931c0 0 2.711-.084 3.174.217.463.301 3.28 5.104 1.094 15.932 0 0 5.137-.185 5.394-.508.257-.324 1.11-7.865-.418-11.659-1.529-3.793-2.817-4.317-2.706-4.836.112-.519 2.973-1.043 3.665-.602.692.44 4.842 5.684 3.966 15.691 0 0 4.485-.507 3.894-2.326M158.027 195.615s3.37 1.132 7.068.775M149.325 79.057s2.99.318 9.333 3.888c6.342 3.57 12.249 6.27 12.249 6.27s1.15-4.847 2.79-9.823c1.64-4.976 1.584-7.82.418-10.587-1.166-2.773-3.247-6.086-3.174-10.538.072-4.451 1.785-6.125 3.642-5.394 1.858.73.218 4.518 3.063 6.158 2.845 1.64 4.702 2.26 5.031 4.815M162.038 106.273s6.906 8.245 19.373 6.404c12.468-1.841 11.374-35.522 9.84-39.79" stroke="#140D1D" stroke-width=".669" stroke-linecap="round" stroke-linejoin="round"/><path d="M171.705 54.279s-.58-6.979 3.793-11.318c4.374-4.34 7.793-4.112 8.859-2.605 1.065 1.506-.218 2.705-2.678 4.814-3.224 2.789-2.789 7.246-2.789 7.246" stroke="#140D1D" stroke-width=".669" stroke-linecap="round" stroke-linejoin="round"/><path d="M184.468 40.517s1.969-1.143 3.743 0c1.779 1.144 1.311 3.358-1.205 5.467-2.516 2.108-4.044 4.345-3.938 6.945" stroke="#140D1D" stroke-width=".669" stroke-linecap="round" stroke-linejoin="round"/><path d="M189.281 41.828s1.529-1.724 3.554-.519c2.024 1.205.273 3.693-1.507 5.277-1.779 1.584-3.525 5.06-3.469 7.408" stroke="#140D1D" stroke-width=".669" stroke-linecap="round" stroke-linejoin="round"/><path d="M193.443 44.16s3.085-.73 3.358 2.31c.274 3.04-4.044 4.328-5.193 6.95-1.149 2.627-.686 5.176.92 8.97 1.607 3.793 1.931 13.504-9.84 12.355M121.562 78.315s1.194-1.673 2.617-.357c1.422 1.311 8.261 14.035 16.015 13.377 9.427-.363 7.932-13.377 7.932-13.377M85.12 97.638c-10.036 3.899-24.45-3.24-19.128-17.242 5.321-13.996 22.675-7.218 22.675-7.218s-8.311-3.866-1.166-10.498c7.146-6.633 20.908-2.7 20.908-2.7s-.932-18.375 22.257-24.388c23.183-6.014 25.152 8.311 20.45 16.076-4.703 7.765-14.766 9.477-21.761 2.605" stroke="#140D1D" stroke-width=".669" stroke-linecap="round" stroke-linejoin="round"/><path d="M136.032 58.156s1.651 17.136-11.703 19.964M99.389 76.056s8.272 4.63 14.397.764c5.433-2.549 6.309-9.365 6.309-9.365" stroke="#140D1D" stroke-width=".669" stroke-linecap="round" stroke-linejoin="round"/><path d="M131.82 73.775s2.929 5.617 11.821 4.585c8.891-1.032 14.38-15.067 8.523-28.806" stroke="#140D1D" stroke-width=".669" stroke-linecap="round" stroke-linejoin="round"/><path d="M154.323 64.916s-4.301.898-7.146.318c-2.845-.58-3.135-1.857-3.135-1.857s-.212 8.551 9.244 5.79" stroke="#140D1D" stroke-width=".669" stroke-linecap="round" stroke-linejoin="round"/><path d="M144.338 63.868s.58 2.727 4.061 3.369c3.481.636 5.5-.14 5.5-.14M97.765 242.277s1.372.541 3.637.122M170.605 240.157s1.373.541 3.637.123" stroke="#140D1D" stroke-width=".669" stroke-linecap="round" stroke-linejoin="round"/></svg>