<svg fill="none" xmlns="http://www.w3.org/2000/svg" viewBox="0 0 280 280"><path d="M141.776 252.026c-15.314 0-30.651-2.795-44.58-7.663-24.602-8.602-45.38-25.869-57.384-49.109a92.832 92.832 0 0 1-8.682-25.045c-6.552-34.03.847-73.226 24.07-99.187 35.978-40.226 103.414-50.008 148.239-20.6 23.739 15.572 40.136 41.069 43.858 69.905a136.004 136.004 0 0 1 1.077 15.417c.905 60.059-33.463 116.282-106.598 116.282Z" fill="#A238FF"/><path d="M43.924 86.674s-10.01-15.4-13.67-33.176c-3.66-17.777 1.529-23.63 5.229-24.426 4.856-1.048 6.316 1.707 12.622 7.995 10.16 10.12 19.329 14.884 30.691 14.352M204.139 50.886c11.362.533 18.349-3.7 28.503-13.825 6.306-6.282 7.772-9.037 12.623-7.995 3.694.796 8.888 6.65 5.228 24.426-3.659 17.777-13.67 33.177-13.67 33.177" fill="#A238FF"/><path d="M137.704 203.718s-15.577.785-30.702-6.053c-15.126-6.833-14.456-9.301-17.141-8.293-2.692 1.008 9.151 36.979 45.455 39.889 36.304 2.915 56.4-35.411 53.932-38.097-2.463-2.691-24.203 13.299-51.544 12.548v.006Z" fill="#140D1D"/><path d="M181.493 193.129s-5.395 9.575-13.762 14.18c-19.919 9.982-44.522 6.472-55.277 1.987-10.756-4.484-15.618-16.797-15.618-16.797s13.722 8.476 27.507 10.268c13.785 1.793 24.363.774 31.275-.778 6.913-1.552 11.621-3.276 11.621-3.276s5.75-2.016 8.218-2.915c2.462-.899 6.042-2.675 6.042-2.675l-.006.006Z" fill="#fff"/><path d="M167.892 219.989c-28.527-8.94-56.921.968-56.921.968s12.147 8.962 28.194 8.47c16.047-.493 23.859-6.294 23.859-6.294l4.868-3.144Z" fill="#D09AFF"/><path d="M121.416 164.127s.819-17.107-8.218-19.42c-8.648-2.217-13.052 6.506-13.292 20.6-.03 1.838.137 3.688.601 5.469 3.722 14.283 20.766 15.893 20.904-6.655l.005.006Z" fill="#140D1D"/><path d="M109.836 127.531c-5.927-3.236-12.56-5.034-19.317-5.131-4.513-.063-9.18.607-9.816 3.556-1.272 5.899 9.375 2.016 16.585 6.724 6.942 4.53 18.791 15.984 24.146 14.117 4.398-1.535 1.867-11.918-11.603-19.266h.005Z" fill="#440181"/><path d="M155.635 164.127s-.818-17.107 8.219-19.42c8.648-2.217 13.052 6.506 13.292 20.6.029 1.838-.137 3.688-.601 5.469-3.723 14.283-20.766 15.893-20.904-6.655l-.006.006Z" fill="#140D1D"/><path d="M167.222 127.531c5.928-3.236 12.56-5.034 19.318-5.131 4.513-.063 9.18.607 9.816 3.556 1.271 5.899-9.375 2.016-16.586 6.724-6.941 4.53-18.79 15.984-24.145 14.117-4.398-1.535-1.867-11.918 11.603-19.266h-.006Z" fill="#440181"/><path d="M43.667 86.571S36.548 74.54 33.851 65.96l-2.692-8.585s10.882 15.623 25.005 7.554c14.117-8.07 1.569-19.495 1.569-19.495s8.321 6.07 20.308 6.208v.195s-17.061 8.127-34.374 34.74v-.006ZM204.711 51.006s9.318 1.581 19.884-6.723c2.629-2.142 4.605-3.906 4.605-3.906s-12.164 16.935-2.274 27.427c10.458 11.093 20.245-2.875 20.245-2.875s-6.712 16.436-10.721 22.009c0 0-8.012-18.928-31.739-35.932ZM97.45 207.922s13.561 21.866 42.019 21.493c26.27.029 42.466-22.782 42.466-22.782s-12.01 28.16-42.243 27.341c-29.975.063-42.243-26.052-42.243-26.052Z" fill="#6E14BD"/><path d="M116.365 43.16c-2.107.991-4.519 2.858-3.854 5.086.309 1.037 1.231 1.758 2.13 2.354 8.379 5.503 19.088 5.71 29.094 5.057 7.634-.504 15.68-1.564 21.722-6.26 8.07-6.271-3.402-10.286-8.854-11.316-8.665-1.644-17.696-1.467-26.31.395a65.432 65.432 0 0 0-13.934 4.69l.006-.006ZM93.33 49.495c-1.202.818-2.422 2.09-2.164 3.533.177 1.008 1.036 1.741 1.913 2.234 3.098 1.758 7.17 1.586 10.148-.424 2.646-1.787 4.541-6.117.95-7.904-3.115-1.551-8.252.79-10.852 2.555l.005.006ZM29.762 36.74c-.172.499-.31 1.003-.418 1.518-.699 3.27-.258 6.712.807 9.885.218.647.464 1.294.877 1.838.412.544 1.008.98 1.683 1.054 1.42.16 2.532-1.632 3.041-2.732.676-1.466.91-3.098 1.06-4.69.206-2.25.275-4.525-.08-6.758-.16-1.02-.424-2.056-1.043-2.88-.618-.825-1.678-1.392-2.686-1.18-.761.16-1.374.721-1.855 1.334-.613.784-1.06 1.678-1.386 2.617v-.006ZM243.936 41.276c-.172.498-.31 1.002-.418 1.518-.699 3.27-.258 6.712.807 9.885.218.647.464 1.294.876 1.838.413.544 1.008.98 1.684 1.054 1.42.16 2.531-1.632 3.041-2.732.676-1.466.911-3.098 1.06-4.69.206-2.251.275-4.525-.081-6.758-.16-1.02-.423-2.056-1.042-2.881-.618-.825-1.678-1.392-2.686-1.18-.762.16-1.374.722-1.855 1.335-.613.784-1.06 1.678-1.386 2.617v-.006Z" fill="#B966FF"/><path d="M102.008 153.297s-2.154 8.797-.527 15.074c1.626 6.277 6.162 3.362 8.069-8.682 1.907-12.044-5.441-16.363-7.537-6.386l-.005-.006ZM168.035 155.124s-.693 9.032 1.935 14.953c2.623 5.928 6.627 2.314 6.546-9.879-.08-12.193-8.035-15.257-8.481-5.074Z" fill="#fff"/><path d="M141.686 252.026c-15.314 0-30.651-2.795-44.579-7.663-24.603-8.602-45.381-25.869-57.385-49.109a92.829 92.829 0 0 1-8.682-25.045c-6.552-34.03.847-73.226 24.07-99.187 35.984-40.226 103.414-50.008 148.239-20.6 23.739 15.572 40.136 41.069 43.858 69.905a136.004 136.004 0 0 1 1.077 15.417c.905 60.059-33.463 116.282-106.598 116.282Z" stroke="#140D1D" stroke-width=".687" stroke-linecap="round" stroke-linejoin="round"/><path d="M43.835 86.674s-10.011-15.4-13.67-33.176c-3.66-17.777 1.534-23.63 5.228-24.426 4.856-1.048 6.317 1.707 12.622 7.995 10.16 10.12 19.33 14.884 30.692 14.352M236.738 86.674s10.011-15.4 13.67-33.176c3.66-17.777-1.534-23.63-5.228-24.426-4.857-1.048-6.317 1.707-12.623 7.995-10.16 10.12-17.141 14.358-28.503 13.825M137.706 203.718s-15.577.785-30.703-6.053c-15.125-6.833-14.455-9.301-17.14-8.293-2.692 1.008 9.151 36.979 45.455 39.889 36.304 2.915 56.4-35.411 53.932-38.097-2.463-2.691-24.203 13.299-51.544 12.548v.006Z" stroke="#140D1D" stroke-width=".687" stroke-linecap="round" stroke-linejoin="round"/><path d="M96.838 192.499s4.862 12.313 15.618 16.797c10.755 4.485 35.358 7.99 55.277-1.987 8.367-4.599 13.762-14.18 13.762-14.18M110.972 220.957s28.394-9.908 56.921-.968M121.418 164.127s.819-17.107-8.218-19.42c-8.648-2.217-13.052 6.506-13.293 20.6-.028 1.838.138 3.688.602 5.469 3.722 14.283 20.766 15.893 20.903-6.655l.006.006Z" stroke="#140D1D" stroke-width=".687" stroke-linecap="round" stroke-linejoin="round"/><path d="M109.838 127.531c-5.927-3.236-12.56-5.034-19.317-5.131-4.513-.063-9.18.607-9.816 3.556-1.272 5.899 9.375 2.016 16.585 6.724 6.941 4.53 18.791 15.984 24.146 14.117 4.398-1.535 1.867-11.918-11.603-19.266h.005ZM155.637 164.127s-.819-17.107 8.219-19.42c8.648-2.217 13.052 6.506 13.292 20.6.029 1.838-.137 3.688-.601 5.469-3.723 14.283-20.766 15.893-20.904-6.655l-.006.006Z" stroke="#140D1D" stroke-width=".687" stroke-linecap="round" stroke-linejoin="round"/><path d="M167.222 127.531c5.928-3.236 12.56-5.034 19.318-5.131 4.513-.063 9.18.607 9.816 3.556 1.271 5.899-9.375 2.016-16.586 6.724-6.941 4.53-18.79 15.984-24.145 14.117-4.398-1.535-1.867-11.918 11.603-19.266h-.006Z" stroke="#140D1D" stroke-width=".687" stroke-linecap="round" stroke-linejoin="round"/></svg>