<svg xmlns="http://www.w3.org/2000/svg" fill="none" viewBox="0 0 280 280"><path fill="#96F9F3" d="M140.948 251.464S36.977 159.781 33.137 156.976c-3.84-2.805-6.282-6.542-7.33-11.403-1.046-4.862-.525-49.72 1.747-55.517 2.268-5.793 34.932-42.712 46.948-46.918 34.728-12.145 60.559-17.1 105.584-17.938 8.64 0 31.413 10.655 41.622 14.86 10.21 4.207 20.683 11.497 23.56 17.104 2.88 5.607 11.781 46.542 8.376 58.881-3.402 12.335-36.127 56.075-61.519 86.918-25.393 30.843-34.294 44.159-36.388 46.123-2.094 1.963-7.587 8.734-14.792 2.382l.003-.004Z"/><path fill="#79DDEC" d="M26.674 148.926s2.388 5.206 5.583 7.588c3.191 2.383 23.302 19.866 23.302 19.866l69.728 61.492s16.19 14.363 17.732 15.295c1.542.931 3.291.766 3.291.766s-50.778-79.05-57.933-82.604c-7.155-3.554-43.02-7.85-53.404-14.908-2.793-1.899-8.293-7.495-8.293-7.495h-.006Z"/><path fill="#FFFFF3" d="M30.906 150.206s-1.482-.935-1.394-2.429c.087-1.494.26-4.908.26-4.908s24.172-29.768 25.788-31.542c1.615-1.773 1.963-1.486 1.963-1.486l19.335 26.586 17.37 25.641.556.953-5.466-.38s-31.12-45.958-32.43-45.606c-1.308.351-25.982 33.178-25.982 33.178v-.007ZM95.089 162.994v-.358s48.125-49.627 49.741-49.953c1.616-.326 42.322 28.271 42.322 28.271l6.135 4.485-6.57 1.215s-31.467-21.625-39.796-25.981c-1.064-.559-2.338-.355-3.215.505l-41.462 40.713-7.155 1.107v-.004ZM193.472 145.101l23.964-43.121s7.984-15.14 8.771-15.14c.786 0 1.438.512 1.438.512l22.84 14.954s.264.28.492 1.752c.227 1.472.338 3.69.338 3.69l-.84.835s-22.549-16.864-23.379-16.233c-.829.63-26.677 49.813-26.677 49.813s-6.024 3.213-6.947 2.93v.008Z"/><path fill="#79DDEC" d="M122.316 211.611s-12.26-25.981-6.59-33.458c5.673-7.477 49.26-15.42 55.893-10.748 6.633 4.672-6.807 46.918-6.807 46.918l20.943-49.766 7.473-17.87.057-1.243-58.512 11.12-24.412 4.346-12.006 1.73-3.268.359s.023 1.698.676 2.819c.652 1.121 14.42 24.953 14.42 24.953l12.129 20.84h.004ZM254.279 109.104s-3.034 7.219-15.989 16.613c-12.959 9.393-37.218 22.71-39.967 25.232-2.75 2.522-48.691 102.693-48.691 102.693s3.372-1.064 6.907-5.41c3.536-4.346 14.685-19.21 14.685-19.21l34.227-42.587 18.589-24.201 12.795-17.709 11.376-17.382s5.024-9.1 5.439-11.107c.415-2.006.629-6.936.629-6.936v.004Z"/><path fill="#96F9F3" d="M51.965 173.467s17.99 3.561 23.576 8.889c5.586 5.327 39.793 46.122 39.793 46.122s-60.83-51.776-63.37-55.011ZM236.834 144.533s-21.408 7.731-28.042 18.107c-6.633 10.375-33.765 61.531-33.765 61.531l46.631-58.826 15.176-20.812Z"/><path fill="#79DDEC" d="M130.716 50.929s18.261.071 16.689 9.461c-1.572 9.394-15.444 10.515-15.444 10.515s23.081-1.447 38.525-8.179c15.444-6.728 25.021-10.82 31.634-19.93 4.289-8.516-.819-10.898-.819-10.898l-3.6-1.752s-12.196-4.163-15.213-4.74c-3.017-.577-25.222.87-25.222.87l-1.746.266s22.208 1.511 18.368 9.268c-3.84 7.756-21.904 11.45-21.904 11.45s-16.187 3.41-21.271 3.669h.003Z"/><path fill="#FFFFF3" d="M79.066 41.57S66.773 45.249 64.94 56.885c-1.833 11.637 15.314 13.038 15.314 13.038l7.854 1.26S69.914 68.31 68.867 58.567c-1.047-9.745 6.456-13.647 16.491-17 4.613-1.54 15.903-4.564 15.903-4.564l8.506-3.812s-16.384 3.292-30.704 8.376l.003.004Z"/><path stroke="#14041E" stroke-linecap="round" stroke-linejoin="round" stroke-width=".928" d="M140.858 251.61S36.886 159.923 33.046 157.121c-3.84-2.805-6.282-6.541-7.33-11.403-1.046-4.862-.524-49.72 1.747-55.516 2.271-5.797 34.93-42.713 46.945-46.915 34.732-12.152 60.562-17.104 105.587-17.945 8.64 0 31.413 10.654 41.623 14.86 10.209 4.206 20.682 11.497 23.559 17.104 2.88 5.607 11.781 46.542 8.376 58.88-3.402 12.335-36.127 56.076-61.519 86.918-25.393 30.843-34.294 44.16-36.388 46.123-2.094 1.964-7.587 8.735-14.792 2.383h.004Z"/><path stroke="#14041E" stroke-linecap="round" stroke-linejoin="round" stroke-width=".928" d="M26.249 147.711s.736 1.841 6.757 3.665c6.021 1.823 53.535 11.916 61.784 11.636 8.245-.279 91.494-15.703 99.609-17.945 8.115-2.243 58-33.136 59.76-41.523M27.457 90.201s2.793 7.406 5.998 10.071c3.208 2.662 24.017 7.126 41.298 9.369 17.277 2.242 19.197 2.991 29.146 2.991 9.948 0 72.427-6.033 84.469-9.089 12.043-3.06 54.977-30.818 56.415-32.638 1.438-1.823 1.719-13.299-1.81-16.706"/><path stroke="#14041E" stroke-linecap="round" stroke-linejoin="round" stroke-width=".928" d="M26.705 93.964s2.763 6.38 5.971 9.046c3.208 2.665 24.804 7.172 42.081 9.415 17.277 2.243 19.197 2.991 29.146 2.991 9.948 0 72.427-6.033 84.469-9.089 12.043-3.059 55.98-30.466 57.419-32.29 1.438-1.824 2.181-12.99-.612-16.73"/><path stroke="#14041E" stroke-linecap="round" stroke-linejoin="round" stroke-width=".928" d="M31.565 98.145s-2.1 1.773-2.1 7.287.658 39.255 0 41.777c0 0-1.024 3.085 4.361 4.392"/><path stroke="#14041E" stroke-linecap="round" stroke-linejoin="round" stroke-width=".928" d="M29.712 142.954s26.426-33.537 27.604-33.118c1.177.419 35.765 48.96 37.468 53.166M95.092 162.633s48.082-50.049 49.915-50.003c1.833.047 48.283 32.71 48.283 32.71M95.092 163.005s.067 1.05.502 2.125c.434 1.075 50.53 86.402 50.714 89.1"/><path stroke="#14041E" stroke-linecap="round" stroke-linejoin="round" stroke-width=".928" d="M193.289 145.339s.411.094-.244 1.892c-.656 1.799-42.791 102.46-44.674 106.884M193.469 145.098S223.257 92 224.698 88.915c1.442-3.085 1.603-2.07 2.797-1.508 1.365.645 24.101 14.717 23.469 15.688M117.168 72.447s-26.57 45.281-26.048 49.487c.525 4.206 3.833 41.068 3.833 41.068M167.434 64.317s24.215 40.093 24.74 43.177c.525 3.085 1.057 37.607 1.057 37.607M31.348 97.833s19.501-19.97 24.91-25.39c5.41-5.42 8.29-7.85 9.688-8.692"/><path stroke="#14041E" stroke-linecap="round" stroke-linejoin="round" stroke-width=".928" d="M75.903 42.764s-10.484 4.586-11.096 15.66C64.195 69.498 83.917 71.32 94.782 71.6c10.865.28 44.951 3.092 76.107-9.064 39.997-15.61 35.358-29.13 28.407-31.706"/><path stroke="#14041E" stroke-linecap="round" stroke-linejoin="round" stroke-width=".928" d="M202.876 41.443s1.465-.588 6.091 1.934c4.627 2.522 35.007 26.042 35.823 27.526.816 1.48 5.977 24.146 6.523 36.847M117.774 31.107c-4.897 1.078-9.754 2.608-14.247 4.983-3.459 1.827-7.446 3.694-9.787 7.119-.495.723-.917 1.558-.947 2.454-.167 5.145 6.994 5.585 10.239 5.793 14.929.964 32.19-.1 48.393-4.106 4.252-1.05 8.44-2.432 12.457-4.263 3.362-1.533 8.463-3.497 10.149-7.298 3.185-7.187-15.166-8.874-18.642-9.132-1.104-.082-2.228-.168-3.335-.079"/></svg>