<svg xmlns="http://www.w3.org/2000/svg" fill="none" viewBox="0 0 280 280"><path fill="#FFFFEB" d="M172.827 82.588c-26.984-4.094-54.656-1.431-80 8.698-27.328 10.923-56.766 31.986-68.107 72.628C1.298 247.82 89.558 286.499 159.836 277.78c70.279-8.72 114.492-78.998 94.568-133.487-16.478-45.07-44.715-56.119-81.577-61.716v.01Z"/><path fill="#AAB2FF" d="m141.739 80.234 14.609.073s6.318-7.77 5.576-12.228c-.741-4.46-7.487-4.867-7.487-4.867s-11.445-1.065-12.698-6.255c-1.264-5.19 1.013-9.085 3.216-12.207 2.203-3.122 11.831-12.73 15.069-17.784 3.237-5.054 3.769-9.544 3.07-12.51-.7-2.965-2.736-9.158-6.746-13.523l-16.667 4.929s11.226 12.458 5.911 21.96c-5.315 9.503-8.02 11.373-8.02 11.373s-14.849 13.24-12.865 21.104c1.984 7.863 10.286 5.702 14.974 7.759 4.679 2.057 6.83 4.093 6.423 6.244-.408 2.151-4.981 5.514-4.981 5.514l.626.407-.01.01Z"/><path fill="#D09AFF" d="M49.699 148.344s15.392 10.756 38 15.121c0 0-2.046 34.461-.814 46.177 0 0-34.596-8.584-46.313-17.157 0 0 1.493-27.787 9.127-44.13v-.011ZM137.166 212.399s37.645-2.224 50.511-6.109c0 0 0 27.381-3.269 41.071 0 0-34.084 4.845-44.725 4.365l-2.517-39.327ZM168.472 108.632s12.05 33.51 15.12 52.306c0 0 15.737-3.477 23.705-5.722 7.968-2.245 19.59-6.882 19.59-6.882s-11.006-35.619-34.293-48.902c0 0-16.343 8.584-24.112 9.189l-.01.011Z"/><path fill="#EAD1FF" d="m69.874 102.575 12.176 3.613s24.519-19.799 50.051-23.704c0 0-27.631.345-62.238 20.091h.01ZM28.689 224.168s10.818 9.711 16.948 12.364c6.13 2.652 6.484 2.704 6.484 2.704s12.542 19.361 31.349 29.814l-11.288-4.532s-17.544-10.276-23.621-15.486c-6.078-5.211-17.93-19.246-17.93-19.246l-1.942-5.629v.011Z"/><path stroke="#14041E" stroke-linecap="round" stroke-linejoin="round" stroke-width="1.566" d="M172.482 82.671c-26.983-4.093-54.656-1.43-80 8.699-27.328 10.923-56.766 31.986-68.106 72.628C.953 247.904 89.213 286.583 159.492 277.863c70.278-8.719 114.492-78.997 94.567-133.487-16.478-45.07-44.715-56.118-81.577-61.715v.01Z"/><path stroke="#14041E" stroke-linecap="round" stroke-linejoin="round" stroke-width="1.566" d="M140.381 80.829s9.91-6.12 2.966-11.017c-6.944-4.908-17.575-.209-18.588-10.62-1.023-10.422 17.606-21.042 21.334-32.08 3.728-11.037-6.401-21.25-6.401-21.25"/><path stroke="#14041E" stroke-linecap="round" stroke-linejoin="round" stroke-width="1.566" d="M155.701 81.007s10.996-11.226 4.051-16.124c-6.944-4.897-17.574-.209-18.587-10.62-1.024-10.421 17.606-21.042 21.334-32.08 3.728-11.037-6.402-21.25-6.402-21.25M69.874 102.888s89.879 27.934 135.106-12.27M36.614 135.97s22.024 37.833 111.673 29.667c89.649-8.176 100.582-33.531 100.582-33.531M27.403 221.933s22.514 33.855 115.495 29.667c93.951-4.239 104.028-33.531 104.028-33.531M22.14 177.511s27.569 37.802 117.542 34.711c88.855-3.06 119.16-40.862 119.16-40.862"/><path stroke="#14041E" stroke-linecap="round" stroke-linejoin="round" stroke-width="1.566" d="M89.631 271.399s-53.664-18.034-48.923-88.229c4.74-70.194 70.643-102.138 107.579-102.326"/><path stroke="#14041E" stroke-linecap="round" stroke-linejoin="round" stroke-width="1.566" d="M131.694 278.876s-45.3.961-45.498-85.723c-.198-90.401 49.56-111.254 60.702-112.288"/><path stroke="#14041E" stroke-linecap="round" stroke-linejoin="round" stroke-width="1.566" d="M144.955 81.157s-8.302 12.563-9.148 80.397c-.845 67.835 6.934 117.333 6.934 117.333M149.446 80.844s26.994 19.11 36.194 96.781c9.2 77.662-13.742 98.025-13.742 98.025"/><path stroke="#14041E" stroke-linecap="round" stroke-linejoin="round" stroke-width="1.566" d="M156.349 81.157s64.461 12.28 74.507 85.639c10.349 75.573-53.058 107.277-53.058 107.277"/></svg>