<svg xmlns="http://www.w3.org/2000/svg" fill="none" viewBox="0 0 280 280"><path fill="#F673FF" d="M219.1 72.969c1.24-2.94 1.73-6.412 1.232-10.024-1.257-9.109-8.333-15.657-15.806-14.627-7.472 1.03-12.51 9.252-11.253 18.362.144 1.039.363 2.042.65 3.007.289.972.709 1.908 1.159 2.82.351.711.709 1.425 1.171 2.072.465.644 1.042 1.223 1.752 1.582.459.232.961.37 1.47.45.672.109 1.353.122 2.032.13.919.013 1.84.018 2.759.011"/><path fill="#4E0193" d="M214.949 73.153c1.766-2.575 2.616-6.07 2.109-9.756-.953-6.904-6.317-11.865-11.977-11.085-5.663.783-9.48 7.012-8.527 13.916.41 2.966 1.632 5.572 3.344 7.52"/><path fill="#A238FF" d="M207.106 52.076s-5.009 7.543-8.576 19.813c0 0 1.276 2.75 5.197 4.622 0 0 2.642-15.526 8.08-22.217 0 0-1.233-1.604-4.701-2.218Z"/><path fill="#FF673D" d="M224.095 94.307c.018 0 .036-.005.054-.007l-.045.005h-.009v.002Z"/><path fill="#FFB55B" d="M272.175 192.628c-4.59-5.328-18.786 3.097-36.001-5.421-7.456-3.688-15.01-2.735-15.01-2.735h.007s-.007.002-.009 0c3.416-4.112 6.493-9.621 8.517-17.007 7.379-26.922-5.583-37.867-6.071-38.267a13.644 13.644 0 0 0-.042-.378c.837-.423 1.297-.707 1.359-.786.445-.576 1.203-3.005.33-6.95-.873-3.943-2.515-2.975-2.515-2.975-.399.189-.802.371-1.203.556l-.027-.328c6.313-3.977 6.025-8.36 4.195-9.517-1.963-1.244-24.063-1.209-27.091-1.198l.068-.052c4.076-.547 13.199-2.679 20.844-10.95.082-.063 1.663-1.96 1.742-2.02l2.837-.298c.027-.006.052-.013.079-.022l-.034.016c4.422-.567 13.051-2.395 18.967-8.278 0 0 14.439-1.022 18.184-9.068.088-.19.168-.376.243-.559.155-.148.305-.32.439-.5 3.721-.855 7.013-3.534 8.572-7.067 1.838-4.166.717-8.463-3.664-10.29-6.02-2.515-15.07-1.353-18.621 4.5-1.255 2.07-1.828 4.587-1.272 6.932-21.936 3.545-54.235 3.681-54.235 3.681s-1.301-.187-3.48-.384c0 0-23.176.514-24.882.88-8.583 1.835-16.615 5.36-19.681 12.826-1.266 3.079-2.486 7.081-3.6 11.661l-1.236 5.54c-2.259 11.016-3.864 24.216-4.121 35.862l-.04.039c-.379.32-10.147 8.476-19.526 8.102-9.564-.384-22.092-17.07-47.266-10.236-18.785 5.1-40.623 42.151-28.868 65.623 0 0-4.651 8.499-12.441 6.704-7.79-1.795-9.35-12.958-17.863-9.086-8.515 3.873 1.412 21.557 16.347 22.9 18.416 1.885 24.595-8.889 24.595-8.889l-.005-.006c3.87 2.487 8.88 4.532 14.686 5.871l.122-.466c-.327 2.428.246 4.632 2.399 6.148 8.249 5.809 44.369 10.995 53.856-2.675.428-.617.773-1.209 1.04-1.776h.081c1.761.15 34.583 2.888 53.201.874 19.136-2.069 33.799-8.402 37.57-6.148 3.773 2.254 6.638 11.887 29.313 10.892 22.676-.997 25.196-14.45 23.966-17.998-.375-1.079-.982-1.83-1.946-2.355l.074-.041c8.158-.164 11.683-9.592 7.12-14.89l-.003.009Z"/><path fill="#F673FF" d="M189.055 73.733s3.163-3.598 6.27-2.647c0 0 .4-.341.297-.785-.103-.444-.293-.474-.293-.474-3.105-.953-6.921 2.843-6.921 2.843M199.187 107.689l12.148.095s11.584.034 14.365 1.038c2.781 1.004 3.747 3.356 3.747 3.356s2.275 5.288 4.047 6.999c1.771 1.71 4.695 3.527 7.297.758 2.604-2.772 3.775-8.534-1.494-14.656-5.267-6.122-11.803-6.268-17.011-5.453-5.209.816-10.138 3.083-10.138 3.083s-7.341 4.163-12.965 4.78h.004Z"/><path fill="#A238FF" d="M204.762 124.262c-18.714 4.468-35.922 3.509-35.922 3.509s-.157 2.564-.697 5.469c-.541 2.904-.916 4.404-.916 4.404 15.797 1.239 29.057-.519 38.864-2.862l4.594-1.204c8.979-2.559 13.989-5.294 14.201-5.567.445-.576 1.204-3.005.33-6.95-.873-3.943-2.515-2.975-2.515-2.975-4.442 2.115-9.098 3.778-13.733 5.084"/><path fill="#FCFF60" d="M205.748 135.906c-.78.546-1.439 1.35-1.967 2.262-.914 1.58-1.436 3.486-1.519 4.935-.132 2.26.114 4.905 1 7.006.6 1.425 1.868 2.787 3.344 3.3 2.404.836 4.358-1.069 5.401-3.039 1.525-2.886 1.798-6.688 1.24-9.872-.334-1.902-1.535-3.959-3.343-4.851"/><path fill="#FCFF60" d="M209.556 136.413c2.437-5.058 2.102-9.801.809-11.93-.009-.021-.02-.039-.029-.059-.686-1.299-2.219-1.899-3.619-1.448-.338.11-.784.251-1.373.435-2.245.702-3.06 1.396-3.06 1.396s2.558-1.633 3.557.316c1.293 2.13 1.841 6.868-.596 11.927 0 0 .814-.632 2.085-.866 1.27-.231 2.229.229 2.229.229h-.003Z"/><path fill="#FCFF60" d="m203.429 135.519.528 1.115.293.576.753-.679s.697-.63.75-.793c.052-.162.231-.818.231-.818l-2.555.597v.002Z"/><path fill="#E48A40" d="M74.606 181.822s21.522-9.737 30.931 3.281c9.409 13.017-4.884 23.013-4.884 23.013s20.911-1.591 24.699 5.681c3.788 7.275-2.555 8.494-2.555 8.494s2.943-4.95-3.292-8.377c-6.234-3.43-21.643-3.652-31.085-.8l1.953-1.457s7.665-6.383 9.514-12.638c1.85-6.252-.01-11.867-4.294-15.29-4.286-3.424-11.145-4.521-20.985-1.907h-.002ZM25.057 209.385s3.44 4.98 10.62 2.822c10.65-3.203 14.284 5.078 3.32 10.948 0 0 5.555-1.592 8.07-3.946 2.517-2.353 3.622-4.018 3.622-4.018s-5.641-2.932-10.633-11.622c0 0-2.673 5.044-7.163 6.448-4.492 1.403-7.836-.628-7.836-.628v-.004ZM52.744 216.388s4.626 3.155 11.375-2.956c6.75-6.112 10.416-8.347 10.416-8.347s-5.565 6.023-7.648 10.93c-2.084 4.908-1.462 5.356-1.462 5.356s-9.958-2.791-12.681-4.983ZM233.28 201.073s-10.718-5.794-12.175-10.081c-2.326-6.855 12.219-4.984 12.219-4.984s-6.302-1.788-9.73-1.563c-2.073-.011-2.438.027-2.438.027s-6.534 8.509-16.107 10.959c0 0 6.306-1.335 10.247-.868 3.942.466 10.707 3.454 10.707 3.454l7.275 3.054.002.002ZM169.462 111.072s3.328 12.764 15.723 13.92c12.396 1.16 17.096-.185 17.096-.185s-15.361 3.837-33.443 2.964c0 0 1.284-10.439.624-16.699ZM138.278 113.033s1.821-5.871 3.641-7.592c1.426-1.35 14.352-8.989 19.886-12.237a2.716 2.716 0 0 1 3.723.98c1.876 3.233 5.901 8.408 12.024 7.303 8.782-1.585 10.185-9.161 10.185-9.161s-12.458 9.315-22.604-4.71c-3.638 1.85-25.079 15.76-25.079 15.76l-1.778 9.655.002.002Z"/><path fill="#F673FF" d="M179.38 97.809c7.472-1.032 12.509-9.253 11.251-18.363-1.258-9.11-8.334-15.66-15.806-14.627-7.472 1.031-12.509 9.253-11.252 18.363 1.258 9.11 8.335 15.659 15.807 14.627Z"/><path fill="#4E0193" d="M179.344 93.233c5.662-.782 9.48-7.012 8.527-13.916-.953-6.903-6.316-11.866-11.979-11.084-5.663.782-9.481 7.012-8.527 13.916.953 6.903 6.316 11.866 11.979 11.084Z"/><path fill="#F673FF" d="M163.95 85.2s-22.851 12.898-26.698 16.429c-3.847 3.531-7.298 11.846-4.409 13.803 2.887 1.957 3.741-7.605 5.876-10.08 2.133-2.474 26.413-16.698 26.413-16.698"/><path fill="#A238FF" d="M178.268 68.113s-5.008 7.543-8.575 19.814c0 0 1.275 2.749 5.196 4.621 0 0 2.642-15.526 8.08-22.216 0 0-1.233-1.604-4.701-2.219Z"/><path fill="#E48A40" d="M190.834 81.76s.083-5.101 4.168-5.904c4.088-.803 34.13-3.802 34.13-3.802s-26.687 1.886-36.378 1.6c-1.896-.228-3.321-.313-3.321-.313l-.488.232s1.874 3.079 1.889 8.187ZM251.612 75.339s-.813 5.355-8.255 6.309l-1.773-.006s-5.028 8.089-19.734 9.154c0 0-6.599 11.25-20.38 16.271 0 0 9.225-2.103 14.121-6.785 0 0 2.074-1.746 3.429-3.181 1.356-1.436 2.122-2.475 2.122-2.475s6.737-.372 12.041-2.436c5.305-2.067 7.037-3.684 7.037-3.684l2.049-1.683.846-.796s8.27-.41 13.473-4.071c5.203-3.66 5.075-6.583 5.075-6.583s-5.739-4.933-10.049-.03l-.002-.004Z"/><path fill="#000" d="M248.227 63.093c-1.556 2.564-2.068 5.815-.675 8.572 2.414 4.774 9.506 5.297 14.138 4.342 3.823-.788 7.228-3.514 8.821-7.124 1.839-4.166.717-8.463-3.664-10.291-6.02-2.515-15.07-1.353-18.62 4.501Z"/><path fill="#C01FC3" d="M198.796 107.625s7.05.032 11.64.138c4.59.106 10.522.174 13.135.621 2.611.449 3.927.763 6.027 4.046 0 0-.567-5.139-7.305-5.911-6.299-.722-.649-4.696 2.362-4.864l1.681-.022s-5.89.408-6.155-.344c-.263-.754 2.927-1.585 2.927-1.585s-5.694 1.025-9.818 2.717c-4.124 1.692-6.208 3.015-7.205 3.39-.997.372-4.921 1.603-7.289 1.818v-.004ZM163.811 85.042l-11.2 6.48s5.456-2.683 6.67-1.64c1.215 1.042-4.774 4.99-4.774 4.99l10.537-6.45-1.231-3.38h-.002Z"/><path fill="#C01FC3" d="M163.398 79.459s-.214 7.444 3.89 12.593c4.105 5.15 9.411 7.113 15.827 4.415 6.401-3.299 7.546-11.733 7.546-11.733s-.908 13.376-15.19 11.104c-6.994-1.016-10.726-11.59-10.4-17.035.326-5.447-1.772-2.53-1.67.654l-.003.002ZM195.685 70.127s.119 1.682 1.201 2.505c1.082.822 1.448-1.248 1.448-1.248l1.437 2.218-4.139-.057-1.105-2.238-.091-.631 1.063.225.188-.774h-.002ZM216.727 61.258s.907 3.219 2.322 3.076c1.415-.146 1.005-2.953 1.005-2.953s1.443 4.94-.955 11.427l-4.14.187s3.308-4.28 1.766-11.737h.002Z"/><path fill="#6E14BD" d="M168.839 127.771s8.398.58 17.957-.58c0 0-8.499 1.525-9.088 6.369-.589 4.844 9.818 4.191 9.818 4.191s-10.119.487-15.41.267c-5.292-.219-4.766-.231-4.759-.582.008-.351 1.484-9.66 1.484-9.66M200.066 125.392s3.332-.255 4.684 2.759c1.351 3.014-.041 6.951-.041 6.951l1.384-.322s2.408-7.723-1.332-10.518l-4.695 1.13Z"/><path fill="#FFC23C" d="M203.429 135.519s.658 1.604.821 1.693c.163.089 1.271-1.051 1.407-1.329.137-.278.327-.961.327-.961l-2.555.597Z"/><path fill="#FFC23C" d="M205.296 136.939s1.76-3.72 1.643-6.799l-.081-1.675s.878 2.293.83 4.593c-.047 2.299 1.766 2.431 2.678-1.439.57-2.42.909-3.612.909-3.612s.09 4.758-1.759 8.497c0 0-1.482-.77-4.22.435Z"/><path fill="#FFF5E1" d="M204.943 139.937c-.656 1.13-1.029 2.494-1.088 3.532-.093 1.618.082 3.511.716 5.016.429 1.02 1.336 1.996 2.395 2.363 1.72.598 3.119-.765 3.865-2.175 1.093-2.066 1.286-4.786.888-7.064-.252-1.44-1.2-3.005-2.62-3.575-1.849-.743-3.262.364-4.154 1.908l-.002-.005Z"/><path fill="#fff" stroke="#14041E" stroke-linecap="round" stroke-linejoin="round" stroke-width=".5" d="M252.382 61.48c-.645.578-1.256 1.388-1.062 2.231.126.541.572.964 1.081 1.19.509.225 1.072.28 1.629.31 2.81.144 5.714-.366 8.11-1.844 1.084-.667 2.045-1.85 1.352-3.171-.491-.939-1.602-1.035-2.547-1.165-3.068-.416-6.228.349-8.566 2.447l.003.002Z"/><path fill="#E48A40" d="M143.371 169.39s2.379 4.738 6.836 4.744c7.079.012 15.693-15.127 18.804-30.168a3 3 0 0 1 2.819-2.386c6.164-.251 22.798-1.255 32.129-4.941l-.528-1.116s-20.771 4.48-36.203 2.123c0 0-2.333 13.603-8.547 22.541s-10.826 10.873-15.31 9.206v-.003ZM210.356 134.872s8.494-2.148 13.505-5.234l-.589-.577s-9.026 3.765-12.588 4.515l-.33 1.296h.002Z"/><path fill="#fff" stroke="#14041E" stroke-linecap="round" stroke-linejoin="round" stroke-width=".5" d="M60.189 146.962c-.47.737-.892 1.548-.917 2.424-.026.876.443 1.814 1.272 2.09.792.263 1.64-.124 2.376-.513 2.943-1.553 5.797-3.324 8.253-5.571 1.092-.997 2.261-2.307 2.067-3.907-.146-1.196-1.061-1.629-2.18-1.519-2.778.273-5.596 1.711-7.724 3.465a15.325 15.325 0 0 0-3.147 3.533v-.002ZM54.734 153.748c-.579.636-1.097 1.413-1.086 2.273.003.308.084.627.294.854a.924.924 0 0 0 .576.29c.394.041.766-.172 1.097-.389.51-.333 1.009-.694 1.397-1.161.564-.678 1.111-2.206.067-2.761-.8-.426-1.839.338-2.345.894Z"/><path fill="#FFCC91" d="M90.12 183.615c-.352-.023-.721-.024-1.043.124-.95.434-.949 1.808-.556 2.776.585 1.439 1.67 2.617 2.38 3.997 1.71 3.31 1.09 7.271.856 10.987-.06.932-.026 2.012.703 2.596.603.479 1.502.421 2.175.047.673-.374 1.162-1.004 1.594-1.639 1.338-1.967 2.35-4.196 2.678-6.553.754-5.401-2.939-11.926-8.788-12.332l.002-.003Z"/><path fill="#fff" stroke="#14041E" stroke-linecap="round" stroke-linejoin="round" stroke-width=".5" d="M139.058 157.606c.125.885.314 1.753.565 2.575.794 2.596 2.975 6.174 6.229 5.367 2.327-.577 2.589-3.573 2.518-5.536-.128-3.515-1.093-7.237-3.298-10.039-.855-1.084-2.338-2.241-3.795-1.589-1.295.578-1.829 2.335-2.084 3.593-.365 1.794-.396 3.752-.132 5.629h-.003ZM139.506 144.056c.023.041.047.079.07.118 1.189 1.914 2.974.905 3.21-.977.171-1.356.038-5.211-2.287-4.337-1.973.743-1.873 3.643-.993 5.196Z"/><path fill="#A238FF" stroke="#14041E" stroke-linecap="round" stroke-linejoin="round" stroke-width=".5" d="M206.084 145.943c-.479-.939-.917-2.01-.611-3.019.1-.33.289-.644.579-.831.712-.455 1.231.132 1.438.789.125.401.253.802.379 1.203-.039-.602.003-1.231.281-1.766.255-.495 1.022-1.195 1.632-.949.242.098.402.341.467.595.548 2.145-.911 4.442-1.687 6.364-.159.396-.222 1.068-.683.752-.321-.221-.572-.962-.773-1.295a30.298 30.298 0 0 1-1.024-1.839l.002-.004Z"/><path fill="#E48A40" d="M84.514 215.803s12.887-2.862 19.051-3.172c14.911-.753 4.962-1.653-.795-1.48-5.756.173-10.6 1.014-10.6 1.014l-3.753.949-3.906 2.689h.003Z"/><path stroke="#14041E" stroke-linecap="round" stroke-linejoin="round" stroke-width=".5" d="M135.686 140.118s-9.972 8.494-19.536 8.113c-9.564-.383-22.093-17.07-47.266-10.236s-55.554 71.111-3.513 83.133"/><path stroke="#14041E" stroke-linecap="round" stroke-linejoin="round" stroke-width=".5" d="M57.574 189.509s16.935-11.064 31.172-8.822c8.764 1.379 14.197 10.444 11.029 18.733-3.686 9.638-15.177 16.385-15.177 16.385"/><path stroke="#14041E" stroke-linecap="round" stroke-linejoin="round" stroke-width=".5" d="M74.534 205.087s-14.927 15.898-6.678 21.709c8.249 5.812 44.369 10.995 53.856-2.675 9.488-13.67-21.672-15.172-33.441-10.84M40.016 203.616s-4.651 8.499-12.441 6.704c-7.788-1.795-9.35-12.958-17.864-9.086-8.515 3.873 1.413 21.557 16.347 22.9 18.416 1.885 24.596-8.889 24.596-8.889"/><path stroke="#14041E" stroke-linecap="round" stroke-linejoin="round" stroke-width=".5" d="M122.757 222.337s34.144 2.95 53.28.881c19.136-2.069 33.799-8.405 37.57-6.148 3.771 2.256 6.637 11.886 29.313 10.892 22.675-.997 25.196-14.45 23.966-17.999-1.23-3.545-4.949-3.556-15.754-3.588-10.806-.032-29.546-12.486-38.581-11.981-9.035.506-37.227 9.456-66.801 7.244"/><path stroke="#14041E" stroke-linecap="round" stroke-linejoin="round" stroke-width=".5" d="M200.086 196.526s22.03-1.574 29.551-29.007c7.52-27.433-6.231-38.458-6.231-38.458"/><path stroke="#14041E" stroke-linecap="round" stroke-linejoin="round" stroke-width=".5" d="M221.126 184.524s7.553-.953 15.009 2.735c17.215 8.518 31.411.093 36.002 5.421 4.59 5.328.999 14.835-7.258 14.894M206.087 134.859c-9.808 2.343-23.067 4.104-38.864 2.862M208.962 123.249c4.635-1.306 9.291-2.969 13.734-5.084 0 0 1.641-.968 2.514 2.975.874 3.943.115 6.372-.33 6.95-.209.271-5.221 3.009-14.201 5.567M168.835 127.851s17.208.958 35.921-3.509"/><path stroke="#14041E" stroke-linecap="round" stroke-linejoin="round" stroke-width=".5" d="M139.837 104.228c-4.921 23.998-6.752 58.369 1.761 64.449 10.959 7.825 28.926-17.452 27.98-57.664M164.352 74.202c-8.612 1.694-16.615 5.36-19.682 12.825-1.265 3.079-2.485 7.082-3.599 11.662M246.95 70.022c-21.936 3.546-54.235 3.681-54.235 3.681s-1.301-.187-3.48-.383M196.486 107.815s14.373-.134 24.773-13.213c0 0 13.552-.316 21.813-8.528 0 0 14.439-1.021 18.184-9.068.154-.332.287-.651.398-.956"/><path stroke="#14041E" stroke-linecap="round" stroke-linejoin="round" stroke-width=".5" d="M198.221 107.677s25.33-.138 27.44 1.197c2.108 1.335 2.175 6.944-7.534 11.283"/><path stroke="#14041E" stroke-linecap="round" stroke-linejoin="round" stroke-width=".5" d="M210.443 103.716s10.836-5.72 19.805-3.862c8.969 1.858 15.318 11.967 11.845 18.262-3.472 6.296-8.716 2.236-10.652-1.962-1.937-4.197-3.347-7.311-7.361-7.683"/><path stroke="#14041E" stroke-linecap="round" stroke-linejoin="round" stroke-width=".5" d="M207.862 104.985c.132-.058 4.777-.341 10.982-2.328 6.205-1.99 11.488-1.03 14.368 3.113M179.375 97.65c7.472-1.032 12.509-9.254 11.251-18.364-1.257-9.11-8.334-15.659-15.806-14.627-7.472 1.032-12.509 9.253-11.251 18.363 1.257 9.11 8.334 15.66 15.806 14.628Z"/><path stroke="#14041E" stroke-linecap="round" stroke-linejoin="round" stroke-width=".5" d="M179.34 93.072c5.662-.782 9.48-7.013 8.527-13.916-.953-6.903-6.316-11.866-11.979-11.084-5.663.782-9.481 7.012-8.527 13.915.953 6.904 6.316 11.866 11.979 11.085ZM199.891 73.589c-1.71-1.947-2.934-4.556-3.344-7.52-.953-6.904 2.866-13.133 8.527-13.915 5.663-.783 11.024 4.181 11.977 11.085.509 3.686-.343 7.18-2.109 9.756"/><path stroke="#14041E" stroke-linecap="round" stroke-linejoin="round" stroke-width=".5" d="M193.92 69.528a20.329 20.329 0 0 1-.65-3.007c-1.257-9.11 3.781-17.331 11.253-18.362 7.473-1.03 14.549 5.518 15.806 14.628.498 3.611.008 7.082-1.232 10.023M195.669 73.62a18.412 18.412 0 0 1-1.361-2.854M163.946 85.042s-22.851 12.898-26.697 16.428c-3.85 3.531-7.299 11.846-4.409 13.803 2.886 1.958 3.741-7.605 5.876-10.079 2.135-2.475 26.413-16.699 26.413-16.699"/><path stroke="#14041E" stroke-linecap="round" stroke-linejoin="round" stroke-width=".5" d="M188.404 72.511s3.816-3.795 6.921-2.843c0 0 .192.03.293.474.1.444-.297.785-.297.785-3.105-.953-6.27 2.648-6.27 2.648M248.223 63.093c-1.556 2.564-2.068 5.815-.675 8.572 2.414 4.773 9.506 5.297 14.138 4.342 3.823-.788 7.228-3.514 8.821-7.124 1.839-4.166.717-8.463-3.664-10.291-6.02-2.515-15.07-1.353-18.62 4.5ZM103 222.767s6.399-.896 8.711 7.981M108.283 218.353s8.326-.476 9.626 9.322M112.321 215.266s9.713-.148 10.072 7.773M233.926 214.117s10.148 2.628 16.35 1.879c6.201-.749 11.295 5.655 6.84 8.913M242.974 210.601s6.608 1.914 12.752.69c6.144-1.225 10.973 1.424 8.432 8.277M252.098 199.291s7.077 2.323 11.924 1.216c4.845-1.108 8.809.063 7.166 4.616M259.962 196.039s4.898.752 8.915.026c4.017-.726 5.571 2.079 5.143 3.718M205.698 136.012c-.78.546-1.439 1.349-1.967 2.262-.914 1.58-1.436 3.486-1.519 4.935-.131 2.26.114 4.905 1 7.005.6 1.426 1.868 2.788 3.345 3.301 2.403.836 4.358-1.069 5.4-3.039 1.525-2.886 1.799-6.688 1.24-9.872-.334-1.902-1.534-3.959-3.342-4.851"/><path stroke="#14041E" stroke-linecap="round" stroke-linejoin="round" stroke-width=".5" d="M204.89 140.043c-.655 1.13-1.028 2.494-1.088 3.532-.093 1.619.083 3.511.716 5.016.43 1.02 1.337 1.996 2.395 2.363 1.721.598 3.119-.765 3.865-2.175 1.093-2.065 1.286-4.785.888-7.064-.251-1.44-1.2-3.004-2.62-3.574-1.849-.744-3.262.363-4.154 1.907l-.002-.005ZM209.505 136.519c2.437-5.058 2.103-9.801.81-11.93-.009-.02-.021-.039-.03-.059-.686-1.299-2.219-1.899-3.619-1.448-.338.11-.784.251-1.373.435-2.245.702-3.06 1.397-3.06 1.397s2.558-1.634 3.558.316c1.292 2.129 1.84 6.868-.597 11.926 0 0 .815-.631 2.085-.865 1.27-.232 2.229.228 2.229.228h-.003ZM203.363 135.473s.371 1.072.93 1.769"/></svg>