<svg xmlns="http://www.w3.org/2000/svg" fill="none" viewBox="0 0 280 280"><path fill="#FF673D" d="M59.577 147.693s6.893 5.924 3.691 19.809c-3.201 13.884-24.974 45.969-7.18 71.721 17.794 25.751 52.752 44.167 95.504 39.311 51.645-5.869 83.067-48.565 81.724-90.192-1.018-31.564-14.965-69.323-47.105-87.373 0 0 4.92 14.62-8.087 15.782-13.008 1.168-5.05-13.172-8.774-27.013-3.723-13.842-9.276-17.366-18.749-21.466-2.244-1.192 1.277 2.585 3.402 6.971 2.125 4.387 7.616 20.45-5.227 31.561 0 0 5.861-19.267-1.49-31.64-7.352-12.371-14.665-17.752-23.821-26.98-9.156-9.227-7.131-21.657-.175-27.968 0 0-17.938 6.924-14.66 27.701 3.279 20.777 12.981 28.13 15.79 40.59 2.808 12.461-.625 34.906-19.516 34.483-18.897-.423-12.532-23.251-6.06-28.986 0 0-21.06 11.616-19.538 31.018 1.521 19.401 12.028 21.628 10.42 33.09-1.607 11.462-14.922 7.931-17.625 1.196-2.703-6.735-12.53-11.614-12.53-11.614l.006-.001Z"/><path fill="#DC442A" d="M58.043 181.79s-12.73 34.469 10.596 50c0 0-2.587-24.331 4.365-36.436 6.952-12.102 23.283-18.715 26.113-36.337 2.83-17.621-13.018-27.199-13.018-27.199s45.342 15.518 21.984 51.499c-27.444 42.279 25.728 69.57 41.182 16.982 0 0 11.017 27.18 35.774 25.334 9.759-.727 20.259-9.897 28.441-28.605 0 0-.321 15.53 9.947 13.026 10.268-2.504 7.937-39.888 7.937-39.888s6.007 20.363-3.515 50.444c-12.427 37.387-50.994 57.016-84.904 58.674-33.904 1.653-52.14-10.711-60.674-15.631-8.534-4.919-24.602-18.11-30.72-33.897-6.117-15.786 2.289-37.236 2.289-37.236l4.203-10.725v-.005Z"/><path fill="#FFBF3E" d="M121.855 21.253s-14.43 11.362-6.083 25.9c8.347 14.538 29.653 20.252 29.938 43.58.285 23.328-1.373 26.592-1.373 26.592s10.259-4.765 15.736-18.543c5.477-13.78-5.327-25.862-3.579-27.661 0 0-5.298-3.133-6.258-3.011-.959.121.066 1.007.678 1.94.612.935 7.186 9.051 5.764 22.823-.902 7.502-7.458 13.551-7.458 13.551s3.889-12.068.342-26.045c-2.946-10.45-16.688-23.073-16.688-23.073s-10.992-9.387-13.901-15.603c-2.909-6.217-1.889-13.849 2.882-20.446v-.004ZM98.433 94.402s-12.123 8.815-8.89 22.359c3.234 13.544 21.494 13.43 30.574 5.323 9.08-8.103 5.013-28.861 5.013-28.861s2.191 26.953-16.226 29.49c-18.417 2.537-20.362-14.385-10.477-28.311M161.185 107.398s-15.847 25.037 13.375 43.235c19.14 11.919 11.364-24.635 23.16-17.906 11.796 6.73 10.997 42.067 7.911 52.216 0 0 5.606-10.341 7.018-18.853 0 0 3.831 8.836 3.03 14.446 0 0 4.883-8.349 2.29-19.725-2.592-11.376-9.602-30.923-23.513-39.64 0 0-5.527 10.974-16.029 10.318-10.503-.66-21.337-8.851-17.248-24.095l.006.004ZM137.165 195.946s9.628 1.479 13.178-13.374c3.545-14.853 1.123-20.365 1.123-20.365s8.388 2.222 15.119 21.71c0 0 2.183-25.751-25.617-31.997 0 0 5.734 7.71 6.967 20.449 1.233 12.743-1.546 21.26-10.77 23.577Z"/><path fill="#FF673D" d="M73.316 257.382s-5.708-5.931-8.585-13.053c0 0 18.994 15.978 29.61 18.532 0 0-10.257-12.141-12.186-18.641 0 0 19.254 24.175 49.87 19.113 30.616-5.058 25.57-28.85 25.57-28.85s23.862 23.31 54.383-3.104c0 0-3.363 10.517-16.303 22.351 0 0 10.388-.43 18.517-9.706l1.597-1.937s-20.494 32.41-64.19 36.449c-43.702 4.039-66.156-12.916-78.278-21.154h-.005ZM123.352 25.637l.223-.335c1.819-2.654 4.395-4.944 5.32-7.996.878-2.903.805-6.013-.141-8.895-.651-1.984-2.594-6.514-5.115-7.317 3.279 1.043 6.516 2.321 9.173 4.283 3.891 2.868 5.675 7.571 4.731 11.977-1.131 5.299-5.669 7.938-8.882 12.182a13.877 13.877 0 0 0-2.809 8.896c.071 2 .802 7.426 3.127 8.563-4.886-2.396-7.993-6.832-8.447-11.636-.321-3.39.891-6.78 2.82-9.718v-.004ZM103.32 117.204s-6.504-12.378 4.688-22.393c0 0-19.863 8.036-4.688 22.393Z"/><path stroke="#14041E" stroke-linecap="round" stroke-linejoin="round" stroke-width=".9" d="M59.577 147.694s6.893 5.923 3.691 19.808c-3.201 13.884-24.974 45.969-7.18 71.721 17.794 25.751 52.752 44.167 95.504 39.311 51.645-5.869 83.067-48.565 81.724-90.192-1.018-31.564-14.965-69.323-47.105-87.373 0 0 4.92 14.62-8.087 15.782-13.008 1.168-5.05-13.172-8.774-27.013-3.723-13.842-9.276-17.366-18.749-21.466-2.244-1.192 1.277 2.585 3.402 6.971 2.125 4.387 7.616 20.45-5.227 31.561 0 0 5.861-19.267-1.49-31.64-7.352-12.371-14.665-17.752-23.821-26.98-9.156-9.227-7.131-21.657-.175-27.968 0 0-17.938 6.924-14.66 27.701 3.279 20.777 12.981 28.13 15.79 40.59 2.808 12.461-.625 34.906-19.516 34.483-18.897-.423-12.532-23.251-6.06-28.986 0 0-21.06 11.617-19.538 31.018 1.521 19.401 12.028 21.628 10.42 33.09-1.607 11.462-14.922 7.931-17.625 1.196-2.703-6.735-12.53-11.614-12.53-11.614h.006Z"/><path stroke="#14041E" stroke-linecap="round" stroke-linejoin="round" stroke-width=".9" d="M106.6 234.577c-7.824-1.347-14.731-6.128-17.936-12.422-3.204-6.288-2.619-13.917 1.518-19.803 2.451-3.486 5.985-6.291 9.153-9.319 10.281-9.825 19.145-15.685 14.166-39.889 0 0 6.332 5.566 7.246 17.858.919 12.293.588 27.125 16.318 24.855 15.731-2.27 12.325-31.541 3.889-43.971.395.585 4.472 1.34 5.257 1.654 4.372 1.734 8.389 4.204 11.617 7.285 7.798 7.443 8.572 17.171 9.12 26.711.361 6.265.281 13.193 3.83 18.856 3.462 5.519 11.356 8.423 18.042 5.253 6.076-2.88 8.244-9.632 9.508-15.094"/><path stroke="#14041E" stroke-linecap="round" stroke-linejoin="round" stroke-width=".9" d="M102.486 251.35s10.571 12.458 28.709 3.051c22.389-11.615 18.639-40.842 18.639-40.842s20.536 38.813 54.785 10.63M161.184 107.397c-1.91 4.337-.972 10.169 1.253 14.319 3.235 6.029 11.184 10.911 19.126 9.526 6.039-1.055 10.286-5.615 12.897-10.137 0 0 20.227 12.361 25.139 48.258M69.585 205.144s-4.027-4.828 16.814-24.687c20.841-19.855 13.638-39.295-.304-48.636M123.352 25.518c.075-.11.149-.222.223-.334 1.819-2.655 4.395-4.944 5.32-7.996.878-2.903.805-6.013-.141-8.895-.651-1.984-2.594-6.515-5.115-7.317 3.279 1.043 6.516 2.321 9.173 4.283 3.891 2.868 5.675 7.571 4.731 11.977-1.131 5.299-5.669 7.938-8.882 12.182a13.877 13.877 0 0 0-2.809 8.896c.071 2 .802 7.426 3.127 8.563-4.886-2.396-7.993-6.832-8.447-11.636-.321-3.39.891-6.78 2.82-9.718v-.005ZM103.32 117.204s-6.504-12.378 4.688-22.393c0 0-19.863 8.036-4.688 22.393Z"/></svg>