<svg xmlns="http://www.w3.org/2000/svg" fill="none" viewBox="0 0 280 280"><g clip-path="url(#a)"><path fill="#FF8B28" d="M251.182 82.358c5.987-4.007 11.166-9.474 13.878-16.147 2.711-6.673 2.724-14.614-.881-20.851-1.058-1.827-2.439-3.606-2.587-5.712-.135 2.513-.272 5.055-1.022 7.455-.747 2.4-2.183 4.686-4.362 5.942-2.18 1.256-5.167 1.263-7.058-.4-2.092-1.84-2.31-5.084-1.56-7.77 1.669-5.977 7.118-10.428 8.4-16.502 1.144-5.41-1.651-11.41-6.525-14.018 1.929 3.532.535 8.487-2.955 10.493-.606.35-1.276.619-1.975.67-1.548.112-3.019-.894-3.823-2.218-.805-1.324-1.042-2.92-1.087-4.47-.218-7.641 4.186-15.23 10.926-18.83-8.006 1.013-14.864 7.974-15.755 15.993-.366 3.285.169 6.592.455 9.887.285 3.295.301 6.73-1.029 9.756-1.327 3.028-4.301 5.541-7.605 5.407-3.536-.141-6.433-3.346-7.061-6.827-.628-3.484.619-7.073 2.519-10.057-2.682 1.173-4.676 3.567-5.993 6.182-2.907 5.766-4.529 13.435-.212 21.663l35.3 30.347.012.007ZM169.17 52.69c-1.298.566-2.494.717-3.125.502-2.199-.753-4.016-2.544-4.807-4.73-.789-2.186-.532-4.724.679-6.708.888-1.455 2.237-2.593 3.074-4.08a7.148 7.148 0 0 0 .5-5.823 7.146 7.146 0 0 0-4.071-4.199c-1.653-.647-3.493-.65-5.176-1.208-3.58-1.186-5.942-4.73-6.884-8.384-.529-2.058-.689-4.256-.102-6.298.586-2.042 1.993-3.91 3.951-4.73a16.058 16.058 0 0 0-7.432 7.775 16.066 16.066 0 0 0-.788 10.727c.455 1.64 1.173 3.192 1.749 4.794 1.17 3.253 1.763 6.801 1.064 10.186-.698 3.387-2.826 6.582-5.98 8.005-.618.28-1.276.49-1.955.513-2.689.093-4.65-2.894-4.509-5.583.144-2.689 1.73-5.054 3.266-7.265-3.827 2.612-7.5 5.926-8.888 10.345-.698 2.218-.772 4.574-.958 6.894-.301 3.798-.635 7.131-2.599 10.397 0 0 4.608 51.491 25.175 47.981 20.566-3.512 17.809-59.105 17.809-59.105l.007-.007ZM95.504 55.133c.34-2.275.676-4.55 1.016-6.826.478-3.221.952-6.554.1-9.695-.853-3.144-3.407-6.067-6.657-6.285.756 1.433 1.157 3.157.618 4.686-.538 1.528-2.23 2.701-3.791 2.265-.792-.22-1.43-.794-1.987-1.4-3.157-3.423-4.506-8.43-3.494-12.974 1.013-4.544 4.353-8.509 8.666-10.268-5.018-.228-10.098 1.673-13.736 5.14-3.634 3.468-5.778 8.452-5.788 13.477-.006 2.91.667 5.827.314 8.714-.353 2.891-2.16 5.933-5.038 6.381-1.09.17-2.212-.054-3.244-.442-3.948-1.49-6.56-5.157-9.271-8.394-2.712-3.237-6.257-6.42-10.477-6.288 3.884 3.814 5.682 9.317 6.246 14.73.529 5.07.083 10.24-1.301 15.147-3.083 10.916-10.644 19.794-13.464 30.78L95.5 55.133h.003Z"/><path fill="#D34F20" d="M48.72 58.34s-.824 3.606 2.186 4.17c3.009.564 3.198-7.964 3.198-7.964l-.25-5.939s4.077 7.23 12.291 5.644c8.214-1.586 9.218-11.179 9.218-11.179s3.009 9.448 13.377 8.362c10.368-1.087 7.647-13.55 7.647-13.55s1.885 4.73-.917 17.063c.334.124-5.352.208-5.352.208S73.94 54.11 55.546 67.987C42.294 78.772 35.063 91.9 35.063 91.9s2.552-6.94 6.564-14.798c4.013-7.858 5.535-11.935 7.093-18.758v-.004ZM126.182 64.266s2.983-3.263 2.541-10.141c-.442-6.875 2.635-11.003 2.635-11.003s-3.359 10.952 3.352 17.974 18.592-.436 21.54-12.493c0 0 .94 6.064 7.023 7.067 0 0-16.932 8.63-19.942 35.386 0 0-1.942-15.76-17.149-26.797v.007ZM214.231 35.004s-1.352 8.567 6.548 12.769c7.9 4.201 13.355-.94 13.355-.94s-.314 4.83 4.077 4.138c0 0-1.818 18.938 17.412 13.003 7.942-2.76 7.859-12.291 7.859-12.291s4.599 16.72-13.294 28.428c0 0-8.279-13.461-20.82-21.403-8.778-5.436-13.483-6.695-13.483-6.695s-4.336-7.346-1.654-17.006v-.003Z"/><path fill="#FFDD36" d="M76.24 19.774s3.013-2.205 5.644-2.039c2.635.167-5.057 5.183-1.714 15.467 3.343 10.285 8.855 5.705 8.855 5.705s-4.215 3.535-7.602-7.208c-3.388-10.743 7.945-16.8 7.945-16.8s-7.487-.904-13.13 4.875h.002ZM150.562 9.142s-3.006 1.74-2.631 7.801c.375 6.06 1.589 9.573 6.855 11.121s9.971 2.843 7.17 9.24-1.052 9.9-1.052 9.9-1.009-3.628 2.164-6.993 4.294-7.769.702-11.022c-3.593-3.253-7.227-1.205-10.07-4.256s-7.07-6.887-3.138-15.787v-.004Z"/><path fill="#FF3D3D" d="M145.409 101.427c-5.115-40.97-34.517-48.661-61.269-45.649-27.598 3.106-49.19 29.153-56.73 54.417-8.43 28.223-1.385 60.574 18.662 82.294 3.291 3.567 6.842 6.801 10.583 9.801 13.101 10.509 28.479 18.098 42.86 26.735.73.439 1.461.882 2.188 1.327 32.441 19.9 38.876 47.113 38.876 47.113s1.087 4.891 2.426 1.086c1.116-3.173 4.628-13.778 4.628-13.778s4.318-17.739 23.695-34.786c4.285-3.769 9.307-7.506 15.181-11.009 17.608-10.5 36.992-19.153 51.994-33.2a88.264 88.264 0 0 0 3.635-3.606c20.047-21.111 27.088-52.558 18.662-79.995-7.544-24.557-29.136-49.88-56.731-52.895-26.755-2.926-55.41 2.356-60.525 42.177"/><path fill="#BA1C1C" d="M143.434 91.057s.74 2.269 1.84 10.22c.448 3.247 5.057 3.449 5.8.257 4.276-18.313 14.929-54.334 49.28-52.446 0 0-17.307-2.968-33.444 4.64-16.137 7.61-21.96 24.958-23.479 37.332l.003-.003Z"/><path fill="#FF867C" d="M50.841 83.544c-.644 1.016-1.266 2.09-1.452 3.278-.186 1.19.157 2.532 1.125 3.247 1.728 1.269 4.109-.032 5.852-1.279 3.157-2.26 6.414-4.42 9.958-6.006 6.984-3.125 14.817-3.89 22.464-3.631 3.935.134 8.06.496 11.647-1.132 4.397-2 7.159-7.086 6.445-11.864-.225-1.494-.782-2.987-1.856-4.054-2.593-2.58-7.317-2.622-10.679-2.11-4.099.622-8.192.645-12.262 1.606a52.086 52.086 0 0 0-22.021 11.282c-3.564 3.09-6.698 6.679-9.227 10.663h.006Z"/><path fill="#BA1C1C" d="M182.809 220.84c5.169-6.112 12.207-10.528 19.816-13.015 7.576-2.477 15.624-3.083 23.409-4.798"/><path stroke="#14041E" stroke-linecap="round" stroke-linejoin="round" stroke-width=".687" d="M145.409 101.426c-5.115-40.969-34.517-48.66-61.269-45.648-27.598 3.106-49.19 29.152-56.73 54.417-8.43 28.223-1.385 60.573 18.662 82.293 3.291 3.567 6.842 6.801 10.583 9.801 13.101 10.509 28.479 18.098 42.86 26.736.73.439 1.461.881 2.188 1.327 32.441 19.899 38.876 47.112 38.876 47.112s1.087 4.891 2.426 1.087c1.116-3.173 4.628-13.778 4.628-13.778s4.317-17.74 23.695-34.787c4.285-3.769 9.307-7.506 15.181-11.009 17.608-10.499 36.992-19.153 51.994-33.2a87.611 87.611 0 0 0 3.635-3.605c20.047-21.111 27.088-52.558 18.662-79.996-7.544-24.556-29.136-49.879-56.731-52.894-26.755-2.926-55.41 2.355-60.525 42.177"/><path fill="#FF8B28" d="M84.532 227.041c-5.074-.67-10.253-.705-15.205-2.003-4.948-1.301-9.823-4.15-11.967-8.798-2.317-5.028-.962-10.999 1.337-16.034 2.297-5.038 5.502-9.698 7.028-15.018 3.215-11.205-2.445-24.297-12.807-29.633 7.97.048 14.723 6.426 18.034 13.675 1.798 3.939 3.083 8.522 6.718 10.878 1.102.715 2.439 1.176 3.73.929 2.119-.407 3.484-2.647 3.603-4.797.118-2.151-.728-4.231-1.593-6.205-2.945-6.711-6.416-13.791-5.186-21.018 1.257-7.385 7.93-13.493 15.397-14.089-3.904 1.448-6.634 5.682-6.163 9.82.282 2.471 1.576 4.73 3.195 6.618 3.058 3.564 7.224 5.955 11.313 8.259 4.09 2.304 8.276 4.654 11.397 8.157 3.122 3.503 5.038 8.454 3.734 12.96-.708 2.446-2.275 4.539-3.333 6.853-1.058 2.314-1.542 5.192-.112 7.297 1.83 2.699 6.163 2.705 8.66.606 2.496-2.099 3.397-5.593 3.329-8.855a19.56 19.56 0 0 0-2.926-9.865c8.064 2.195 13.112 11.047 12.746 19.399-.365 8.349-5.176 15.98-11.284 21.685-1.792 1.673-3.724 3.24-5.151 5.234-1.951 2.727-2.772 6.051-2.871 9.365-.064 2.077 1.73 6.881-1.391 6.746-2.718-.115-5.92-3.442-8.218-4.743a61.429 61.429 0 0 0-9.97-4.532 60.172 60.172 0 0 0-12.041-2.884l-.003-.007ZM174.956 240.551c.189 3.259.599 4.397 1.756 7.506.125-8.003 3.346-15.839 8.516-21.951s12.208-10.528 19.816-13.015c7.577-2.478 15.624-3.083 23.409-4.798 7.785-1.715 15.695-4.811 20.723-10.996 4.971-6.112 6.401-14.916 3.619-22.287-.385 3.156-.821 6.441-2.587 9.086-1.766 2.644-5.288 4.41-8.201 3.134-2.151-.939-3.391-3.205-4.163-5.42-2.587-7.393-1.677-15.473-1.51-23.303.163-7.829-.711-16.319-5.961-22.133-3.926-4.346-9.666-6.484-15.176-8.468 4.061 3.324 6.077 8.961 5.051 14.105-.871 4.369-4.567 8.577-9.009 8.26-4.487-.324-7.416-4.811-9.038-9.006-2.423-6.263-3.198-14.272 1.677-18.887-5.686 3.147-9.272 9.432-9.952 15.893-.682 6.461 1.305 13.022 4.702 18.56 2.16 3.522 4.91 6.746 6.349 10.621 3.195 8.606-.814 18.297-6.436 25.557-5.618 7.259-12.877 13.242-17.685 21.066-4.586 7.461-6.704 16.415-5.948 25.139l.051 1.337h-.003Z"/><path fill="#FFDD36" d="M78.412 149.292s.586-3.698 3.656-5.833c3.074-2.131.69 8.779 9.907 14.737s26.108 9.268 18.749 27.338c-5.477 13.451-.042 17.265 4.891 17.057 10.288-.436 10.031-16.679 10.031-16.679s.878 10.724-7.775 11.163c-8.15-1.067-4.327-9.657-3.199-11.413 1.129-1.756 3.388-5.833 2.571-9.781-.814-3.952-1.936-7.356-7.74-11.58s-17.31-8.33-21.23-16.294c-3.92-7.964 4.859-13.083 4.859-13.083s-13.304 1.638-14.727 14.368h.007ZM53.456 155.855s16.137 8.108 12.563 27.61c-.314 4.577-5.204 13.105-5.204 13.105s7.525-6.897 8.717-18.813c1.192-11.912-10.724-19.627-11.288-20.441-.564-.814 1.568-.189 1.568-.189s-4.619-1.673-6.356-1.275v.003ZM236.013 159.703s-6.544 27.819 3.009 32.796c9.554 4.977 15.301-7.275 14.862-12.041-.439-4.766-1.083-5.445-1.083-5.445s-.738 11.906-8.135 12.406c-7.4.503-8.403-12.291-8.403-12.291l.083-10.368s-.234-5.509-.333-5.057Z"/><path stroke="#14041E" stroke-linecap="round" stroke-linejoin="round" stroke-width=".687" d="M84.537 227.043c-5.073-.67-10.252-.705-15.204-2.003-4.948-1.301-9.823-4.15-11.967-8.798-2.317-5.028-.962-10.999 1.336-16.034 2.298-5.038 5.503-9.698 7.029-15.018 3.214-11.205-2.446-24.297-12.807-29.633 7.97.048 14.723 6.426 18.034 13.675 1.798 3.939 3.083 8.522 6.718 10.878 1.102.715 2.439 1.176 3.73.929 2.119-.407 3.484-2.647 3.603-4.797.118-2.151-.728-4.231-1.593-6.205-2.946-6.711-6.417-13.791-5.186-21.018 1.256-7.385 7.93-13.493 15.397-14.089-3.904 1.448-6.635 5.682-6.163 9.82.282 2.471 1.576 4.73 3.195 6.618 3.057 3.564 7.224 5.955 11.313 8.259 4.09 2.304 8.276 4.654 11.397 8.157 3.122 3.503 5.038 8.454 3.734 12.96-.708 2.446-2.276 4.539-3.333 6.853-1.058 2.314-1.542 5.192-.112 7.297 1.83 2.699 6.163 2.705 8.659.606 2.497-2.099 3.398-5.593 3.33-8.855a19.566 19.566 0 0 0-2.926-9.865c8.064 2.195 13.112 11.047 12.746 19.399-.365 8.349-5.176 15.98-11.284 21.685-1.792 1.673-3.724 3.24-5.151 5.234-1.952 2.727-2.772 6.051-2.871 9.365-.064 2.077 1.73 6.881-1.391 6.746-2.718-.115-5.92-3.442-8.218-4.743a61.423 61.423 0 0 0-9.97-4.532 60.17 60.17 0 0 0-12.041-2.884l-.004-.007ZM174.962 240.549c.189 3.26.599 4.398 1.756 7.506.125-8.002 3.346-15.838 8.516-21.95 5.169-6.112 12.207-10.528 19.816-13.016 7.576-2.477 15.624-3.083 23.409-4.797 7.785-1.715 15.695-4.811 20.723-10.997 4.971-6.111 6.4-14.915 3.619-22.287-.385 3.157-.821 6.442-2.587 9.086-1.766 2.644-5.288 4.41-8.201 3.135-2.151-.939-3.391-3.205-4.164-5.42-2.586-7.394-1.676-15.473-1.509-23.303.163-7.83-.712-16.32-5.961-22.133-3.926-4.346-9.666-6.484-15.176-8.468 4.061 3.324 6.077 8.961 5.051 14.105-.871 4.368-4.567 8.577-9.009 8.259-4.487-.323-7.416-4.81-9.038-9.006-2.423-6.262-3.198-14.271 1.676-18.886-5.685 3.147-9.272 9.432-9.951 15.893-.683 6.461 1.304 13.022 4.702 18.56 2.16 3.522 4.91 6.746 6.349 10.621 3.195 8.605-.814 18.297-6.436 25.556-5.618 7.259-12.877 13.243-17.685 21.066-4.586 7.462-6.705 16.416-5.948 25.14l.051 1.336h-.003ZM215.889 52.007c-4.317-8.23-2.695-15.9.211-21.662 1.318-2.615 3.311-5.01 5.994-6.182-1.901 2.983-3.148 6.576-2.519 10.057.628 3.484 3.525 6.685 7.06 6.826 3.304.135 6.279-2.38 7.605-5.406 1.327-3.03 1.314-6.465 1.029-9.756-.285-3.295-.82-6.602-.455-9.888.894-8.018 7.75-14.98 15.756-15.992-6.74 3.599-11.147 11.191-10.926 18.829.045 1.551.282 3.144 1.086 4.47.805 1.328 2.279 2.334 3.824 2.219.699-.052 1.365-.32 1.974-.67 3.487-2.007 4.885-6.961 2.955-10.493 4.875 2.609 7.666 8.608 6.525 14.018-1.282 6.074-6.73 10.525-8.4 16.503-.75 2.685-.532 5.929 1.561 7.768 1.891 1.66 4.878 1.654 7.057.4 2.18-1.256 3.616-3.54 4.362-5.941.747-2.4.888-4.945 1.023-7.455.147 2.106 1.528 3.885 2.586 5.711 3.606 6.237 3.593 14.18.881 20.852-2.711 6.672-7.576 11.925-13.563 15.932M126.187 63.813c1.964-3.266 2.297-6.596 2.599-10.397.186-2.317.259-4.673.958-6.894 1.391-4.42 5.061-7.733 8.887-10.346-1.532 2.212-3.121 4.58-3.265 7.266-.145 2.69 1.817 5.676 4.509 5.583.676-.022 1.336-.234 1.955-.513 3.15-1.423 5.282-4.618 5.98-8.006.699-3.387.106-6.932-1.064-10.185-.577-1.602-1.291-3.154-1.75-4.795a16.054 16.054 0 0 1 .789-10.726 16.058 16.058 0 0 1 7.432-7.776c-1.958.824-3.365 2.69-3.952 4.73-.586 2.042-.426 4.241.103 6.299.939 3.653 3.301 7.198 6.884 8.384 1.686.557 3.526.56 5.176 1.208a7.152 7.152 0 0 1 4.07 4.198 7.143 7.143 0 0 1-.5 5.824c-.836 1.484-2.185 2.625-3.073 4.08-1.212 1.984-1.468 4.522-.68 6.708.789 2.186 2.606 3.977 4.808 4.73.628.215 1.827.064 3.125-.503M34.224 93.883c2.817-10.987 10.38-19.864 13.464-30.78a40.476 40.476 0 0 0 1.3-15.147c-.563-5.413-2.364-10.92-6.246-14.73 4.218-.132 7.766 3.054 10.477 6.288 2.712 3.234 5.324 6.903 9.272 8.394 1.032.39 2.154.615 3.244.442 2.878-.449 4.682-3.493 5.038-6.381.352-2.89-.32-5.804-.314-8.714.01-5.026 2.153-10.01 5.788-13.477 3.634-3.468 8.717-5.368 13.736-5.14-4.31 1.762-7.653 5.723-8.666 10.268-1.013 4.545.337 9.55 3.494 12.974.557.602 1.195 1.176 1.987 1.4 1.56.44 3.253-.737 3.791-2.266.538-1.529.138-3.253-.618-4.686 3.25.218 5.8 3.141 6.656 6.285.853 3.145.382 6.474-.1 9.695-.339 2.276-.675 4.551-1.015 6.827"/><path stroke="#14041E" stroke-linecap="round" stroke-linejoin="round" stroke-width=".687" d="M50.24 70.767c1.394-2.68 2.192-5.628 2.84-8.58.98-4.477 1.631-9.134.72-13.624 1.03.724 1.79 1.763 2.632 2.695.843.936 1.853 1.814 3.09 2.058M85.805 215.414a20.37 20.37 0 0 1-3.762-2.779c-2.459-2.288-4.417-5.516-3.959-8.843.177-1.285.706-2.496 1.347-3.628a19.018 19.018 0 0 1 4.06-4.967c1.4-1.218 2.971-2.221 4.378-3.433 2.574-2.218 4.551-5.099 5.81-8.252 2.696-6.74 1.988-14.743-1.849-20.906M97.602 196.257c-4.903 4.292-6.692 11.785-4.253 17.826 1.01 2.503 2.638 4.699 4.023 7.016 1.384 2.317 2.56 4.888 2.509 7.586M216.128 197.702a54.204 54.204 0 0 0 8.201-16.518c.555-1.863 1.01-3.757 1.292-5.68M227.135 153.708c1.488-7.718-.951-16.086-6.352-21.797 0 0-2.032-2.009-4.855-3.375M139.43 58.058c3.679.686 7.006-1.058 9.409-3.76 2.536-2.845 5.273-7.191 5.132-11.175M221.443 44.066c1.395.91 3.007 1.474 4.66 1.685 4.635.59 9.509-1.849 11.817-5.91-.564 1.427-1.138 2.888-1.176 4.42-.026 1.022.224 2.141.827 2.984.625.868 1.49.939 2.464 1.15 1.949.423.882 2.69.936 4.11.119 3.246 1.766 6.646 4.872 7.963 1.189.507 2.605.571 3.749-.025"/></g><defs><clipPath id="a"><path fill="#fff" d="M0 0h280v280H0z"/></clipPath></defs></svg>