<svg fill="none" xmlns="http://www.w3.org/2000/svg" viewBox="0 0 280 280"><path d="M257.993 143.048c-.517-19.761-11.868-33.053-30.593-36.278h.013c16.073-4.76 30.691-42.492-.956-61.026-31.173-18.262-49.262 6.992-50.014 8.07-1.32-20.099-13.207-33.866-38.929-31.715-42.302 3.54-25.735 46.235-25.735 46.235-20.623-44.656-67.401-19.988-71.008 2.658-4.242 26.647 16.16 34.73 17.085 35.081-22.418 1.092-36.63 14.452-36.63 36.975 0 20.494 12.467 30.889 34.774 30.507l-.03.012s-33.708 25.519-8.04 59.392c19.864 26.216 59.817 21.222 65.927-6.764v-.037c.943 11.425 5.339 21.808 16.425 27.227 28.953 14.156 49.459-11.579 47.77-23.404l-.031-.277c5.574 6.251 12.596 10.74 21.425 11.615 35.544 3.539 55.57-45.359 26.456-67.222h-.031c20.895-.296 32.129-10.968 32.129-31.049h-.007Z" fill="#FCFF60"/><path d="M142.582 98.256s-11.32.258-22.036 6.615c-10.037 5.956-19.55 17.27-18.737 38.738 1.585 41.722 53.32 44.391 71.656 20.266 18.336-24.126 6.517-67.068-30.883-65.62Z" fill="#9B4A00"/><path d="M120.281 107.282c-4.846 4.34-8.533 10.259-7.035 16.542.45 1.893 1.381 3.644 2.503 5.228a23.025 23.025 0 0 0 4.803 4.982c6.375 4.871 14.822 6.073 22.843 6.017 11.178-.08 24.915-3.637 28.337-15.888 1.948-6.967-1.936-13.373-6.979-17.898-4.748-4.261-10.79-6.782-17.116-7.418-9.667-.974-20.056 1.887-27.356 8.429v.006Z" fill="#C96000"/><path d="M43.453 74.888c-.123 1.277-.166 2.534-.123 3.749.172 5.185 2.546 10.734 5.968 14.606 3.86 4.371 10.734 5.475 15.74 2.43 6.622-4.033 4.156-11.512 2.263-17.542-1.011-3.224-2.17-6.621-2.004-10.05.204-4.186 3.749-7.41 3.792-11.634.087-8.12-13.391-3.2-16.536-.585-5.505 4.58-8.422 12.047-9.1 19.026ZM120.929 32.26c-3.693 3.367-5.931 8.28-6.048 13.275-.049 2.071.339 4.315 1.85 5.74 1.085 1.023 2.614 1.46 4.1 1.56 4.26.27 8.274-1.986 11.64-4.612 3.847-3.003 7.337-6.752 8.878-11.388.352-1.06.598-2.176.481-3.28-.419-3.958-4.827-6.24-8.44-6.135-4.581.13-9.051 1.739-12.461 4.853v-.013ZM23.957 137.869c-.9 6.332-.265 13.367 3.971 18.163.962 1.092 2.115 2.053 3.477 2.547 2.528.912 5.463.049 7.498-1.702 2.034-1.751 3.292-4.254 4.081-6.825.907-2.935 1.27-6.012 1.45-9.082.283-4.846.036-9.951-2.393-14.156-1.128-1.954-2.867-3.73-5.087-4.137-8.027-1.467-12.14 9.143-13.003 15.186l.006.006ZM43.878 217.231c1.122 2.472 2.75 4.772 4.963 6.338 2.214 1.566 5.068 2.343 7.713 1.739 3.07-.697 5.537-3.176 6.788-6.061 1.252-2.885 1.419-6.147 1.104-9.279-.684-6.862-4.741-20.611-14.285-16.98-8.983 3.422-9.668 16.783-6.29 24.243h.007ZM134.721 250.561c3.317 1.844 7.405 2.559 10.956 1.227.789-.296 1.548-.69 2.164-1.257.549-.5.968-1.123 1.289-1.795 1.288-2.712.764-5.968-.395-8.742-2.312-5.537-7.041-9.92-12.571-12.233-3.028-1.263-6.906-2.059-9.847-.147-2.305 1.504-4.278 4.698-3.89 7.509.808 5.802 7.399 12.719 12.288 15.438h.006ZM232.901 65.77c-3.829-.814-8.077 1.208-9.865 4.692-1.202 2.349-1.313 5.08-1.782 7.676a27.064 27.064 0 0 1-3.699 9.544c-.808 1.288-1.739 2.521-2.306 3.94-1.178 2.91-.617 6.455 1.412 8.841 2.028 2.386 5.462 3.508 8.502 2.743 1.202-.302 2.324-.869 3.391-1.504 9.556-5.715 15.346-18.743 11.178-29.372-1.239-3.157-3.329-5.814-6.831-6.56ZM229.003 156.341c-1.529 1.633-2.892 3.514-3.447 5.678-.554 2.164-.185 4.673 1.375 6.276 1.653 1.696 4.236 2.078 6.597 1.955 6.844-.364 13.386-4.427 16.74-10.401 2.54-4.513 2.269-12.658-4.581-12.196-6.166.42-12.566 4.267-16.69 8.681l.006.007ZM184.71 217.317c-2.232.728-4.439 2.429-4.593 4.772-.105 1.585.752 3.071 1.702 4.341 3.785 5.068 9.538 8.564 15.728 9.858 6.19 1.295 12.769.432 18.533-2.17 3.576-1.615 6.974-4.007 8.805-7.479 1.831-3.471 1.72-8.15-1.03-10.95-3.638-3.705-9.828-3.027-14.094-.918-4.822 2.386-9.119 2.756-14.501 2.207-3.502-.358-7.14-.783-10.556.333l.006.006Z" fill="#FFFFAB"/><path d="M142.582 98.256s-11.32.258-22.036 6.615c-10.037 5.956-19.55 17.27-18.737 38.738 1.585 41.722 53.32 44.391 71.656 20.266 18.336-24.126 6.517-67.068-30.883-65.62Z" stroke="#140D1D" stroke-width=".74" stroke-linecap="round" stroke-linejoin="round"/><path d="M107.956 116.999s-14.353-8.614-41.617-10.784c-27.257-2.17-45.112 11.585-45.112 36.833-.013 32.813 31.95 39.73 85.059 18.015M175.586 114.865s10.025-6.473 37.289-8.644c27.264-2.17 44.472 12.387 45.113 36.833.012 32.813-29.989 40.52-83.092 18.805" stroke="#140D1D" stroke-width=".74" stroke-linecap="round" stroke-linejoin="round"/><path d="M55.97 173.567s-33.707 25.519-8.04 59.392c19.865 26.216 59.817 21.222 65.927-6.763" stroke="#140D1D" stroke-width=".74" stroke-linecap="round" stroke-linejoin="round"/><path d="M123.881 176.317s-26.832 60.822 6.394 77.068c28.953 14.156 49.46-11.578 47.77-23.404C188.697 240.987 216 253.385 235.5 220.5c5.5-11.333 8.5-31.5-9.5-46.183M57.892 106.092S36.424 98.256 40.77 70.998c4.341-27.264 71.249-57.456 79.776 33.879" stroke="#140D1D" stroke-width=".74" stroke-linecap="round" stroke-linejoin="round"/><path d="M111.779 68.335S95.213 25.639 137.514 22.1c44.231-3.7 47.56 39.644 26.592 81.341" stroke="#140D1D" stroke-width=".74" stroke-linecap="round" stroke-linejoin="round"/><path d="M176.418 53.852s18.194-26.765 50.039-8.108c31.641 18.54 17.023 56.273.956 61.026M78.405 132.283c7.874.16 15.735 1.073 23.441 2.713M81.291 146.926l20.519-2.553M136.262 99.094c.684-7.09.826-14.236.437-21.351M148.365 97.775a80.28 80.28 0 0 0 1.708-10.494M169.876 107.824a71.44 71.44 0 0 1 14.951-12.54M180.938 127.233c7.626-2.423 16.246-3.65 24.248-3.458M181.955 138.134c8.928-.703 17.529-.314 26.358 1.184M180.34 149.818c1.375.129 3.323.943 4.556 1.559M96.76 184.443c4.408-5.925 8.977-11.998 15.29-15.833M116.847 173.259a85.725 85.725 0 0 0-4.976 7.349M134.314 178.814a43.149 43.149 0 0 0-1.985 13.41c0 .456.018.925.172 1.356M144.407 179.313a104.993 104.993 0 0 0-.234 7.485M169.254 168.487a73.282 73.282 0 0 1 10.432 10.721M164.457 172.315a16.835 16.835 0 0 1 2.738 4.347" stroke="#140D1D" stroke-width=".74" stroke-linecap="round" stroke-linejoin="round"/></svg>