<svg xmlns="http://www.w3.org/2000/svg" fill="none" viewBox="0 0 280 280"><path fill="#f39344" d="M107.984 110.587h-2.032l-30.24-.967s-10.819-1.143-21.962 7.138-11.534 18.95-11.534 23.927c0 0-.61 13.41 5.44 19.102 5.232 5.674 12.616 6.129 12.616 6.129l5.03.5 13.465.276h7.596l7.02-.367-.798 2.836-5.181 15.919s-3.084 8.291-4.013 10.399c-.93 2.107-5.074 12.545-6.204 21.654-1.127 9.11-.447 18.968 5.647 25.712 6.093 6.745 16.454 7.307 24.422 6.134s13.547-4.757 13.547-4.757 6.739-3.992 10.57-10.429c3.832-6.436 5.079-8.872 5.079-8.872s1.679-3.628 2.155-4.87c.477-1.242 1.711-4.945 1.711-4.945l.79-3.084.327-1.352s4.329 18.717 16.516 28.473c11.175 9.295 21.434 9.82 21.434 9.82s9.572 1.55 17.309-.736 11.001-7.419 11.001-7.419 4.362-6.383 4.153-13.44c.008-6.758-.729-10.899-.729-10.899l-.907-4.485-2.343-7.933-1.97-4.69s-5.309.238-7.368-3.987c-1.328-2.549.664-6.278.664-6.278s-4.035-.348-4.126-4.094c.104-2.581 1.716-3.325 1.716-3.325l-11.601-19.734s11.433.902 20.752.334c9.323-.567 22.607-3.344 26.476-8.382 3.869-5.036 4.739-7.184 5.116-10.854.378-3.671.587-9.767-.607-13.172-.584-2.648-.806-3.465-.806-3.465s-1.714-9.416-12.902-15.325c-11.582-6.329-34.235-4.69-34.235-4.69s-6.184.407-9.799.693c-3.614.289-10.39 1.28-10.39 1.28s6.91-5.06 11.349-13.818c4.436-8.755 4.064-15.772 4.064-15.772s-.142-6.134-.948-9.676c-.808-3.544-2.144-7.017-2.144-7.017l-1.615-3.844-2.591-3.026s-1.529 5.135-6.279 4.185c-2.27-.426-3.071-2.428-3.071-2.428s-.808-1.468-1.121-3.513c-.314-2.046-.308-2.702-.308-2.702s-5.572 6.434-9.352 7.203c-3.78.768-5.282-.51-5.93-2.365s-.988-3.097-.758-5.322.768-5.14.768-5.14l.177-1.513s-6.227 1.322-7.636-2.715c-.83-2.833.19-4.64.761-5.435.57-.795 1.606-1.88 1.606-1.88l-4.53-3.876s-12.503-.809-26.963 6.715c-14.463 7.526-21.17 20.794-22.564 34.904-1.395 14.109 3.7 31.736 16.28 39.257z"/><path fill="#c76430" d="M42.217 140.511s-1.358 15.191 7.863 21.547c6.005 3.491 8.305 3.595 10.195 3.858 1.888.262 11.665.867 16.032.822 4.364-.046 14.594-.284 14.594-.284l2.484-.129 3.877-12.385-22.629.929s-12.205.434-18.7-1.084c-6.496-1.518-11.395-4.279-13.71-13.272zM180.264 151.86s3.06 7.448 4.918 10.08c.57.043 11.884.905 18.554.442 6.666-.464 21.525-1.007 28.676-8.487s5.398-19.076 5.398-19.076l-.64-4.715-.562-1.636s1.871 7.556-3.419 13.842c-5.291 6.286-11.157 9.009-22.996 9.796-11.839.785-29.927-.243-29.927-.243zM76.757 223.167s-1.259 14.736 8.66 21.86c9.917 7.125 23.119 3.668 23.119 3.668s8.067-.722 16.412-7.354c7.928-6.549 13.654-21.293 13.654-21.293l1.893-5.561.935-4.163s5.783 28.701 29.956 36.695c9.435 3.666 21.1 1.917 21.1 1.917s4.875-.433 8.816-2.631c3.938-2.199 7.738-6.099 9.256-11.234 1.518-5.133 1.341-10.064 1.341-10.064s-.263-4.753-.522-6.651c-.26-1.898-1.098-5.785-1.098-5.785s.926 14.677-5.676 19.67c-4.259 3.946-9.499 5.378-16.484 5.483-7.542-.07-12.781-2.34-12.781-2.34s-2.9-.873-3.808-1.363-7.611-4.016-11.873-8.557c-4.26-4.54-8.241-11.453-10.198-15.643-1.955-4.19-4.26-11.245-4.26-11.245l-1.66-6.425-.819-4.611-.209-1.223-.956 3.1-4.072 14.118s-3.108 13.967-10.302 22.628-13.341 12.463-23.713 12.693c-10.72-.294-19.309-5.544-19.309-5.544s-6.008-3.518-7.405-10.153zM145.761 33.587l-4.329-3.877s-5.422 4.538-3.864 13.545c1.644 8.516 9.799 5.593 9.799 5.593s-1.868 11.638 5.256 13.317c6.233 1.73 10.947-4.934 10.947-4.934s3.248 7.397 7.754 7.343c4.506-.053 5.357-1.183 6.423-2.607s1.365-2.434 1.365-2.434l.383-1.036-.367-.576-2.182-2.567s-1.641 4.482-5.464 4.179-4.557-4.206-4.766-4.782-.589-4-.589-4-5.906 7.098-10.725 7.588-5.202-4.576-5.448-5.831.768-7.125.768-7.125l.311-1.77s-5.829 1.28-7.435-2.315c-1.607-3.596.907-6.552 2.166-7.71z"/><path fill="#fff0cc" d="M150.551 155.715c-2.029-1.59-4.964-1.93-7.304-.851-2.235 1.033-3.756 3.129-5.611 4.752-1.856 1.62-4.6 2.795-6.736 1.566-.675-.388-1.205-.974-1.77-1.51-3.467-3.285-8.546-4.238-13.282-3.609-7.285.969-14.069 5.21-18.136 11.328-.74 1.114-1.409 2.334-1.505 3.668-.096 1.333.522 2.797 1.748 3.325 1.992.859 4.016-.993 5.529-2.546 3.885-3.987 9.445-7.226 14.827-5.794 4.79 1.274 8.399 5.997 13.349 6.198 3.012.121 5.885-1.564 7.844-3.853 1.783-2.08 3.633-4.993 6.34-4.57 2.115.33 3.537 2.04 5.098 3.508 3.341 3.14 7.143 5.967 11.558 7.209 4.415 1.243 9.539.664 12.974-2.374 2.509-2.22 3.866-5.47 4.667-8.723.278-1.13.495-2.326.163-3.44s-1.379-2.097-2.536-1.976c-.939.099-1.657.851-2.291 1.555-2.046 2.268-4.319 4.611-7.296 5.288-3.494.795-7.065-.913-9.989-2.98-2.26-1.598-5.462-4.463-7.641-6.171"/><path fill="#f673ff" d="M120.41 93.56c.335.085.64.256.908.473 1.253 1.017 7.788 5.925 16.387 5.266 9.585-.733 12.886-8.275 15.454-7.649 2.567.63-1.467 16.554-16.921 17.076s-18.856-11.191-18.018-13.708c.525-1.571 1.518-1.636 2.19-1.462z"/><path fill="#fff0cc" d="M109.808 72.714c-1.438 2.642-1.654 6.415.388 8.813 1.746 2.049 5.02 2.956 7.585 2.292 5.799-1.496 8.519-9.483 4.056-13.89-2.977-2.94-7.689-1.933-10.473.74a8.4 8.4 0 0 0-1.556 2.045M149.365 72.234c-1.438 2.643-1.655 6.415.388 8.814 1.746 2.048 5.02 2.956 7.585 2.292 5.799-1.497 8.519-9.483 4.056-13.89-2.977-2.94-7.689-1.933-10.474.739a8.4 8.4 0 0 0-1.555 2.045"/><path fill="#d09aff" d="m108.991 61.391-.11.172c-.291.465-.481 1.148-.23 1.668.239.492.854.712 1.398.648 1.317-.161 2.567-1.366 3.823-1.818 2.651-.95 4.94-.477 7.628-.145 1.322.163 3.014-.115 4.026-1.044 1.347-1.24.514-3.27-.915-4.016-.862-.453-1.853-.578-2.825-.661-4.733-.402-10.069 1.017-12.797 5.196z"/><path fill="#e4bc94" d="M101.098 173.889s-2.323 1.606-3.887 0c-1.56-1.606 10.348-10.897 16.318-11.384 5.971-.49 9.743 2.34 14.632 4.993s6.773.613 10.476-2.803c3.703-3.413 6.915-5.089 10.267-2.996 3.352 2.097 12.083 11.036 20.185 10.268 8.101-.769 10.615-7.272 10.615-7.272s-2.131 10.766-13.079 10.503c-4.398-.42-5.552-1.151-7.386-1.885-1.781-.332-7.684-5.22-7.684-5.22s-3.668-4.19-6.286-4.26c-2.619-.07-4.616 3.165-4.616 3.165s-3.869 5.392-7.85 5.322-6.286-1.711-6.286-1.711-5.912-3.788-7.639-4.208c-1.729-.421-4.556-1.468-9.48.942-2.83 1.861-4.846 3.406-4.846 3.406l-3.456 3.143z"/><path fill="#d09aff" d="M134.115 123.896q-.084.226-.153.447c-.498 1.641.038 3.421 1.537 4.353 1.652 1.026 3.585.902 4.782-.758 1.967-2.725 1.247-8.773-3.261-7.266-1.382.463-2.388 1.858-2.905 3.221zM133.786 139.29q-.085.226-.153.447c-.498 1.641.038 3.421 1.537 4.353 1.652 1.026 3.585.902 4.782-.757 1.967-2.726 1.247-8.774-3.261-7.267-1.382.463-2.389 1.858-2.905 3.221z"/><path fill="#e325e6" d="M123.692 100.105s3.318 4.286 9.184 5.333 14.58-.297 17.635-9.167c0 0-3.574 6.11-12.029 7.526-8.458 1.416-14.79-3.692-14.79-3.692"/><path stroke="#14041e" stroke-linecap="round" stroke-linejoin="round" stroke-width=".6" d="M93.38 166.323s-17.74.838-29.474 0-22.91-5.727-21.652-27.938c1.259-22.211 23.258-28.286 28.286-28.706s37.506 1.047 37.506 1.047c-15.295-7.963-22.545-37.978-10.476-58.46 13.828-23.466 43.862-22.558 43.862-22.558s-5.239 4.819-3.842 13.689c2.364 8.452 9.917 5.448 9.917 5.448s-2.096 10.616 4.399 13.13 11.593-4.75 11.593-4.75 3.544 8.12 8.939 7.333c5.657.105 7.055-6.216 7.055-6.216 15.087 31.707-10.79 50.076-10.79 50.076 48.401-6.916 61.846 3.421 66.735 15.994s-3.074 21.512-12.99 25.563-42.256 1.746-42.256 1.746c1.328 5.028 16.553 30.031 16.553 30.031s-2.583 1.85-1.502 4.575 3.947 2.758 3.947 2.758-2.672 5.604.907 8.38c2.619 2.027 5.797 1.885 5.797 1.885 2.514 4.399 19.697 49.699-18.648 50.111-38.344.415-45.816-39.287-45.816-39.287s-1.259 11.314-11.874 26.262c-10.616 14.947-40.23 18.299-49.03 3.352-8.8-14.948.07-38.762 3.213-45.049s13.566-40.909 13.566-40.909"/><path stroke="#14041e" stroke-linecap="round" stroke-linejoin="round" stroke-width=".6" d="M42.217 139.18s.6 12.894 15.127 14.851c14.527 1.955 39.67-.139 39.67-.139M141.433 29.71s3.981 3.633 4.329 3.877c0 0-3.248 2.619-2.619 6.39.63 3.773 5.063 4.19 8.102 3.597 0 0-3.735 12.773 1.973 14.503 5.711 1.729 13.025-7.537 13.025-7.537s-.367 7.804 4.383 8.854c4.749 1.05 6.356-4.19 6.356-4.19l2.514 3.143"/><path stroke="#14041e" stroke-linecap="round" stroke-linejoin="round" stroke-width=".6" d="M151.244 43.574s-2.444 3.352-3.737 5.274M163.501 57.228s1.711-4.924 2.742-6.688M76.904 219.874s-2.905 14.894 22.867 18.666 35.305-26.61 36.457-30.486c1.151-3.877 6.286-22.211 6.286-22.211s5.132 46.202 39.496 51.23c34.363 5.028 27.761-26.845 27.761-26.845"/><path stroke="#14041e" stroke-linecap="round" stroke-linejoin="round" stroke-width=".6" d="M141.433 210.185s.348-18.09 1.081-24.339M185.324 161.945s26.789 2.841 41.595-4.141c14.805-6.985 10.942-26.391 9.386-30.701M120.295 93.62c.335.086.64.258.907.474 1.253 1.018 7.789 5.925 16.388 5.267 9.585-.734 12.886-8.276 15.454-7.65 2.567.63-1.468 16.555-16.921 17.077-15.453.524-18.856-11.191-18.018-13.708.525-1.572 1.518-1.636 2.19-1.462z"/><path stroke="#14041e" stroke-linecap="round" stroke-linejoin="round" stroke-width=".6" d="M123.692 100.078s5.331 4.397 13.411 3.807c9.569-.698 13.411-7.611 13.411-7.611M150.436 155.78c-2.03-1.591-4.964-1.931-7.304-.852-2.236 1.034-3.756 3.13-5.612 4.752-1.855 1.623-4.599 2.795-6.736 1.567-.674-.389-1.204-.975-1.769-1.51-3.467-3.285-8.546-4.239-13.282-3.609-7.285.969-14.07 5.21-18.136 11.327-.74 1.114-1.409 2.335-1.505 3.668-.097 1.333.522 2.798 1.748 3.325 1.992.86 4.016-.993 5.529-2.546 3.884-3.986 9.445-7.226 14.827-5.793 4.789 1.274 8.398 5.997 13.349 6.197 3.012.121 5.884-1.563 7.844-3.852 1.783-2.08 3.633-4.993 6.34-4.57 2.115.329 3.537 2.04 5.098 3.507 3.341 3.14 7.143 5.968 11.558 7.21 4.414 1.242 9.539.664 12.974-2.375 2.508-2.219 3.866-5.47 4.666-8.722.279-1.13.496-2.327.164-3.441s-1.379-2.096-2.536-1.976c-.94.099-1.657.852-2.292 1.556-2.045 2.268-4.318 4.61-7.295 5.288-3.494.795-7.066-.913-9.989-2.98-2.26-1.599-5.462-4.463-7.641-6.171M134 123.957q-.085.226-.153.447c-.498 1.642.037 3.422 1.537 4.354 1.652 1.025 3.585.902 4.781-.758 1.968-2.725 1.248-8.774-3.261-7.266-1.381.463-2.388 1.858-2.904 3.221zM133.67 139.352q-.084.226-.152.447c-.498 1.641.037 3.422 1.537 4.353 1.652 1.026 3.585.902 4.781-.757 1.968-2.726 1.248-8.774-3.261-7.267-1.381.463-2.388 1.858-2.905 3.221zM109.696 72.778c-1.438 2.642-1.655 6.414.388 8.813 1.746 2.049 5.02 2.956 7.585 2.292 5.799-1.496 8.519-9.483 4.056-13.89-2.977-2.94-7.689-1.933-10.474.74a8.4 8.4 0 0 0-1.555 2.045"/><path stroke="#14041e" stroke-linecap="round" stroke-linejoin="round" stroke-width=".6" d="M111.779 73.59c-1.007 1.85-1.157 4.492.273 6.17 1.221 1.435 3.515 2.07 5.312 1.607 4.061-1.05 5.965-6.64 2.84-9.727-2.086-2.059-5.384-1.355-7.336.517a5.9 5.9 0 0 0-1.089 1.432M151.052 73.212c-1.007 1.85-1.157 4.492.273 6.17 1.221 1.436 3.515 2.07 5.312 1.607 4.061-1.05 5.965-6.64 2.841-9.727-2.086-2.058-5.384-1.354-7.336.517-.437.42-.803.905-1.09 1.433"/><path stroke="#14041e" stroke-linecap="round" stroke-linejoin="round" stroke-width=".6" d="M149.25 72.296c-1.438 2.642-1.655 6.414.388 8.813 1.745 2.049 5.02 2.956 7.585 2.292 5.799-1.496 8.519-9.483 4.056-13.89-2.977-2.94-7.69-1.933-10.474.74a8.4 8.4 0 0 0-1.555 2.045M108.876 61.453l-.11.171c-.292.466-.482 1.149-.23 1.668.238.493.854.712 1.398.648 1.317-.16 2.567-1.365 3.823-1.818 2.65-.95 4.939-.476 7.627-.145 1.323.164 3.015-.115 4.027-1.044 1.347-1.24.514-3.269-.916-4.016-.862-.452-1.852-.578-2.824-.66-4.734-.402-10.069 1.017-12.798 5.196zM107.851 110.713c.109.026.356.099.452.043s.19-.124.297-.153c.233-.062.471.08.712.08.185 0 .373-.083.549-.027.043.014.083.035.129.049.104.026.219-.011.316.032M164.855 108.659c.183.094.389.193.581.129.129-.043.223-.15.34-.217.169-.097.373-.102.568-.105l1.009-.016c.193-.002.394-.008.568-.096.051-.027.099-.059.155-.064.065-.006.126.024.185.045.169.067.353.091.53.067"/></svg>