<svg xmlns="http://www.w3.org/2000/svg" fill="none" viewBox="0 0 280 280"><g clip-path="url(#a)"><path fill="#A238FF" d="m126.59 122.785-1.894.737-22.164 8.523-54.19 21.076-29.223 11.813s-14.442 5.304-16.52 9.756c-2.148 3.623-3.494 6.007-1.024 10.81 2.494 4.849 8.292 5.205 9.275 5.254.983.049 10.256-.068 10.256-.068l25.083-1.093s14.456-.601 17.26.438c3.127.678 2.788 1.748 2.854 2.621.068.874.01 2.545.01 2.545s-1.537 10.977-3.671 19.652c-1.894 8.41-2.939 14.135-2.939 14.135l-2.259 11.215s-2.492 14.357-2.57 20.898c-.08 6.541.903 9.156.903 9.156s2.01 5.213 7.728 4.286c5.719-.928 11.215-6.981 11.215-6.981s1.054-1.052 4.016-4.974c2.962-3.923 9.32-16.604 9.32-16.604l19.217-38.245 17.755-35.623s12.269-24.442 14.655-28.456c2.387-4.013 3.383-5.382 4.758-6.77 1.374-1.388 4.665-4.681 16.011-14.841 11.346-10.161 16.058-13.636 16.058-13.636l35.872-29.407 16.462-13.122 2.02-1.604s.54-.373 1.135-.258c.595.115 5.274 2.237 6.605 2.273 1.331.037 6.43 1.618 10.56-2.294 4.131-3.91 6.455-12.204 6.455-12.204l2.56-8.532 1.627-6.933s.335-2.311 1.168-3.403 1.772-2.883 2.696-.261c.923 2.621.666 8.86 7.41 9.155 1.68-.216 3.138-.327 5.602-3.014 2.464-2.689 3.438-7.37 2.205-10.693-1.232-3.323-4.049-5.482-4.049-5.482s-2.392-1.865-6.306-2.29c-3.914-.424-8.383-.529-8.383-.529l-4.494.167s-4.649.482-6.914.635c-2.265.152-7.886 1.298-9.795 1.512-1.91.214-8.314 1.836-8.314 1.836s-6.579 1.97-7.485 2.375c-.906.406-2.617 1.24-3.129 2.129-.512.89-.994 1.96-.994 1.96s-.42 1.628-.808 5.016c-.388 3.388.035 7.675.035 7.675l.412 4.7.266 2.258-4.593 3.682-41.852 33.282-31.105 24.697-6.897 5.651s-7.316 5.345-7.889 5.403l-.003-.004Z"/><path fill="#FFD3A4" d="M140.748 112.48s4.037 6.784 6.199 9.619a163.12 163.12 0 0 0 4.444 5.537l1.048 1.19.285.154s11.017-9.905 23.785-20.568c12.767-10.662 35.364-29.06 37.38-30.736 2.016-1.675 16.352-12.92 16.352-12.92l.363-.32s-1.359-2.943-5.773-8.018c-4.414-5.076-5.903-6.344-5.903-6.344l-20.196 16.16-34.86 27.71-23.121 18.539-.003-.003Z"/><path fill="#E4A685" d="M221.617 13.215s1.556-.813 3.164-.822c4.078-.024 4.919 4.077 1.718 7.496-2.081 2.502-.794 5.5-.794 5.5l-2.291.806-1.795-12.981-.002.001ZM234.169 9.518s1.556-.813 3.164-.822c4.079-.024 4.92 4.077 1.719 7.496-2.081 2.502-.636 6.035-.636 6.035l-2.633.524-1.612-13.234-.002.001ZM246.892 7.27s1.557-.814 3.165-.823c4.078-.024 4.919 4.077 1.718 7.496-2.081 2.502-.653 6.406-.653 6.406l-3.514.412-.712-13.49-.004-.002ZM259.969 6.326s1.557-.814 3.165-.822c4.078-.025 4.919 4.076 1.718 7.495-2.081 2.502-.603 6.897-.603 6.897l-3.001-.282-1.277-13.286-.002-.002Z"/><path fill="#FFD3A4" d="M222.182 26.497s-.453-3.868-1.012-4.443c-.559-.576-2.26.53-3.752-1.57-1.496-2.103 1.426-7.13 5.483-7.562 4.056-.43 4.939 3.277 1.736 6.697-2.081 2.502-.814 6.3-.814 6.3M234.734 22.796s-.453-3.867-1.012-4.443c-.56-.575-2.26.531-3.752-1.57-1.496-2.103 1.426-7.13 5.483-7.561 4.056-.431 4.938 3.276 1.735 6.697-2.081 2.501-.765 6.517-.765 6.517M247.456 20.551s-.454-3.867-1.013-4.443c-.559-.575-2.26.532-3.752-1.57-1.495-2.102 1.427-7.13 5.483-7.56 4.056-.432 4.939 3.275 1.736 6.696-2.081 2.501-.634 6.73-.634 6.73M260.533 19.605s-.453-3.867-1.013-4.443c-.559-.575-2.26.531-3.752-1.57-1.495-2.102 1.427-7.13 5.483-7.561 4.057-.431 4.939 3.276 1.736 6.697-2.081 2.501-.663 6.958-.663 6.958"/><path fill="#D09AFF" d="M65.599 174.111s-1.67.547-.943 1.777c.731 1.231 11.804 19.082 11.804 19.082l5.754 8.027s1.398 1.388 2.463-.068c1.069-1.455 1.248-3.477 1.248-3.477s.71-5.515-.098-7.304c-.808-1.789-3.508-4.569-3.508-4.569s-4.604-7.058-6.402-8.953c-1.638-1.948-2.139-2.8-2.761-2.893-.623-.093-6.347-3.517-7.564-1.623l.007.001ZM72.324 241.255c.023.671.158 1.36.396 2.025.97 2.709 3.652 4.387 6.475 3.371 2.573-.928 3.708-3.795 3.015-6.343-.742-2.717-3.854-4.135-6.515-3.603-2.406.48-3.444 2.43-3.37 4.552l-.001-.002ZM81.715 223.408c.022.672.157 1.361.395 2.025.97 2.71 3.652 4.387 6.476 3.371 2.573-.928 3.708-3.795 3.014-6.342-.741-2.718-3.853-4.136-6.515-3.604-2.406.48-3.444 2.43-3.37 4.552v-.002Z"/><path fill="#C01FC3" d="M70.476 239.26c.023.672.158 1.361.396 2.025.97 2.71 3.652 4.388 6.475 3.371 2.573-.927 3.709-3.794 3.015-6.342-.742-2.718-3.853-4.136-6.515-3.604-2.406.48-3.444 2.43-3.37 4.552v-.002Z"/><path fill="#F673FF" d="M72.877 239.426c.012.351.083.713.206 1.059.508 1.418 1.913 2.296 3.389 1.765 1.347-.485 1.94-1.986 1.577-3.32-.388-1.423-2.017-2.165-3.41-1.888-1.26.252-1.801 1.273-1.763 2.382v.002Z"/><path fill="#C01FC3" d="M79.427 220.884a6.74 6.74 0 0 0 .396 2.025c.97 2.709 3.652 4.387 6.476 3.371 2.573-.928 3.708-3.795 3.014-6.343-.742-2.717-3.853-4.136-6.515-3.604-2.406.48-3.444 2.431-3.37 4.553v-.002Z"/><path fill="#F673FF" d="M81.826 221.049c.012.351.083.713.206 1.06.508 1.417 1.913 2.295 3.389 1.765 1.347-.486 1.94-1.987 1.577-3.321-.388-1.422-2.017-2.164-3.41-1.887-1.259.251-1.8 1.272-1.763 2.381l.001.002Z"/><path fill="#D09AFF" d="M218.928 50.072s-1.371-8.885-.805-13.592c.566-4.708.305-4.484.928-5.933.622-1.45 1.113-2.125 1.113-2.125s-1.008 11.885 5.229 21.655c6.238 9.773 16.162 11.937 21.065 8.825 4.902-3.112 10.866-12.784 10.866-12.784s-4.085 17.802-11.228 19.84c-6.7 2.44-13.809-1.957-13.809-1.957s-1.015-.016-1.685.434c0 0-2.037-3.631-5.031-7.149-2.994-3.517-4.951-5.386-4.951-5.386l-1.696-1.825.004-.003Z"/><path fill="#F673FF" d="M64.897 174.255s-.3.54.43 1.77c.73 1.231 10.443 15.648 10.443 15.648l5.755 8.027s1.397 1.388 2.462-.068c1.069-1.455 1.248-3.477 1.248-3.477s1.121-3.505.314-5.293c-.808-1.789-3.919-6.578-3.919-6.578s-4.603-7.058-6.402-8.953c-1.637-1.948-2.138-2.8-2.76-2.893-.623-.093-6.356-.075-7.572 1.815l.001.002Z"/><path fill="#C01FC3" d="M71.809 172.409s-4.436 1.035-2.477 4.44c1.959 3.405 11.497 17.783 12.94 18.804 1.441 1.02 3.464-2.371 3.464-2.371s-.445 7.222-3.188 7.018c0 0-.395.527-2.804-2.955-2.408-3.483-13.22-19.473-13.22-19.473s-2.338-2.575-1.546-3.536c.793-.962 1.703-1.165 1.703-1.165s1.043-.343 2.274-.524c1.23-.18 2.85-.239 2.85-.239l.004.001Z"/><path fill="#FFFFE9" d="m21.399 163.98-14.48 24.39s3.41.418 8.99.096l5.582-.323s-3.68-1.796-4.245-4.088c-.564-2.291 6.416-18.076 7.927-19.78 1.512-1.704 6.519-4.426 6.519-4.426l-10.293 4.128v.003ZM13.894 167.196S3.168 185.17 1.573 185.501c0 0 1.44 1.304 2.761 1.869 0 0 10.78-19.857 13.797-21.921l-4.235 1.746-.002.001Z"/><path fill="#D09AFF" d="M57.378 272.846s6.274 2.794 14.97-6.132c6.843-7.023 23.352-39.833 28.872-51.32 5.52-11.487 20.049-40.21 23.274-46.99 3.226-6.78 14.76-26.457 17.441-29.931 2.682-3.474 10.108-10.229 10.108-10.229l.68.732s-8.661 7.851-10.743 10.838c-2.084 2.988-8.012 14.546-8.012 14.546l-13.09 25.962-11.723 23.436-9.653 19.433-10.496 21.039-8.204 15.182s-5.512 9.677-12.02 13.048c-6.507 3.372-8.493 2.427-11.407.386h.003ZM221.556 27.068s3.851 3.507 5.725 3.229c1.874-.279 25.906-9.076 35.804-8.634 9.898.442 14.075 2.5 16.231 8.165 0 0-.339-4.6-5.303-7.734-4.966-3.133-16.616-2.41-21.757-1.856-5.14.557-16.784 2.293-21.169 3.605-4.386 1.313-8.289 2.21-9.532 3.223l.001.002Z"/><path fill="#FFE4CC" d="m159.785 97.1-.673 26.086 9.398-8.26-1.001-23.986-7.724 6.16ZM169.723 89.201l.888 24.053 2.282-1.915-.412-24.304-2.758 2.166ZM210.794 56.734l3.094 20.94 6.635-5.16-4.208-20.321-5.521 4.541Z"/><path fill="#6E14BD" d="m6.92 188.369 1.702 2.109s8.488.666 12.715.263c4.227-.399 5.615-.383 5.615-.383s-4.65.652-5.46-2.216l-7.224.369s-6.302.52-7.348-.142ZM52.922 189.286s2.152-.389 2.357-1.014c.205-.626-1.828-1.08-1.828-1.08s12.779-.074 14.299 2.682c1.52 2.755.848 3.36-.223 8.789-1.07 5.429-1.367 6.304-1.367 6.304s.53-4.12-.031-4.534c-.563-.414-.854 1.761-.854 1.761s1.941-9.441.588-11.118c-1.353-1.678-12.94-1.789-12.94-1.789l-.001-.001Z"/><path fill="#FCB2FF" d="M79.048 180.723s-3.45-5.775-4.963-5.917c-1.514-.141 8.515 14.847 10.225 15.041 1.709.193-5.26-9.125-5.26-9.125l-.002.001Z"/><path fill="#FFE4CC" d="M217.456 17.683c-.077.851.183 1.723.683 2.416.114.158.249.314.429.393.167.074.355.074.538.057.168-.015.337-.048.493-.112 1.035-.417 1.333-1.503 1.228-2.528-.083-.822-.484-2.603-1.46-2.808-.329-.069-.672.089-.909.325-.279.277-.457.658-.636 1.005-.198.39-.323.815-.364 1.25l-.002.002ZM229.958 14.01c-.077.851.183 1.723.683 2.416.114.159.249.314.429.394.167.073.355.073.538.057.168-.016.337-.049.493-.113 1.035-.417 1.333-1.502 1.228-2.528-.083-.821-.484-2.603-1.46-2.808-.329-.068-.672.09-.909.326-.279.276-.457.657-.636 1.005-.198.39-.323.814-.364 1.25l-.002.002ZM242.729 11.834c-.077.85.183 1.722.683 2.415.114.159.249.315.429.394.168.074.356.073.538.057.169-.016.338-.048.494-.112 1.034-.417 1.333-1.503 1.227-2.528-.083-.822-.484-2.603-1.459-2.808-.33-.069-.672.089-.91.325-.278.276-.457.658-.635 1.005-.198.39-.324.815-.365 1.25l-.002.002ZM255.818 10.911c-.077.851.183 1.723.683 2.416.114.158.249.314.429.393.167.074.355.074.538.057.169-.015.337-.048.493-.112 1.035-.417 1.334-1.502 1.228-2.528-.083-.821-.484-2.603-1.46-2.808-.329-.069-.671.089-.909.325-.278.277-.457.658-.635 1.006-.199.389-.324.814-.365 1.25l-.002.001Z"/><path stroke="#14041E" stroke-linecap="round" stroke-linejoin="round" stroke-width=".353" d="M173.477 86.237c.571-.453 25.489-20.23 26.058-20.68M174.04 85.772c-17.858 14.18-34.852 27.7-37.613 29.991-6.134 5.089-10.058 7.138-10.058 7.138s-9.825 3.745-23.813 9.127L48.333 153.18"/><path stroke="#14041E" stroke-linecap="round" stroke-linejoin="round" stroke-width=".353" d="M176.473 108.36c-16.79 14.099-31.509 27.074-34.557 31.541-6.853 10.044-49.408 99.188-60.416 118.324-11.008 19.137-25.175 20.769-26.457 8.951-2.182-20.152 14.06-71.433 10.94-75.993-3.121-4.561-49.793 1.263-57.89-.786-8.096-2.048-12.711-13.47.873-20.905 3.996-2.186 20.192-8.784 39.337-16.353"/><path stroke="#14041E" stroke-linecap="round" stroke-linejoin="round" stroke-width=".353" d="M199.496 65.576c11.278-8.942 19.475-15.437 19.475-15.437s-2.912-18.39 1.739-22.465c4.652-4.075 44.945-12.153 54.123-5.044 9.178 7.108 2.645 18.87-3.243 19.179-5.887.31-7.215-5.329-7.872-8.897-.656-3.569-3.238-.166-3.782 2.736-.544 2.901-5.025 23.968-11.334 28.88-6.308 4.912-15.002-.075-16.216-.433-1.213-.36-2.054.586-2.054.586-3.84 2.964-45.81 37.25-54.008 43.846"/><path stroke="#14041E" stroke-linecap="round" stroke-linejoin="round" stroke-width=".353" d="M222.182 26.497s-.453-3.868-1.012-4.443c-.559-.576-2.26.53-3.752-1.57-1.496-2.103 1.426-7.13 5.483-7.562 4.056-.43 4.939 3.277 1.736 6.697-2.081 2.502-.814 6.3-.814 6.3M64.94 175.526s15.43 23.421 16.94 24.495c2.983 2.125 4.146-6.541 3.866-8.579-.28-2.039-11.89-18.92-13.268-18.981-1.38-.059-8.801.182-7.535 3.065h-.004ZM1.419 185.224s2.977 3.688 9.566 3.532c6.588-.156 49.091-3.182 55.016-.149 3.858 1.563 2.345 6.037 2.057 7.574-.288 1.538-12.64 57.22-13.218 67.128M70.4 239.176c.023.671.158 1.36.396 2.025.97 2.709 3.652 4.387 6.475 3.371 2.573-.928 3.709-3.795 3.015-6.343-.742-2.717-3.854-4.136-6.515-3.604-2.406.48-3.444 2.431-3.37 4.553l-.001-.002Z"/><path stroke="#14041E" stroke-linecap="round" stroke-linejoin="round" stroke-width=".353" d="M72.8 239.342c.013.351.084.713.207 1.059.507 1.418 1.912 2.296 3.388 1.765 1.348-.486 1.94-1.986 1.578-3.321-.389-1.422-2.017-2.164-3.41-1.887-1.26.251-1.801 1.272-1.764 2.382l.002.002ZM79.35 220.796c.022.672.157 1.361.395 2.025.97 2.71 3.652 4.388 6.475 3.371 2.573-.927 3.709-3.794 3.015-6.342-.742-2.718-3.853-4.136-6.515-3.604-2.406.48-3.444 2.431-3.37 4.552v-.002Z"/><path stroke="#14041E" stroke-linecap="round" stroke-linejoin="round" stroke-width=".353" d="M81.752 220.962c.012.351.083.713.206 1.059.508 1.418 1.913 2.296 3.389 1.765 1.347-.486 1.94-1.986 1.577-3.321-.388-1.422-2.017-2.164-3.41-1.887-1.26.252-1.801 1.272-1.763 2.382v.002ZM221.094 52.592s-8.575 6.606-19.933 15.5L174.33 89.36"/><path stroke="#14041E" stroke-linecap="round" stroke-linejoin="round" stroke-width=".353" d="M99.4 152.174c16.737-13.958 46.969-39.246 55.107-46.382 5.055-4.434 12.632-10.656 20.88-17.289"/><path stroke="#14041E" stroke-linecap="round" stroke-linejoin="round" stroke-width=".353" d="M73.677 173.508s11.524-9.526 26.105-21.652M203.274 71.164c11.444-9.096 20.207-15.964 20.207-15.964M102.216 155.666l13.743-11.613c16.298-13.817 33.237-28.243 41.184-35.209 4.932-4.323 10.651-9.089 18.635-15.586l27.933-22.43M76.677 177.259s11.657-9.824 26.342-22.248M226.21 58.354s-8.735 6.938-20.185 16.146l-32.113 26.125M174.75 99.955c-5.602 4.64-10.599 8.852-14.291 12.087-7.819 6.856-24.244 21.412-40.181 35.561l-13.251 11.758M80.634 182.832s15.439-13.719 27.103-24.086M208.784 77.35c11.388-9.045 20.061-15.837 20.061-15.837M209.139 77.094c-4.879 4.026-43.087 34.951-46.374 37.833-7.879 6.91-24.166 22.222-39.846 37.122l-9.735 9.229M84.546 188.759s13.126-12.648 28.941-27.734"/><path stroke="#14041E" stroke-linecap="round" stroke-linejoin="round" stroke-width=".353" d="M218.972 50.139s8.596 8.404 11.666 14.28M146.334 107.808s4.718 8.28 11.855 16.232M140.583 112.593s4.718 8.28 11.855 16.232M152.009 103.342s4.645 7.857 11.785 15.809M157.736 98.73s4.547 7.693 11.686 15.646M163.522 94.178s4.313 7.474 11.45 15.426M169.461 89.555s7.176 10.489 11.484 15.098M175.936 84.412s7.175 10.489 11.484 15.098M203.436 62.507s3.965 6.68 11.143 14.637M197.085 67.662s3.966 6.68 11.144 14.637M189.321 73.829s4.16 6.899 11.477 15.245M182.594 79.002s4.16 6.899 11.476 15.245M208.862 58.231s3.912 6.61 11.092 14.57M214.086 54.012s6.369 6.774 11.143 14.637M221.618 13.215s1.556-.813 3.164-.822c4.078-.024 4.919 4.077 1.718 7.496-2.081 2.502-.794 5.5-.794 5.5M234.734 22.796s-.453-3.867-1.012-4.443c-.56-.575-2.26.531-3.752-1.57-1.496-2.103 1.426-7.13 5.483-7.561 4.056-.431 4.938 3.276 1.735 6.697-2.081 2.501-.765 6.517-.765 6.517"/><path stroke="#14041E" stroke-linecap="round" stroke-linejoin="round" stroke-width=".353" d="M234.169 9.518s1.556-.814 3.164-.822c4.078-.024 4.919 4.077 1.718 7.496-2.081 2.501-.635 6.035-.635 6.035M247.456 20.551s-.454-3.867-1.013-4.443c-.559-.575-2.26.532-3.752-1.57-1.495-2.102 1.427-7.13 5.483-7.56 4.056-.432 4.939 3.275 1.736 6.696-2.081 2.501-.634 6.73-.634 6.73"/><path stroke="#14041E" stroke-linecap="round" stroke-linejoin="round" stroke-width=".353" d="M246.892 7.27s1.556-.814 3.165-.822c4.078-.025 4.919 4.076 1.718 7.495-2.081 2.502-.653 6.407-.653 6.407M260.533 19.605s-.453-3.867-1.013-4.443c-.559-.575-2.26.531-3.752-1.57-1.495-2.102 1.427-7.13 5.483-7.561 4.057-.431 4.939 3.276 1.736 6.697-2.081 2.501-.663 6.958-.663 6.958"/><path stroke="#14041E" stroke-linecap="round" stroke-linejoin="round" stroke-width=".353" d="M259.97 6.326s1.556-.814 3.165-.822c4.078-.024 4.919 4.077 1.718 7.496-2.081 2.501-.603 6.896-.603 6.896"/></g><defs><clipPath id="a"><path fill="#fff" d="M0 0h280v280H0z"/></clipPath></defs></svg>