<svg xmlns="http://www.w3.org/2000/svg" fill="none" viewBox="0 0 280 280"><path fill="#96F9F3" stroke="#14041E" stroke-linecap="round" stroke-linejoin="round" stroke-width=".604" d="M125.274 133.94s8.72-4.381 8.109-.141c-.465 3.235-10.921 11.614-15.883 11.062-4.961-.553 3.088-9.707 7.774-10.921ZM56.22 69.963s2.379-9.73 5.365-11.87c2.922-2.094 7.68 4.628 7.075 13.78-.606 9.151-11.338 5.091-12.44-1.91ZM70.533 75.786s-.276-12.293 2.536-14.662c2.811-2.37 8.655 5.015 8.05 14.166-.606 9.152-9.482 7.498-10.586.496ZM27.645 88.006s1.102-12.459 4.483-13.158c3.381-.698 3.837 10.53 3.72 12.578-.12 2.048-5.52 7.303-8.205.577l.002.003ZM41.364 77.874s1.102-12.459 4.483-13.158c3.38-.698 4.987 10.667 4.868 12.716-.118 2.048-6.669 7.165-9.354.442h.003Z"/><path fill="#FFC49F" d="M128.84 132.554c-.662-4.629-10.143-10.143-20.616-3.748-10.473 6.396-17.75 20.616-17.75 20.616s-1.325-24.585-3.97-39.138c-2.646-14.552-3.088-37.927-8.16-40.902-3.282-1.927-6.976-.662-9.208 4.53v-.005c.27-5.505-4.02-15-12.07-9.6-4.41 2.962-5.688 11.133-5.942 17.918-.468-6.084-1.6-10.296-4.054-10.899-7.261-1.78-8.577 6.48-8.82 11.837-.11 2.389-.349 7.165-.566 11.397-.014-8.735-2.028-13.6-6.784-12.648-5.88 1.175-6.982 10.951-7.717 24.915-.736 13.966-3.933 23.96-4.483 48.546-.552 24.585 5.954 34.802 8.895 39.065 2.939 4.263 4.091 9.836 4.091 9.836l.335 31.959c.2 8.08.516 15.217 1.015 15.682 1.175 1.102 5.843 4.888 26.13 4.888 20.285 0 29.547-3.637 32.192-6.945 1.307-1.634 1.913-7.568 2.127-14.203l-.766-30.922c-.101-4.66-.06-8.391.183-9.118.44-1.324 8.709-7.937 10.695-19.733 1.984-11.797 7.056-26.02 13.119-29.768 6.063-3.747 12.789-8.931 12.126-13.56h-.002Z"/><path fill="#96F9F3" d="M31.414 203.344s-2.792.36-2.423 5.579c.366 5.218.217 24.475 2.423 26.681 2.206 2.207 12.938 10.143 35.427 7.937 22.49-2.206 27.49-8.086 28.373-10.289.881-2.206.293-23.814 0-26.167-.293-2.352-2.207-3.741-2.207-3.741s-.735 13.589-28.995 15.096c-28.964 1.544-31.902-12.755-32.598-15.096Z"/><path fill="#DC9160" d="M29.799 134.605s3.305-14.662 3.637-27.341c.333-12.68-.482-25.09.533-25.003 1.011.088 3.75 3.654 3.73 12.042-.073 4.308-.789 15.883-.789 15.883s-.715 17.53 6.45 18.136c7.165.606 4.409-20.433 4.851-31.018.443-10.585.364-23.684 1.587-22.71 1.222.973 1.493 20.769 1.276 33.774-.217 13.009 6.06 21.512 9.484 17.198 5.514-6.945 2.487-45.043 3.86-53.03 1.372-7.989 3.062-6.817 3.809-4.01a31.41 31.41 0 0 1 .913 5.381s-2.012 4.582-2.043 13.953c-.03 9.37.741 32.635.741 32.635v9.329l-1.175.152s-19.767-.023-36.858 5.004M66.068 173.303s6.1-16.612 13.598-28.223c7.497-11.613 5.88-39.836 5.88-39.836s3.787 20.962 3.803 28.527c.525 6.545 1.012 12.414 1.012 12.414l.113 3.24s-16.026 4.919-24.403 23.881l-.003-.003ZM48.686 256.322s-7.018-1.654-7.388-6.946c-.369-5.291 10.301-5.9 10.301-5.9s-6.426-.225-12.755-3.282c-6.328-3.057-6.826-3.959-6.826-3.959l.608 10.045s-.07 5.021.406 5.641c.476.617 2.057 2.014 6.872 3.152 4.815 1.139 8.782 1.249 8.782 1.249Z"/><path fill="#79DDEC" d="M29.604 225.098s.482-9.385 2.415-10.563c1.933-1.178 4.945 3.97 18.173 5.953 13.231 1.984 30.316.074 38.862-6.688 8.546-6.762 5.246-9.067 5.246-9.067l-1.124-1.257s-.132 7.052-13.18 12.087C66.95 220.598 51 217.843 51 217.843s-8.859-.989-12.865-4.815c-4.004-3.827-4.683-4.559-5.32-5.948-.636-1.386-1.406-3.742-1.406-3.742s-2.36.764-2.456 4.655c-.096 3.893.453 8.247.453 8.247l.195 8.852.002.006Z"/><path fill="#96F9F3" stroke="#14041E" stroke-linecap="round" stroke-linejoin="round" stroke-width=".604" d="M155.258 133.94s-8.721-4.381-8.109-.141c.465 3.235 10.921 11.614 15.882 11.062 4.962-.553-3.088-9.707-7.773-10.921ZM223.848 69.963s-2.378-9.73-5.364-11.87c-2.922-2.094-6.283 2.583-7.075 13.78-.648 9.148 11.338 5.091 12.439-1.91ZM209.668 72.755s.605-9.261-2.206-11.631c-2.812-2.37-8.656 5.015-8.05 14.166.606 9.152 9.151 4.466 10.253-2.535h.003ZM252.885 88.006s-1.102-12.459-4.483-13.158c-3.381-.698-3.837 10.53-3.719 12.578.119 2.048 5.52 7.303 8.205.577l-.003.003ZM238.936 77.31c.135 1.53-1.237-12.487-4.483-13.157-3.381-.699-4.987 10.667-4.869 12.715.119 2.049 6.669 7.165 9.354.443h-.002Z"/><path fill="#FFC49F" d="M151.693 132.554c.662-4.629 10.143-10.143 20.615-3.748 10.473 6.396 17.751 20.616 17.751 20.616s1.324-24.585 3.97-39.138c2.645-14.552 3.088-37.927 8.159-40.902 3.283-1.927 6.976-.662 9.208 4.53v-.005c-.271-5.505 4.02-15 12.07-9.6 4.409 2.962 5.689 11.133 5.942 17.918.468-6.084 1.6-10.296 4.055-10.899 7.26-1.78 8.576 6.48 8.818 11.837.11 2.389.35 7.165.567 11.397.014-8.735 2.028-13.6 6.784-12.648 5.88 1.175 6.982 10.951 7.717 24.915.736 13.966 3.934 23.96 4.483 48.546.552 24.585-5.953 34.802-8.895 39.065-2.938 4.263-4.091 9.836-4.091 9.836l-.335 31.959c-.2 8.08-.516 15.217-1.014 15.682-1.175 1.102-5.844 4.888-26.13 4.888-20.286 0-29.547-3.637-32.193-6.945-1.307-1.634-1.913-7.568-2.127-14.203l.766-30.922c.102-4.66.059-8.391-.183-9.118-.44-1.324-8.709-7.937-10.695-19.733-1.984-11.797-7.055-26.02-13.119-29.768-6.063-3.747-12.788-8.931-12.126-13.56h.003Z"/><path fill="#96F9F3" d="M249.119 203.344s2.792.36 2.423 5.579c-.366 5.218-.217 24.475-2.423 26.681-2.206 2.207-12.938 10.143-35.428 7.937-22.492-2.206-27.49-8.086-28.372-10.289-.882-2.206-.293-23.814 0-26.167.293-2.352 2.206-3.741 2.206-3.741s.736 13.589 28.995 15.096c28.964 1.544 31.903-12.755 32.599-15.096Z"/><path fill="#DC9160" d="M250.735 134.605s-3.305-14.662-3.638-27.341c-.332-12.68.482-25.09-.532-25.003-1.015.088-3.751 3.654-3.731 12.042.073 4.308.789 15.883.789 15.883s.716 17.53-6.449 18.136c-7.165.606-4.41-20.433-4.852-31.018-.442-10.585-.363-23.684-1.586-22.71-1.223.973-1.494 20.769-1.277 33.774.217 13.006-6.06 21.512-9.483 17.198-5.514-6.945-2.488-45.043-3.86-53.03-1.372-7.989-3.063-6.817-3.81-4.01-.743 2.806-.912 5.381-.912 5.381s2.011 4.582 2.042 13.953c.031 9.37-.741 32.635-.741 32.635v9.329l1.175.152s19.768-.023 36.859 5.004M214.464 173.303s-6.1-16.612-13.597-28.223c-7.498-11.613-5.881-39.836-5.881-39.836s-3.786 20.962-3.803 28.527c-.524 6.545-1.012 12.414-1.012 12.414l-.112 3.24s16.026 4.919 24.402 23.881l.003-.003ZM231.845 256.322s7.018-1.654 7.387-6.946c.37-5.291-10.3-5.9-10.3-5.9s6.426-.225 12.755-3.282c6.328-3.057 6.826-3.959 6.826-3.959l-.608 10.045s.07 5.021-.406 5.641c-.476.619-2.057 2.014-6.872 3.152-4.815 1.139-8.782 1.249-8.782 1.249Z"/><path fill="#79DDEC" d="M250.928 225.098s-.482-9.385-2.415-10.563c-1.93-1.175-4.945 3.97-18.173 5.953-13.231 1.984-30.316.074-38.862-6.688-8.545-6.762-5.246-9.067-5.246-9.067l1.124-1.257s.132 7.052 13.18 12.087c13.046 5.035 28.995 2.28 28.995 2.28s8.859-.989 12.865-4.815c4.004-3.827 4.683-4.559 5.32-5.948.636-1.386 1.406-3.742 1.406-3.742s2.361.764 2.457 4.655c.095 3.893-.454 8.247-.454 8.247l-.195 8.852-.002.006Z"/><path stroke="#14041E" stroke-linecap="round" stroke-linejoin="round" stroke-width=".604" d="M92.716 204.736c-.101-4.66-.059-8.391.183-9.118.443-1.324 8.709-7.937 10.696-19.734 1.983-11.797 7.055-26.019 13.121-29.767 6.063-3.747 12.789-8.931 12.126-13.56-.662-4.63-10.143-10.143-20.615-3.748-10.473 6.396-17.75 20.616-17.75 20.616s-1.325-24.586-3.97-39.138c-2.646-14.553-3.089-37.927-8.16-40.902-5.072-2.978-11.135 1.654-11.245 16.649-.11 14.995 1.212 33.652.882 43.795M32.018 236.235c.2 8.081.515 15.218 1.014 15.683 1.175 1.101 5.843 4.888 26.13 4.888 20.286 0 29.547-3.637 32.193-6.945 1.307-1.634 1.913-7.568 2.127-14.203M37.262 133.16s-.998-18.835.107-31.771c1.101-12.935-.59-20.652-6.47-19.477-5.88 1.175-6.981 10.951-7.717 24.915-.735 13.966-3.933 23.96-4.482 48.546-.55 24.585 5.953 34.802 8.895 39.065 2.938 4.263 4.09 9.833 4.09 9.833"/><path stroke="#14041E" stroke-linecap="round" stroke-linejoin="round" stroke-width=".604" d="M31.414 203.344s-2.792.36-2.423 5.579c.366 5.218.217 24.475 2.423 26.681 2.206 2.207 12.938 10.143 35.427 7.937 22.49-2.206 27.49-8.086 28.373-10.289.881-2.206.293-23.814 0-26.167-.293-2.352-2.207-3.741-2.207-3.741s-.735 13.589-28.995 15.096c-28.964 1.544-31.902-12.755-32.598-15.096ZM37.262 102.711s.766-14.694.989-19.549c.242-5.353 1.56-13.617 8.819-11.836 7.79 1.91 2.279 40.279 4.338 59.241"/><path stroke="#14041E" stroke-linecap="round" stroke-linejoin="round" stroke-width=".604" d="M51.4 92.477s-2.384-22.765 5.665-28.17c8.05-5.4 12.34 4.092 12.07 9.6M29.799 134.98s31.31-7.937 42.263-4.117M27.593 194.44s4.556 8.233 15.141 12.643"/><path fill="#A238FF" d="M133.068 35.043c-.035-3.346.119-6.97 2.213-9.578 1.292-1.61 3.238-2.651 5.279-2.966 1.867-.29 3.891.04 5.382 1.204 1.119.875 1.863 2.15 2.359 3.48 1.867 4.995.393 10.231-.753 15.196-2.228 9.65-3.392 16.266-6.648 28.954-.423 1.653-.678 3.613-2.228 4.601-2.482 1.593-2.696-5.438-2.862-6.799-.643-5.287-1.258-10.576-1.739-15.88-.552-6.056-.937-12.131-1.003-18.212ZM167.874 39.395c1.595-2.943 3.49-6.035 6.59-7.298 1.912-.778 4.117-.743 6.055-.027 1.774.655 3.382 1.925 4.118 3.666.552 1.308.582 2.785.37 4.188-.796 5.272-4.626 9.133-8.041 12.915-6.637 7.35-10.868 12.567-19.88 22.074-1.174 1.24-2.348 2.83-4.183 2.941-2.943.187.288-6.063.802-7.33 2.008-4.932 4.042-9.856 6.196-14.724 2.46-5.56 5.078-11.058 7.973-16.405ZM99.844 44.516c-1.719-2.873-3.41-6.08-2.916-9.39.305-2.043 1.462-3.92 3.067-5.223 1.466-1.192 3.381-1.928 5.254-1.674 1.406.192 2.691.92 3.792 1.817 4.128 3.374 5.496 8.639 7.008 13.505 2.938 9.457 5.267 15.76 8.848 28.359.466 1.643 1.234 3.462.393 5.098-1.343 2.625-5.068-3.34-5.897-4.43-3.218-4.244-6.416-8.503-9.505-12.842-3.528-4.952-6.922-10.007-10.042-15.225l-.002.005Z"/><path stroke="#14041E" stroke-linecap="round" stroke-width=".54" d="M133.068 35.043c-.035-3.346.119-6.97 2.213-9.578 1.292-1.61 3.238-2.651 5.279-2.966 1.867-.29 3.891.04 5.382 1.204 1.119.875 1.863 2.15 2.359 3.48 1.867 4.995.393 10.231-.753 15.196-2.228 9.65-3.392 16.266-6.648 28.954-.423 1.653-.678 3.613-2.228 4.601-2.482 1.593-2.696-5.438-2.862-6.799-.643-5.287-1.258-10.576-1.739-15.88-.552-6.056-.937-12.131-1.003-18.212ZM167.874 39.395c1.595-2.943 3.49-6.035 6.59-7.298 1.912-.778 4.117-.743 6.055-.027 1.774.655 3.382 1.925 4.118 3.666.552 1.308.582 2.785.37 4.188-.796 5.272-4.626 9.133-8.041 12.915-6.637 7.35-10.868 12.567-19.88 22.074-1.174 1.24-2.348 2.83-4.183 2.941-2.943.187.288-6.063.802-7.33 2.008-4.932 4.042-9.856 6.196-14.724 2.46-5.56 5.078-11.058 7.973-16.405ZM99.844 44.516c-1.719-2.873-3.41-6.08-2.916-9.39.305-2.043 1.462-3.92 3.067-5.223 1.466-1.192 3.381-1.928 5.254-1.674 1.406.192 2.691.92 3.792 1.817 4.128 3.374 5.496 8.639 7.008 13.505 2.938 9.457 5.267 15.76 8.848 28.359.466 1.643 1.234 3.462.393 5.098-1.343 2.625-5.068-3.34-5.897-4.43-3.218-4.244-6.416-8.503-9.505-12.842-3.528-4.952-6.922-10.007-10.042-15.225l-.002.005Z"/><path stroke="#14041E" stroke-linecap="round" stroke-width=".54" d="M133.068 35.043c-.035-3.346.119-6.97 2.213-9.578 1.292-1.61 3.238-2.651 5.279-2.966 1.867-.29 3.891.04 5.382 1.204 1.119.875 1.863 2.15 2.359 3.48 1.867 4.995.393 10.231-.753 15.196-2.228 9.65-3.392 16.266-6.648 28.954-.423 1.653-.678 3.613-2.228 4.601-2.482 1.593-2.696-5.438-2.862-6.799-.643-5.287-1.258-10.576-1.739-15.88-.552-6.056-.937-12.131-1.003-18.212ZM167.874 39.395c1.595-2.943 3.49-6.035 6.59-7.298 1.912-.778 4.117-.743 6.055-.027 1.774.655 3.382 1.925 4.118 3.666.552 1.308.582 2.785.37 4.188-.796 5.272-4.626 9.133-8.041 12.915-6.637 7.35-10.868 12.567-19.88 22.074-1.174 1.24-2.348 2.83-4.183 2.941-2.943.187.288-6.063.802-7.33 2.008-4.932 4.042-9.856 6.196-14.724 2.46-5.56 5.078-11.058 7.973-16.405ZM99.844 44.516c-1.719-2.873-3.41-6.08-2.916-9.39.305-2.043 1.462-3.92 3.067-5.223 1.466-1.192 3.381-1.928 5.254-1.674 1.406.192 2.691.92 3.792 1.817 4.128 3.374 5.496 8.639 7.008 13.505 2.938 9.457 5.267 15.76 8.848 28.359.466 1.643 1.234 3.462.393 5.098-1.343 2.625-5.068-3.34-5.897-4.43-3.218-4.244-6.416-8.503-9.505-12.842-3.528-4.952-6.922-10.007-10.042-15.225l-.002.005Z"/><path stroke="#14041E" stroke-linecap="round" stroke-linejoin="round" stroke-width=".604" d="M93.44 194.931c-2.282 2.809-5.573 4.573-8.771 6.266M90.361 149.507s-16.795 6.156-24.293 23.796M187.816 204.736c.101-4.66.059-8.391-.183-9.118-.443-1.324-8.709-7.937-10.695-19.734-1.984-11.797-7.056-26.019-13.122-29.767-6.063-3.747-12.788-8.931-12.126-13.56.662-4.63 10.143-10.143 20.616-3.748 10.472 6.396 17.75 20.616 17.75 20.616s1.324-24.586 3.97-39.138c2.645-14.553 3.088-37.927 8.159-40.902 5.072-2.978 11.135 1.654 11.245 16.649.11 14.995-1.212 33.652-.882 43.795M248.515 236.235c-.2 8.081-.516 15.218-1.014 15.683-1.175 1.101-5.844 4.888-26.13 4.888-20.286 0-29.547-3.637-32.193-6.945-1.307-1.634-1.913-7.568-2.127-14.203M243.271 133.159s.997-18.835-.107-31.77c-1.102-12.935.588-20.652 6.469-19.477 5.88 1.174 6.981 10.951 7.717 24.915.735 13.966 3.933 23.96 4.483 48.546.552 24.585-5.954 34.802-8.895 39.065-2.939 4.263-4.091 9.833-4.091 9.833"/><path stroke="#14041E" stroke-linecap="round" stroke-linejoin="round" stroke-width=".604" d="M249.119 203.344s2.792.36 2.423 5.579c-.366 5.218-.217 24.475-2.423 26.681-2.206 2.207-12.938 10.143-35.428 7.937-22.492-2.206-27.49-8.086-28.372-10.289-.882-2.206-.293-23.814 0-26.167.293-2.352 2.206-3.741 2.206-3.741s.736 13.589 28.995 15.096c28.964 1.544 31.903-12.755 32.599-15.096ZM243.27 102.711s-.767-14.694-.989-19.549c-.242-5.353-1.561-13.617-8.819-11.836-7.79 1.91-2.279 40.279-4.339 59.241"/><path stroke="#14041E" stroke-linecap="round" stroke-linejoin="round" stroke-width=".604" d="M229.132 92.477s2.384-22.765-5.666-28.17c-8.05-5.4-12.341 4.092-12.07 9.6M250.733 134.98s-31.311-7.937-42.262-4.117M252.939 194.44s-4.556 8.233-15.141 12.643M187.092 194.931c2.282 2.809 5.573 4.573 8.771 6.266M190.171 149.507s16.795 6.156 24.293 23.796"/></svg>