<svg fill="none" xmlns="http://www.w3.org/2000/svg" viewBox="0 0 280 280"><path d="M143.761 259.723c-16.696 0-33.416-3.046-48.601-8.354-26.823-9.378-49.475-28.202-62.562-53.539a101.207 101.207 0 0 1-9.465-27.304c-7.143-37.1.924-79.832 26.242-108.135 39.23-43.856 112.743-54.52 161.618-22.452 25.88 16.976 43.756 44.773 47.815 76.21.718 5.57 1.092 11.189 1.173 16.808.987 65.478-36.482 126.773-116.214 126.773l-.006-.007Z" fill="#FCFF60"/><path d="M22.99 169.352s2.44 26.754 26.753 52.528c24.307 25.774 60.508 37.625 91.458 37.544 30.95-.081 90.971-6.924 113.53-84.209 0 0-26.63 72.071-115.871 69.63-98.563-2.691-115.87-75.493-115.87-75.493Z" fill="#FFD83C"/><path d="M192.174 30.092s-35.183-16.858-82.822-3.908c-47.64 12.95-39.58 34.815-16.128 25.655 23.458-9.16 53.015-22.72 90.89-5.863 30.6 13.624 39.579-5.513 8.06-15.877v-.007Z" fill="#FFFFAB"/><path d="M228.501 54.237s-6.925-7.493-12.563-4.845c-6.487 3.04 2.079 13.623 12.032 15.696 9.959 2.08 2.728-9.29.531-10.851Z" fill="#FFFFAB"/><path d="M82.418 108.52s.487-24.757-17.102-27.036c-17.588-2.279-31.6 13.03-27.204 33.716 4.396 20.686 41.047 40.559 41.047 40.559s.543.331 1.236.75l.518.312c.968-.575 1.755-1.062 1.755-1.062s36.65-19.873 41.046-40.559c4.395-20.685-9.609-35.995-27.204-33.716-9.39 1.218-13.63 8.841-15.54 15.684M201.141 108.52s.487-24.757-17.101-27.036c-17.589-2.279-31.6 13.03-27.204 33.716 4.396 20.686 41.046 40.559 41.046 40.559s.543.331 1.236.75l.519.312c.967-.575 1.754-1.062 1.754-1.062s36.651-19.873 41.046-40.559c4.396-20.685-9.609-35.995-27.204-33.716-9.39 1.218-13.63 8.841-15.54 15.684" fill="#D71F14"/><path d="M84.596 175.952s14.173 43.649 55.138 45.766c40.965 2.117 58.285-38.243 59.64-48.994 1.355-10.752-28.016 7.948-59.097 6.974-31.087-.98-47.37-13.842-53.234-11.239-3.952 1.998-2.441 7.493-2.441 7.493h-.006Z" fill="#000"/><path d="M194.005 169.533c-1.63 15.691-11.782 21.279-24.394 24.831a97.829 97.829 0 0 1-24.257 3.628c-16.527.375-33.485-2.354-42.838-8.847-11.97-8.305-11.85-21.035-11.85-21.035s4.22 1.535 10.657 3.683c6.269 2.092 14.629 4.789 23.589 6.35 18.163 3.178 36.85.369 49.025-3.134 12.176-3.503 20.068-5.482 20.068-5.482v.006Z" fill="#fff"/><path d="M110.632 211.541s31.231-18.488 66.258-2.092l-66.258 2.092Z" fill="#000"/><path d="M176.89 209.449c-35.027-16.396-66.258 2.092-66.258 2.092s13.361 11.157 33.129 10.258c21.46-.812 33.129-12.35 33.129-12.35Z" fill="#D71F14"/><path d="M47.052 131.365S62 147.33 80.912 156.815c0 0 20.542-10.995 34.546-26.879 0 0-34.084 27.203-68.412 1.423l.006.006ZM165.434 131.365s14.947 15.965 33.86 25.45c0 0 20.541-10.995 34.546-26.879 0 0-34.084 27.203-68.412 1.423l.006.006Z" fill="#950800"/><path d="M38.474 103.918c.037 2.71.893 5.813 3.378 6.893 1.498.656 3.246.387 4.788-.162 3.647-1.293 6.662-4.077 8.654-7.393 2.154-3.596 3.347-8.035 3.497-12.225.1-2.885-.637-6.481-3.921-7.155-2.585-.531-5.432.88-7.455 2.36-3.572 2.603-6.288 6.343-7.743 10.514a20.928 20.928 0 0 0-1.192 7.174l-.006-.006ZM242.362 103.918c-.038 2.71-.893 5.813-3.378 6.893-1.499.656-3.247.387-4.789-.162-3.646-1.293-6.662-4.077-8.654-7.393-2.154-3.596-3.346-8.035-3.496-12.225-.1-2.885.637-6.481 3.921-7.155 2.585-.531 5.432.88 7.455 2.36 3.571 2.603 6.287 6.343 7.742 10.514a20.943 20.943 0 0 1 1.193 7.174l.006-.006Z" fill="#FF3D3D"/><path d="M103.245 205.353s14.76 17.202 41.221 16.421c26.461-.78 41.483-21.385 41.483-21.385s-36.85 57.174-82.704 4.97v-.006Z" fill="#fff"/><path d="M143.716 259.642c-16.696 0-33.416-3.047-48.6-8.354-26.824-9.378-49.476-28.203-62.563-53.54a101.192 101.192 0 0 1-9.465-27.303c-7.143-37.1.924-79.832 26.242-108.135C88.56 18.454 162.073 7.79 210.942 39.857c25.88 16.977 43.756 44.774 47.814 76.211.718 5.57 1.093 11.189 1.174 16.808.987 65.478-36.482 126.773-116.214 126.773v-.007Z" stroke="#140D1D" stroke-width=".749" stroke-linecap="round" stroke-linejoin="round"/><path d="M82.153 108.52s.487-24.757-17.101-27.036c-17.589-2.279-31.6 13.03-27.204 33.716 4.395 20.686 41.046 40.559 41.046 40.559s.543.331 1.236.75l.518.312c.968-.575 1.755-1.062 1.755-1.062s36.65-19.873 41.046-40.559c4.396-20.685-9.609-35.995-27.204-33.716-9.39 1.218-13.63 8.841-15.54 15.684M200.878 108.52s.487-24.757-17.102-27.036c-17.588-2.279-31.599 13.03-27.204 33.716 4.396 20.686 41.046 40.559 41.046 40.559s.544.331 1.237.75l.518.312c.968-.575 1.754-1.062 1.754-1.062s36.651-19.873 41.047-40.559c4.395-20.685-9.609-35.995-27.204-33.716-9.391 1.218-13.63 8.841-15.541 15.684M84.595 175.952s14.173 43.649 55.138 45.766c40.965 2.117 58.285-38.243 59.64-48.994 1.355-10.752-28.016 7.948-59.097 6.974-31.087-.98-47.37-13.842-53.234-11.239-3.952 1.998-2.44 7.493-2.44 7.493h-.007Z" stroke="#140D1D" stroke-width=".749" stroke-linecap="round" stroke-linejoin="round"/><path d="M90.669 168.434s-.131 12.406 11.844 20.711c9.353 6.487 26.311 9.221 42.838 8.847a97.494 97.494 0 0 0 24.257-3.628c12.612-3.552 22.765-9.141 24.394-24.831M110.631 211.541s31.231-18.488 66.258-2.092" stroke="#140D1D" stroke-width=".749" stroke-linecap="round" stroke-linejoin="round"/></svg>