<svg xmlns="http://www.w3.org/2000/svg" fill="none" viewBox="0 0 280 280"><path fill="#F673FF" d="M19.355 170.085c-5.37-6.16-9.813-13.48-12.983-22.54-8.955-25.583-5.558-59.232 19.257-74.95C46.55 59.348 79.83 55.44 101.347 69.47c8.148 5.317 14.783 12.938 18.918 21.742 3.291-38.273 36.247-71.87 74.445-75.89 40.17-4.233 85.643 26.622 83.339 70.136-2.245 42.318-37.242 72.66-65.22 100.322-13.977 13.82-28.919 27.037-41.496 42.174-5.535 6.673-9.165 12.999-12.735 20.809-2.651 5.791-6.228 15.175-13.36 16.606-5.649 1.137-10.092-4.504-13.323-9.279-14.105-20.846-33.378-38.167-55.61-49.976-21.079-11.199-42.4-19.347-56.95-36.036v.007Z"/><path fill="#C01FC3" d="M34.975 67.652S75.14 55.28 102.145 95.42c30.878 45.895 30.938 36.858 32.331 11.146 1.393-25.71 14.151-74.957 65.076-91.578 0 0-34.108.437-58.117 28.415-20.312 23.347-21.178 47.815-21.178 47.815s-19.498-47.755-85.29-23.565h.008Z"/><path fill="#fff" stroke="#14041E" stroke-linecap="round" stroke-linejoin="round" stroke-width=".961" d="M24.838 150.755c2.282 2.772 4.865 5.287 7.561 7.659a107.522 107.522 0 0 0 22.044 14.995c2.726 1.393 5.708 2.711 8.743 2.334 6.206-.768 9.497-8.321 8.42-14.482-1.077-6.16-5.053-11.334-8.171-16.757-5.95-10.347-8.94-22.088-13.398-33.167-2.335-5.798-5.22-11.612-10.024-15.604-4.375-3.63-12.441-6.303-17.502-2.53-4.956 3.697-7.02 11.771-8.02 17.494-2.433 13.986 1.28 29.07 10.34 40.058h.007ZM80.148 176.993c-1.936 2.372-2.56 5.656-2.056 8.683.76 4.511 3.63 8.442 7.305 11.056 2.922 2.078 6.883 3.908 10.536 3.788 4.458-.143 7.29-3.999 7.215-8.269-.06-3.261-1.537-6.319-3.231-9.105-3.683-6.063-13.488-13.85-19.777-6.161l.008.008ZM215.951 38.513c-6.055 3.088-10.544 9.512-10.408 16.313.098 4.714 2.274 9.135 4.79 13.119 7.373 11.688 13.42 21.027 13.578 35.403.068 6.537-.723 13.037-1.634 19.506-.798 5.701-2.35 11.861-.798 17.555 1.077 3.984 4.187 7.704 8.284 8.209 4.654.58 8.744-2.96 11.839-6.484 13.368-15.183 24.649-34.305 26.765-54.759 2.147-20.68-7.011-39.938-26.607-48.282-8.081-3.442-17.736-4.714-25.824-.587l.015.007Z"/><path stroke="#14041E" stroke-linecap="round" stroke-linejoin="round" stroke-width=".961" d="M19.355 170.085c-5.37-6.16-9.813-13.48-12.983-22.54-8.955-25.583-5.558-59.232 19.257-74.95C46.55 59.348 79.83 55.44 101.347 69.47c8.148 5.317 14.783 12.938 18.918 21.742 3.291-38.273 36.247-71.87 74.444-75.89 40.171-4.233 85.644 26.622 83.34 70.136-2.245 42.318-37.242 72.66-65.22 100.322-13.977 13.82-28.919 27.037-41.496 42.174-5.535 6.673-9.165 12.999-12.735 20.809-2.651 5.791-6.228 15.175-13.36 16.606-5.649 1.137-10.092-4.504-13.323-9.279-14.105-20.846-33.378-38.167-55.61-49.976-21.079-11.199-42.4-19.347-56.95-36.036v.007Z"/></svg>