<svg fill="none" xmlns="http://www.w3.org/2000/svg" viewBox="0 0 280 280"><path d="M132.378 74.69s13.923-44.631-41.772-48.027c-57.735-3.519-82.63 59.233-46.888 139.911 22.907 55.389 88.43 92.928 96.223 85.724 7.787-7.204-17.832-46.022-20.467-50.826-2.635-4.804-8.247-8.642-5.347-15.527 2.9-6.886 26.999-28.897 24.877-35.942-2.123-7.044-29.617-26.892-29.617-32.499 0-5.606 19.395-31.856 22.985-42.82l.006.005Z" fill="#D71F14"/><path d="M170.235 43.97c-5.458 4.976-10.027 10.942-13.676 17.491-7.233 12.987-24.482 43.988-25.749 46.641-1.603 3.36-3.779 6.844 3.207 13.328 6.985 6.485 21.304 18.687 24.21 21.894 2.907 3.207 3.974 4.722-.459 11.766-4.428 7.045-22.608 29.776-22.755 36.178-.071 2.918 5.907 14.324 9.432 23.491 4.203 10.947 7.545 17.932 11.035 18.852 6.414 1.68 24.818-15.887 41.159-30.135 16.341-14.248 49.334-52.83 54.829-93.169 5.5-40.34-8.707-69.637-33.985-78.043-4.209-1.38-25.46-8.16-47.254 11.707h.006Z" fill="#D71F14"/><path d="M54.942 187.972s21.258 30.306 40.693 43.523c10.9 7.887 31.285 22.725 42.556 21.587 0 0 3.448-.23 3.201-5.683-.248-5.447-2.523-9.632-2.523-9.632l-4.209-9.68s8.612 22.837-6.691 16.607c-19.524-7.947-38.176-19.725-73.027-56.727v.005ZM138.792 201.602l6.767 15.975s3.844 8.996 5.842 12.42c1.999 3.42 3.991 4.604 8.124 2.995 4.138-1.609 10.693-6.249 21.616-15.875 10.924-9.626 22.195-17.785 34.191-33.159 11.996-15.38 12.515-16.877 12.515-16.877s-48.964 53.785-63.954 55.63c-14.991 1.845-25.107-21.104-25.107-21.104l.006-.005Z" fill="#950800"/><path d="M54.258 43.299a53.82 53.82 0 0 0-15.185 21.298c-.855 2.193-1.574 4.475-1.674 6.827-.1 2.352.471 4.798 1.963 6.62 1.774 2.175 4.669 3.218 7.475 3.283 2.806.065 5.558-.743 8.194-1.721 8.01-2.989 15.474-7.664 21.557-13.682 5.813-5.754 12.397-14.384 11.855-23.026-.4-6.349-4.569-10.47-11.018-10.033-8.194.56-17.012 5.2-23.173 10.434h.006ZM230.959 48.728a53.767 53.767 0 0 1 12.557 22.943c.589 2.282 1.031 4.634.854 6.98-.176 2.346-1.037 4.71-2.735 6.343-2.022 1.951-5.016 2.64-7.811 2.376-2.794-.266-5.435-1.392-7.928-2.683-7.599-3.92-14.461-9.443-19.79-16.14-5.093-6.402-10.61-15.745-9.048-24.27 1.149-6.26 5.777-9.856 12.126-8.653 8.07 1.526 16.275 7.174 21.775 13.104Z" fill="#FF3D3D"/><path d="M132.378 74.69s13.923-44.631-41.772-48.027c-57.735-3.519-82.63 59.233-46.888 139.911 22.907 55.389 88.43 92.928 96.223 85.724 7.787-7.204-17.832-46.022-20.467-50.826-2.635-4.804-8.247-8.642-5.347-15.527 2.9-6.886 26.999-28.897 24.877-35.942-2.123-7.044-29.617-26.892-29.617-32.499 0-5.606 19.395-31.856 22.985-42.82l.006.005Z" stroke="#140D1D" stroke-width=".707" stroke-linecap="round" stroke-linejoin="round"/><path d="M170.235 43.97c-5.458 4.976-10.027 10.942-13.676 17.491-7.233 12.987-24.482 43.988-25.749 46.641-1.603 3.36-3.779 6.844 3.207 13.328 6.985 6.485 21.304 18.687 24.21 21.894 2.907 3.207 3.974 4.722-.459 11.766-4.428 7.045-22.608 29.776-22.755 36.178-.071 2.918 5.907 14.324 9.432 23.491 4.203 10.947 7.545 17.932 11.035 18.852 6.414 1.68 24.818-15.887 41.159-30.135 16.341-14.248 49.334-52.83 54.829-93.169 5.5-40.34-8.707-69.637-33.985-78.043-4.209-1.38-25.46-8.16-47.254 11.707h.006Z" stroke="#140D1D" stroke-width=".707" stroke-linecap="round" stroke-linejoin="round"/></svg>