<svg xmlns="http://www.w3.org/2000/svg" fill="none" viewBox="0 0 280 280"><path fill="#FF673D" d="M194.403 237.501c44.656-16.811 76.393-59.616 76.393-109.768 0-64.827-53.025-117.38-118.439-117.38-65.414 0-118.439 52.553-118.439 117.38 0 6.158.48 12.204 1.4 18.103l27.994 59.294a118.692 118.692 0 0 0 46.334 32.116l84.757.251v.004Z"/><path fill="#14041E" d="M136.829 104.642c.781-6.877.267-16.855-5.025-22.05-5.941-5.83-16.038-1.233-20.279 4.434-5.582 7.46-10.252 20.739-4.473 29.274 3.882 5.733 11.304 7.279 17.659 5.35 7.746-2.354 11.249-9.335 12.122-17.008h-.004ZM172.974 104.641c-.781-6.877-.267-16.854 5.025-22.05 5.941-5.828 16.038-1.232 20.279 4.435 5.582 7.46 10.252 20.739 4.472 29.274-3.881 5.733-11.303 7.279-17.658 5.35-7.746-2.354-11.249-9.335-12.122-17.009h.004ZM103.863 57.28a10.469 10.469 0 0 1-.658 1.527c-2.284 4.283-5.999 6.568-10.788 6.75-2.146.08-4.805.27-5.756 2.531-.248.584-.271 1.276.019 1.837 1.125 2.157 5.102 1.998 7.105 1.7 9.223-1.38 19.065-8.322 19.456-18.389.081-2.09-.143-4.87-1.918-6.281-2.365-1.883-4.87 1.376-5.628 3.301-.889 2.261-1.044 4.732-1.832 7.02v.004ZM211.004 57.28c.182.526.395 1.036.658 1.527 2.284 4.283 5.999 6.568 10.788 6.75 2.146.08 4.805.27 5.756 2.531.248.584.271 1.276-.019 1.837-1.125 2.157-5.103 1.998-7.105 1.7-9.223-1.38-19.065-8.322-19.456-18.388-.081-2.092.143-4.871 1.918-6.282 2.365-1.883 4.87 1.376 5.628 3.301.889 2.262 1.044 4.732 1.832 7.02v.004ZM110.541 177.745c-4.956-2.137-8.697-5.319-10.6-9.776-10.2-23.901 82.907-34.11 100.522-17.094 8.926 8.621 5.722 17.616-6.78 23.198"/><path fill="#FCFF60" d="M147.576 10.446s-5.613 9.853-7.542 14.917c-1.929 5.068-2.914 8.849-2.914 8.849s-.526.452 2.988-.569c3.518-1.02 8.257-2.447 12.544-5.574 4.287-3.123 4.959-4.523 4.959-4.523s2.277 9.529 3.375 13.008c1.098 3.48 3.858 7.376 3.858 7.376s4.198-4.086 5.748-6.92c1.55-2.833 3.557-6.316 3.557-6.316l1.438-5.142s2.91 3.367 6.2 5.409c3.29 2.04 6.769 2.609 6.769 2.609s.761-6.943-.395-10.638c-1.155-3.696-2.176-6.228-2.176-6.228l-1.322-2.308s-21.377-5.141-37.087-3.95Z"/><path fill="#FFFDE9" stroke="#14041E" stroke-linecap="round" stroke-linejoin="round" stroke-width=".828" d="M123.33 95.777c-.27.932-.471 1.887-.614 2.838-.646 4.279-1.048 9.791 2.273 13.135.699.707 1.619 1.241 2.613 1.291 8.01.425 7.113-11.894 6.745-16.99-.123-1.716-.27-3.788-1.105-5.326-1.052-1.937-3.769-3.657-5.725-1.933-2.095 1.844-3.413 4.337-4.183 6.985h-.004ZM186.719 94.416c.27.931.471 1.886.614 2.837.646 4.279 1.048 9.792-2.273 13.136-.699.707-1.619 1.24-2.613 1.291-8.009.425-7.113-11.895-6.745-16.99.123-1.716.27-3.788 1.105-5.326 1.052-1.937 3.769-3.657 5.725-1.933 2.095 1.844 3.414 4.337 4.183 6.985h.004Z"/><path fill="#DB452C" d="M233.746 196.71c-28.896 23.345-83.161 39.774-134.273 15.633-14.005-6.614-22.123-21.663-19.734-36.963.054-.348.112-.7.174-1.056 4.017-23.325-4.387-40.086-4.387-40.086l-9.827 52.309c-9.594-12.451-17.874-28.621-30.948-46.913 0 0 5.377 53.547 49.952 84.306 44.57 30.758 88.739 17.043 88.739 17.043s17.044-.1 31.868-7.967c14.825-7.866 35.854-21.806 51.711-49.727 11.62-23.198 12.509-38.324 12.509-38.324s-10.167 31.06-35.78 51.749l-.004-.004Z"/><path fill="#96F9F3" d="M48.733 135.344c-3.928 3.312-8.168 6.328-12.1 9.629-10.653 8.953-20.824 20.372-25.753 33.731-3.517 9.537-3.544 21.223 1.55 30.342 3.553 6.359 9.955 10.997 17.075 12.501 17.844 3.777 33.693-12.068 40.249-27.052 6.672-15.246 7.604-32.614 6.861-49.023a206.46 206.46 0 0 0-.208-3.8c-.758-11.926-3.193-23.608-4.337-35.437-.217-2.238-1.384-4.283-3.858-3.703-3.077.719-3.773 5.269-4.38 7.789-1.013 4.21-2.115 8.362-4.14 12.22-2.706 5.153-6.638 9.157-10.955 12.803h-.004Z"/><path fill="#FFFDE9" stroke="#14041E" stroke-linecap="round" stroke-linejoin="round" stroke-width=".828" d="M12.522 198.484c1.967 5.405 9.037 10.202 14.511 6.383 6.583-4.597 8.184-15.687 7.16-23.059-1.037-7.461-8.308-12.768-15.239-7.932-4.96 3.459-6.776 10.464-7.26 16.177-.24 2.822-.147 5.772.824 8.431h.004Z"/><path fill="#F673FF" d="M154.728 157.082s-16.977-8.988-34.639 3.781c-17.659 12.768-25.614 102.709 21.983 108.353 47.598 5.648 60.103-36.302 56.272-71.8-3.83-35.498-15.833-54.656-43.616-40.338v.004Z"/><path fill="#DB452C" d="M34.22 131.819s.564 7.186 9.239 4.086c8.674-3.104 12.795-8.11 12.795-8.11s-5.006 5.918-9.166 8.941c-4.159 3.027-11.419 8.926-11.419 8.926l-1.45-13.839v-.004Z"/><path fill="#C01FC3" d="M106.682 197.011s9.076-25.815 25.01-28.741c15.934-2.926 19.464 22.386 19.464 22.386s2.168-20.925 22.892-22.285c20.724-1.361 24.168 27.898 24.168 27.898s-2.289-44.841-26.085-43.732c-12.517 1.136-17.4 4.538-17.4 4.538s-9.718-6.003-24.798-1.337c-15.079 4.666-19.216 16.262-23.247 41.273h-.004Z"/><path fill="#FFD83C" d="M137.124 34.216s14.782-6.39 20.155-17.81c-.189.395.337 7.148.337 7.148s-5.254 8.13-20.492 10.665v-.003ZM173.091 18.6s-2.292 16.916-8.709 24.907c0 0-.128.97 1.295-.48 1.422-1.45 7.565-9.227 9.227-14.898 1.662-5.67.986-8.547.986-8.547s-.565 5.717 0 6.317c.564.599 3.398 3.29 5.895 5.067 2.497 1.779 6.769 2.61 6.769 2.61s-9.038-7.728-9.645-13.426c-.607-5.698-5.598-6.996-5.826-1.55h.008Z"/><path fill="#50C9E0" d="M14.023 211.53c.739 1.036 4.125 3.216 5.23 3.579 4.117 1.353 7.616 2.266 11.95 2.068 11.933-.545 23.286-11.716 29.293-21.581 18.15-29.789 14.624-49.078 13.209-63.482-1.411-14.403-4.418-29.235-2.636-28.687 1.124.905 2.385 14.566 2.385 14.566l2.03 14.079s5.214 32.502-3.778 57.439c-8.991 24.937-27.782 31.018-27.782 31.018s-18.566 6.877-29.9-9.007v.008Z"/><path fill="#FBBBFF" d="M143.138 252.07c-1.84.406-3.692.947-5.257 1.998-1.566 1.052-2.83 2.683-3.054 4.554-.259 2.161.912 4.314 2.598 5.694 1.681 1.38 3.811 2.095 5.933 2.574a33.643 33.643 0 0 0 18.926-1.248c1.953-.723 3.893-1.666 5.293-3.205 1.399-1.538 2.176-3.788 1.515-5.763-.58-1.736-2.165-2.989-3.881-3.626-2.838-1.056-6.73-1.659-9.761-1.875a43.068 43.068 0 0 0-12.316.897h.004Z"/><path stroke="#14041E" stroke-linecap="round" stroke-linejoin="round" stroke-width=".828" d="M35.62 145.838a117.49 117.49 0 0 1-1.4-18.103c0-64.826 53.025-117.38 118.439-117.38 65.414 0 118.439 52.554 118.439 117.38 0 50.153-31.737 92.957-76.393 109.769M109.944 237.253a118.701 118.701 0 0 1-46.334-32.116"/><path stroke="#14041E" stroke-linecap="round" stroke-linejoin="round" stroke-width=".828" d="M136.829 104.647c.781-6.877.267-16.854-5.025-22.05-5.941-5.829-16.038-1.232-20.279 4.434-5.582 7.461-10.252 20.74-4.473 29.275 3.882 5.733 11.304 7.279 17.659 5.35 7.746-2.354 11.249-9.336 12.122-17.009h-.004ZM172.974 104.647c-.781-6.877-.267-16.854 5.025-22.05 5.941-5.829 16.038-1.232 20.279 4.434 5.582 7.461 10.252 20.74 4.472 29.275-3.881 5.733-11.303 7.279-17.658 5.35-7.746-2.354-11.249-9.336-12.122-17.009h.004ZM103.863 57.287a10.469 10.469 0 0 1-.658 1.527c-2.284 4.283-5.999 6.567-10.788 6.75-2.146.08-4.805.27-5.756 2.531-.248.584-.271 1.276.019 1.836 1.125 2.157 5.102 1.999 7.105 1.701 9.223-1.38 19.065-8.323 19.456-18.389.081-2.091-.143-4.87-1.918-6.281-2.365-1.883-4.87 1.376-5.628 3.3-.889 2.262-1.044 4.733-1.832 7.02v.005ZM211.004 57.287c.182.526.395 1.036.658 1.527 2.284 4.283 5.999 6.567 10.788 6.749 2.146.081 4.805.27 5.756 2.532.248.584.271 1.276-.019 1.836-1.125 2.157-5.103 1.999-7.105 1.701-9.223-1.38-19.065-8.323-19.456-18.389-.081-2.091.143-4.87 1.918-6.281 2.365-1.883 4.87 1.376 5.628 3.3.889 2.262 1.044 4.732 1.832 7.02v.005ZM48.733 135.346c-3.928 3.313-8.168 6.328-12.1 9.629-10.653 8.953-20.824 20.372-25.753 33.732-3.517 9.536-3.544 21.222 1.55 30.341 3.553 6.359 9.955 10.998 17.075 12.502 17.844 3.776 33.693-12.069 40.249-27.052 6.672-15.246 7.604-32.614 6.861-49.024a206.46 206.46 0 0 0-.208-3.8c-.758-11.925-3.193-23.607-4.337-35.436-.217-2.238-1.384-4.283-3.858-3.703-3.077.719-3.773 5.269-4.38 7.789-1.013 4.21-2.115 8.361-4.14 12.219-2.706 5.153-6.638 9.158-10.955 12.803h-.004ZM147.878 10.45s-7.035 9.386-10.754 24.11c0 0 13.932-2.822 20.689-11.094 0 0 2.219 15.628 6.958 20.472 0 0 8.976-8.57 10.889-18.756 0 0 5.142 6.757 12.908 8.47 0 0 1.643-11.354-3.8-18.93M110.541 177.748c-4.956-2.138-8.697-5.319-10.6-9.776-10.2-23.901 82.907-34.111 100.522-17.094 8.926 8.62 5.722 17.616-6.78 23.198"/><path stroke="#14041E" stroke-linecap="round" stroke-linejoin="round" stroke-width=".828" d="M154.728 157.085s-16.977-8.988-34.639 3.78c-17.659 12.768-25.614 102.71 21.983 108.354 47.598 5.647 60.103-36.302 56.272-71.8-3.83-35.498-15.833-54.657-43.616-40.338v.004Z"/><path stroke="#14041E" stroke-linecap="round" stroke-linejoin="round" stroke-width=".828" d="M154.029 157.083s-4.205 22.084-2.86 49.917M157.277 16.404c.101 2.683.325 5.358.669 8.017M163.564 15.246a47.85 47.85 0 0 0 1.697 15.455M175.474 26.037c.324-2.049.456-4.128.402-6.204M151.059 213.752a77.024 77.024 0 0 1-.22 6.553M150.57 227.066l-.1 1.917"/><path stroke="#fff" stroke-linecap="round" stroke-linejoin="round" stroke-width="1.657" d="M72.898 43.938S85.806 32.665 92.764 29.48M95.49 27.854a81.912 81.912 0 0 1 7.554-4.152M105.774 22.2l.503-.252"/></svg>