<svg xmlns="http://www.w3.org/2000/svg" fill="none" viewBox="0 0 280 280"><g clip-path="url(#a)"><path fill="#FF673D" d="M125.618 215.785s-30.473 8.727-45.762-18.213C63.68 169.065 67.89 64.912 84.073 31.132 100.25-2.65 151.944-3.967 163.86 4.348c0 0-7.706 10.226.009 25.328 7.716 15.101 26.125 8.501 27.289 11.317 1.165 2.816 16.566 48.882 18.542 100.777 1.975 51.894-13.603 60.72-37.732 65.423-24.124 4.703-46.346 8.591-46.346 8.591h-.005Z"/><path fill="#FECEB7" d="M128.731 215.603c-.024 10.944.443 21.977 2.684 32.719 1.705 8.172 3.695 17.072 9.386 23.5 6.492 7.332 18.448 9.804 26.822 4.059 7.656-5.248 11.013-15.121 10.772-24.085-.496-18.57-4.408-44.98-4.408-44.98"/><path fill="#D82B23" d="M153.23.83c-15.76-3.209-38.292 2.91-48.454 42.882-9.873 38.822-5.691 118.433 1.13 144.936s24.163 26.375 24.163 26.375-16.197 3.686-24.104 1.479c-7.907-2.211-19.588-6.33-25.014-17.337-5.425-11.008-7.754-19.166-9.293-33.781-1.538-14.615-2.693-43.457-1.73-53.172.964-9.711 1.603-34.39 5.834-53.428 2.555-12.63 6.04-26.33 11.73-33.589 5.69-7.258 10.723-14.546 31.289-21.598C137.328-2.3 153.23.83 153.23.83Z"/><path fill="#DA8D70" d="M136.823 234.356s8.103-12.247 19.45-14.458c12.173-2.374 19.859 3.479 19.859 3.479l-2.261-16.566-32.591 6.168-5.912 1.096s.954 17.239 1.46 20.281h-.005Z"/><path fill="#DA8D70" d="m134.993 214.138-6.26 1.288s-.31 32.625 6.629 47.28c6.939 14.654 15.288 15.981 21.913 16.345 6.624.363 13.283-5.603 13.283-5.603l3.892-5.115.978-1.878s-7.426 11.038-17.746 9.755c-10.319-1.283-12.241-5.578-15.642-14.998-3.4-9.421-4.422-20.959-4.422-20.959l-1.637-15.834-.993-10.276.005-.005Z"/><path fill="#AC221C" d="M69.93 120.866s-.192 21.249 13.651 22.016c13.844.771 15.407-27.112 15.407-27.112s1.253 39.358 3.376 52.877c2.123 13.519 3.464 22.64 6.452 28.532 2.988 5.888 5.224 11.141 12.335 14.954 3.749 1.784 7.583 2.767 7.583 2.767s-10.625 4.035-23.151 1.484c-12.527-2.55-17.815-7.838-21.038-12.069-3.22-4.231-5.51-8.305-5.51-8.305s-5.356-10.541-6.796-24.193c-1.44-13.652-3.012-38.459-2.658-44.71l.354-6.251-.005.01Z"/><path fill="#FF9272" d="M109.156 29.623s6.924-13.077-4.423-14.424c-11.347-1.346-23.387 22.14-23.387 22.14S87.488 14.3 113.387 5.581C128.483 0 141.132.098 141.132.098s-21.593 2.28-31.976 29.525Z"/><path fill="#FF9272" d="M106.005 39.24s3.15-23.27 28.404-30.71c16.537-4.87 26.321 4.129 26.321 4.129s.973-5.765 3.13-8.31c0 0-12.59-7.337-28.581-2.698-15.991 4.639-25.495 23.17-29.269 37.589h-.005ZM180.181 168.927c-.315 1.332-.374 2.89.432 4.069.511.747 1.401 1.273 2.305 1.204 4.221-.324 6.551-10.374 1.135-9.804-1.906.202-3.356 2.334-3.877 4.536l.005-.005ZM147.944 125.357c.325.625.762 1.204 1.347 1.588.585.383 1.336.555 2.01.344.825-.256 1.386-1.013 1.818-1.76.398-.683.737-1.395 1.017-2.132.398-1.037.678-2.148.575-3.259-.103-1.105-.629-2.216-1.568-2.815-1.778-1.141-3.862-.02-4.84 1.538-1.204 1.911-1.41 4.472-.364 6.496h.005Z"/><path stroke="#fff" stroke-linecap="round" stroke-linejoin="round" stroke-width="2.106" d="M190.112 44.38s1.681 4.713 2.31 7.308M193.287 55.054s1.936 7.008 2.85 10.271"/><path fill="#FFA78D" d="M100.246 145.953s2.374 36.641 7.755 49.236c5.386 12.595 13.524 19.549 22.561 19.549 6.61-.993 20.925-3.696 20.925-3.696l14.654-2.698s-30.581 4.403-34.94 2.993c-17.917-5.799-22.689-26.036-24.935-42.484-3.209-23.485-4.172-47.009-5.19-70.681-.383-8.944-1.316-18.168-1.316-18.168s-1.504 32.095.481 65.949"/><path fill="#FFE6DC" d="M167.811 252.877a14.79 14.79 0 0 0-1.263 1.298c-2.231 2.58-3.524 6.6-2.939 9.986.457 2.658 2.472 4.86 5.308 4.688 1.361-.084 2.663-.678 3.72-1.543 2.196-1.789 3.307-4.585 4.005-7.332.378-1.484.663-3.013.521-4.536-.143-1.524-.762-3.052-1.932-4.035-2.393-2.01-5.341-.427-7.42 1.469v.005ZM170.441 244.076c-.206 1.479.118 2.998 1.362 3.794.324.206.697.339 1.081.329 2.472-.084 2.776-3.701 2.413-5.479-.158-.757-.462-1.563-1.17-1.961-.747-.423-1.843-.354-2.418.324-.629.737-1.105 1.858-1.268 2.998v-.005Z"/><path stroke="#14041E" stroke-linecap="round" stroke-linejoin="round" stroke-width=".737" d="M125.618 215.809s-30.473 8.728-45.762-18.212C63.68 169.089 67.89 64.937 84.073 31.157 100.25-2.626 151.944-3.943 163.86 4.372c0 0-7.706 10.227.009 25.328 7.716 15.102 26.125 8.502 27.289 11.318 1.165 2.816 16.566 48.882 18.542 100.777 1.975 51.894-13.603 60.72-37.732 65.423-24.124 4.703-46.346 8.59-46.346 8.59h-.005Z"/><path stroke="#14041E" stroke-linecap="round" stroke-linejoin="round" stroke-width=".737" d="M128.731 215.603c-.024 10.944.443 21.977 2.684 32.719 1.705 8.172 3.695 17.072 9.386 23.5 6.492 7.332 18.448 9.804 26.822 4.059 7.656-5.248 11.013-15.121 10.772-24.085-.496-18.57-4.408-44.98-4.408-44.98"/><path stroke="#14041E" stroke-linecap="round" stroke-linejoin="round" stroke-width=".737" d="M135.357 214.138s.895 37.943 9.696 54.013c8.797 16.069 30.577 6.585 32.995-10.546M130.074 215.023s-17.342.128-24.163-26.375c-6.82-26.502-11.003-106.113-1.13-144.936C114.943 3.734 137.475-2.378 153.235.83"/><path stroke="#14041E" stroke-linecap="round" stroke-linejoin="round" stroke-width=".737" d="M127.799 34.906a234.113 234.113 0 0 0-3.248 37.058c-.035 4.502.108 9.2 2.231 13.165.747 1.396 1.951 2.792 3.533 2.821 1.362.025 2.531-.983 3.298-2.108 2.123-3.106 2.167-7.17 3.69-10.61.359-.81.831-1.612 1.578-2.084 1.538-.968 3.69-.103 4.732 1.386 1.042 1.484 1.253 3.381 1.401 5.19.678 8.344-.629 16.693-1.008 25.018-.245 5.362-2.044 26.316 7.264 25.672 2.044-.142 3.636-2.285 4.486-3.975 2.467-4.895 1.986-11.741 2.059-17.068.055-3.926-.471-7.853-.063-11.774.339-3.234 1.754-8.797 5.602-9.534 3.179-.61 4.27 3.081 4.875 5.396.683 2.624 1.371 5.248 2.054 7.868.545 2.093.924 4.624 2.796 6 4.688 3.445 9.205-2.251 9.264-6.644M124.979 119.067c3.479 7.73 2.211 16.718.201 24.96-2.01 8.236-4.722 16.556-3.916 24.998.152 1.627.452 3.278 1.287 4.679 2.084 3.494 7.209 4.349 10.777 2.403 3.573-1.946 5.602-6.035 5.966-10.084M179.396 131.019c-1.691 6.929 1.995 13.892 5.307 20.212 3.312 6.315 6.423 13.77 3.661 20.345-.516 1.233-1.238 2.393-2.211 3.312-2.964 2.816-8.212 2.703-11.052-.231M143.605 254.347s2.153 16.664 11.461 18.202"/></g><defs><clipPath id="a"><path fill="#fff" d="M0 0h280v280H0z"/></clipPath></defs></svg>