<svg fill="none" xmlns="http://www.w3.org/2000/svg" viewBox="0 0 280 280"><path d="M94.73 88.349s-3.48 8.272-19.802 8.272c-16.323 0-38.306 15.231-37.65 49.178.652 33.953 1.275 38.958-.016 56.076-1.292 17.118-5.21 21.472-3.903 28.725 1.309 7.254 13.35 2.466 27.278-13.204 13.929-15.671 15.237-19.552 15.415-21.004.184-1.453-.256-2.684.507-2.973.762-.29 1.124.98 3.373-.434 2.25-1.414 2.177-4.699 3.864-5.896 1.686-1.197 4.77-7.198 8.25-14.09 3.48-6.892 4.064-11.534 10.739-16.177 6.674-4.643 21.688-2.756 33.657-10.299 11.969-7.543 17.046-17.191 22.563-32.572 5.511-15.382 5.801-19.73 25.97-30.613 20.169-10.883 40.226-21.22 51.761-35.8 11.535-14.58-.401-15.27-9.542-11.641-9.141 3.63-18.861 2.466-51.36.868-32.5-1.597-44.87-.217-56.293 5.334-11.423 5.55-17.519 19.695-19.913 31.558C97.234 85.521 94.73 88.35 94.73 88.35ZM174.092 142.103s-12.186 22.201-33.802 33.368c-21.617 11.173-18.427 14.218-22.201 14.797-3.775.579-3.663 2.973-5.511 2.973-1.849 0-4.064-1.96-10.884 1.814-7.092 3.925-13.628 9.28-19.952 14.291-8.94 7.086-18.504 14.657-24.8 24.305-5.116 7.844 6.413 9.77 11.824 10.705 11.028 1.904 22.429 1.965 33.585 1.681 19.228-.49 38.568-2.505 57.373-6.585 49.774-10.795 83.977-60.212 85.747-109.669.624-17.396.568-35.439-2.171-52.668-1.308-8.25-4.587-20.459-15.186-14.497-10.166 5.717-18.394 15.833-25.124 25.18-5.879 8.16-8.489 12.08-8.651 15.236-.161 3.157 1.036 4.949-.818 5.495-1.854.545-4.409 1.686-4.192 3.752.217 2.065 1.687 2.611.651 3.702-1.035 1.085-4.225-1.815-6.836 4.86-2.611 6.674-4.86 12.113-9.069 21.254l.017.006Z" fill="#D71F14"/><path d="M69.666 219.338s23.888-20.436 33.424-24.789c4.208-1.887 6.023-2.21 8.489-1.631 2.466.579 1.821.568 3.012-.652 1.191-1.219 1.742-1.38 4.932-2.282 0 0 1.425-1.559 3.736-3.63 2.31-2.065 11.345-7.432 23.826-14.93 12.481-7.499 22.93-21.555 26.376-27.796 3.446-6.24 6.836-15.181 6.836-15.181s3.419-10.644 6.224-11.93c1.771-.529 2.455.345 3.474-.529 1.019-.868.29-1.319 0-2.154-.289-.835-1.124-2.344.946-3.863 2.066-1.526 3.663-1.342 3.847-2.65.184-1.309-.907-3.04 0-6.408.908-3.368 14.619-22.501 22.162-29.538 7.543-7.037 9.648-7.543 9.648-7.543s-14.391 9.024-18.527 30.134c-4.136 21.109-26.671 93.262-107.921 118.213-16.25 4.933-28.525 5.228-41.974 19.663 0 0 6.457-7.805 11.484-12.498l.006-.006Z" fill="#950800"/><path d="M47.45 120.498c-3.753 7.988-4.766 17.057-4.115 25.858.245 3.279.752 6.664 2.566 9.408.769 1.164 1.882 2.244 3.268 2.372 1.96.183 3.574-1.598 4.31-3.43.734-1.826.962-3.869 1.98-5.55 1.816-3 5.662-4.153 7.873-6.875 2.06-2.533 2.399-6.146 1.57-9.302-.54-2.055-1.537-4.17-.958-6.213.35-1.225 1.225-2.221 2.132-3.118 2.772-2.727 6.113-4.904 8.479-7.994 2.36-3.089 3.534-7.604 1.38-10.844-3.63-5.45-11.35-1.703-15.548.874-5.668 3.485-10.121 8.818-12.938 14.814ZM131.838 43.29c-4.955 1.414-9.67 3.735-13.199 7.237-4.214 4.186-6.391 10.054-7.415 15.804-.54 3.034-.791 6.202.078 9.152.868 2.95 3.028 5.673 5.99 6.514 2.121.6 4.459.183 6.385-.902 6.541-3.691 5.75-14.151 13.667-16.194 2.549-.657 5.21-.379 7.777-.93 4.526-.969 5.027-5.06 8.177-7.75 2.634-2.243 6.352-2.649 9.347-4.23 4.465-2.36 2.773-7.666-1.347-9.37-2.483-1.029-5.288-1.024-7.927-1.202-7.165-.49-14.591.017-21.539 1.87h.006ZM173.033 40.49c-1.214.211-2.416.729-3.223 1.664-.808.93-1.153 2.316-.657 3.44.517 1.18 1.781 1.849 3.011 2.222 1.709.523 3.58.657 5.272.078 1.693-.58 3.157-1.949 3.58-3.686.195-.796.139-1.709-.407-2.316-1.558-1.73-5.539-1.753-7.576-1.402ZM185.894 206.089c-4.187 2.889-8.479 5.662-12.242 9.052-2.561 2.305-4.91 4.982-6.129 8.211-.596 1.576-.896 3.379-.223 4.927 3.04 6.992 14.012 2.338 18.482-.022 11.051-5.835 22.307-13.951 26.861-26.081 1.013-2.7 1.503-6.603-1.492-8.34-2.706-1.564-6.352-.913-9.058.234-6.307 2.672-10.671 8.206-16.199 12.025v-.006ZM217.874 181.188a11.409 11.409 0 0 0-1.676 2.349c-1.241 2.344-2.015 5.501-.206 7.766 1.982 2.478 5.077 1.776 7.198-.089 2.65-2.327 4.615-5.817 4.866-9.374.117-1.676-.473-3.669-2.338-4.064-2.901-.607-5.985 1.375-7.85 3.407l.006.005ZM234.559 98.107c-.601 4.32-.407 8.74.139 13.072.301 2.416.718 4.854 1.67 7.036.629 1.448 1.676 2.884 3.079 2.99 1.235.089 2.349-.902 3.1-2.038 1.22-1.837 1.815-4.119 2.238-6.385a51.35 51.35 0 0 0-.629-21.578c-.757-3.05-2.878-7.376-5.706-3.941-2.277 2.767-3.373 7.17-3.886 10.839l-.005.005ZM88.467 238.015c-1.103.435-2.177.975-2.906 1.793-.73.818-1.047 1.965-.54 2.934.395.751 1.219 1.291 2.082 1.67 1.252.545 2.638.818 4.013 1.03 4.192.657 8.457.874 12.665.64 1.47-.084 2.951-.223 4.309-.657 1.297-.418 2.466-1.097 3.374-1.976.779-.752 1.391-1.726 1.219-2.745-.44-2.561-4.721-3.746-7.226-4.075-3.68-.484-7.438-.629-11.078-.128-2.049.284-4.047.774-5.912 1.509v.005Z" fill="#FF3D3D"/><path d="M94.934 88.349s-3.48 8.272-19.802 8.272-38.306 15.231-37.654 49.178c.651 33.953 1.274 38.958-.017 56.076-1.291 17.118-5.21 21.472-3.902 28.725 1.308 7.254 13.35 2.466 27.278-13.204 13.928-15.671 15.236-19.552 15.414-21.004.178-1.453-.256-2.684.507-2.973.763-.29 1.124.98 3.374-.434 2.248-1.414 2.176-4.699 3.863-5.896 1.687-1.197 4.77-7.198 8.25-14.09 3.48-6.892 4.064-11.534 10.739-16.177 6.674-4.643 21.688-2.756 33.657-10.299 11.969-7.543 17.046-17.191 22.563-32.572 5.511-15.382 5.801-19.73 25.97-30.613 20.169-10.883 40.226-21.22 51.761-35.8 11.535-14.58-.401-15.27-9.542-11.641-9.14 3.63-18.86 2.466-51.36.868-32.5-1.597-44.869-.217-56.293 5.334-11.423 5.55-17.519 19.695-19.913 31.558-2.394 11.864-4.899 14.692-4.899 14.692h.006ZM174.296 142.103s-12.186 22.201-33.802 33.368c-21.617 11.173-18.427 14.218-22.201 14.797-3.774.579-3.663 2.973-5.511 2.973-1.849 0-4.064-1.96-10.884 1.814-7.092 3.925-13.627 9.281-19.951 14.291-8.941 7.086-18.505 14.657-24.801 24.305-5.116 7.844 6.413 9.77 11.824 10.705 11.028 1.904 22.43 1.965 33.585 1.681 19.228-.49 38.568-2.505 57.373-6.585 49.774-10.795 83.977-60.212 85.747-109.669.624-17.396.568-35.439-2.171-52.668-1.308-8.25-4.587-20.459-15.186-14.497-10.165 5.717-18.393 15.833-25.124 25.18-5.878 8.16-8.489 12.08-8.651 15.236-.161 3.157 1.036 4.949-.818 5.495-1.848.545-4.409 1.686-4.192 3.752.217 2.065 1.687 2.611.651 3.702-1.035 1.091-4.225-1.815-6.836 4.86-2.611 6.674-4.86 12.113-9.068 21.254l.016.006Z" stroke="#140D1D" stroke-width=".668" stroke-linecap="round" stroke-linejoin="round"/></svg>