<svg xmlns="http://www.w3.org/2000/svg" fill="none" viewBox="0 0 280 280"><g clip-path="url(#a)"><path fill="#FCFF60" d="M178.664.693S2.437 159.621.229 163.208c-2.209 3.588 12.286 12.837 13.39 12.837 1.105 0 98.147-16.428 98.147-16.428S46.889 273.638 46.889 274.742c0 1.104 3.866 5.521 5.796 5.246 1.933-.275 192.288-155.982 193.53-159.711 1.242-3.729 1.842-14.312 0-14.125-1.841.184-103.713 5.246-105 4.508-1.288-.737 43.711-103.346 43.16-105.184-.553-1.841-3.312-7.408-5.704-4.787l-.007.004Z"/><path fill="#FFD83C" d="M.229 163.207s-1.136 1.478 1.778 4.431c2.914 2.952 10.713 8.198 11.334 8.335.62.138 20.598-3.252 20.598-3.252l77.495-13.052 1.066-1.436s7.179-11.782 7.179-12.287c0-.504-87.24 13.85-87.24 13.85l-30.09 4.787s-1.75 1.196-2.117-1.38l-.003.004ZM48.117 276.619s3.04 3.835 4.703 3.302c1.657-.529 5.361-3.82 5.361-3.82l34.13-27.756 80.886-66.26 53.007-44.138 19.366-17.07s.921 0 1.15-2.762c.23-2.762 1.105-11.229-.504-11.962-.554.783-.367.645-2.438 2.575-2.07 1.933-51.211 44.632-51.211 44.632l-57.021 48.875-52.95 45.726-22.728 19.878-9.433 7.637s-1.828.967-2.755.805l.44.335-.003.003ZM141.209 110.663s-12.71.611-13.126.505c-.417-.106.208-1.277.208-1.277l43.379-88.033 9.02-18.59.554-2.3s.459-.138 1.013.645c.554.783 2.497 2.783 2.099 4.082-.403 1.298-3.479 8.893-3.479 8.893l-23.974 57.24-8.501 20.15-7.19 18.685h-.003Z"/><path fill="#FFFFF3" d="M179.119 6.393s-64.045 106.313-64.045 111.538c0 5.224 106.705-4.833 107.117-2.484.413 2.346-172.629 159.782-173.754 159.813-1.125.032-1.164-.656-1.164-.656s-.141 2.208 1.806 1.517c1.947-.691 11.486-9.161 11.486-9.161l82.134-70.634 62.341-53.825s31.311-27.453 34.479-30.028c3.168-2.575 6.671-5.418 6.611-5.884-.06-.465-4.494-.085-4.494-.085l-97.508 4.251s-16.16 1.066-16.188.237c-.032-.829 25.646-52.421 25.646-52.421l15.197-31.213L179.115 6.39"/><path fill="#C79A2F" d="M83.938 151.536s19.659-4.001 21.938.356c3.129 5.983-4.918 9.55-4.918 9.55l10.481-1.764.674-.332s8.099-12.837 7.835-13.112c-.265-.275-2.653-.208-2.794 0-.141.208-33.213 5.305-33.213 5.305l-.004-.003Z"/><path fill="#FFFDB3" d="M41.366 158.056s-11.229-.092-6.075-10.308c5.154-10.216 98.743-106.75 98.743-106.75l-51.2 46.353-65.612 59.801L2.904 160.5s-4.375 3.927-1.224 4.181c2.691-.138 16.379-2.59 16.379-2.59l23.307-4.035Z"/><path fill="#C79A2F" d="m140.815 110.683 5.041-12.696s-3.757 10.025-8.956 8.166c-3.958-1.414-2.018-10.308-2.018-10.308l-6.943 15.152 1.764.102 11.504-.437"/><path fill="#FFFDB3" d="M108.934 147.54s13.776-5.147 17.935-5.221c1.181-.021-58.513 93.846-58.513 93.846l43.407-76.542 6.533-10.492s1.912-2.621 1.644-2.899c-.268-.279-1.922.045-1.922.045l-9.087 1.267.003-.004Z"/><path stroke="#14041E" stroke-linecap="round" stroke-linejoin="round" stroke-width=".756" d="M178.664.693S2.437 159.621.229 163.208c-2.209 3.588 12.286 12.837 13.39 12.837 1.105 0 98.147-16.428 98.147-16.428S46.889 273.638 46.889 274.742c0 1.104 3.866 5.521 5.796 5.246 1.93-.275 192.288-155.982 193.53-159.711 1.242-3.729 1.842-14.312 0-14.125-1.841.184-103.713 5.246-105 4.508-1.288-.737 43.707-103.342 43.157-105.184-.554-1.841-3.313-7.408-5.704-4.787l-.004.004Z"/><path stroke="#14041E" stroke-linecap="round" stroke-linejoin="round" stroke-width=".756" d="M.593 163.053s-1.086 2.123 2.124 1.516c3.21-.603 116.504-18.756 117.195-18.618.692.137-9.006 15.183-9.006 15.183M179.568.072s2.872-.438 1.214 2.945-53.215 107.876-53.007 108.221c.208.346 19.392-.628 19.392-.628M244.321 106.265s2.812-.48 1.432.945c-1.379 1.425-189.664 164.036-194.634 167.719-4.97 3.679-3.697-1.292-3.697-1.292"/></g><defs><clipPath id="a"><path fill="#fff" d="M0 0h280v280H0z"/></clipPath></defs></svg>