<svg fill="none" xmlns="http://www.w3.org/2000/svg" viewBox="0 0 280 280"><path d="M211.812 178.345s43.045-7.491 40.733 8.473c-2.312 15.965-60.6 19.128-60.6 19.128 27.17-.461 49.419 14.575 22.9 21.747-26.518 7.172-53.303-10.182-53.303-10.182s28.919 13.884 12.955 26.377c-15.965 12.494-54.374 9.715-60.618-1.159-6.25-10.873 9.484-20.127 9.484-20.127-19.896 12.955-54.604 17.354-58.767 2.082-4.162-15.273 26.412-19.631 26.412-19.631-69.41.81-74.619-11.104-53.096-18.394 21.516-7.291 35.24-6.93 35.24-6.93l138.66-1.39v.006Z" fill="#24B860"/><path d="M141.326 203.315s-31.929 1.389-38.717-32.083 27.069-53.83 35.63-89.927c0 0 7.326 21.824 27.453 42.879 24.757 27.069 23.137 75.968-24.372 79.131h.006Z" fill="#FAAAFF"/><path d="M110.822 133.615c-2.122-4.913-10.371-15.752-21.321-24.544-10.95-8.792-14.19-14.805-14.19-14.805s-16.81 33.472-4.01 64.626c12.802 31.16 45.541 36.464 45.541 36.464" fill="#FAAAFF"/><path d="M98.121 188.403s-24.78-.355-41.437-25.035c-16.656-24.68-17.277-49.821-17.277-49.821s12.003 7.302 27.577 10.803M166.728 194.848s32.739-5.304 45.54-36.464c12.801-31.161-4.009-64.627-4.009-64.627s-3.24 6.013-14.191 14.806c-10.95 8.792-19.199 19.63-21.321 24.544" fill="#FAAAFF"/><path d="M185.441 187.894s24.781-.355 41.437-25.034c16.656-24.68 17.277-49.821 17.277-49.821s-12.003 7.302-27.577 10.802M131.67 99.18c-9.153-15.687-29.954-32.746-29.954-32.746-11.654 26.838-10.052 44.435-10.052 44.435s10.271 30.066 18.365 29.144c8.101-.929 21.641-40.828 21.641-40.828v-.006ZM190.432 111.637c-.367-27.21-6.883-43.588-6.883-43.588-18.506 13.108-35.299 33.46-35.299 33.46s-14.391 42.53 10.365 48.958c24.757 6.427 31.817-38.83 31.817-38.83Z" fill="#FAAAFF"/><path d="M169.342 79.608c-21.091-15.533-28.476-50.814-28.476-50.814-3.507 28.458-26.756 48.963-26.756 48.963s3.199 37.718 27.672 37.954c24.473.231 27.56-36.103 27.56-36.103Z" fill="#FAAAFF"/><path d="M67.636 145.884s11.086 23.888 22.344 23.273c11.258-.615 12.494-14.191 12.494-14.191s-3.128 14.244 3.589 26.838c2.158 6.593 10.335 13.032 10.335 13.032v.42s-18.974-3.045-32.082-17.313c-13.109-14.267-15.309-23.521-16.68-32.065v.006ZM216.348 145.192s-11.087 23.888-22.345 23.273c-11.258-.615-13.345-13.942-13.345-13.942s3.589 15.077-2.738 26.589c-2.158 6.593-10.335 13.032-10.335 13.032v.42s18.974-3.045 32.083-17.313c13.108-14.267 15.308-23.521 16.68-32.065v.006Z" fill="#F673FF"/><path d="M43.63 135.395s10.306 35.618 32.2 46.019c4.778 3.305 12.027 5.079 12.027 5.079s6.085 1.33 8.178 1.62c2.093.29 1.62 0 1.62 0s-18.472-8.733-25.413-27.477c-5.706-13.422-5.476-22.131-5.476-22.131s3.016 23.793-2.388 25.141c-8.946 2.235-20.748-28.245-20.748-28.245v-.006ZM240.063 134.969s-10.832 35.518-32.733 45.919c-4.778 3.305-12.027 5.079-12.027 5.079s-6.084 1.33-8.177 1.62c-2.093.289-1.62 0-1.62 0s19.76-9.898 26.702-28.636c4.139-10.335 4.393-17.892 4.393-17.892s-3.222 20.713 2.182 22.061c8.946 2.235 21.274-28.151 21.274-28.151h.006ZM101.924 158.987s6.178 34.595 41.117 32.514c34.938-2.081 38.137-34.318 38.137-34.318s6.599 42.436-39.852 46.132c0 0-16.757.721-29.481-12.618-7.633-8.562-10.737-18.832-9.921-31.704v-.006ZM91.86 110.668s10.472 9.714 14.233 15.326c3.76 5.611 5.031 7.373 5.031 7.373s6.581-11.028 10.992-17.662c4.411-6.634 6.593-10.897 6.593-10.897l2.968-5.64-3.199-4.914s-6.066 19.547-17.945 21.014c-11.879 1.466-18.229-14.835-18.229-14.835s-.716 5.824-.444 10.229v.006ZM148.427 101.461s5.049 8.391 9.892 14.25c4.836 5.86 8.473 9.396 9.774 11.164 1.3 1.762 4.221 5.983 4.221 5.983s.172.609.532 0c.361-.609 3.643-6.853 8.231-11.595 4.588-4.742 9.348-9.833 9.348-9.833l-.384-11.204c.035.964-1.029 2.554-1.419 3.388-1.189 2.519-2.59 4.961-4.293 7.166-4.387 5.682-10.27 8.473-17.141 5.392a17.721 17.721 0 0 1-7.208-5.924c-5.363-7.639-2.95-17.195 2.359-24.177l-13.912 15.385v.005Z" fill="#F673FF"/><path d="M125.764 64.507s-3.512 5.765-11.654 13.25c0 0 8.119 8.124 12.11 13.505 3.991 5.38 5.451 7.911 5.451 7.911l3.802-8.55s-4.559-4.783-8.496-9.046a11.805 11.805 0 0 1-2.774-10.915l1.561-6.161v.006ZM156.818 66.76s4.381 5.362 12.529 12.854c0 0-10.371 10.377-14.965 15.249-2.892 3.063-6.126 6.646-6.126 6.646l-3.932-6.889s5.6-5.227 9.538-9.49c2.708-2.938 6.025-7.207 5.043-11.08l-2.081-7.29h-.006Z" fill="#F673FF"/><path d="M75.535 94.455s-4.375 8.786-6.037 16.313c-1.661 7.521-2.49 14.983-2.49 14.983s2.703-12.417 9.816-15.249c7.113-2.832 16.45 1.892 16.45 1.892s-15.06-11.837-17.739-17.933v-.006ZM208.17 94.272s4.375 8.786 6.037 16.313c1.661 7.521 2.489 14.983 2.489 14.983s-2.702-12.417-9.815-15.249c-7.113-2.832-16.449 1.892-16.449 1.892s15.059-11.837 17.738-17.933v-.006ZM113.927 128.619s8.366-18.353 24.1-20.671c15.734-2.312 30.067 18.927 30.067 18.927s-15.48-16.544-19.844-25.366c-4.824-7.752-7.68-14.303-7.68-14.303l-2.33-5.901s-2.477 10.099-6.569 17.874c-4.092 7.77-11.187 19.033-11.187 19.033l-6.557 10.413v-.006Z" fill="#FBC5FF"/><path d="M165.492 232.429c-2.294.798-4.47 1.969-6.38 3.323-3.092 2.194-7.415 7.119-2.436 9.963 1.703.976 3.784 1.023 5.735.781a22.087 22.087 0 0 0 9.449-3.489c1.981-1.312 3.802-3.033 4.635-5.256.763-2.046.722-5.57-1.868-6.114-3.033-.633-6.185-.231-9.135.798v-.006Z" fill="#3ECE78"/><path d="M141.378 203.315s-31.928 1.389-38.716-32.083 27.068-53.83 35.63-89.927c0 0 7.326 21.824 27.453 42.879 24.757 27.069 23.137 75.967-24.372 79.131h.005Z" stroke="#140D1D" stroke-width=".71" stroke-linecap="round" stroke-linejoin="round"/><path d="M116.894 195.35s-32.739-5.304-45.54-36.464c-12.8-31.16 4.01-64.626 4.01-64.626s3.24 6.013 14.19 14.805 19.199 19.631 21.321 24.544" stroke="#140D1D" stroke-width=".71" stroke-linecap="round" stroke-linejoin="round"/><path d="M98.175 188.403s-24.78-.355-41.437-25.035c-16.656-24.68-17.277-49.821-17.277-49.821s12.003 7.302 27.577 10.803M166.779 194.848s32.739-5.304 45.54-36.464c12.802-31.161-4.008-64.627-4.008-64.627s-3.241 6.013-14.191 14.806c-10.951 8.792-19.199 19.63-21.322 24.543" stroke="#140D1D" stroke-width=".71" stroke-linecap="round" stroke-linejoin="round"/><path d="M185.493 187.894s24.781-.355 41.437-25.035 17.277-49.821 17.277-49.821-12.003 7.303-27.577 10.803M91.717 110.863s-1.596-17.597 10.052-44.435c0 0 20.801 17.059 29.954 32.745M148.309 101.509s16.792-20.346 35.299-33.46c0 0 6.516 16.372 6.882 43.588" stroke="#140D1D" stroke-width=".71" stroke-linecap="round" stroke-linejoin="round"/><path d="M114.162 77.757s23.249-20.505 26.755-48.964c0 0 7.385 35.282 28.482 50.815M73.157 179.735s-13.723-.361-35.24 6.93c-21.517 7.29-16.313 19.204 53.097 18.394 0 0-30.581 4.358-26.413 19.631 4.169 15.272 38.871 10.873 58.767-2.082 0 0-15.734 9.254-9.484 20.127 6.25 10.874 44.653 13.653 60.618 1.159 15.964-12.493-12.955-26.377-12.955-26.377s26.785 17.354 53.304 10.182c26.518-7.172 4.269-22.214-22.9-21.747 0 0 58.288-3.163 60.599-19.128 2.312-15.964-40.733-8.473-40.733-8.473" stroke="#140D1D" stroke-width=".71" stroke-linecap="round" stroke-linejoin="round"/></svg>