<svg xmlns="http://www.w3.org/2000/svg" fill="none" viewBox="0 0 280 280"><path fill="#404040" d="M57.767 112.601s-4.247 7.902-3.152 29.549c1.094 21.648-.022 80.694 3.152 89.324 3.174 8.63 30.667 38.085 84.682 35.347 54.951-2.787 76.157-30.414 76.605-47.646.289-11.12 6.286-100.08 1.825-114.854"/><path fill="#232323" d="M154.886 61.138s-68.015-7.968-94.737 44.986c-21.9 49.173 52.032 72.606 106.355 57.744 54.32-14.863 65.459-54.128 46.345-75.59-22.279-25.022-57.96-27.14-57.96-27.14h-.003Z"/><path fill="#FFFECF" d="M153.284 64.338s-62.931-7.394-87.551 40.655c-20.168 44.625 48.263 66.087 98.485 52.709 50.222-13.377 60.454-49.026 42.733-68.573-20.656-22.785-53.667-24.79-53.667-24.79Z"/><path fill="#FFBB95" d="M35.53 229.646c.539-.689 8.23-10.062 20.134-24.539l-.47-34.216c-21.193 21.934-35.845 37.154-35.845 37.154M161.145 61.915c27.623-28.124 48.487-48.952 49.445-48.682 0 0 .366-.099.78.136.731.413.864 1.534.308 2.21-3.252 3.948-19.089 23.177-40.037 48.62l-7.499-1.867-3-.417h.003Z"/><path fill="#E29973" d="M33.824 231.166c4.422-2.876 5.166-10.749 1.66-17.586-3.505-6.837-9.931-10.049-14.354-7.174-4.422 2.875-5.165 10.749-1.66 17.586 3.505 6.837 9.932 10.049 14.354 7.174Z"/><path fill="#CF8C6A" d="M32.208 228.843c3.518-2.288 4.11-8.551 1.32-13.99-2.788-5.439-7.9-7.994-11.418-5.707-3.519 2.288-4.11 8.551-1.322 13.99 2.789 5.439 7.901 7.994 11.42 5.707Z"/><path fill="#FFBB95" d="M244.629 229.167c-.603-.77-10.169-12.373-24.579-29.819l1.483-32.315c23.012 23.709 39.238 40.494 39.238 40.494M120.109 63.155c-28.37-28.78-49.968-50.266-50.94-49.992 0 0-.367-.095-.781.136-.73.413-.861 1.534-.305 2.21 3.336 4.032 19.891 24.052 41.632 50.345 0 0 3.753-1.442 10.394-2.7Z"/><path fill="#E29973" d="M260.674 223.471c3.493-6.845 2.735-14.717-1.693-17.582-4.427-2.864-10.848.362-14.341 7.208-3.492 6.845-2.734 14.717 1.693 17.582 4.428 2.865 10.849-.362 14.341-7.208Z"/><path fill="#CFC69A" d="M180.168 88.114c-10.402-9.915-34.755-10.86-40.015 6.631l-1.244 4.65-1.576-4.65c-5.26-17.491-29.61-16.542-40.015-6.63-4.757 4.533-8.49 10.94-9.274 17.778v.007-.007a22.38 22.38 0 0 0-.01 5.161c1.704 10.604 11.622 19.795 20.031 25.127 9.532 6.043 20.007 9.225 30.599 11.781v-.122l.152.122c10.595-2.556 21.464-5.216 30.996-11.259 8.41-5.333 18.303-14.131 19.637-25.653 1.004-8.693-3.343-17.278-9.284-22.94l.003.004Z"/><path fill="#CF8C6A" d="M259.289 222.575c2.889-5.663 2.263-12.176-1.4-14.545-3.662-2.37-8.974.3-11.863 5.964-2.89 5.663-2.263 12.175 1.399 14.545 3.663 2.37 8.974-.301 11.864-5.964Z"/><path fill="#FF623C" d="M180.168 86.395c-10.402-9.915-34.755-10.86-40.015 6.631l-1.244 4.65-1.576-4.65c-5.26-17.491-29.61-16.542-40.015-6.63-4.757 4.533-8.49 10.94-9.274 17.778v.007-.007a22.37 22.37 0 0 0-.01 5.16c1.704 10.605 11.622 19.796 20.031 25.128 9.532 6.043 20.007 9.225 30.599 11.781v-.122l.152.122c10.595-2.556 21.464-5.217 30.996-11.259 8.41-5.333 18.303-14.131 19.637-25.653 1.004-8.693-3.343-17.278-9.284-22.94l.003.004Z"/><path fill="#FFFEEE" d="M88.122 103.589s12.933-7.895 21.166-11.137c8.232-3.242 16.138-4.656 19.223-4.979 3.081-.318 5.798-.55 5.798-.55l-2.789-2.807s-10.875-.64-25.717 5.595c-12.955 5.64-16.611 9.344-16.611 9.344l-1.067 4.534h-.003ZM90.227 111.936l1.197 2.422s11.636-7.247 26.783-12.796c15.601-5.035 20.703-3.886 20.703-3.886l-1.054-2.574s-21.048 0-47.626 16.834h-.003ZM139.238 96.902s14.112-6.424 26.224-9.719c9.822-2.269 14.432-1.047 14.432-1.047l-2.866-2.114s-4.645-2.43-18.38 2.174c-13.736 4.604-18.66 8.06-18.66 8.06l-.747 2.643-.003.003ZM128.973 140.536s13.928-8.059 27.859-14.099c13.928-6.039 20.501-7.993 20.501-7.993l5.17-1.267 2.251-.48-2.099 3.323s-9.883 1.61-21.259 7.09c-11.376 5.479-19.932 9.992-19.932 9.992l-8.555 4.814-3.936-1.38Z"/><path fill="#C93E26" d="M87.957 105.14s-1.032 9.352 6.945 17.989c7.978 8.637 15.825 12.929 15.825 12.929s6.171 3.782 17.348 7.314c9.964 2.871 10.592 2.871 10.592 2.871s11.027-2.29 19.21-5.437a70.293 70.293 0 0 0 17.706-9.922c3.737-2.861 8.652-8.672 8.652-8.672s3.047-4.132 4.427-9.002c1.38-4.87.78-8.501.78-8.501s-.892 9.765-9.787 19.064c-8.894 9.295-17.612 12.334-17.612 12.334s-5.301 2.616-12.663 4.807c-7.262 2.021-10.638 2.507-10.638 2.507s-9.831-2.573-16.127-4.765c-6.295-2.191-16.437-7.359-22.872-13.605-6.436-6.246-10.813-13.605-11.786-19.904v-.007Z"/><path fill="#E88B65" d="M97.647 51.486s9.762 9.666 12.124 7.26c3.327-3.388-7.744-13.885-7.744-13.885l17.276 17.405.517.595s-8.699 2.02-10.105 2.997M161.145 61.915l18.731-19.263s-13.452 12.716-8.932 15.958c2.795 2.007 11.416-7.807 11.416-7.807l-10.719 13.395s-5.923-1.901-10.499-2.283h.003ZM226.995 207.761s-4.865-3.505-5.462-10.437c-.125-1.439-.324-12.765 5.067-17.057 5.525-4.398 13.496 5.892 13.496 5.892l-18.563-19.123-1.483 32.315 6.945 8.41ZM41.506 184.794s12.93-7.815 12.806 21.959c0-.305 1.228-1.789 1.228-1.789l-.47-34.073-13.564 13.903Z"/><path fill="#353535" d="M56.08 215.568s-.236 9.986 1.689 15.906c1.924 5.924 19.076 25.285 51.518 32.41 32.442 7.125 59.714-.935 59.714-.935s26.258-6.964 37.124-19.067c10.869-12.103 11.69-16.83 12.51-21.623.821-4.793.517-9.523.517-9.523s-.05 6.011-6.865 16.431c-6.364 9.733-35.722 34.836-89.728 29.843-11.201-1.036-22.204-4.1-32.454-9.288-27.322-13.837-34.025-34.157-34.025-34.157v.003Z"/><path fill="#fff" stroke="#14041E" stroke-linecap="round" stroke-linejoin="round" stroke-width=".499" d="M59.122 180.004c.13 1.065.466 2.36 1.405 2.56.615.133 1.234-.326 1.564-.928.33-.602.429-1.32.525-2.017.787-5.64 1.8-11.434 4.651-16.157.777-1.285 1.732-2.752 1.33-4.24-.453-1.691-2.266-2.665-3.432-3.848-.715-.725-1.215-1.274-1.784-2.15-.57-.875-1.34-1.694-2.295-1.806-4.794-.567-2.403 25.033-1.964 28.579v.007ZM59.555 186.467c-.762 1.723-.632 4.132-.243 5.949.118.56.283 1.124.61 1.565.525.717 1.566.973 2.198.29.556-.602.68-1.642.727-2.461.087-1.547.162-3.21-.33-4.691-.298-.897-1.2-2.007-2.163-1.625-.221.088-.398.277-.538.49-.1.151-.187.312-.261.483ZM59.78 202.026c.04.336.114.673.27.967.404.763 1.318 1.089 2.07.819 3.37-1.204.439-7.345-1.663-4.643-.587.757-.793 1.881-.68 2.857h.002ZM60.574 211.01c-.203.574-.24 1.204-.25 1.821-.058 3.329.61 6.753 2.32 9.467.787 1.25 1.772 2.321 2.752 3.382.494.535 1.004 1.085 1.641 1.376.637.29 1.436.259 1.93-.277.271-.294.424-.707.489-1.127.177-1.135-.23-2.294-.812-3.242-.58-.949-1.327-1.751-1.955-2.661-1.384-2.003-2.133-4.454-2.894-6.841-.458-1.436-2.158-4.933-3.224-1.901l.003.003Z"/><path fill="#C93E26" d="M103.872 94.878s15.187-6.697 20.479-3.294c5.291 3.4-7.86 8.087-7.86 8.087s10.474-3.704 16.254-4.205l5.108-.36s-.951-5.311-3.417-7.92c0 0-16.797.354-30.564 7.696v-.004ZM107.419 80.804s8.487-1.919 11.544.686c3.056 2.602.491 3.914.491 3.914s5.888-1.393 9.824-1.305h1.825s-6.977-7.77-23.684-3.295ZM139.822 94.259s10.058-5.091 17.457-7.594c0 0-8.354 2.296-9.146 0-.79-2.297 5.366-6.383 5.366-6.383s-11.158 2.496-13.677 13.977ZM95.266 120.114s2.91 1.38 7.533-.721c4.623-2.1 53.163-24.249 75.103-27.035 4.135-.98 4.704-2.42 3.367-4.933 0 0 3.476 4.34 4.554 6.144v.69s-45.959 7.832-84.828 31.849c0 0-4.041-3.739-5.726-5.997l-.003.003Z"/><path fill="#FFFEEE" d="M100.04 125.047s13.748-7.576 38.828-18.065c25.08-10.49 44.545-13.14 44.545-13.14l2.406-.273 1.222 2.335v.21s-14.416 1.863-26.379 6.246c-11.963 4.384-15.39 5.399-15.39 5.399l-9.457 3.939-10.067 4.453-12.977 6.439-5.82 2.944-3.839 2.139s-2.904-1.918-3.075-2.629l.003.003Z"/><path fill="#C93E26" d="M112.69 133.961s23.398-16.164 50.285-25.757c18.856-6.439 25.81-7.517 25.81-7.517l.221 1.866s-43.009 15.688-56.527 25.12l-12.371 7.675-3.211.871-4.207-2.261v.003Z"/><path fill="#FFFEEE" d="M115.378 135.348s19.9-13.354 35.675-20.02c15.775-6.666 28.528-10.528 28.528-10.528l9.613-2.293.211 2.066-.211 1.008s-16.403 3.491-37.976 13.63c-21.573 10.139-31.823 17.695-31.823 17.695l-.432.196-3.585-1.754Z"/><path fill="#C93E26" d="M126.355 139.882s22.388-11.81 35.038-17.016c12.651-5.206 23.116-7.489 23.865-7.993.749-.504 1.278-1.257 1.278-1.257l-1.785 3.081s-18.613 4.863-31.994 11.508c-13.381 6.645-23.784 12.331-23.784 12.331l-2.618-.658v.004Z"/><path fill="#404040" d="M87.641 75.619s-6.901 4.992-10.368 8.035c-3.466 3.042-3.227 6.97.706 4.047s8.313-7.489 15.084-11.371c6.772-3.883.47-4.797-5.425-.711h.003ZM182.97 72.17s10.371 4.744 15.342 9.04c4.971 4.296 7.179 1.852 4.891-1.642-2.289-3.494-16.347-10.076-19.584-11.333-3.236-1.257-4.259 1.69-.649 3.932v.003Z"/><path stroke="#14041E" stroke-linecap="round" stroke-linejoin="round" stroke-width=".499" d="M154.763 60.995s-68.015-7.969-94.737 44.985c-21.9 49.173 52.032 72.606 106.355 57.744 54.319-14.862 65.459-54.127 46.345-75.589-22.279-25.022-57.96-27.14-57.96-27.14h-.003Z"/><path stroke="#14041E" stroke-linecap="round" stroke-linejoin="round" stroke-width=".499" d="M153.252 64.338S90.32 56.944 65.7 104.993c-20.167 44.625 48.264 66.087 98.486 52.709s60.454-49.026 42.733-68.573c-20.656-22.785-53.667-24.791-53.667-24.791Z"/><path stroke="#14041E" stroke-linecap="round" stroke-linejoin="round" stroke-width=".499" d="M57.644 112.457s-4.247 7.902-3.152 29.55c1.094 21.647-.022 80.693 3.152 89.323 3.175 8.631 30.667 38.086 84.682 35.348 54.951-2.787 76.157-30.415 76.605-47.647.289-11.12 6.286-100.079 1.825-114.854"/><path stroke="#14041E" stroke-linecap="round" stroke-linejoin="round" stroke-width=".499" d="M88.05 104.174s.832 27.879 50.697 39.202l-.075 2.871c-10.595-2.56-21.066-5.739-30.598-11.782-8.41-5.332-18.33-14.522-20.03-25.127-1.005-8.693 3.341-17.278 9.282-22.94 10.403-9.915 34.755-10.86 40.016 6.632l1.576 4.65 1.244-4.65c5.26-17.492 29.609-16.543 40.015-6.632 5.941 5.662 10.288 14.25 9.283 22.94-1.333 11.522-11.223 20.32-19.636 25.652-9.532 6.043-20.401 8.704-30.996 11.26"/><path stroke="#14041E" stroke-linecap="round" stroke-linejoin="round" stroke-width=".499" d="M138.747 143.376s45.497-6.436 50.701-39.202M55.54 204.964c-11.903 14.477-19.595 23.846-20.133 24.539M161.021 61.772c27.624-28.125 48.488-48.953 49.445-48.683 0 0 .367-.098.781.136.73.414.864 1.534.307 2.21-3.251 3.949-19.089 23.177-40.037 48.62M19.226 207.901s14.652-15.223 35.846-37.154"/><path stroke="#14041E" stroke-linecap="round" stroke-linejoin="round" stroke-width=".499" d="M33.701 231.024c4.422-2.875 5.166-10.749 1.66-17.586-3.505-6.837-9.931-10.049-14.354-7.174-4.422 2.875-5.165 10.749-1.66 17.586 3.505 6.837 9.932 10.049 14.354 7.174Z"/><path stroke="#14041E" stroke-linecap="round" stroke-linejoin="round" stroke-width=".499" d="M32.086 228.695c3.519-2.287 4.11-8.551 1.322-13.99-2.789-5.438-7.901-7.993-11.42-5.706-3.518 2.288-4.11 8.551-1.32 13.99 2.788 5.439 7.9 7.994 11.418 5.706ZM219.928 199.204c14.407 17.446 23.976 29.049 24.579 29.819M119.988 63.011C91.618 34.232 70.02 12.746 69.048 13.02c0 0-.368-.095-.781.136-.73.414-.861 1.534-.305 2.21 3.336 4.033 19.891 24.052 41.632 50.345M260.649 207.386s-16.228-16.788-39.238-40.494"/><path stroke="#14041E" stroke-linecap="round" stroke-linejoin="round" stroke-width=".499" d="M260.556 223.326c3.493-6.846 2.735-14.718-1.693-17.582-4.428-2.865-10.848.362-14.341 7.207-3.492 6.846-2.734 14.717 1.693 17.582 4.428 2.865 10.848-.362 14.341-7.207Z"/><path stroke="#14041E" stroke-linecap="round" stroke-linejoin="round" stroke-width=".499" d="M259.171 222.429c2.889-5.663 2.263-12.176-1.4-14.545-3.662-2.37-8.974.3-11.863 5.964-2.89 5.663-2.263 12.175 1.399 14.545 3.663 2.37 8.974-.3 11.864-5.964ZM89.19 99.048s20.7-15.492 42.348-14.918"/><path stroke="#14041E" stroke-linecap="round" stroke-linejoin="round" stroke-width=".499" d="M88.222 103.519s24.579-16.9 46.227-16.322M91.34 114.358s25.895-16.497 47.587-16.833"/><path stroke="#14041E" stroke-linecap="round" stroke-linejoin="round" stroke-width=".499" d="M90.228 111.936s26.122-16.498 47.813-16.834M99.745 125.047s49.675-26.93 86.078-31.475"/><path stroke="#14041E" stroke-linecap="round" stroke-linejoin="round" stroke-width=".499" d="M103.117 127.673s47.661-26.931 84.063-31.475M139.107 96.944s28.733-14.141 41.064-10.549"/><path stroke="#14041E" stroke-linecap="round" stroke-linejoin="round" stroke-width=".499" d="M139.986 94.259s24.993-13.732 37.323-10.143M115.135 135.348s32.271-23.412 74.061-32.841"/><path stroke="#14041E" stroke-linecap="round" stroke-linejoin="round" stroke-width=".499" d="M118.964 137.105s33.2-22.747 70.228-31.52M128.692 140.68s37.081-21.014 56.285-23.983M132.911 141.832s34.081-19.708 49.936-21.889"/></svg>