<svg xmlns="http://www.w3.org/2000/svg" fill="none" viewBox="0 0 280 280"><path fill="#FCFF60" d="M47.222 88.215s-16.015 22.125-24.23 64.426c-8.214 42.3 4.313 56.468 29.363 50.72 4.313-.206 149.18 12.527 161.808 12.833 12.628.306 14.09-.078 14.399.384.31.463.945 10.667 11.319 9.162 9.908-1.436 17.093-9.393 19.096-19.096 2.004-9.703-2.156-16.582-12.269-12.576-.358.153-71.354-144.815-78.438-158.368-.31-4.003-9.241-45.893-60.062-13.243C69.4 47.403 47.222 88.215 47.222 88.215Z"/><path fill="#FCFF60" d="M194.814 214.869c.97 2.71 1.286 5.625 1.433 8.488.902 17.614-7.221 38.144-25.012 44.372-15.448 5.407-35.402.788-43.466-14.42-12.166-22.946 1.928-43.762 1.928-43.762l24.484 2.035c-2.101 1.779-3.521 4.44-4.488 6.967-2.398 6.27-4.003 15.625 1.39 20.862 4.127 4.007 10.029 4.039 14.954 1.534 9.231-4.693 14.904-18.197 9.54-27.607l19.24 1.531h-.003Z"/><path fill="#E2BF2D" d="M96.184 38.456S45.692 79.47 30.234 147.632c-15.46 68.162 45.231 24.985 87.082-36.33C159.167 49.99 153.232-8.622 96.184 38.456Z"/><path fill="#FFD83C" d="M117.243 145.245s-8.625 19.302 9.856 28.132c18.481 8.83 86.639 27.722 105.022 30.8 18.384 3.081 10.788 7.699 10.788 7.699s-4.107 5.854-14.348 4.697c-.925-.231-1.309-.153-6.39-.231-5.081-.078-37.737-2.306-37.737-2.306l-84.438-6.987-47.639-3.696s10.166-3.287 29.057-17.762c18.892-14.477 35.832-40.349 35.832-40.349l-.003.003Z"/><path fill="#FFD83C" d="M38.524 120.711s3.082-8.316 0-9.935c-3.08-1.615-9.318 15.709-11.09 23.178-1.772 7.469-13.58 44.763-1.362 63.143 14.169 17.966 44.183.224 58.746-14.247 14.566-14.471 25.956-27.438 32.835-38.936 6.879-11.497-6.058-25.871-27.516 1.746-6.495 6.853-14.27 15.325-23.898 22.947-9.625 7.621-22.793 16.093-31.877 12.859-9.084-3.235-6.7-20.637-5.775-25.95.925-5.312 4.234-19.018 6.7-25.949 2.465-6.932 3.237-8.856 3.237-8.856ZM122.955 237.066s3.629-15.123 14.82-17.074c11.192-1.951 9.687 10.371 9.687 10.371s.169-6.159 1.941-10.895 4.583-7.886 4.583-7.886l-24.292-2.035s-7.081 7.892-6.735 27.519h-.004ZM173.351 234.929s5.443-3.85 8.625-10.214c3.182-6.365 14.781-7.137 13.934 7.853 0 0 .83-6.521.228-10.834-.603-4.312-1.329-6.869-1.329-6.869l-19.24-1.531s5.941 7.58-2.221 21.595h.003Z"/><path fill="#BA8824" d="M44.911 106.231s-6.006 20.022 11.703 32.034 26.034 15.253 26.034 15.253-30.962 34.799-48.287 27.943c-17.324-6.853 4.16-60.755 4.16-60.755l6.39-14.478v.003Z"/><path fill="#FFF7AE" d="M151.917 20.18c-2.244.273-4.332 1.501-5.759 3.254-.674.83-1.214 1.791-1.459 2.833-.557 2.372.417 4.674 1.013 6.928a55.457 55.457 0 0 1 1.538 8.41c.899 8.602-1.052 16.673-1.981 25.155-.137 1.264-.228 2.609.355 3.74.955 1.846 3.472 2.426 5.443 1.768 4.351-1.453 7.25-7.16 9.152-10.977 3.414-6.85 5.932-14.56 5.665-22.203-.254-7.316-3.153-19.273-12.765-19.003a13.064 13.064 0 0 0-1.202.094ZM134.7 93.82c-.039.68-.039 1.388.231 2.016.629 1.463 2.58 1.974 4.091 1.476 1.512-.499 2.655-1.733 3.629-2.994 1.635-2.114 3.019-4.481 3.583-7.094.948-4.397-1.31-10.79-5.941-6.019-3.27 3.371-5.316 7.921-5.593 12.615Z"/><path fill="#FFFFF3" d="M129.864 256.677s7.296 13.224 29.063 13.221c22.894-.003 31.356-19.207 31.356-19.207s-23.773 28.092-60.423 5.986"/><path fill="#FCFF60" d="m52.102 203.359 10.37-4.722 10.462-6.616s-6.166 6.821 13.22 10.104c19.387 3.286 70.492 9.677 70.492 9.677l-89.141-7.417-15.4-1.026h-.003Z"/><path fill="#FCFF60" d="M21.37 184.294s3.47 13.214 17.126 10.648c13.657-2.567 23.696-11.908 31.559-15.605 7.866-3.697 8.892 8.625.472 14.269-8.42 5.648-22.305 15.042-36.552 9.573-11.627-4.465-12.608-18.885-12.608-18.885h.003Z"/><path stroke="#14041E" stroke-linecap="round" stroke-linejoin="round" stroke-width=".698" d="M47.222 88.215s-16.015 22.125-24.23 64.426c-8.214 42.3 4.313 56.468 29.363 50.72 4.313-.206 149.18 12.527 161.808 12.833 12.628.306 14.09-.078 14.399.384.31.463.945 10.667 11.319 9.162 9.908-1.436 17.093-9.393 19.096-19.096 2.004-9.703-2.156-16.582-12.269-12.576-.358.153-71.354-144.815-78.438-158.368-.31-4.003-9.241-45.893-60.062-13.243C69.4 47.403 47.222 88.215 47.222 88.215Z"/><path stroke="#14041E" stroke-linecap="round" stroke-linejoin="round" stroke-width=".698" d="M47.959 204.181s18.152-2.772 44.127-28.233c25.976-25.461 78.833-106.335 76.084-141.014"/><path stroke="#14041E" stroke-linecap="round" stroke-linejoin="round" stroke-width=".698" d="M96.184 38.456S45.692 79.47 30.234 147.632c-15.46 68.162 45.231 24.985 87.082-36.33C159.167 49.99 153.232-8.622 96.184 38.456ZM129.694 209.547s-14.093 20.816-1.928 43.762c8.065 15.211 28.018 19.83 43.466 14.42 17.791-6.228 25.911-26.758 25.012-44.372-.147-2.86-.46-5.775-1.433-8.488"/><path stroke="#14041E" stroke-linecap="round" stroke-linejoin="round" stroke-width=".698" d="M154.177 211.582c-2.101 1.778-3.521 4.439-4.488 6.967-2.398 6.27-4.003 15.624 1.391 20.862 4.126 4.006 10.028 4.038 14.953 1.534 9.231-4.694 14.905-18.198 9.54-27.608"/><path fill="#FFFDE9" stroke="#14041E" stroke-linecap="round" stroke-linejoin="round" stroke-width=".698" d="M158.935 109.376c-2.697 4.696-5.192 9.546-6.127 14.836-.221 1.257-.339 2.596.163 3.772.466 1.087 1.401 1.895 2.319 2.641 9.377 7.632 20.142 13.335 30.829 18.989 6.742 3.567 13.488 7.133 20.23 10.703 2.032 1.075 4.742 2.401 7.117 2.075 5.413-.749 2.462-8.101 1.136-11.11-4.149-9.433-9.325-18.647-13.51-28.161-4.257-9.671-8.205-19.465-12.84-28.966a218.141 218.141 0 0 0-1.801-3.622c-1.205-2.358-9.866-20.484-12.875-11.253-2.619 8.035-6.45 15.614-10.534 22.992-1.303 2.355-2.733 4.71-4.11 7.107l.003-.003ZM223.552 180.395c1.388.609 3.052.883 4.384.163 1.472-.798 2.143-2.641 1.974-4.309-.384-3.785-5.413-11.478-10.012-9.117-5.743 2.948-.43 11.462 3.657 13.263h-.003Z"/></svg>