<svg xmlns="http://www.w3.org/2000/svg" fill="none" viewBox="0 0 280 280"><path fill="#FFFFC0" d="m100.481 156.08.819-11.82.214-1.773 3.043-5.861s3.783-5.081 9.361-8.731c8.269-4.273 13.367-9.302 46.744-11.19 50.601-.786 57.911 12.38 57.911 12.38l-.571 15.978s-3.026 60.291-3.482 69.432c-.456 9.14-2.27 17.733-2.27 17.733s-2.136 6.34-3.47 8.737c-1.334 2.396-6.935 7.183-6.935 7.183s-7.097 6.063-12.196 9.58c-5.099 3.516-11.987 6.652-11.987 6.652s-11.578 7.853-30.183 10.919c-18.606 3.067-28.255-5.855-29.288-6.479-1.034-.617-4.758-4.636-4.758-4.636s-5.648-4.666-8.749-19.241c-3.101-14.575-3.528-31.009-3.528-31.009l-1.005-42.274.33-15.574v-.006Z"/><path fill="#FFFFC0" d="M100.734 155.965s-15.793-2.189-25.61 7.737c-9.816 9.921-13.454 22.948-13.442 33.336 3.697 64.963 21.6 63.642 27.365 42.384-7.898-13.51-11.622-31.733-11.249-41.466 0 0 2.327-25.638 22.359-25.193l.577-16.798Z"/><path fill="#FFFFC0" d="M69.206 242.35s12.461-1.922 18.663-5.988c.687 1.38 4.752 10.452 17.71 10.088 0 1.149.826 3.904.826 3.904s1.888 6.6 3.436 9.031c1.547 2.431 3.586 5.093 3.586 5.093s-14.76 4.972-25.778-1.409c0 0-7.737-3.277-11.392-8.514-3.65-5.238-2.883-4.201-7.057-12.205h.006Z"/><path fill="#9B4A00" d="M110.274 145.062s3.921-8.28 16.798-9.071c12.877-.791 13.732.381 17.71.641 3.979.26 16.648-.168 20.257-.913 3.609-.744 7.449-1.761 10.839-3.118 3.389-1.357 10.394-4.279 17.964-4.4 7.57-.121 13.587 4.354 16.284 8.275 0 0-14.136 9.227-38.879 11.826-24.744 2.598-44.221.404-60.973-3.24Z"/><path fill="#ECE78E" d="M101.156 213.929s.947 44.526 15.429 53.384l5.093 3.702s5.128 3.441 12.208 4.238c7.073.797 12.057.682 12.057.682s30.661 2.315 48.007-8.622c17.347-10.936 18.19-26.539 18.19-26.539l1.652-16.809c1.207-8.136 1.426-23.652 1.426-23.652s-8.713 60.042-57.715 62.756c-48.996 2.714-56.358-49.134-56.358-49.134l.011-.006ZM101.45 143.024l5.093 1.097s7.42-13.616 22.336-18.813c15.423-4.648 38.353-4.631 38.353-4.631s16.215-.675 22.654.734c6.438 1.414 9.885 2.54 9.885 2.54l5.365 2.033 4.746 2.598 3.731 2.714 1.282 1.721 2.275-2.229 1.397-1.703s-2.061-4.62-18.403-9.216c-16.342-4.597-38.983-3.453-38.983-3.453s-51.127-.699-59.737 26.608h.006ZM80.031 160.394s7.68-2.483 12.802 1.657c5.122 4.14 1.074 10.908-2.402 12.987 2.754-1.236 3.8-1.802 5.89-2.027 2.09-.225 3.822-.254 3.822-.254l.561-16.319-.237-.358s-10.654-1.865-20.448 4.308l.012.006Z"/><path fill="#ECE78E" d="M94.571 244.146s8.362 4.141 8.512 11.902c.15 7.755-9.632 9.383-9.632 9.383s12.103 2.067 19.985-1.698c0 0-7.691-7.98-7.853-17.283 0 0-6.265.335-11.006-2.298l-.006-.006Z"/><path fill="#E16A26" d="M132.938 148.464s5.093-6.647 21.7-3.401c16.607 3.239 33.896-9.072 41.691-7.605 7.796 1.466-.023 5.387-1.911 5.97-1.888.589-27.637 8.997-61.48 5.03v.006Z"/><path stroke="#14041E" stroke-linecap="round" stroke-linejoin="round" stroke-width=".866" d="M153.82 276.286s-34.358 3.754-43.627-16.572c-14.886-23.981-8.817-116.713-8.817-116.713s37.21 10.319 73.595 4.81c36.384-5.514 43.782-19.021 43.782-19.021s-3.817 83.239-4.643 91.508c-.826 8.269 0 30.003-11.496 39.82"/><path stroke="#14041E" stroke-linecap="round" stroke-linejoin="round" stroke-width=".866" d="M101.376 143.007s4.752-23.779 54.99-26.297c50.232-2.523 62.387 12.086 62.387 12.086"/><path stroke="#14041E" stroke-linecap="round" stroke-linejoin="round" stroke-width=".866" d="M214.896 133.023s-2.026-4.775-15.256-9.187c-14.69-4.897-42.309-4.135-64.362 0-22.052 4.134-28.733 20.43-28.733 20.43"/><path stroke="#14041E" stroke-linecap="round" stroke-linejoin="round" stroke-width=".866" d="M110.274 145.063s4.643-11.445 26.973-9.066c22.324 2.379 34.005-1.19 39.52-3.644 5.515-2.454 23.45-9.834 33.365 4.123M100.735 156.022s-17.41-2.968-28.572 10.949C61 180.893 61.688 197.032 61.688 197.032M100.151 172.757c-20.24-.41-22.359 25.194-22.359 25.194-.55 9.08 2.247 27.24 10.355 39.13"/><path stroke="#14041E" stroke-linecap="round" stroke-linejoin="round" stroke-width=".866" d="M112.855 264.183c-32.636 11.269-43.624-22.058-43.624-22.058-2.823-7.386-8.287-26.734-7.567-45.037"/><path stroke="#14041E" stroke-linecap="round" stroke-linejoin="round" stroke-width=".866" d="M88.157 236.812s3.904 10.106 17.035 9.615"/><path fill="#fff" stroke="#14041E" stroke-linecap="round" stroke-linejoin="round" stroke-width=".866" d="M160.662 238.632c18.302 0 33.139-16.215 33.139-36.217 0-20.003-14.837-36.218-33.139-36.218-18.302 0-33.14 16.215-33.14 36.218 0 20.002 14.838 36.217 33.14 36.217Z"/><path fill="#FCFF60" stroke="#14041E" stroke-linecap="round" stroke-linejoin="round" stroke-width=".866" d="M160.66 230.178c14.033 0 25.408-12.43 25.408-27.764 0-15.333-11.375-27.763-25.408-27.763-14.032 0-25.407 12.43-25.407 27.763 0 15.334 11.375 27.764 25.407 27.764Z"/><path stroke="#14041E" stroke-linecap="round" stroke-linejoin="round" stroke-width=".866" d="M145.276 208.454s4.556 9.857 16.585 9.309c9.695-.549 14.187-10.925 14.187-10.925"/><path fill="#14041E" stroke="#14041E" stroke-linecap="round" stroke-linejoin="round" stroke-width=".866" d="M149.089 197.858a3.817 3.817 0 1 0 0-7.634 3.817 3.817 0 0 0 0 7.634ZM172.232 197.858a3.817 3.817 0 1 0 0-7.634 3.817 3.817 0 0 0 0 7.634Z"/><path fill="#FFFCE6" stroke="#14041E" stroke-linecap="round" stroke-linejoin="round" stroke-width=".866" d="M158.762 140.391c-3.834-4.476-5.769-10.423-5.809-16.319-.017-2.35.26-4.718 1.016-6.941 4.268-12.536 27.943-23.115 16.89-38.746-2.332-3.297-6.207-5.526-7.426-9.557-3.77-12.473 12.306-18.033 17.185-27.065 3.754-6.94-.04-14.314-.45-21.556-.324-5.693.958-14.395 7.379-16.347 2.276-.693 3.436 1.594 2.997 3.51-1.755 7.715 3.679 13.94 8.726 19.132 3.713 3.816 9.158 8.707 10.024 14.291.895 5.769-4.498 10.025-8.956 12.508-2.922 1.622-16.278 8.344-10.538 13.061 2.442 2.01 6.12 2.42 8.915 3.956 8.437 4.637 9.892 15.192 5.446 23.178-5.775 10.36-18.86 12.525-28.48 17.803-11.936 6.542-9.661 16.093-7.507 27.573.329 1.738-.063 3.909-1.692 4.608-.681.294-1.455.266-2.182.133-1.831-.329-4.325-1.813-5.538-3.228v.006Z"/></svg>