<svg fill="none" xmlns="http://www.w3.org/2000/svg" viewBox="0 0 280 280"><path d="M156.94 140.211c-29.249 2.77-47.782 30.731-56.958 49.282l-.188-1.025c.422-3.929 1.564-13.896 3.362-24.793 2.324-14.054-2.905-29.349-2.905-29.349l-2.494-19.324 2.289-7.319.03-3.168c2.635 1.341 6.119 2.57 11.248 1.235 8.919-2.324 15.295-12.004 18.545-19.323 3.25-7.32 14.112-9.698 13.615-18.528-.498-8.83-7.812-9.006-7.812-9.006 3.66-2.495 7.507-6.014 7.788-10.101.463-6.74-6.388-9.873-14.522-10.92-8.133-1.049-12.66-2.671-25.185-8.246-12.525-5.574-17.327-.58-22.808 9.41-5.48 9.99-14.54 19.629-17.192 25.906-2.659 6.271-.674 9.217-.135 19.822.545 10.61-.761 12.56-.761 12.56l-8.028 33.594s-3.526 9.756-5.458 13.632c-1.938 3.871-10.224 18.779-9.756 41.663-.93 8.017 3.174 15.951 3.174 20.601 0 4.649-8.672 24.781-1.393 37.013 7.278 12.233 23.698.932 31.515-.386 7.823-1.318 16.337-2.401 25.244.931 8.906 3.332 48.087 13.052 78.408 5.094 30.314-7.957 61.912-12.138 64.933-46.751 3.022-34.613-40.422-66.673-84.562-62.492l.006-.012Zm-65.543-37.148s-.035.035-.046.052c0 0 .017-.017.046-.052Z" fill="#E27635"/><path d="M101.106 105.364c3.098 4.954 1.241 7.513.152 12.543-1.089 5.03 2.325 6.043 2.495 10.534.17 4.491-5.124 9.527-20.074 10.043-14.95.515-26.52-4.779-29.951-8.667-3.432-3.888-.697-12.256 1.627-16.495 2.325-4.24 1.857-7.378 2.208-13.129.351-5.75 5.399-5.457 5.399-5.457l.562.404-.697 1.745-.52-1.084s-1.172 3.988 15.628 7.994c16.8 4.005 21.496 2.787 21.672.638l1.493.931h.006Z" fill="#A238FF"/><path d="M42.702 161.257s7.443-11.835 13.398-13.551c5.955-1.715 2.863 23.371 2.863 23.371s7.103-22.674 24.864-25.602c17.76-2.927 17.854 26.287 17.854 26.287s3.091-9.205 2.073-18.867c-1.019-9.662-2.782-15.541-2.782-15.541l-.72-3.034s-5.604 4.457-21.127 4.134c-15.524-.322-23.02-6.611-23.02-6.611l-1.276-.931-4.632 12.204s-3.706 7.43-4.918 10.364c-1.213 2.934-2.583 7.771-2.583 7.771l.006.006ZM85.542 74.44S96.51 62.196 96.966 52.019c.457-10.178 1.37-7.988 1.37-7.988s3.251 4.515 9.949 6.752c6.705 2.237 11.226.92 11.226.92l.685-.17s-2.863 3.238-5.212 3.033c-2.348-.205-3.835-2.061-8.221-1.23-4.38.832-4.983 5.616-5.012 7.22-.03 1.605 1.165 3.525 4.257 4.784 3.091 1.26 5.726 1.652 5.726 1.652s-10.347-.797-14.3.52c-3.952 1.318-11.295 6.934-11.295 6.934s-.866.714-.609 0l.012-.006ZM117.895 68.08s6.224.686 13.403-.684 9.317-6.149 7.906-7.103c-1.412-.955-3.526-1.394-3.526-1.394s-3.384 2.582-8.315 4.907c-4.924 2.33-11.571 2.969-11.571 2.969l-3.894.21 5.997 1.096Z" fill="#D76520"/><path d="M149.498 144.784c-4.867 1.283-9.785 3.28-12.467 6.828-.445.592-.832 1.242-.838 1.938-.011 1.242 1.16 2.267 2.343 3.045 6.142 4.041 14.346 5.194 22.181 5.95 6.277.603 12.619 1.036 18.908.562 6.289-.474 12.572-1.915 17.813-4.796 1.821-1.001 3.648-2.401 3.695-4.187.047-1.885-1.891-3.378-3.783-4.468-10.153-5.849-23.048-7.875-35.274-6.968a69.53 69.53 0 0 0-12.59 2.091l.012.005Z" fill="#E49261"/><path d="M234.944 176.575s5.505 24.424-11.951 43.233c-22.761 24.517-39.918 28.487-79.485 32.557 0 0 11.84 2.987 41.651-5.083 29.812-8.069 36.534-9.872 46.465-20.846 9.931-10.979 15.008-30.947 3.32-49.855v-.006Z" fill="#D76520"/><path d="M38.52 234.453c.112 2.406.703 4.889 1.898 6.997 1.136 2.003 3.566 4.895 6.166 3.56 4.878-2.506 6.031-8.742 5.65-13.731-.304-3.959-2.904-15.014-9.029-11.026-3.747 2.441-4.514 7.495-4.684 11.611a29.336 29.336 0 0 0 0 2.589Z" fill="#E49261"/><path d="M83.065 104.855s10.5.919 8.338 8.935c-1.282 4.755-5.258 8.368-1.1 12.373 7.846 7.56-.176 13.135-11.173 12.297 0 0 14.036.363 20.395-3.589 6.36-3.953 3.824-9.393 2.682-11.173-1.142-1.78-1.967-2.934-.293-8.397 1.675-5.463-.287-9.041-.287-9.041l-.854-1.405-.697-.34s-1.698 2.448-6.143 1.909c-4.444-.539-10.874-1.569-10.874-1.569h.006Z" fill="#6E14BD"/><path d="M98.706 28.139c.363.264.784.457 1.06.814.415.545.351 1.347-.006 1.932-.358.586-.95.984-1.558 1.294-1.277.65-2.694.99-4.11 1.207a26.345 26.345 0 0 1-5.722.252c-.31-.018-.638-.047-.907-.205-.422-.24-.633-.75-.627-1.236.006-.486.217-.943.463-1.359 1.007-1.68 2.81-2.793 4.72-3.232 1.908-.439 3.917-.252 5.814.24.205.053.697.164.867.293h.005Z" fill="#E49261"/><path d="M54.834 130.918s-3.525 9.756-5.457 13.632c-1.938 3.871-10.224 18.779-9.756 41.663-.93 8.017 3.174 15.951 3.174 20.601 0 4.649-8.672 24.781-1.394 37.014 7.28 12.232 23.699.931 31.516-.387 7.823-1.317 16.337-2.401 25.244.931 8.906 3.332 48.087 13.053 78.407 5.095 30.321-7.958 61.913-12.139 64.934-46.752 3.022-34.613-40.422-66.673-84.562-62.492-44.14 4.181-63.885 65.748-63.885 65.748" stroke="#140D1D" stroke-width=".703" stroke-linecap="round" stroke-linejoin="round"/><path d="M100.256 134.326s5.23 15.295 2.905 29.349c-2.325 14.054-3.549 26.567-3.549 26.567M64.941 145.475s-10.534 27.259-5.574 55.29M123.024 215.638s15.565 13.088 38.794 10.441c25.713-3.56 29.97-17.878 29.97-17.878" stroke="#140D1D" stroke-width=".703" stroke-linecap="round" stroke-linejoin="round"/><path d="M62.968 94.736s-5.053-.293-5.399 5.457c-.345 5.751.117 8.889-2.207 13.129-2.325 4.239-5.054 12.601-1.628 16.495 3.425 3.894 15.002 9.182 29.952 8.667 14.95-.516 20.243-5.552 20.073-10.043-.17-4.491-3.578-5.498-2.495-10.534 1.084-5.036 2.946-7.589-.152-12.543" stroke="#140D1D" stroke-width=".703" stroke-linecap="round" stroke-linejoin="round"/><path d="M62.313 95.802s-1.172 3.987 15.628 7.993c16.8 4.005 21.496 2.787 21.672.638" stroke="#140D1D" stroke-width=".703" stroke-linecap="round" stroke-linejoin="round"/><path d="M62.87 97.324s1.3-1.95.76-12.56c-.544-10.611-2.524-13.55.135-19.822 2.659-6.271 11.711-15.916 17.192-25.906 5.475-9.99 10.277-14.984 22.802-9.41 12.526 5.575 17.058 7.203 25.186 8.245 8.133 1.048 14.984 4.181 14.522 10.921-.463 6.74-10.628 11.946-13.65 13.52-3.021 1.576-12.718 6.57-22.128 3.614-9.41-2.963-5.517-10.283-2.267-12.14 3.25-1.855 7.958.294 9.352.756 1.394.463 5.34-2.846 5.34-2.846" stroke="#140D1D" stroke-width=".703" stroke-linecap="round" stroke-linejoin="round"/><path d="M98.336 44.031s11.963 14.347 28.863 4.591" stroke="#140D1D" stroke-width=".703" stroke-linecap="round" stroke-linejoin="round"/><path d="M101.938 47.603s2.325 12.807-4.181 20.068" stroke="#140D1D" stroke-width=".703" stroke-linecap="round" stroke-linejoin="round"/><path d="M85.542 74.698s8.21-7.59 16.572-7.706c8.362-.118 16.226 1.083 16.226 1.083M135.678 58.893s7.308.182 7.812 9.006c.497 8.83-10.359 11.208-13.615 18.528-3.256 7.32-9.627 16.999-18.545 19.323-8.918 2.325-12.853-3.097-16.027-3.408-3.174-.31-3.947.773-3.947.773M114.152 54.32s2.635 1.745 3.274 4.573" stroke="#140D1D" stroke-width=".703" stroke-linecap="round" stroke-linejoin="round"/></svg>