<svg xmlns="http://www.w3.org/2000/svg" fill="none" viewBox="0 0 280 280"><path fill="#F673FF" stroke="#14041E" stroke-linecap="round" stroke-linejoin="round" stroke-width="1.384" d="M253.927 83.587c1.813 27.283-.284 48.092.921 75.744-6.885-13.783-18.331-27.17-29.777-37.298-1.955-1.743-3.995-3.386-6.233-4.774-21.546-13.33-42.879.255-54.524 19.194-22.282 36.25-4.632 80.589 30.868 100.421 21.843 12.197 56.351 6.7 70.786-14.662 5.892-8.711 7.805-17.806 9.207-27.991 4.335-31.675-2.663-118.312-4.901-158.826-.269-4.915-4.958-8.358-9.732-7.154-21.943 5.553-77.132 19.407-102.319 24.875-23.416 5.072-45.996 11.602-56.294 14.704a7.812 7.812 0 0 0-5.553 7.834c1.289 29.791 2.521 61.932 3.81 91.383-6.686-13.387-14.661-24.889-25.767-34.918-2.564-2.324-5.255-4.533-8.245-6.262-21.206-12.281-42.043 1.162-53.503 19.818-22.283 36.25-4.632 80.589 30.867 100.421 21.843 12.196 49.778 8.074 64.213-13.302 5.893-8.712 7.196-19.109 8.584-29.295 4.307-31.504-.127-62.895-1.983-94.386-.297-5.128 3.06-9.76 8.032-11.049 16.036-4.136 51.407-13.018 76.481-17.339 18.642-3.215 33.332-5.595 42.653-7.054 6.247-.978 11.97 3.612 12.395 9.916h.014Z"/><path fill="#fff" stroke="#14041E" stroke-linecap="round" stroke-linejoin="round" stroke-width="1.384" d="M16.17 181.185c.355 6.984 2.31 13.953 5.808 20.044 5.865 10.214 18.855 20.994 29.31 9.491 14.675-16.163 10.071-51.761-9.832-62.244-13.075-6.884-21.178 8.755-23.94 19.195-1.147 4.349-1.586 8.924-1.36 13.5l.015.014ZM165.491 171.258c.354 6.983 2.309 13.953 5.808 20.044 5.864 10.214 18.854 20.994 29.309 9.491 14.675-16.163 10.071-51.761-9.831-62.244-13.075-6.884-21.178 8.754-23.94 19.195-1.148 4.348-1.587 8.924-1.36 13.499l.014.015Z"/></svg>