<svg xmlns="http://www.w3.org/2000/svg" fill="none" viewBox="0 0 280 280"><g stroke="#14041E" stroke-linecap="round" stroke-linejoin="round" stroke-width="1.396" clip-path="url(#a)"><path fill="#FF673D" d="M253.443 83.457c1.828 27.508-.285 48.489.929 76.369-6.942-13.897-18.482-27.394-30.022-37.606-1.971-1.757-4.028-3.414-6.284-4.813-21.724-13.44-43.233.257-54.973 19.353-22.467 36.548-4.671 81.252 31.121 101.248 22.024 12.297 56.816 6.755 71.369-14.783 5.942-8.783 7.87-17.953 9.284-28.222 4.37-31.935-2.685-119.287-4.942-160.134-.271-4.956-4.999-8.427-9.812-7.213-22.123 5.599-77.768 19.567-103.162 25.08-23.609 5.113-46.375 11.697-56.758 14.825a7.876 7.876 0 0 0-5.599 7.898c1.3 30.036 2.542 62.443 3.842 92.136-6.741-13.497-14.782-25.094-25.98-35.206-2.585-2.342-5.298-4.57-8.312-6.313-21.38-12.383-42.39 1.171-53.945 19.981-22.466 36.549-4.67 81.253 31.122 101.249 22.023 12.297 50.188 8.141 64.742-13.412 5.941-8.783 7.255-19.267 8.655-29.536 4.342-31.764-.128-63.414-1.999-95.164-.3-5.17 3.085-9.84 8.098-11.14 16.167-4.17 51.831-13.125 77.111-17.482 18.795-3.242 33.606-5.641 43.004-7.112 6.298-.986 12.069 3.642 12.497 9.998h.014Z"/><path fill="#fff" d="M13.728 181.859c.357 7.042 2.328 14.069 5.856 20.21 5.912 10.298 19.01 21.167 29.55 9.569 14.796-16.296 10.155-52.188-9.912-62.757-13.183-6.941-21.352 8.827-24.138 19.353-1.156 4.385-1.6 8.998-1.37 13.611l.014.014ZM164.279 171.851c.358 7.041 2.328 14.068 5.856 20.209 5.913 10.298 19.01 21.167 29.551 9.57 14.796-16.297 10.154-52.188-9.912-62.757-13.183-6.942-21.353 8.826-24.138 19.352-1.157 4.385-1.599 8.998-1.371 13.611l.014.015Z"/></g><defs><clipPath id="a"><path fill="#fff" d="M0 0h280v280H0z"/></clipPath></defs></svg>