<svg fill="none" xmlns="http://www.w3.org/2000/svg" viewBox="0 0 280 280"><path d="M156.3 87.335s16.036 19.905 19.719 70.277c3.684 50.372-1.851 86.361-5.818 92.309-5.078 7.62-22.28 9.089-34.565 7.62-12.284-1.474-19.984-5.978-16.381-19.577 3.603-13.599 23.094-44.887 24.569-82.068 1.475-37.186-8.848-56.634-8.848-56.634l6.386-11.915s5.553-1.085 9.484-.876c3.93.204 5.442.876 5.442.876" fill="#FFBB95"/><path d="M141.375 87.335S154.4 58.953 184.25 59.076c29.857.124 56.635 26.538 65.483 66.587 8.848 40.05-4.794 63.638-7.737 63.761-2.95.124-5.158-15.974-10.446-27.518-5.282-11.55-6.88-14.987-5.775-21.009 1.104-6.022 4.67-12.901 4.67-12.901s-6.102 14.376-9.785 13.882c-3.684-.493-25.883-22.854-25.39-27.111.494-4.257 9.379-16.381 7.904-17.733-1.475-1.35-11.674 13.266-16.338 11.304-4.671-1.968-22.194-27.481-45.455-21.009l-.006.006Z" fill="#24B860"/><path d="M151.846 72.934s-17.597-7.953-55.931 3.838C57.58 88.57 59.302 100.483 63.232 102.328c3.93 1.845 5.979 2.456 2.295 4.344-3.683 1.882-10.236 4.257-12.698 10.896-2.455 6.633-5.571 19.411-6.059 28.586-.493 9.175.08 11.55 7.207 9.749 0 0-8.761 6.145-7.947 14.66.82 8.52 2.456 26.617 10.2 38.537 7.736 11.915 15.85 20.152 19.657 16.709 3.807-3.443-1.228-6.269 1.104-18.06 2.332-11.797 9.706-22.113 9.459-25.679-.247-3.561-10.076-17.449-10.076-17.449s10.933 14.987 15.357 7.003c4.424-7.984 11.18-20.516 15.728-28.136 4.547-7.62 2.091-11.673-4.177-15.11 0 0 10.809 9.459 14.499 1.968 3.684-7.496 15.999-30.492 24.217-44.239" fill="#24B860"/><path d="M149.377 72.108s-10.624-24.162-52.402-29.9C63.56 37.623 36.367 63.173 27.847 86.434c-8.521 23.261-1.148 34.565 2.455 31.782 3.604-2.783.981-11.464 6.084-19.084 5.096-7.62 12.963-9.952 14.253-11.612 1.29-1.66.555-9.397.555-9.397s-.9 9.786 3.683 8.725c4.585-1.068 19.25-3.604 21.133-5.899 1.882-2.295 1.555-9.748 1.555-9.748s-.167 8.995 1.801 9.168c1.969.173 11.446-1.95 11.446-1.95" fill="#24B860"/><path d="M145.57 66.24s6.448-34.515 39.704-42.87c33.257-8.354 56.024 19.492 64.539 32.597 8.521 13.105 6.552 24.303 3.603 23.384-2.949-.92-9.175-14.456-16.215-18.14-7.046-3.683-6.386-8.403-6.386-10.587 0 0 0 5.349-1.721 5.923-1.722.574-12.204-1.802-20.232-1.635-8.027.166-7.286-8.188-7.286-8.188s0 7.33-2.579 9.662c-2.58 2.333-12.162 2.703-12.162 2.703s-17.257-2.351-33.762 12.963c-.407.45-1.148 1.024-2.092.697-.944-.327-1.758-1.228-1.758-1.228l-3.647-5.275-.006-.006Z" fill="#24B860"/><path d="M151.457 73.027s-14.691-6.88-44.727.796C76.695 81.498 67.489 89.328 63.941 93.03c-3.548 3.708-3.579 8.33 0 9.619 3.579 1.296 4.276 2.357 3.128 3.215-1.147.857-12.364 4.812-14.333 12.124-1.968 7.311-2.782 9.952-4.257 17.628-1.48 7.675-1.697 13.635-1.456 16.831.24 3.196 1.407 3.505 3.19 3.992 1.783.488 3.77-.555 3.77-.555s-5.343 3.955-7.188 9.73c-1.845 5.775 1.172 19.991 1.172 19.991s2.277 11.328 4.375 15.875l2.104 4.554s-8.225-23.915-2.08-36.934c6.145-13.019 7.984-12.081 5.362-15.684-2.622-3.603-7.78 1.148-6.633-6.96 1.148-8.107.284-24.779 13.432-32.886 13.149-8.107 19.658-9.212 12.902-15.277-6.756-6.059 34.904-31.862 74.028-25.266Z" fill="#1A8746"/><path d="M82.637 42.041s39.47-1.74 59.423 28.808c1.309 0 2.771.333 2.771.333l4.609 1.117s-3.634-9.138-19.707-19.436C113.666 42.56 86.74 40.486 82.631 42.047l.006-.006Z" fill="#1A8746"/><path d="M145.57 66.24s4.794-23.273 24.316-36.224c0 0-20.262 19.3-19.114 31.584 1.147 12.285 11.464-6.923 34.564-2.517 0 0-16.036-2.172-33.491 13.851l-2.468-.826s-1.511-3.413-3.807-5.868Z" fill="#1A8746"/><path d="M141.437 87.607s12.944-5.035 27.931 5.855l5.485 4.424s-4.053-12.081-15.604-20.312c-11.55-8.23 24.896-18.75 28.5-18.356 0 0-11.563-1.616-22.65 4.455-11.088 6.078-17.153 12.957-23.662 23.934Z" fill="#1A8746"/><path d="m134.922 99.034 6.528-11.668s3.381-1.5 8.996-1.154c5.614.346 6.163 1.333 6.163 1.333l4.566 7.675s-7.286-9.501-15.85-5.775c-8.558 3.727-7.947 15.111-7.947 15.111l-2.456-5.529v.007ZM141.64 120.98s-1.394-7.496-1.882-9.088a50.056 50.056 0 0 0-1.135-3.233s6.664-7.577 13.753-8.558c7.089-.981 11.871 2.159 11.871 2.159s4.554 12.606 5.707 17.246c1.154 4.639.975 4.751.975 4.751s-4.504-17.857-17.202-14.66c-12.698 3.196-10.563 19.737-10.563 19.737l-1.518-8.354h-.006ZM143.916 138.114s.426 13.05.179 18.085c-.247 5.034-.858 8.928-.858 8.928s2.012-21.503 15.092-24.569c13.081-3.073 17.708 16.091 17.708 16.091s-1.987-17.955-3.153-24.223c0 0-16.906-8.632-28.968 5.688ZM136.951 193.305s3.042-10.045 3.746-13.358c.703-3.319 1.363-6.626 1.363-6.626s10.736-4.202 19.948-3.351c8.416 0 14.888 3.351 14.888 3.351l.327 20.663s-4.343-19.041-19.762-17.504c-15.419 1.536-20.516 16.831-20.516 16.831l.006-.006ZM129.596 212.574l-8.434 19.985s-2.264 4.985-2.517 8.663c0 0 9.828-15.462 33.262-14.321 23.434 1.135 20.059 18.683 20.059 18.683s2.943-13.395 3.646-21.311c.698-7.917.728-8.305.728-8.305s-9.1 6.91-25.648 5.028c-13.618-2.283-21.09-8.416-21.09-8.416l-.006-.006Z" fill="#E5895C"/><path d="M129.597 212.574s12.204 8.459 25.025 8.743c12.815.284 21.787-5.652 21.787-5.652l.142-2.826s-16.561 12.106-45.615-3.189l-1.333 2.93-.006-.006ZM142.067 173.314s8.033-3.405 19.947-3.35c11.915.056 14.889 3.35 14.889 3.35v-2.801s-9.237-7.311-34.485.062l-.357 2.739h.006ZM143.491 137.911v-2.166s5.374-6.694 15.141-7.984c9.768-1.289 13.821 2.703 13.821 2.703l.432 1.968s-15.851-8.755-29.394 5.479Z" fill="#FFD2BB"/><path d="M80.625 42.313S68.501 43.731 54.81 52.666s-13.321 18.275-.605 10.717c12.717-7.558 21.46-10.828 37.514-11.79 16.054-.963 2.388-11.206-11.094-9.28ZM242.915 104.562s-8.095-22.188-30.431-37.088c0 0-9.008-4.949-12.753.641-3.746 5.59 7.86 10.81 7.86 10.81s13.371 7.7 20.948 17.69c7.576 9.995 15.733 18.263 14.376 7.947ZM243.328 118.339s-1.567-5.429-3.825-4.386c-2.252 1.048.284 7.65 1.913 12.395 1.629 4.745 6.466 5.553 1.912-8.009ZM213.306 24.703s-8.484-4.738-25.557-1.814c-17.072 2.925-5.442 10.705 5.942 7.51 11.384-3.197 21.682-.643 22.515-.815.832-.173 6.891-1.481-2.894-4.88h-.006Z" fill="#3ECE78"/><path d="M156.362 87.403s16.036 19.904 19.72 70.277c3.683 50.372-1.851 86.361-5.819 92.309-5.077 7.62-22.28 9.089-34.564 7.62-12.285-1.468-19.985-5.979-16.381-19.577 3.603-13.599 23.094-44.887 24.569-82.068 1.474-37.18-8.848-56.634-8.848-56.634" stroke="#140D1D" stroke-width=".74" stroke-linecap="round" stroke-linejoin="round"/><path d="M141.437 87.403s13.024-28.382 42.875-28.259c29.857.124 56.635 26.538 65.482 66.587 8.848 40.05-4.794 63.638-7.737 63.761-2.949.124-5.158-15.974-10.446-27.518-5.281-11.55-6.879-14.987-5.775-21.009 1.105-6.022 4.671-12.902 4.671-12.902s-6.102 14.377-9.786 13.883c-3.683-.494-25.883-22.854-25.389-27.111.493-4.257 9.378-16.381 7.903-17.733-1.474-1.351-11.673 13.266-16.338 11.304-4.67-1.968-22.193-27.482-45.454-21.01l-.006.007Z" stroke="#140D1D" stroke-width=".74" stroke-linecap="round" stroke-linejoin="round"/><path d="M151.906 72.996s-17.597-7.953-55.93 3.838C57.64 88.63 59.361 100.545 63.292 102.39c3.93 1.845 5.978 2.456 2.295 4.344-3.684 1.888-10.236 4.257-12.698 10.896-2.456 6.633-5.572 19.411-6.059 28.586-.494 9.174.08 11.55 7.206 9.748 0 0-8.76 6.146-7.946 14.66.82 8.521 2.455 26.618 10.199 38.538 7.737 11.914 15.85 20.151 19.657 16.709 3.807-3.443-1.228-6.269 1.105-18.06 2.332-11.797 9.705-22.113 9.458-25.68-.246-3.56-10.075-17.449-10.075-17.449s10.933 14.987 15.357 7.003c4.424-7.984 11.18-20.515 15.727-28.135 4.548-7.62 2.092-11.674-4.177-15.11 0 0 10.81 9.458 14.5 1.968 3.683-7.497 15.999-30.492 24.217-44.239" stroke="#140D1D" stroke-width=".74" stroke-linecap="round" stroke-linejoin="round"/><path d="M149.445 72.17s-10.625-24.163-52.402-29.9c-33.417-4.585-60.608 20.965-69.129 44.226-8.52 23.261-1.148 34.564 2.456 31.782 3.603-2.783.98-11.464 6.083-19.084 5.097-7.62 12.963-9.952 14.253-11.612 1.29-1.66.555-9.397.555-9.397s-.9 9.786 3.684 8.724c4.584-1.067 19.25-3.603 21.132-5.898 1.882-2.295 1.555-9.749 1.555-9.749s-.167 8.996 1.802 9.169c1.968.173 11.445-1.95 11.445-1.95" stroke="#140D1D" stroke-width=".74" stroke-linecap="round" stroke-linejoin="round"/><path d="M27.754 109.436s5.732-42.425 41.444-53.568M77.429 53.74s15.437-4.832 29.77 0M84.018 105.419s-10.156 11.958-15.684 28.173M65.879 142.076s-4.548 14.376-4.3 32.923M62.231 187.326s0 12.205 2.296 21.38M93.644 96.121s20.515-18.8 45.824-17.449M145.632 66.302s6.448-34.516 39.704-42.87 56.024 19.491 64.538 32.597c8.521 13.105 6.553 24.303 3.604 23.384-2.95-.92-9.175-14.456-16.215-18.14-7.046-3.684-6.386-8.404-6.386-10.588 0 0 0 5.35-1.722 5.923-1.721.574-12.204-1.801-20.231-1.635-8.027.167-7.287-8.187-7.287-8.187s0 7.33-2.579 9.662c-2.579 2.332-12.161 2.703-12.161 2.703" stroke="#140D1D" stroke-width=".74" stroke-linecap="round" stroke-linejoin="round"/><path d="M167.233 46.613s30.813-33.731 67.13-8.965M179.765 70.374s54.598 0 72.874 76.57M138.617 108.659s12.778-14.636 25.674-6.368M143.719 138.361s11.217-14.814 29.221-5.608M142.065 173.314s20.46-7.539 34.898 0M129.688 212.574s23.706 17.356 46.72 3.344" stroke="#140D1D" stroke-width=".74" stroke-linecap="round" stroke-linejoin="round"/></svg>