<svg xmlns="http://www.w3.org/2000/svg" fill="none" viewBox="0 0 280 280"><path fill="#FFFFEB" d="M53.894 93.685s35.659-22.395 39.12-22.572c3.462-.177 25.226 5.478 44.445 8.635a11158.1 11158.1 0 0 1 34.874 7.06s23.017 4.488 38.975 8.326c15.958 3.839 34.551 8.2 34.551 8.2s14.75 4.038 19.593 6.128c4.842 2.089 6.041 3.375 6.754 7.022.714 3.644.491 8.268.491 8.268l.232 18.284s-1.436 4.384-6.174 9.912c-4.742 5.524-8.399 9.476-8.399 9.476l-2.748 2.939L53.894 93.694v-.009Z"/><path fill="#FF673D" d="M46.417 92.64s-17.953 8.591-29.909 19.929c0 0-5.869 5.483-7.2 8.277-1.33 2.793-2.394 11.82-.595 22.636 1.799 10.815 2.98 13.409 6.119 14.781 3.139 1.372 57.182 18.67 83.488 25.366 18.902 5.806 52.581 13.905 52.581 13.905s36.132 8.799 47.457 10.512c11.324 1.712 10.329.626 15.585-1.5 5.252-2.125 12.91-9.071 12.91-9.071s7.668-7.105 13.574-12.76c5.905-5.656 12.601-14.423 12.601-14.423l2.407-3.711s1.454-8.227.65-14.836c-.804-6.61-2.994-10.23-3.92-10.78-.927-.55-6.11-2.639-6.11-2.639s-55.383-16.267-105.32-26.252c-44.958-9.512-50.164-10.916-50.164-10.916s-41.247-8.68-44.15-8.526l-.004.009Z"/><path fill="#F673FF" d="m70.856 97.02 13.064 2.712 5.733 1.113s10.934-8.845 12.619-10.58c1.69-1.73 1.422-2.399 1.113-2.753-.309-.354-3.957-3.734-5.288-4.18-1.33-.444-5.778-1.44-6.355-1.453-.577-.014-20.886 15.14-20.886 15.14ZM103.989 103.965s14.995-12.16 16.549-12.42c1.554-.263 10.044 1.822 11.688 3.158 1.644 1.335 3.598 3.38 3.334 4.138-.263.759-4.133 4.443-4.133 4.443l-6.315 5.337-6.496-1.422-14.627-3.234ZM174.282 119.637s16.885-15.14 19.552-15.808c2.666-.663 11.32 2.253 12.383 2.962 1.063.708 5.215 3.261 5.097 4.365-.119 1.104-5.097 6.078-5.097 6.078l-8.463 7.986-23.472-5.583Z"/><path fill="#FFFFEB" d="M40.071 127.141c-1.05-.704-1.53-2.003-1.235-3.229.758-3.139 2.207-9.072 2.703-10.566.685-2.063 10.148-3.866 12.287.858.573 1.608 1.54 7.609 1.985 10.516a3.054 3.054 0 0 1-1.149 2.885c-2.33 1.794-7.472 4.311-14.595-.459l.004-.005ZM62.106 132.193c-1.049-.704-1.53-2.003-1.235-3.23.758-3.139 2.207-9.071 2.703-10.566.686-2.062 10.148-3.866 12.287.859.573 1.608 1.54 7.608 1.986 10.516a3.053 3.053 0 0 1-1.15 2.884c-2.33 1.795-7.472 4.311-14.595-.458l.004-.005ZM194.197 169.001c15.073 0 27.292-7.01 27.292-15.658s-12.219-15.658-27.292-15.658c-15.073 0-27.292 7.01-27.292 15.658s12.219 15.658 27.292 15.658Z"/><path fill="#FBFFB7" d="M117.429 126.774c4.253 0 7.7-1.979 7.7-4.42 0-2.442-3.447-4.42-7.7-4.42-4.252 0-7.7 1.978-7.7 4.42 0 2.441 3.448 4.42 7.7 4.42Z"/><path fill="#FBFFB7" d="M125.132 122.744c.187.377.282.777.282 1.191 0 2.439-3.448 4.42-7.7 4.42-4.252 0-7.699-1.981-7.699-4.42"/><path fill="#FBFFB7" d="M109.728 122.354s-.1 2.734 1.113 3.579l-1.113-3.579ZM125.134 121.654s1.394 2.208-.822 4.565l.822-4.565ZM137.092 131.984c4.253 0 7.7-1.979 7.7-4.42s-3.447-4.42-7.7-4.42c-4.252 0-7.699 1.979-7.699 4.42s3.447 4.42 7.699 4.42Z"/><path fill="#FBFFB7" d="M144.791 127.954c.186.377.281.777.281 1.191 0 2.439-3.448 4.419-7.699 4.419-4.252 0-7.7-1.98-7.7-4.419"/><path fill="#FBFFB7" d="M129.386 127.564s-.1 2.734 1.113 3.579l-1.113-3.579ZM144.792 126.864s1.395 2.208-.822 4.565l.822-4.565ZM157.593 135.609c4.253 0 7.7-1.979 7.7-4.42s-3.447-4.42-7.7-4.42c-4.252 0-7.699 1.979-7.699 4.42s3.447 4.42 7.699 4.42Z"/><path fill="#FBFFB7" d="M165.293 131.584c.186.377.281.777.281 1.19 0 2.44-3.448 4.42-7.699 4.42-4.252 0-7.7-1.98-7.7-4.42"/><path fill="#FBFFB7" d="M149.888 131.189s-.1 2.734 1.113 3.579l-1.113-3.579ZM165.293 130.49s1.394 2.207-.822 4.565l.822-4.565ZM107.082 142.082c4.252 0 7.699-1.979 7.699-4.42s-3.447-4.42-7.699-4.42c-4.253 0-7.7 1.979-7.7 4.42s3.447 4.42 7.7 4.42Z"/><path fill="#FBFFB7" d="M114.785 138.057c.186.377.281.777.281 1.191 0 2.439-3.447 4.42-7.699 4.42s-7.7-1.981-7.7-4.42"/><path fill="#FBFFB7" d="M99.38 137.662s-.1 2.735 1.113 3.58l-1.113-3.58ZM114.786 136.962s1.395 2.208-.822 4.566l.822-4.566ZM126.741 147.293c4.252 0 7.699-1.979 7.699-4.42s-3.447-4.42-7.699-4.42c-4.253 0-7.7 1.979-7.7 4.42s3.447 4.42 7.7 4.42Z"/><path fill="#FBFFB7" d="M134.438 143.268c.186.377.282.777.282 1.19 0 2.439-3.448 4.42-7.7 4.42-4.252 0-7.7-1.981-7.7-4.42"/><path fill="#FBFFB7" d="M119.04 142.873s-.1 2.734 1.113 3.579l-1.113-3.579ZM134.439 142.173s1.395 2.208-.822 4.565l.822-4.565ZM147.247 150.922c4.252 0 7.699-1.979 7.699-4.42s-3.447-4.42-7.699-4.42c-4.253 0-7.7 1.979-7.7 4.42s3.447 4.42 7.7 4.42Z"/><path fill="#FBFFB7" d="M154.951 146.897c.186.377.281.777.281 1.19 0 2.44-3.447 4.42-7.699 4.42s-7.7-1.98-7.7-4.42"/><path fill="#FBFFB7" d="M139.545 146.502s-.1 2.735 1.113 3.58l-1.113-3.58ZM154.95 145.802s1.395 2.208-.822 4.566l.822-4.566Z"/><path fill="#DC442A" d="M12.199 116.966s-3.916 3.202-4.18 9.158c-.263 5.955.355 28.264 5.42 31.639 4.21 1.508 18.043 6.487 18.043 6.487s91.424 26.297 100.759 28.645c9.335 2.349 48.765 11.884 48.765 11.884s21.646 4.733 27.074 4.011c5.428-.722 15.804-8.781 15.804-8.781s13.101-11.425 19.488-18.516c6.382-7.091 9.952-11.674 11.138-13.332 1.186-1.658 1.113-2.303 1.113-2.303s2.476-18.157-2.962-24.43c-.341.431-8.517 9.844-11.72 13.637-3.202 3.793-23.253 26.188-33.742 27.196-8.536.563-45.331-7.881-45.331-7.881l-56.969-13.628-51.068-13.905-22.703-6.832s-14.219-5.865-17.244-7.168c-3.026-1.304-6.455-7.886-1.685-15.881Z"/><path fill="#C01FC3" d="M78.706 98.645s10.548-7.65 12.124-8.962c1.576-1.313 5.22-4.043 5.22-4.043l2.352-2.176s4.688 3.398 5.065 4.397c.377 1 .109 1.09-.331 1.69-.445.6-13.841 11.289-13.841 11.289L78.7 98.645h.005ZM118.489 107.172s7.414-6.178 10.198-8.722c2.785-2.544 3.326-3.67 3.326-3.67s3.42 2.407 3.575 3.915c.154 1.509-4.348 4.802-4.348 4.802l-6.123 5.129-6.623-1.449-.005-.005ZM197.753 125.22s9.04-8.463 10.552-10.157c1.513-1.695 2.994-3.099 3.008-3.907.013-.809-5.451-4.52-5.451-4.52s-2.022 3.071-8.813 8.899c-6.791 5.828-8.84 7.409-8.84 7.409l9.539 2.271.005.005Z"/><path fill="#BA301E" d="M150.617 171.832s17.121 7 18.007 18.02c.89 11.02-16.658 7.886-16.658 7.886l31.203 7.4s17.648 3.602 21.278 3.629c3.629.028 4.256-.131 4.492-1.14.237-1.008.832-6.341.773-10.189-.06-3.847.118-10.252.118-10.252s.299-4.543-4.125-4.902c-3.875-.136-20.583-2.921-20.583-2.921l-34.51-7.531h.005Z"/><path fill="#BA301E" d="M206.636 182.439s8.117-.822 21.445-13.801l11.316-11.433s-15.109 15.999-16.381 27.019c-1.276 11.02 9.449 8.054 9.449 8.054s-13.932 14.368-24.385 16.517c0 0 1.34-.513 1.518-7.563.177-7.051.177-13.628.177-13.628s.949-3.866-3.139-5.161v-.004Z"/><path fill="#FFD3AD" d="M103.927 87.843s.972 4.18.727 6.2c-.245 2.022-8.745 8.355-8.745 8.355l-6.255-1.554 12.134-9.953s2.103-1.821 2.139-3.043v-.005ZM135.634 98.128s2.526 2.598 2.28 4.62c-.245 2.021-6.727 7.463-6.727 7.463l-6.255-1.553 9.884-8.395s.777-.918.813-2.14l.005.005ZM197.754 125.443l9.735-9.513s2.008-2.139 2.53-2.748c.522-.609 1.599-2.021 1.599-2.021s.509 3.338.259 6.228c-.25 2.889-7.286 9.571-7.286 9.571l-6.837-1.517Z"/><path fill="#FFFFEB" d="M267.098 122.435s1.553-1.199 2.534-.045c.977 1.154.832 19.642.714 21.595-.119 1.954-2.717 7.659-2.717 7.659s5.056-6.773 5.301-9.021c.246-2.249-.227-17.88-.227-17.88s.423-7.659-1.476-10.68c0 0 .927 3.212-4.12 8.368l-.009.004Z"/><path stroke="#14041E" stroke-linecap="round" stroke-linejoin="round" stroke-width=".681" d="M14.827 158.263s-3.18-.345-4.81-7.645c-1.631-7.3-3.78-21.9-.773-29.632 3.008-7.731 32.639-28.346 38.304-28.346 5.664 0 199.611 41.229 205.107 48.788 5.497 7.559 3.153 20.955 2.953 24.566-.2 3.612-32.266 40.025-47.616 42.773-15.345 2.749-185.006-45.348-193.17-50.504h.005Z"/><path stroke="#14041E" stroke-linecap="round" stroke-linejoin="round" stroke-width=".681" d="M18.125 111.156s-13.342 10.171-6.214 19.878c7.872 10.716 179.996 52.649 194.886 51.277 14.886-1.376 45.867-40.883 45.867-40.883"/><path stroke="#14041E" stroke-linecap="round" stroke-linejoin="round" stroke-width=".681" d="M205.708 182.343s4.524.054 4.093 5.292c-.432 5.237.772 19.842-1.804 21.128M53.831 93.671s35.75-22.331 39.19-22.558c0 0 151.836 28.605 172.831 38.467 0 0 7.559 2.071 4.988 7.318-2.575 5.928-19.397 23.635-19.397 23.635M100.631 85l12.542-10.021M142.262 80.752l-14.881 12.047M166.668 85.64l-28.564 25.621M185.689 89.601l-28.918 25.939M210.84 95.243l-10.644 9.549M241.533 102.571 214.3 129.39M259.142 107.472l-26.561 26.761"/><path stroke="#14041E" stroke-linecap="round" stroke-linejoin="round" stroke-width=".681" d="M70.582 97.001S90.783 81.88 91.873 81.88c1.09 0 5.438 1.086 6.414 1.49.972.4-19.733 15.281-19.733 15.281"/><path stroke="#14041E" stroke-linecap="round" stroke-linejoin="round" stroke-width=".681" d="M98.285 83.364s.822.236 2.348 1.631c2.062 1.89 3.393 2.321 2.921 3.952-.472 1.63-14.105 11.983-14.105 11.983M103.926 104.019s14.4-11.892 16.349-12.405c1.948-.514 11.388 2.175 11.733 3.093.345.918-13.555 12.497-13.555 12.497"/><path stroke="#14041E" stroke-linecap="round" stroke-linejoin="round" stroke-width=".681" d="M132.01 94.703s3.539 2.49 3.625 3.993c.086 1.503-10.521 9.925-10.521 9.925M174.221 119.705s17.057-15.495 19.465-15.84c2.407-.345 11.106 1.949 12.138 2.748 1.031.8-17.394 16.436-17.394 16.436"/><path stroke="#14041E" stroke-linecap="round" stroke-linejoin="round" stroke-width=".681" d="M205.822 106.614s5.096 3.22 5.482 4.542c.387 1.322-13.55 14.128-13.55 14.128M271.102 113.441s1.317.618 1.544 6.573c.227 5.956.286 23.018.286 23.018-1.376 6.3-17.321 22.218-17.321 22.218M40.071 127.141c-1.05-.704-1.53-2.003-1.235-3.229.758-3.139 2.207-9.072 2.703-10.566.685-2.063 10.148-3.866 12.287.858.573 1.608 1.54 7.609 1.985 10.516a3.054 3.054 0 0 1-1.149 2.885c-2.33 1.794-7.472 4.311-14.595-.459l.004-.005Z"/><path stroke="#14041E" stroke-linecap="round" stroke-linejoin="round" stroke-width=".681" d="M42.215 112.569s-1.486 2.189 2.248 3.952c3.734 1.762 11.47.445 8.935-3.062M62.106 132.193c-1.049-.704-1.53-2.003-1.235-3.23.758-3.139 2.207-9.071 2.703-10.566.686-2.062 10.148-3.866 12.287.859.573 1.608 1.54 7.608 1.986 10.516a3.053 3.053 0 0 1-1.15 2.884c-2.33 1.795-7.472 4.311-14.595-.458l.004-.005Z"/><path stroke="#14041E" stroke-linecap="round" stroke-linejoin="round" stroke-width=".681" d="M64.247 117.625s-1.486 2.189 2.248 3.952c3.734 1.762 11.47.445 8.936-3.062M194.197 169.001c15.073 0 27.292-7.01 27.292-15.658s-12.219-15.658-27.292-15.658c-15.073 0-27.292 7.01-27.292 15.658s12.219 15.658 27.292 15.658ZM43.973 116.266l-2.053 11.979M49.96 117.625l-.259 11.92M66.612 121.863l-2.657 11.197M72.603 122.254l.804 12.156M117.429 126.774c4.253 0 7.7-1.979 7.7-4.42 0-2.442-3.447-4.42-7.7-4.42-4.252 0-7.7 1.978-7.7 4.42 0 2.441 3.448 4.42 7.7 4.42Z"/><path stroke="#14041E" stroke-linecap="round" stroke-linejoin="round" stroke-width=".681" d="M125.132 122.744c.187.377.282.777.282 1.191 0 2.439-3.448 4.42-7.7 4.42-4.252 0-7.699-1.981-7.699-4.42"/><path stroke="#14041E" stroke-linecap="round" stroke-linejoin="round" stroke-width=".681" d="M109.728 122.354s-.1 2.734 1.113 3.579M125.134 121.654s1.394 2.208-.822 4.565M137.092 131.984c4.253 0 7.7-1.979 7.7-4.42s-3.447-4.42-7.7-4.42c-4.252 0-7.699 1.979-7.699 4.42s3.447 4.42 7.699 4.42Z"/><path stroke="#14041E" stroke-linecap="round" stroke-linejoin="round" stroke-width=".681" d="M144.791 127.954c.186.377.281.777.281 1.191 0 2.439-3.448 4.419-7.699 4.419-4.252 0-7.7-1.98-7.7-4.419"/><path stroke="#14041E" stroke-linecap="round" stroke-linejoin="round" stroke-width=".681" d="M129.386 127.564s-.1 2.734 1.113 3.579M144.792 126.864s1.395 2.208-.822 4.565M157.593 135.609c4.253 0 7.7-1.979 7.7-4.42s-3.447-4.42-7.7-4.42c-4.252 0-7.699 1.979-7.699 4.42s3.447 4.42 7.699 4.42Z"/><path stroke="#14041E" stroke-linecap="round" stroke-linejoin="round" stroke-width=".681" d="M165.293 131.584c.186.377.281.777.281 1.19 0 2.44-3.448 4.42-7.699 4.42-4.252 0-7.7-1.98-7.7-4.42"/><path stroke="#14041E" stroke-linecap="round" stroke-linejoin="round" stroke-width=".681" d="M149.888 131.189s-.1 2.734 1.113 3.579M165.293 130.49s1.394 2.207-.822 4.565M107.082 142.082c4.252 0 7.699-1.979 7.699-4.42s-3.447-4.42-7.699-4.42c-4.253 0-7.7 1.979-7.7 4.42s3.447 4.42 7.7 4.42Z"/><path stroke="#14041E" stroke-linecap="round" stroke-linejoin="round" stroke-width=".681" d="M114.785 138.057c.186.377.281.777.281 1.191 0 2.439-3.447 4.42-7.699 4.42s-7.7-1.981-7.7-4.42"/><path stroke="#14041E" stroke-linecap="round" stroke-linejoin="round" stroke-width=".681" d="M99.38 137.662s-.1 2.735 1.113 3.58M114.786 136.962s1.395 2.208-.822 4.566M126.741 147.293c4.252 0 7.699-1.979 7.699-4.42s-3.447-4.42-7.699-4.42c-4.253 0-7.7 1.979-7.7 4.42s3.447 4.42 7.7 4.42Z"/><path stroke="#14041E" stroke-linecap="round" stroke-linejoin="round" stroke-width=".681" d="M134.438 143.268c.186.377.282.777.282 1.19 0 2.439-3.448 4.42-7.7 4.42-4.252 0-7.7-1.981-7.7-4.42"/><path stroke="#14041E" stroke-linecap="round" stroke-linejoin="round" stroke-width=".681" d="M119.04 142.873s-.1 2.734 1.113 3.579M134.439 142.173s1.395 2.208-.822 4.565M147.247 150.922c4.252 0 7.699-1.979 7.699-4.42s-3.447-4.42-7.699-4.42c-4.253 0-7.7 1.979-7.7 4.42s3.447 4.42 7.7 4.42Z"/><path stroke="#14041E" stroke-linecap="round" stroke-linejoin="round" stroke-width=".681" d="M154.951 146.897c.186.377.281.777.281 1.19 0 2.44-3.447 4.42-7.699 4.42s-7.7-1.98-7.7-4.42"/><path stroke="#14041E" stroke-linecap="round" stroke-linejoin="round" stroke-width=".681" d="M139.545 146.502s-.1 2.735 1.113 3.58M154.95 145.802s1.395 2.208-.822 4.566"/></svg>