<svg xmlns="http://www.w3.org/2000/svg" fill="none" viewBox="0 0 280 280"><path stroke="#14041e" stroke-linecap="round" stroke-linejoin="round" stroke-width=".6" d="M188.452 165.938s.143 13.263-.045 15.985"/><path fill="#d09aff" d="M61.781 91.43c.029-.008.062-.012.09-.02l-.094.02z"/><path fill="#17723c" d="M221.58 89.537c-1.999-1.641-6.896-2.25-6.896-2.25-10.794-1.815-64.405-16.64-152.813 4.118-2.832.768-3.215 19.727-2.538 21.05.237.457 1.057.775 2.037.995-.29 3.959-7.603 104.72-3.449 110.261 4.24 5.652 100.043 17.993 110.033 15.569s49.191-25.257 51.917-32.223c2.726-6.962 1.371-99.487 1.371-99.487l-1.6.057a27 27 0 0 0 2.808-1.269c.604-2.098 1.126-15.185-.878-16.83z"/><path fill="#0f4c27" d="M167.815 90.81s2.514 5.207 1.971 13.634c-.543 8.431-.947 13.405-.947 13.405v.278l-1.032-.016s-1.861 43.036-1.433 78.944c-.294 35.614-.004 32.067-.004 32.067l-.4 5.293-.518 4.175-.522 1.147s1.775.6 6.341-1.392c4.567-1.987 9.142-4.219 10.19-4.766s15.316-8.293 21.702-12.606 13.104-9.227 14.585-10.929c1.486-1.701 2.045-2.432 2.196-3.011s.51-3.196 1.261-17.124c.755-13.928.375-47.738.375-47.738l-.24-26.782-.221-8.203s1.139-.339 1.441-1.138c.302-.8 1.13-14.426-1.212-16.516l-23.992 1.261-23.244.045-6.297-.032z"/><path fill="#d09aff" d="M96.6 89.945s-2.893 16.074-1.347 25.293l2.865.335-1.163 27.276-1.702 34.818-1.669 22.139-.567 9.121s-.69 9.157-.628 11.92c.06 2.763.212 6.056.212 6.056s.114 3.293 1.06 5.015c.503.188 29.04 4.057 29.04 4.057s-.2-1.135-.44-2.951c-.241-1.816-.253-3.077-.253-3.077s-.339-7.619.036-12.046c.38-4.428 3.118-45.278 3.118-45.278l2.069-46.803.4-8.974h1.135s-1.029-3.665-.221-11.79c.302-7.57 1.261-13.222 1.261-13.222l.318-2.505-33.524.62z"/><path fill="#9749da" d="m98.118 117.952 29.366 1.403v-2.517l-28.709-1.237-.502.171z"/><path fill="#ddb3ff" d="M96.735 90.108s-.592 2.48-.719 3.501c-.126 1.02-1.077 10.08-1.212 14.34-.134 4.261.453 6.897.453 6.897s-.371.526.984.596c1.359.069 32.496 1.285 32.496 1.285s-.837-9.99.277-18.588.89-8.697.89-8.697l-33.17.662z"/><path fill="#21a657" d="M60.676 93.765s.114-2.257 1.963-2.257 23.926-1.228 23.926-1.228l9.941-.347-.302 1.697s-32.084.84-33.475.927c-1.922.114-2.057 1.212-2.057 1.212zM129.903 91.43s24.139-.143 38.446.755l-.734-1.424s-11.259-1.012-24.375-1.225c-13.116-.212-12.937-.093-12.937-.093l-.404 1.983z"/><path fill="#fbf8ff" d="M96.493 91.601s25.93-.183 28.248-.175 5.052.081 5.052.081l.331-2.183-33.39.78z"/><path fill="#17723c" d="M62.639 91.177s24.93-.755 28.762-1.008 35.001-.84 35.001-.84 20.911-.017 23.686.285 15.793.91 17.36 1.008c1.563.102 30.933 0 30.933 0l18.066-.857 4.301-.44s-.718-.935-5.603-1.882c-4.881-.947-11.892-2.391-11.892-2.391l-10.63-1.743-55.051-5.08-38.756 5.166-6.436 1.959-29.745 5.823z"/><path fill="#07371a" d="M106.382 88.002s14.144-.559 20.976-2.154c6.835-1.596 6.7.73 14.205-1.143 3.338-.833 5.828-.56 8.917.24s26.456 3.824 36.675 2.204-32.439-7.508-47.334-8.21c-14.892-.702-47.828 7.015-46.592 8.21.747.723 5.803.96 13.149.853z"/><path fill="#17723c" d="M168.607 92.128s4.55.032 7.345.057c2.796.024 26.216-.445 32.496-.755s13.516-1.388 13.516-1.388-.049-.57-1-.502c-.951.07-3.873.213-3.873.213s-24.399.865-35.801.869h-13.189z"/><path fill="#ddb3ff" d="M140.289 82.407c-3.636 1.56-7.855 1.294-11.132-.922-2.13-1.44-4.62-3.701-5.024-7.61-1.008-9.79 11.81-14.737 18.266-11.1 6.032 3.39 13.292 13.03-2.11 19.632"/><path fill="#ddb3ff" d="M129.055 64.125s-19.454-31.83-39.842-21.029C67.226 54.743 76.6 82.962 96.58 86.394c19.984 3.432 33.321-4.448 33.321-4.448l-.849-17.821zm-4.754 10.561s-8.774 3.673-15.989 2.461c-9.688-1.159-13.17-7.721-12.263-12.565.91-4.844 5.701-6.056 5.701-6.056 15.491-3.632 23.514 9.79 23.514 9.79-1.465 2.522-.963 6.37-.963 6.37M190.443 40.86c-20.808-2.995-43.384 25.82-43.384 25.82l-3.305 13.977c79.263 23.722 69.248-36.549 46.689-39.797m-5.407 29.374s-4.138 5.738-17.952 7.293c-8.137.832-18.127-1.551-18.127-1.551s1.102-3.359.759-4.991c0 0 17.103-20.784 31.031-16.315 12.643 4.517 4.289 15.568 4.289 15.568z"/><path stroke="#14041e" stroke-linecap="round" stroke-linejoin="round" stroke-width=".6" d="M61.37 113.454S53.68 218.063 57.92 223.715s100.043 17.993 110.033 15.569 49.191-25.257 51.917-32.223c2.726-6.962 1.371-99.487 1.371-99.487M61.781 91.43a437 437 0 0 1 31.137-6.158M221.347 89.36c-12.14 1.474-49.003 1.262-53.545 1.262-34.667-3.33-106.02.808-106.02.808"/><path stroke="#14041e" stroke-linecap="round" stroke-linejoin="round" stroke-width=".6" d="M167.803 90.622s1.012 1.135 1.767 6.056-.755 21.237-.755 21.237M167.803 117.939s-1.147 39.144-1.449 57.157.996 63.241-1.424 64.47M140.514 82.297c-3.636 1.559-7.856 1.294-11.133-.922-2.13-1.44-4.619-3.702-5.023-7.611-1.008-9.79 11.81-14.736 18.266-11.1 6.031 3.391 13.291 13.03-2.11 19.633"/><path stroke="#14041e" stroke-linecap="round" stroke-linejoin="round" stroke-width=".6" d="M129.276 64.015s-19.454-31.831-39.842-21.03C67.446 54.634 76.82 82.853 96.8 86.285c19.984 3.432 33.32-4.448 33.32-4.448"/><path stroke="#14041e" stroke-linecap="round" stroke-linejoin="round" stroke-width=".6" d="M125.264 68.475s-7.117-12.52-21.727-10.402c-14.605 2.118-8.451 27.5 20.76 16.613M147.28 66.57s22.575-28.816 43.384-25.82c22.555 3.248 32.569 63.518-46.689 39.796"/><path stroke="#14041e" stroke-linecap="round" stroke-linejoin="round" stroke-width=".6" d="M149.578 71.144s16.862-20.037 30.259-16.858c15.785 3.746 9.529 29.672-31.071 21.734M93.812 231.922c-3.162-3.24-.24-28.264.992-47.44 1.228-19.176 3.314-68.909 3.314-68.909M127.631 116.907s-2.085 49.734-3.314 68.91c-1.228 19.176-3.897 42.869-1.501 50.044M96.6 89.944s-2.927 16.609-1.31 25.498"/><path stroke="#14041e" stroke-linecap="round" stroke-linejoin="round" stroke-width=".6" d="M192.716 83.326c11.239 1.608 18.638 3.407 21.968 3.966 0 0 4.893.604 6.896 2.249 2 1.64 1.482 14.732.878 16.829-11.655 6.207-52.627 11.504-52.627 11.504-11.908.706-97.35-3.432-104.21-3.938 0 0-5.602-.151-6.284-1.477s-.294-20.298 2.538-21.053"/><path stroke="#14041e" stroke-linecap="round" stroke-linejoin="round" stroke-width=".6" d="M130.124 89.537s-2.926 17.829-1.31 27.37"/></svg>