<svg width="280" height="280" fill="none" xmlns="http://www.w3.org/2000/svg"><g clip-path="url(#clip0_5118_2)"><path d="M139.812 71.74s-.607 1.379-14.395-1.378c-13.789-2.757-74.703-8.465-91.828 48.12-17.125 56.585 28.54 97.039 104.732 94.309 76.192-2.729 116.441-38.251 110.855-92.24-5.461-52.779-54.932-65.519-109.364-48.809v-.002z" fill="#FF673D"/><path d="M114.869 129.886a402.368 402.368 0 0 1-25.393 2.637c-1.78.129-3.562.243-5.333.465-4.042.504-8.22 1.594-12.287 1.376-.252-3.776.774-7.524 2.106-11.066 4.105-10.912 11.643-20.954 22.214-25.868 3.5 4.62 6.277 9.985 8.978 15.113 3.113 5.908 6.23 11.646 9.713 17.343h.002z" fill="url(#paint0_linear_5118_2)"/><path d="M141.522 108.306s-2.074-12.86-11.087-10.437c-13.057 3.508-9.606 21.92 8.391 35.943 0 0 14.905-12.478 19.874-23.519 4.969-11.04-.332-16.782-9.386-13.47-6.922 3.312-7.794 11.483-7.794 11.483h.002z" fill="url(#paint1_linear_5118_2)"/><path d="M166.93 127.052c8.51.157 17.026.045 25.527-.336 1.782-.081 3.566-.172 5.35-.159 4.074.03 8.349.624 12.363-.066-.188-3.779-1.644-7.381-3.379-10.744-5.348-10.359-14.006-19.455-25.076-23.106-2.938 4.995-5.071 10.647-7.157 16.055-2.405 6.23-4.832 12.291-7.628 18.356z" fill="url(#paint2_linear_5118_2)"/><path d="M116.626 148.446s-19.654 2.814-34.119 3.037c0 0 3.81 23.243 15.57 32.186 11.76 8.944 25.175 12.918 47.699 9.441 0 0-1.27-15.182 0-16.782 1.27-1.602 9.331-4.362 15.292-6.404 5.962-2.042 9.109-2.319 9.716-.772.608 1.544 1.38 16.672 1.38 16.672s20.551-13.335 24.126-46.899c0 0-33.732 5.824-51.179 6.376-2.871.332-5.631.387-6.183 3.754-.553 3.367.552 9.716-.938 11.703-1.49 1.988-16.065 4.085-19.322 2.595-3.257-1.49-2.042-14.905-2.042-14.905v-.002z" fill="url(#paint3_linear_5118_2)"/><path d="M149.173 69.144s-1.378-4.148-.674-6.877c.704-2.73 2.235-4.882 3.433-7.653 1.199-2.772 3.931-5.956 0-6.453-3.93-.496-9.141.208-9.968 1.366-.826 1.159-2.289 6.577-3.805 9.556-1.516 2.979-6.423 7.88-7.579 9.37-1.157 1.49-1.962 2.42-1.962 2.42s5.598 1.053 7.507 1.22c1.909.165 2.334.138 5.173-.799 2.84-.936 6.664-1.826 6.664-1.826l1.211-.32v-.004z" fill="#22A255"/><path d="M99.98 102.778l-3.684-5.34s-9.983 4.306-17.262 16.162c-7.279 11.858-6.949 19.881-6.949 19.881l-.033.635s.283.469 2.57.192c2.29-.275 4.66-.497 4.66-.497l2.465-.552s.43-5.763 1.588-9.348c1.158-3.586 3.735-10.852 9.361-15.609 5.626-4.757 7.281-5.528 7.281-5.528l.002.004zM134.482 129.898l4.501 3.882s6.245-5.869 7.983-7.482c1.738-1.613 8.148-7.859 11.664-15.719 3.516-7.858 2.165-12.23-.924-13.828-3.089-1.6-7.391-1.71-12.216 3.143 0 0 5.929-3.363 8.081 2.675 1.406 3.75-2.785 10.12-2.785 10.12l-5.321 6.617-5.9 6.066-5.081 4.524-.002.002zM178.888 98.376l2.949-5.723s5.68 1.45 11.691 6.47c6.01 5.019 8.492 8.644 10.767 11.953 2.275 3.309 4.26 8.273 4.26 8.273l1.117 3.847.247 1.284.338 1.902-9.708.231s-1.617-18.808-21.666-28.237h.005zM109.248 149.374s-.708 11.05 1.719 12.761c2.427 1.71 6.232 1.737 6.232 1.737l2.647.068h.414s-2.012-.37-2.619-2.108c-.607-1.737-.994-5.348-1.076-7.666-.083-2.317.22-5.763.22-5.763l-7.537.973v-.002zM145.947 193.06s5.611-.345 5.916-1.061c.302-.717-.527-5.047-.527-5.047s-1.182-9.154-1.059-10.644c.123-1.491.662-2.235 1.366-2.69.704-.454.909-.496.909-.496s-6.245 2.027-6.825 3.433c-.224.704-.372 4.053-.372 4.053l.29 7.074.302 5.376v.002z" fill="#C53423"/><path d="M31.323 154.522s4.5 9.541 10.456 8.382c5.956-1.158 6.442-14.139 6.442-14.139s6.199 19.739 17.118 19.904c10.92.165 8.787-10.729 8.787-10.729s7.224 42.742 54.047 47.541c46.824 4.799 71.367-25.11 78.811-49.315 0 0 .662 20.305 10.59 18.152 9.928-2.15 14.56-31.767 14.56-31.767s1.159 13.497 7.611 13.615c6.452.119 9.761-19.625 9.761-19.625s1.277 36.118-38.906 58.87c-33.233 18.535-73.894 17.376-73.894 17.376l-8.148.015s-16.217.29-34.995-4.013c-18.778-4.302-53.59-16.987-62.242-54.27l.002.003z" fill="#C53423"/><path d="M139.812 71.742s-.607 1.378-14.395-1.379c-13.789-2.757-74.703-8.465-91.828 48.12-17.125 56.585 28.54 97.039 104.732 94.31 76.192-2.73 116.441-38.251 110.855-92.24-5.461-52.78-54.932-65.52-109.364-48.81v-.001z" stroke="#14041E" stroke-width=".423" stroke-linecap="round" stroke-linejoin="round"/><path d="M128.615 70.873s.804-.93 1.962-2.42c1.159-1.491 6.064-6.392 7.58-9.37 1.515-2.98 2.978-8.398 3.805-9.557.827-1.158 6.04-1.86 9.968-1.365 3.93.496 1.199 3.68 0 6.452s-2.729 4.922-3.433 7.653c-.704 2.73.674 6.878.674 6.878" stroke="#14041E" stroke-width=".423" stroke-linecap="round" stroke-linejoin="round"/><path d="M141.886 49.647s-1.349 2.302 4.399 2.799c5.751.496 7.998-1.214 7.692-2.8M115.057 129.862a401.523 401.523 0 0 1-25.367 2.634c-1.778.129-3.558.243-5.328.465-4.038.503-8.211 1.592-12.274 1.374-.252-3.771.773-7.516 2.103-11.055 4.102-10.9 11.632-20.932 22.192-25.84 3.497 4.614 6.271 9.974 8.968 15.096 3.11 5.903 6.224 11.634 9.704 17.326h.002zM141.683 108.301s-2.072-12.847-11.076-10.427c-13.044 3.506-9.596 21.899 8.383 35.907 0 0 14.889-12.465 19.853-23.494 4.964-11.03-.331-16.766-9.376-13.457-6.915 3.309-7.786 11.471-7.786 11.471h.002zM99.98 102.779s-16.732 8.451-18.233 30.567M167.065 127.03a403.04 403.04 0 0 0 25.501-.336c1.78-.08 3.562-.171 5.344-.158 4.07.029 8.341.623 12.351-.066-.188-3.776-1.642-7.374-3.376-10.733-5.342-10.349-13.991-19.436-25.05-23.082-2.935 4.989-5.066 10.636-7.15 16.037-2.402 6.224-4.827 12.279-7.62 18.338zM178.887 98.377s17.603 6.444 21.666 28.237M116.812 148.402s-19.634 2.812-34.084 3.034c0 0 3.806 23.22 15.554 32.154 11.748 8.934 25.15 12.905 47.65 9.431 0 0-1.268-15.167 0-16.765 1.269-1.6 9.322-4.357 15.277-6.397 5.956-2.04 9.099-2.317 9.706-.772.607 1.543 1.379 16.655 1.379 16.655s20.53-13.321 24.101-46.851c0 0-33.698 5.818-51.127 6.37-2.868.332-5.625.387-6.177 3.75-.552 3.364.552 9.706-.937 11.691-1.488 1.986-16.048 4.081-19.302 2.592-3.253-1.488-2.04-14.89-2.04-14.89v-.002z" stroke="#14041E" stroke-width=".423" stroke-linecap="round" stroke-linejoin="round"/><path d="M109.248 149.375s-.749 9.562 1.444 12.457c2.192 2.896 11.913 1.964 11.913 1.964M145.501 193.085s5.808-.425 6.332-.92c.524-.497-2.055-14.201-1.558-16.765.497-2.564 6.892-4.146 6.892-4.146M145.144 100.249s6.256-4.328 8.573 2.786c2.262 9.239-19.233 26.864-19.233 26.864" stroke="#14041E" stroke-width=".423" stroke-linecap="round" stroke-linejoin="round"/></g><defs><linearGradient id="paint0_linear_5118_2" x1="114.869" y1="115.912" x2="71.82" y2="115.912" gradientUnits="userSpaceOnUse"><stop offset=".54" stop-color="#FCFF60"/></linearGradient><linearGradient id="paint1_linear_5118_2" x1="141.586" y1="133.812" x2="141.586" y2="95.888" gradientUnits="userSpaceOnUse"><stop offset=".54" stop-color="#FCFF60"/></linearGradient><linearGradient id="paint2_linear_5118_2" x1="172.693" y1="132.817" x2="200.124" y2="105.386" gradientUnits="userSpaceOnUse"><stop offset=".54" stop-color="#FCFF60"/></linearGradient><linearGradient id="paint3_linear_5118_2" x1="139.287" y1="143.911" x2="143.63" y2="193.557" gradientUnits="userSpaceOnUse"><stop offset=".49" stop-color="#FCFF60"/></linearGradient><clipPath id="clip0_5118_2"><path fill="#fff" transform="translate(30 48)" d="M0 0h219.689v164.922H0z"/></clipPath></defs></svg>