<svg fill="none" xmlns="http://www.w3.org/2000/svg" viewBox="0 0 280 280"><path d="M170.246 129.632c.832-5.178 5.511-48.832 8.18-74.88 2.668-26.048 10.72-34.976 19.283-36.435 6.848-1.171 19.782 3.046 18.95 27.757-.832 24.71-6.425 63.027-6.675 77.804-.25 14.778 5.261 23.789 10.515 48.084 5.261 24.294-3.507 92.492-85.312 89.824-81.811-2.669-76.467-97.172-76.467-97.172s-1.754-26.963-2.502-58.265c-.75-31.303-3.821-56.455 12.396-60.48 16.653-4.135 20.41 12.646 21.415 28.422 1.005 15.776 3.257 60.352 4.256 66.867l-.263-2.259c-.665-17.197 3.936-37.728 23.546-35.725 12.96 1.325 14.554 18.97 14.387 29.575l.064 5.318c-.665-17.197 4.007-41.229 23.539-35.718 19.533 5.51 14.023 40.729 14.023 40.729" fill="#F2AA80"/><path d="M58.803 174.157s-1.024 75.168 63.558 86.361c72.263 10.4 91.175-39.2 91.175-39.2s5.894-13.433 6.931-21.945c1.037-8.506 1.12-13.434 1.12-13.434v-5.094l-.659-6.695s-4.282 74.893-83.821 73.645c-81.69-1.286-78.304-73.645-78.304-73.645v.007ZM201.344 161.19s-17.478-9.734-18.906-44.62c-1.254-30.554-1.42-93.92 18.906-98.343 0 0-15.808-2.547-20.864 23.565-1.677 9.722-2.554 16.762-2.554 16.762l-2.905 28.69-3.418 31.207-1.107 11.437s.058 5.971-.205 8.429c-.262 2.457-.384 4.813-.384 4.813s11.77 4.076 14.778 6.163c3.008 2.086 6.425 4.301 9.101 6.259a121.87 121.87 0 0 1 4.928 3.84l2.835 2.547-.211-.749h.006Z" fill="#EE9C6D"/><path d="M132.192 138.093s13.644.358 25.548 2.432c10.228 1.965 11.367 2.509 11.367 2.509l.301.096s2.003-16.583-.749-25.159c0 0 1.254 25.159-20.41 20.122-16.71-3.885-13.145-24.109-13.145-24.109s-3.821 11.699-2.912 24.109Z" fill="#EE9C6D"/><path d="M126.746 108.589s10.982 28.019-15.22 32.768c0 0 6.919-2.579 13.178-2.995 6.259-.416 7.302-.295 7.302-.295l.039-9.51s-.634-13.011-5.306-19.975l.007.007ZM116.447 202.342s2.189-13.395 17.094-20.345c12.083-4.634 16.026-3.008 16.026-3.008s9.331 2.131 14.022 1.817c0 0 8.512 15.655 11.955 19.661 2.631 3.571 2.944 3.821 2.944 3.821s-23.436-34.707-62.048-1.939l.007-.007Z" fill="#EE9C6D"/><path d="M104.019 177.779s1.651 6.157 8.94 10.291c6.08 3.45 3.488 14.272 3.488 14.272s2.317-8.012 8.64-13.964c6.324-5.952 9.127-6.624 9.127-6.624s-4.263-1.293-4.819-7.597l-.327-.359s-3.712 9.114-9.952 10.407c-6.24 1.293-12.371-1.319-15.097-6.432v.006ZM98.125 163.738c-10.547-21.159-11.955-72.282-14.86-96-3.13-25.543-17.55-20.832-17.55-20.832s6.452-4.128 13.978-.128c7.527 4 9.312 18.028 9.312 18.028l1.613 19.962 1.754 29.382 1.171 15.572.46 8.377" fill="#EE9C6D"/><path d="M216.377 52.205s2.579-25.811-8.397-30.989c-9.216-4.346 7.098 6.534 3.572 43.328-1.869 19.482 4.108 17.715 4.825-12.333v-.006ZM182.431 148.499s-14.777-9.651-41.574-9.645c-26.797 0 6.246 3.872 22.035 7.264 19.034 4.09 37.229 12.442 19.533 2.381h.006Z" fill="#F7CAB0"/><path d="M94.285 141.114c-1.005-6.509-3.258-51.092-4.256-66.868-1.005-15.776-4.755-32.556-21.415-28.422-16.217 4.026-13.145 29.178-12.396 60.48.748 31.302 2.502 58.266 2.502 58.266s-5.344 94.496 76.467 97.171c81.811 2.675 90.573-65.53 85.312-89.824-5.261-24.295-10.771-33.306-10.515-48.083.25-14.778 5.843-53.095 6.675-77.805.832-24.71-12.102-28.928-18.95-27.757-8.563 1.46-16.615 10.394-19.283 36.435-2.669 26.048-7.348 69.703-8.18 74.88" stroke="#140D1D" stroke-width=".768" stroke-linecap="round" stroke-linejoin="round"/><path d="M169.581 143.034s5.51-35.22-14.023-40.73c-19.532-5.51-24.211 18.522-23.539 35.718" stroke="#140D1D" stroke-width=".768" stroke-linecap="round" stroke-linejoin="round"/><path d="M131.949 132.704c.166-10.605-1.427-28.25-14.387-29.574-19.61-2.004-24.212 18.528-23.546 35.724M209.817 170.08s-16.864-19.034-35.225-25.376c-18.368-6.342-55.891-10.227-65.613-1.67-7.622 6.707-2.298 23.123 18.49 30.137 20.787 7.015 36.063 7.763 36.063 7.763s9.389 17.696 16.071 24.544" stroke="#140D1D" stroke-width=".768" stroke-linecap="round" stroke-linejoin="round"/><path d="M93.958 137.792c.173 3.373.531 6.739.973 10.086.896 6.797 2.189 13.613 4.435 20.096 1.894 5.479 4.736 12.045 10.176 14.861 4.506 2.33 9.568 2.56 13.594-.723 2.432-1.984 4.281-4.723 5.593-7.558.128-.282.256-.557.365-.845M129.369 173.798s.16 5.914 4.839 7.956" stroke="#140D1D" stroke-width=".768" stroke-linecap="round" stroke-linejoin="round"/><path d="M146.925 178.483s-24.966 1.325-30.477 23.859" stroke="#140D1D" stroke-width=".768" stroke-linecap="round" stroke-linejoin="round"/></svg>