<svg xmlns="http://www.w3.org/2000/svg" fill="none" viewBox="0 0 280 280"><g clip-path="url(#a)"><path fill="#A238FF" d="M136.839 111.003c-6.617-1.858-11.751-3.794-13.918-5.417-4.462-3.338-6.585-6.76-6.648-3.949.528 1.414 2.959 6.886 3.573 8.066.614 1.18 1.851 3.479 1.851 3.479s2.427 9.36-3.868 13.842c-4.854 3.457-8.491 2.589-12.61-.104-4.12-2.693-4.883-4.826-7.74-6.671-2.858-1.845-6.064-4.286-6.064-4.286-8.836-6.642-19.639-4.073-19.898.867-.26 4.939 6.144 5.318 9.78 6.909 3.124 1.368 7.447 6.269 8.602 7.621a.449.449 0 0 1-.056.636c-.655.54-2.198 1.803-4.287 3.489l-23.724 17.98c-2.262 1.508-4.182 2.654-5.508 3.218-7.487 3.171-43.075 12.528-49.751 27.455-6.677 14.926 9.68 18.373 35.045 10.963 25.364-7.41 101.5-26.013 122.772-41.808 21.272-15.793 13.326-34.56-3.33-37.127a222.272 222.272 0 0 1-19.603-3.939"/><path fill="#FBFFB7" d="M72.815 108.296s10.72 2.849 16.376 6.207c5.656 3.357 10.263 7.381 10.263 7.381s5.591 5.687 8.265 6.496c2.492 1.098 5.793 1.721 8.888-.397 3.098-2.119 4.535-4.286 4.923-6.148.389-1.863.831-4.385.688-5.645-.145-1.259-.502-2.803-.502-2.803s-3.077-5.329-4.67-9.817c-1.592-4.487-2.757-9.028-2.757-9.028l-.838-2.277s-3.016 6.336-14.396 10.895c-11.383 4.559-21.167 6.589-26.24 5.138v-.002Z"/><path fill="#FFECD2" d="M163.092 81.584s-.528-5.518.777-6.384c1.303-.869 1.754.243 1.994 1.134.239.89.595 5.39.428 6.011-.164.623-3.097 1.75-3.202-.76l.003-.001ZM99.658 142.168s-2.84 3.343-5.1.541-.539-7.158 2.741-8.172c3.281-1.014 3.3 3.47 3.3 3.47"/><path fill="#FBFFB7" d="M65.69 155.42s-6.053-2.237-5.866-5.796c.188-3.559 5.293-3.011 7.5.032 2.205 3.044.792 5.872-1.635 5.764ZM72.687 147.862s-1.433-5.159-4.967-4.628c-3.533.53-.644 6.066.75 7.886 1.394 1.822 6.17 1.578 4.22-3.259l-.003.001Z"/><path fill="#FBFFB7" d="M77.252 144.243s-1.432-5.159-4.966-4.628c-3.534.53-.645 6.066.75 7.887 1.396 1.82 6.169 1.577 4.22-3.26l-.004.001Z"/><path fill="#FBFFB7" d="M81.876 141.05s-1.433-5.159-4.967-4.628c-3.534.531-.645 6.066.75 7.887 1.393 1.821 6.169 1.577 4.22-3.26l-.003.001Z"/><path fill="#FBFFB7" d="M86.652 137.645s-1.433-5.159-4.967-4.628c-3.534.531-.645 6.067.75 7.887 1.394 1.821 6.17 1.578 4.22-3.26l-.003.001ZM126.094 107.403l4.568 1.691s-.549-3.621 1.974-5.187c2.526-1.567 9.952-5.19 9.952-5.19s4.396-1.732 6.279-5.99 1.683-6.908 1.683-6.908-.057-3.782-.745-4.388c-.689-.606-.914-.74-.914-.74s-.464-4.772-2.048-4.543c-1.583.23-1.591 4.894-1.591 4.894s-1.12.469-1.11 2.468c.01 2 1.675 8.308-5.287 12.14-6.962 3.83-12.328 4.034-12.765 11.757l.004-.004Z"/><path fill="#6E14BD" d="M8.445 189.438s3.437 4.013 10.098-1.262c6.661-5.274 19.932-18.736 32.566-7.921 0 0 1.987-13.477 24.774-21.699 22.788-8.221 29.634 5.952 29.634 5.952s5.399-7.993 13.132-4.058c0 0-3.503-16.029 18.458-30.84 21.965-14.81-7.015-16.546-15.238-8.945 0 0 .927-4.631-.169-7.486-1.097-2.855-2.975-5.495-4.026-8.167-1.05-2.672-1.823-3.814-.88-4.354.783-.064 2.862 2.205 4.206 3.433 1.343 1.228 4.301 3.28 7.418 4.352 3.117 1.072 12.966 3.95 19.161 5.207 6.197 1.259 13.995 2.659 13.995 2.659s10.644 1.32 14.704 11.158c4.06 9.839-4.126 18.466-4.126 18.466s-2.923 5.377-14.969 11.823c-12.046 6.446-117.086 34.37-117.086 34.37s-33.13 8.413-31.647-2.69l-.005.002Z"/><path fill="#FF673D" d="M160.649 155.953c.881-.623 1.66-1.384 2.469-2.097 5.96-5.239 15.453-14.04 9.806-22.695-2.777-4.253-8.738-5.931-13.557-5.027-8.937 1.677-18.142 7.788-25.138 13.377-5.446 4.351-10.607 9.417-12.763 16.241-.168.528-1.767 6.802-.769 7.116-11.87-3.727-14.133 8.37-14.133 8.37s-9.538-16.059-30.617-7.971c-21.08 8.088-22.778 22.476-22.778 22.476s-5.62-5.695-17.067-1.584c-11.447 4.111-14.81 9.651-22.157 8.994-7.35-.659-6.72-9.975-6.72-9.975s-2.873 4.273-2.075 8.069c.797 3.794 3.602 8.394 18.629 7.516 15.112-1.682 38.326-9.296 38.326-9.296l52.675-15.222s26.852-9.305 28.92-10.253c2.067-.949 13.713-5.746 16.953-8.043l-.004.004Z"/><path fill="#FBFFB7" d="M162.936 79.08c-.105.015-.074.01-.179.032-4.164.858 1.798 16.452-8.02 23.059-9.819 6.606-12.766 3.088-20.334 11.429-7.568 8.341-5.553 17.746-13.205 22.59-7.649 4.843-14.314 4.318-19.741 2.19 0 0-2.352-1.283-3.613-.329-1.26.951-1.135 3.78 3.122 4.42 4.257.64 15.628 2.751 24.511-4.925 8.882-7.676 8.757-22.642 18.532-26.737 9.776-4.096 19.068-3.215 22.415-15.825 2.286-8.612 1.785-13.163-.152-14.975"/><path fill="#B43822" d="M132.111 168.365s23.229-12.466 25.992-25.255c2.764-12.788-9.562-13.646-17.028-8.646 0 0 18.571-13.409 28.331-6.565 10.845 7.579 1.508 17.825 1.508 17.825s-7.186 9.231-16.097 13.339c-8.915 4.108-22.706 9.3-22.706 9.3v.002Z"/><path fill="#D09AFF" d="M24.404 169.247s-12.545 6.779-10.441 11.273c2.104 4.493 5.417-6.748 25.14-13.915 19.722-7.167 4.948-7.758-14.696 2.641"/><path stroke="#14041E" stroke-linecap="round" stroke-linejoin="round" stroke-width=".393" d="M136.867 111.088c-6.617-1.858-11.752-3.794-13.919-5.417-4.461-3.337-6.584-6.76-6.647-3.949.528 1.415 2.959 6.886 3.573 8.066.614 1.18 1.85 3.479 1.85 3.479s2.428 9.36-3.867 13.843c-4.854 3.456-8.491 2.588-12.611-.105-4.119-2.693-4.882-4.826-7.74-6.671-2.857-1.845-6.064-4.286-6.064-4.286-8.835-6.642-19.638-4.073-19.897.867-.26 4.939 6.144 5.318 9.78 6.909 3.124 1.368 7.447 6.269 8.601 7.621a.449.449 0 0 1-.055.636c-.655.54-2.199 1.803-4.288 3.489"/><path stroke="#14041E" stroke-linecap="round" stroke-linejoin="round" stroke-width=".393" d="M61.86 153.553c-2.263 1.507-4.182 2.654-5.509 3.217-7.486 3.172-43.074 12.528-49.75 27.455-6.678 14.927 9.68 18.373 35.044 10.963 25.364-7.41 101.501-26.013 122.772-41.808 21.272-15.792 13.327-34.559-3.329-37.127a221.476 221.476 0 0 1-19.603-3.939"/><path stroke="#14041E" stroke-linecap="round" stroke-linejoin="round" stroke-width=".393" d="M7.133 183.153s-.626 9.315 6.721 9.975c7.35.659 10.71-4.883 22.158-8.994 11.447-4.11 17.066 1.584 17.066 1.584s1.697-14.387 22.778-22.476c21.082-8.088 30.617 7.971 30.617 7.971s2.262-12.096 14.133-8.37c-.998-.313.602-6.587.77-7.116 2.155-6.824 7.317-11.89 12.762-16.241 6.996-5.591 16.201-11.702 25.139-13.377 4.818-.903 10.778.772 13.556 5.027 5.647 8.655-3.847 17.454-9.806 22.695a94.56 94.56 0 0 1-2.469 2.097"/><path stroke="#14041E" stroke-linecap="round" stroke-linejoin="round" stroke-width=".393" d="M162.834 79.217c-.105.016-.073.011-.179.033-4.164.857 1.798 16.452-8.02 23.058-9.819 6.607-12.766 3.089-20.334 11.43-7.567 8.34-5.553 17.746-13.205 22.59-7.651 4.844-14.314 4.317-19.74 2.19 0 0-2.353-1.283-3.614-.329-1.259.95-1.135 3.78 3.122 4.42 4.258.639 15.629 2.751 24.511-4.925 8.883-7.676 8.757-22.642 18.533-26.738 9.775-4.095 19.067-3.215 22.415-15.825 2.285-8.611 1.785-13.163-.153-14.974"/><path stroke="#14041E" stroke-linecap="round" stroke-linejoin="round" stroke-width=".393" d="M162.991 81.718s-.528-5.517.777-6.384c1.304-.868 1.754.244 1.994 1.134.239.89.595 5.39.428 6.012-.163.623-3.097 1.749-3.201-.761h.002ZM99.558 142.306s-2.84 3.343-5.1.541-.539-7.158 2.742-8.172c3.28-1.014 3.299 3.47 3.299 3.47M148.892 80.691c.562.303 1.009.748 1.234 1.254.699 1.57 1.605 11.901-6.675 16.318-8.282 4.417-14.054 5.36-12.651 10.955"/><path stroke="#14041E" stroke-linecap="round" stroke-linejoin="round" stroke-width=".393" d="M126.093 107.403s-.645-4.682 4.947-7.912c5.595-3.23 9.069-3.43 11.91-7.584 2.844-4.155.222-8.65 1.931-10.573.114-.129.232-.242.356-.346M72.059 108.168s8.918 2.048 23.857-3.715c14.939-5.76 17.534-12.19 17.534-12.19l2.966 9.202"/><path stroke="#14041E" stroke-linecap="round" stroke-linejoin="round" stroke-width=".393" d="M88.376 114.134s8.27-.74 17.526-6.173c9.253-5.432 9.297-10.278 9.297-10.278M145.341 83.011s-.473-5.581.754-6.514c1.226-.932 1.835.178 1.951.553.116.375 1.207 4.607 1.141 5.712-.067 1.105-2.894 2.387-3.846.249ZM65.588 155.559s-6.053-2.238-5.865-5.797c.187-3.558 5.293-3.011 7.499.032 2.206 3.044.793 5.872-1.634 5.765ZM72.588 147.999s-1.432-5.159-4.966-4.628c-3.534.531-.645 6.067.75 7.887 1.393 1.821 6.169 1.577 4.219-3.26l-.002.001Z"/><path stroke="#14041E" stroke-linecap="round" stroke-linejoin="round" stroke-width=".393" d="M77.152 144.38s-1.433-5.158-4.967-4.627c-3.534.53-.645 6.066.75 7.886 1.396 1.821 6.17 1.578 4.22-3.259h-.003Z"/><path stroke="#14041E" stroke-linecap="round" stroke-linejoin="round" stroke-width=".393" d="M81.775 141.187s-1.433-5.158-4.967-4.628c-3.534.531-.645 6.067.75 7.887 1.394 1.821 6.17 1.578 4.22-3.259h-.003Z"/><path stroke="#14041E" stroke-linecap="round" stroke-linejoin="round" stroke-width=".393" d="M86.553 137.782s-1.433-5.159-4.966-4.628c-3.534.531-.645 6.067.75 7.887 1.393 1.821 6.169 1.577 4.219-3.26l-.003.001Z"/><path fill="#A238FF" d="M213.683 116.478s-.027 1.672-.132 4.157l-2.418 19.118a6.484 6.484 0 0 1-.608 1.258c-2.834 4.326-35.771 16.297-39.35 30.914-3.576 14.619 27.73 24.183 56.2 7.045 28.468-17.138 43.457-48.905 43.705-70.303.247-21.398-3.731-29.048-17.702-30.206-12.49-1.035-16.931 13.418-40.021 8.576 0 0 15.716 5.229 19.924 10.429 4.207 5.2 2.586 8.133 1.912 9.175-.674 1.042-2.18 2.632-5.822 4.348-3.641 1.717-15.689 5.486-15.689 5.486l.001.003Z"/><path fill="#FBFFB7" d="M190.739 79.773s10.716 3.034 14.642 17.57c2.945 16.251-3.987 20.868-3.987 20.868l-1.692 1.505-1.385.857 20.005-5.503s16.649-4.529 17.358-9.458c.709-4.932.361-8.155-12.185-14.443-12.85-5.638-27.208-10.104-27.208-10.104l-5.55-1.293h.002ZM214.892 125.521s4.699.843 6.008-1.815c1.311-2.657-5.901-4.174-9.188-2.403-3.289 1.77-1.083 4.055 3.18 4.218Z"/><path fill="#FBFFB7" d="M214.271 130.69s4.699.842 6.008-1.816c1.312-2.657-5.902-4.174-9.188-2.403-3.289 1.77-1.083 4.056 3.18 4.219Z"/><path fill="#FBFFB7" d="M212.197 130.506s-3.294.419-3.627 3.13c-.335 2.709 6.989 1.108 8.753.809 1.765-.299 3.182-2.617.041-3.74"/><path fill="#FBFFB7" d="M210.776 135.165s-2.07.629-2.243 2.926c-.172 2.297 7.452 2.157 8.957.887 1.506-1.271 2.079-3.591-2.687-4.092"/><path fill="#FF673D" d="M181.607 185.871s8.866 2.771 16.147-3.38c7.281-6.151 8.525-11.829 17.004-11.075 8.476.753 10.302 1.844 11.229.996.928-.844 3.946-13.801 9.199-16.531 5.252-2.73 10.117-2.246 10.772-3.636.656-1.389-4.548-9.317-1.814-17.992 2.733-8.674 14.592-5.645 14.592-5.645s-4.164-1.455-2.567-4.721c1.598-3.265 5.947-1.326 5.947-1.326s-16.884-2.136-15.094-17.445c1.79-15.31 20.411-29.187 23.838-6.046 0 0 .844 5.398-.209 15.625-1.053 10.228-6.983 25.194-13.06 34.393-6.076 9.197-12.586 18.357-30.218 29.887-18.632 11.25-36.997 10.206-45.767 6.898l.001-.002Z"/><path fill="#6E14BD" d="M213.357 87.037s12.009 3.062 21.847-1.819c9.838-4.88 13.029-9.281 25.446-5.242 0 0 2.173 1.167 2.905 1.646.732.478 1.003.757 1.003.757s-.813 1.599-.816 2.445c-.003.847-.184 1.98-.184 1.98s-9.878-2.2-15.838 14.822c-4.878 16.93 12.094 20.375 12.094 20.375s-2.411-.348-3.825 1.852c-1.415 2.201 1.9 4.294 1.9 4.294l.208.119s-4.223-.728-7.579.142c-3.357.87-6.157 2.769-6.782 7.393-.626 4.624-.192 6.47-.006 7.813.185 1.344 1.751 6.192 1.751 6.192s.692 1.961.374 2.598c-.318.638-3.257.949-3.257.949s-7.561 1.227-9.708 4.175c-2.148 2.951-4.092 7.734-4.092 7.734l-2.063 5.309s-.448 2.39-1.692 2.145c-1.242-.245-7.025-1.038-7.025-1.038s5.02.413 6.098-3.156c1.079-3.568 2.42-13.124 8.217-17.412 5.794-4.282 9.428-3.514 9.433-3.512-1.562-.332-3.635-3.095-4.53-4.241-2.01-2.566-3.14-5.703-2.652-8.981 1.062-7.181 9.305-11.828 16.13-10.297 0 0-16.334-12.917-3.319-32.931 0 0-6.369 6.888-16.754 3.949 0 0-4.456-3.306-17.281-8.059l-.003-.001Z"/><path fill="#B43822" d="M247.065 108.207s4.981-11.352 13.676-10.266c8.696 1.085 9.913 16.75 9.913 16.75s3.1-24.746-6.694-27.698c-9.462-2.853-16.695 13.211-16.679 16.391-.425 2.629-.406 2.864-.216 4.823Z"/><path fill="#D09AFF" d="M178.259 163.792a14.53 14.53 0 0 0-1.139 1.905c-1.445 2.915-2.008 6.781.424 9.324 1.825 1.909 5.928 4.663 8.325 1.969 1.153-1.296.928-3.266.66-4.978-.292-1.854-.467-4.139 1.294-5.296 1.498-.983 3.245-1.614 4.581-2.833.616-.563 1.122-1.25 1.291-2.085.202-.992-.302-1.893-.194-2.869.147-1.331 1.476-2.142 2.588-2.891 2.567-1.731 4.611-4.118 6.62-6.474.309-.361.636-.791.561-1.258-.076-.47-.555-.791-1.028-.838-.473-.046-.939.115-1.383.288-3.372 1.302-6.486 3.314-9.563 5.187-3.116 1.895-6.162 3.945-8.883 6.382-1.505 1.35-2.981 2.804-4.149 4.469l-.005-.002Z"/><path fill="#fff" d="M214.873 121.439s-4.617-.113-4.679 1.698c-.062 1.811 5.252 2.791 6.953 2.063 1.7-.729 2.068-3.243-2.274-3.761ZM212.951 127.468s-3.364-.083-3.408 1.236c-.043 1.319 3.825 2.031 5.064 1.504 1.239-.529 1.505-2.362-1.656-2.74ZM212.071 132.006s-3.306.628-3.071 1.928c.234 1.3 4.166 1.179 5.268.402 1.099-.778.975-2.625-2.197-2.33ZM212.294 136.944s-3.364.077-3.347 1.396c.017 1.319 3.917 1.848 5.128 1.262 1.214-.585 1.393-2.43-1.783-2.659l.002.001Z"/><path stroke="#14041E" stroke-linecap="round" stroke-linejoin="round" stroke-width=".393" d="M211.133 139.753a6.484 6.484 0 0 1-.608 1.258c-2.834 4.326-35.771 16.297-39.35 30.914-3.576 14.619 27.73 24.183 56.2 7.045 28.468-17.138 43.457-48.905 43.705-70.303.247-21.398-3.731-29.048-17.702-30.206-12.49-1.035-16.931 13.418-40.021 8.576"/><path stroke="#14041E" stroke-linecap="round" stroke-linejoin="round" stroke-width=".393" d="M213.684 116.478s-.028 1.671-.133 4.157M270.816 98.985c-3.425-23.14-22.049-9.262-23.838 6.047-1.79 15.308 15.094 17.444 15.094 17.444s-4.351-1.94-5.947 1.326c-1.599 3.265 2.567 4.721 2.567 4.721s-11.856-3.028-14.592 5.645c-2.732 8.673 2.47 16.603 1.815 17.992-.656 1.39-5.523.905-10.773 3.636-5.253 2.73-8.271 15.688-9.199 16.532-.928.844-2.753-.243-11.229-.996-8.476-.753-9.723 4.923-17.003 11.075-7.281 6.151-16.148 3.379-16.148 3.379M190.759 79.728s12.638 3.856 15.207 21.033c1.682 17.421-8.399 19.994-8.399 19.994"/><path stroke="#000" stroke-width=".385" d="M198.744 120.377c13.002-3.853 37.562-8.669 37.562-16.374 0-8.668-13.002-13.483-22.152-16.854"/><path stroke="#14041E" stroke-linecap="round" stroke-linejoin="round" stroke-width=".393" d="M201.98 82.823s9.336 3.72 10.927 17.304c1.591 13.585-4.281 17.787-4.281 17.787M214.892 125.521s4.699.843 6.008-1.815c1.311-2.657-5.901-4.174-9.188-2.403-3.289 1.77-1.083 4.055 3.18 4.218Z"/><path stroke="#14041E" stroke-linecap="round" stroke-linejoin="round" stroke-width=".393" d="M214.271 130.69s4.699.842 6.008-1.816c1.312-2.657-5.902-4.174-9.188-2.403-3.289 1.77-1.083 4.056 3.18 4.219Z"/><path stroke="#14041E" stroke-linecap="round" stroke-linejoin="round" stroke-width=".393" d="M212.197 130.506s-3.294.419-3.627 3.13c-.335 2.709 6.989 1.108 8.753.809 1.765-.299 3.182-2.617.041-3.74"/><path stroke="#14041E" stroke-linecap="round" stroke-linejoin="round" stroke-width=".393" d="M210.776 135.165s-2.07.629-2.243 2.926c-.172 2.297 7.452 2.157 8.957.887 1.506-1.271 2.079-3.591-2.687-4.092"/></g><defs><clipPath id="a"><path fill="#fff" d="M0 0h280v280H0z"/></clipPath></defs></svg>