<svg xmlns="http://www.w3.org/2000/svg" fill="none" viewBox="0 0 280 280"><path fill="#FCFF60" d="M50.332 78.512s-5.036.56-6.754.936c-1.718.378-3.13 1.27-3.412 1.93-.282.659 1.246 1.422 4.107 2.334 2.861.914 6.55 1.975 10.133 1.98 3.58.005 6.516.075 8.903-.698 2.387-.772 7.082-1.83 10.756-4.67 3.675-2.84 8.593-6.69 11.553-11.312 2.96-4.623 3.667-4.721 6.93-10.713 3.265-5.991 5.73-6.15 6.684-5.566.956.585 1.798 1.237 2.034 3.786.236 2.548.462 6.143.462 6.143l.264 25.554-.117 6.99-.424 68.678s.164 12.24.361 14.846c.197 2.606.183 6.31.183 6.31l.178 4.985s-2.469 1.059-2.478 2.096c-.01 1.035 2.709.676 2.709.676s1.003 17.684 1.326 21.13c.322 3.446 1.152 10.97 1.152 10.97l.734 5.472s-2.069.777-2.334 1.985c-.264 1.208 1.292 1.261 1.665 1.172.373-.089 1.126-.2 1.126-.2s2.248 16.914 7.693 23.42c4.474 6.098 9.447 9.608 15.559 12.121 6.112 2.514 12.229 3.342 17.819 3.556 5.589.214 13.33-.765 13.33-.765s8.754-1.268 12.751-3.417 6.078-3.489 7.113-4.322c1.035-.832 4.668-3.554 7.512-7.596 2.842-4.043 4.912-7.534 4.912-7.534s2.824-5.212 4.333-9.387c1.509-4.175 3.068-9.199 3.068-9.199s1.552-5.157 2.568-10.593c1.015-5.435 3.85-24.582 3.85-24.582s2.136-13.677 2.837-17.498c.697-3.822 3.14-16.161 4.41-21.007 1.271-4.846 3.023-10.937 3.747-13.105.724-2.168 3.929-10.652 3.929-10.652s3.506-7.397 4.608-9.851c1.102-2.452 2.741-5.901 2.936-9.065.195-3.166 1.923-14.469-14.77-21.184-16.692-6.716-39.32-4.27-39.32-4.27s-15.441.677-22.692 5.15c-6.545 3.39-7.993 9.536-7.993 9.536s-.614 2.974-.712 3.922c-.099.948-.263 2.97-.111 4.055.152 1.085 1.942 20.073 1.942 20.073l.659 16.156.142 11.064-.395-2.144-3.965-36.178-2.522-20.83s-.062-.139 0-.52c-.198-.355-.375-3.276-.594-3.305-.219-.03.149-.048.149-.048l-1.446-10.441s.029-.108 0-.447c-.029-.34-.444-3.026-.444-3.382-.235-.171-.15.015-.15.015l-.282-1.93c.306-.599-.274-2.779-.963-7.322-.688-4.543-.98-8.633-1.307-8.921-.327-.29.075.47.075.47l-1.795-11.203-.697-3.718s.05.238 0-.147c-.051-.385-.39-3-.883-3.215.128.01.072-.322.072-.322s-3.566-21.127-16.168-23.553c-11.608-2.613-20.605 9.92-20.605 9.92s-5.084 5.83-7.676 10.067c-2.589 4.237-6.497 9.745-6.497 9.745s-7.486 12.099-11.47 16.808c-3.988 4.71-10.612 11.201-18.283 10.763l-.015-.002Z"/><path fill="#D09AFF" d="M179.449 46.109s-11.684 5.416-13.35 19.103c-1.665 13.687 22.29 13.04 25.341-13.872"/><path fill="#D09AFF" d="M175.563 37.312s-11.468-4.192-21.149 5.92c-9.68 10.11-2.522 19.711 15.14 12.136 0 0 1.745-3.506 5.682-6.545 3.164-2.146 4.124-2.714 4.124-2.714s-4.269-3.311-3.797-8.797Z"/><path fill="#D09AFF" d="M155.704 41.978c-9.654-2.705-7.825-15.33 4.938-16.625 12.762-1.295 18.496 5.734 18.496 5.734v.224s-1.997 1.684-2.632 3.53c-.635 1.848-.772 2.524-.772 2.524s-5.99-1.913-11.435-.217c-5.445 1.697-8.595 4.832-8.595 4.832v-.002Z"/><path fill="#D09AFF" d="M162.118 25.237c-5.833-8.16 2.687-18.475 14.435-14.406 11.745 4.069 12.495 17.479 12.495 17.479v.303s-6.535-.13-9.783 2.65c0 0-3.273-4.238-10.335-5.65-3.766-.754-6.812-.376-6.812-.376ZM205.314 47.271c17.944 8.417 12.202 31.63-1.949 28.67-14.151-2.96-12.767-19.702-12.767-19.702s.582-3.583.693-4.074c.11-.49.149-.972.149-.972s4.81.361 7.57-.125c2.762-.486 4.492-1.978 4.957-2.452.464-.474 1.345-1.345 1.345-1.345"/><path fill="#D09AFF" d="M185.065 17.25c-.363-11.8 12.881-11.94 17.874-5.218 4.995 6.72-1.682 19.413-1.682 19.413-.02-.014-.046-.026-.065-.036a3.795 3.795 0 0 0-.14-.07c-.019-.01-.038-.016-.055-.03l-1.559-.706s-3.61-1.672-10.388-1.99c0 0-.313-3.552-1.225-5.62-.91-2.073-1.035-3.076-1.663-4.082-.628-1.003-1.092-1.66-1.092-1.66h-.005Z"/><path fill="#D09AFF" d="M206.923 38.578s12.356-.092 14.298-13.966c1.942-13.872-13.172-14.965-16.389-5.356 0 0-.058 1.795-.421 3.048-.363 1.254-.522 2.407-1.177 4.298-.654 1.891-1.975 4.846-1.975 4.846s1.703.86 2.75 2.038c1.049 1.18 1.752 2.012 2.156 2.967.407.955.758 2.125.758 2.125Z"/><path fill="#D09AFF" d="M213.112 53.291s9.661 7.883 15.672 2.15c6.011-5.735 3.167-21.917-14.719-19.051 0 0-3.467 2.25-7.142 2.187 0 0 1.302 3.282-1.61 8.694 0 0 5.532 2.928 7.799 6.023v-.002Z"/><path fill="#FCFF60" d="M193.75 29.142s-14.89-3.234-17.759 7.308c-2.868 10.542 14.325 16.906 23.955 14.425 9.341-2.403 11.93-19.423-6.196-21.733Z"/><path fill="#2CA459" d="M166.016 66.832c-6.88 5.363-17.768 4.194-17.768 4.194 2.219-7.782 8.008-13.08 8.008-13.08s2.794.668 7.9-.744l2.317-.648 2.941-1.126s-1.663 2.53-2.746 6.129c-.71 2.707-.652 5.272-.652 5.272v.003ZM226.29 38.175c7.32-4.81 8.71-11.249 8.71-11.249-8.631-2.493-14.23 0-14.23 0s-1.023 3.795-2.693 5.749c-1.67 1.954-2.291 2.497-2.291 2.497l-1.723 1.218s4.11-.861 8.252.137c2.87.551 3.972 1.648 3.972 1.648h.003Z"/><path fill="#C55E00" d="M151.169 109.788c-.303-.618-.496-1.251-.257-1.742.238-.491.652-.89.83-1.405.106-.306.125-.645.296-.922.224-.363.659-.543.921-.883.26-.334.328-.801.638-1.09.33-.308.828-.32 1.254-.469.921-.322 1.484-1.285 2.375-1.684.895-.4 2.023-.193 2.808-.778.248-.185.44-.435.666-.644a2.69 2.69 0 0 1 2.633-.559c1.169.397 2.269-1.003 3.503-1.06.616-.03 1.244.237 1.834.064.534-.156.9-.635 1.345-.972a2.927 2.927 0 0 1 2.055-.58c.71.072 1.482.392 2.096.029.596-.351 1.578-.522 2.264-.438.286.034.561.125.847.159.284.036.594.01.825-.161.248-.186.713-.308 1.021-.325 1.063-.063 2.062.616 3.125.572.703-.028 1.367-.373 2.07-.375l5.048.965c.477-.49 1.494-.917 2.146-.707.366.115.691.344 1.064.43.931.215 2.017-.478 2.811.058.163.11.298.267.476.349.2.091.431.08.647.058 1.427-.142 2.931-.63 4.24-.046.248.11.481.257.739.344.804.265 1.86-.048 2.399.604.154.188.233.426.37.626.532.772 1.678.7 2.602.543.551-.093 1.176.049 1.605.407.202.169.373.383.608.503.371.19.816.106 1.23.043.688-.105 1.461-.125 2.007.308.293.234.495.578.828.751.464.243 1.029.08 1.554.128.638.057 1.23.469 1.509 1.044.467.034.962.517 1.114.96.048.144.082.313.212.392.101.063.226.048.344.046.784-.012 1.523.643 1.6 1.425.017.178.009.37.108.522.087.132.238.202.378.276.363.195.693.467.902.823.253.424.318.927.38 1.415.044.34.628 1.1.669 1.439.123.987-.151 1.677-.794 2.435 0 0-6.612 7.147-27.186 8.278-20.573 1.131-40.646-6.875-42.757-11.158l-.002.002Z"/><path fill="#2CA459" d="M191.972 65.838s-6.071 7.42-5.845 12.416c.226 4.996 5.159 7.77 5.159 12.27s-3.023 8.07-2.96 10.544c.152 5.956 2.279 6.901 2.279 6.901s-.891-.06-.963-.014c-.072.046-1.001-.339-2.565-.763-1.566-.423-3.094-.058-3.094-.058l-.217-.108s-3.422-4.074 0-9.437c3.422-5.364 2.868-7.862 0-11.654s-7.122-5.826-.647-15.816c0 0 2.178-2.219 3.195-3.826 1.018-1.608 2.245-3.992 2.245-3.992l1.165-2.972.837-2.928s.073 5.772.66 7.538c.589 1.767.753 1.901.753 1.901"/><path fill="#FFC23C" d="m101.935 103.936-.253 9.625s-.229 24.063-.229 31.099v18.858l.72 26.507s-2.098 1.021-2.479 2.096c.571 1.213 2.71.676 2.71.676s.58 11.139 1.326 21.13c.746 9.991 1.884 16.442 1.884 16.442s-2.435.933-2.433 2.204c.075 1.6 2.888.753 2.888.753l1.118 5.696s.503 4.834 4.041 13.393c10.002 20.172 34.744 19.953 34.744 19.953s-26.231-1.771-33.01-31.149c-6.778-29.378 13.81-36.91 5.966-36.588-7.845.323-13.714-4.997-14.97-18.054-1.123-11.697 3.379-24.529 1.334-45.704.917-1.016-1.177-6.04 0-6.738 0-17.806-2.265-37.386 0-39.583 2.762-2.68-3.357 0-3.357 0v9.384Z"/><path fill="#FFC23C" d="M100.24 101.41c.193-1.059 2.728-1.564 3.85-1.564v2.045c-.401.161-1.419.53-2.285.722-.866.193-1.805.12-1.565-1.203ZM99.896 141.62c.192-1.058 2.727-1.564 3.85-1.564v2.046c-.401.16-1.42.529-2.286.722-.866.192-1.805.12-1.564-1.204ZM101.878 95.054l.118-20.145s-1.624.039-1.61-.712c.015-.75 1.675-1.41 1.675-1.41l-.366-12.193s-.539-4.714-.683-5.284l-.366-.072s-1.352-.58-1.446-1.23c-.094-.65.705-1.135 1.131-1.354.426-.22 2.072-1.382 2.072-1.382s-1.586 1.201-1.605 1.767c-.02.565 1.886-.306 1.886-.306s.299 4.88 3.53 5.101c3.232.222 4.582-.411 5.053.47.472.88-6.48 2.399-6.983 7.007-.502 4.608-.281 6.727-.281 6.727s-1.461.706-1.225 1.6c.236.896 1.41.636 1.41.636s.614 6.33 4.146 7.132c3.53.801-1.537 2.87-2.276 5.084-.739 2.214-.267 6.772-.267 6.772l-3.915 1.797.002-.005Z"/><path fill="#FFC23C" d="M44.65 83.832s4.851 1.839 10.785 1.901c5.932.063 9.789-.962 15.424-3.43 5.636-2.47 12.973-11 12.973-11s4.05-4.88 6.314-8.88c2.261-3.998 3.715-6.484 4.966-7.923 1.251-1.439 2.808-2.68 4.635-1.48l3.679-2.377s-5.26-6.959-12.7 1.843c-7.438 8.802-14.614 35.738-46.073 31.346h-.003ZM175.154 119.693s6.233.993 12.008 1.311c5.775.32 3.623 4.651-6.004 4.839-9.627.188-29.739-.943-30.355 42.56-.111 32.472-1.381 34.354-1.381 34.354s-2.7-36.679-3.14-45.276c-.472-7.486-.45-17.966-.45-17.966l-.701-11.088s-.616-8.162-.827-9.716c-.212-1.555-.946-6.095-.92-8.944.027-2.849.277-5.015.968-6.899.69-1.884 2.117-7.5 11.62-11.078 9.502-3.579 11.071-1.468 11.261-.667.19.801-2.637 1.53-4.473 2.117-1.836.59-9.118 3.069-11.346 6.522-2.228 3.453-5.775 8.159 5.431 14.218 2.036.965 5.352 2.353 5.352 2.353s7.074 2.387 12.96 3.36h-.003ZM115.352 168.215s4.661-2.919 8.097 6.025 1.46 17.703 1.318 18.408c-.142.705-1.631 6.278-6.809 7.26.409.106 4.331.447 6.968-3.193 2.637-3.641 3.075-8.694 3.075-8.694s.344-4.245-.784-10.366c-1.131-6.119-6.591-14.274-11.863-9.44h-.002ZM107.52 40.113c-.046.014 5.546-1.718 5.606 6.757.39 4.213-2.223 8.027-2.671 8.239-.447.211-1.294.618-1.294.618s2.652.255 4.338-3.631c1.687-3.886.628-8.051.628-8.051s-1.162-5.768-6.607-3.932ZM109.887 62.722s4.497-1.82 6.424 4.16c1.584 5.76-1.491 10.97-2.341 11.914-.847.94-1.35 1.145-2.079 1.357-.729.212 1.6.517 3.297-1.365 1.696-1.881 2.023-4.473 2.353-6.049.33-1.576.291-4.112-.431-6.278-.722-2.165-2.866-6.725-7.223-3.74ZM110.952 88.695s5.127-2.073 7.325 4.743c1.805 6.568-1.701 12.507-2.67 13.582-.965 1.073-1.539 1.306-2.37 1.547-.831.242 1.824.59 3.758-1.555s2.308-5.1 2.683-6.897c.376-1.796.332-4.688-.491-7.157-.823-2.469-3.267-7.667-8.235-4.263ZM112.627 126.072s6.255-2.53 8.936 5.787c2.203 8.013-2.075 15.259-3.256 16.571-1.178 1.309-1.878 1.593-2.892 1.888-1.014.294 2.226.719 4.585-1.898 2.36-2.617 2.815-6.222 3.274-8.414.458-2.193.405-5.72-.599-8.733-1.004-3.012-3.987-9.354-10.048-5.201ZM120.764 211.355s4.896-2.84 8.003 6.622c3.106 9.464 1.412 17.325 1.412 17.325s-1.364 7.416-7.132 8.169c2.26 0 4.495-.493 6.545-3.061 2.05-2.567 2.683-5.178 3.085-8.097.4-2.919.212-6.025.212-6.025s-.715-5.47-1.843-8.294c-1.131-2.825-4.32-9.941-10.28-6.639h-.002Z"/><path fill="#FFC23C" d="M123.038 169.035s.245-3.33 2.411-1.323c2.165 2.007 5.154 9.656 5.156 16.697.003 10.734-4.485 19.772-8.903 14.642 0 0 4.103-1.364 5.609-7.815 1.506-6.449.065-12.448.065-12.448s-.818-3.181-1.381-4.593c-.566-1.413-2.264-4.486-2.955-5.16h-.002ZM125.599 210.878s5.854 2.579 7.173 13.834c1.318 11.254-2.544 14.461-4.262 16.858 0 0 .77 3.951 3.79.279s4.432-13.899 2.361-21.038c-2.072-7.139-8.701-15.196-9.062-9.931v-.002ZM111.573 40.27s2.919-.561 4.312 2.901c1.48 3.68.525 9.021-1.263 10.833-1.788 1.812-3.52 1.139-3.52 1.139s2.273-.956 3.123-5.193c.847-4.238-.274-8.506-2.649-9.683l-.003.002ZM114.066 62.224s3.797 2.103 3.61 7.972c-.188 5.869-2.002 8.306-3.083 9.05 0 0 5.234-1.36 4.984-8.988-.251-7.627-5.508-8.034-5.508-8.034h-.003ZM115.719 88.128s4.329 2.398 4.115 9.088c-.214 6.691-2.283 9.47-3.514 10.318 0 0 5.966-1.55 5.681-10.246-.286-8.696-6.28-9.16-6.28-9.16h-.002ZM118.646 125.333s5.282 2.925 5.021 11.088c-.261 8.164-2.785 11.554-4.288 12.588 0 0 7.28-1.891 6.932-12.501-.348-10.61-7.661-11.175-7.661-11.175h-.004Z"/><path fill="#FFFEF8" d="M106.972 40.536s2.837-1.754 4.872 1.225c2.036 2.979 1.216 7.924.698 9.336-.517 1.413-1.169 4.644-4.276 4.574-2.096-.081-3.296-1.953-3.296-1.953s2.43 2.848 5.108-.41c2.19-2.663 3.343-14.846-3.106-12.774v.002ZM109.215 63.244s3.181-1.646 4.849 1.538c2.548 4.863.784 13.982-3.829 15.176 0 0 2.358 1.213 4.081-1.511 1.725-2.724 2.705-6.014 2.354-9.308-.354-3.296-1.774-7.274-6.902-6.472-.553 0-.984.731-.984.731l.431-.152v-.002ZM110.188 89.291s3.627-1.876 5.528 1.753c2.905 5.544.894 15.941-4.365 17.302 0 0 2.689 1.382 4.653-1.723 1.967-3.105 3.083-6.856 2.683-10.611-.403-3.758-2.022-8.293-7.868-7.38-.631 0-1.122.835-1.122.835l.491-.173v-.003ZM111.899 126.752s4.425-2.29 6.744 2.138c3.545 6.765 1.091 19.45-5.325 21.11 0 0 3.28 1.687 5.677-2.102 2.399-3.789 3.762-8.364 3.273-12.946-.492-4.585-2.467-10.118-9.599-9.004-.77 0-1.369 1.018-1.369 1.018l.599-.211v-.003ZM113.794 169.899s3.771-5.968 8.667 1.706c4.695 9.04 2.308 21.045 2.308 21.045s-1.706 7.664-7.657 7.079l-1.241-.678s7.579 1.545 7.579-13.841-7.32-18.904-9.654-15.313l-.002.002ZM118.267 214.023s2.218-4.974 5.984-.926c5.313 4.99 7.856 26.615-2.433 30.109 0 0 3.934 1.158 6.5-3.126 2.565-4.283 2.408-11.449 2.158-13.268-.25-1.819-1.28-12.021-6.04-15.371-3.51-2.255-6.169 2.582-6.169 2.582Z"/><path fill="#FFC23C" d="M187.857 28.675s-5.962.816-5.325 7.154c.847 8.427 15.254 9.322 18.726 5.696 4.709-4.919 1.306-9.97-4.565-11.81 0 0 8.557 1.335 10.299 9.48.989 6.098-3.439 9.731-3.439 9.731s-3.52 4.134-14.505 1.709c-10.984-2.426-13.044-9.351-13.044-9.351s-1.833-5.048 2.907-9.695c3.231-3.296 8.951-2.916 8.951-2.916l-.005.002ZM41.766 80.076s2.56-.496 6.767-.215c4.206.282 6.552-1.694 5.962-1.662-.59.029-2.895.325-4.16.31-1.266-.014-2.683.238-2.683.238s-4.29.366-5.888 1.329h.002Z"/><path fill="#17662F" d="M154.291 60.053s5.34-.638 6.398.869c1.059 1.506-1.225 4.92-.541 8.614.043.094.253.193.253.193s4.141-1.603 5.616-2.897c0 0-.029-3.903 1.058-6.512 1.091-2.606 1.844-3.925 1.844-3.925l.493-.967s-7.207 3.095-13.155 2.517l-1.966 2.108ZM220.772 26.926s-1.47 6.856-6.836 9.466c0 0 7.416-1.71 12.353 1.78 0 0 1.949-1.332 2.787-2.136.811-.78.64-.678.707-.712 0 0-4.959-2.113-8.318-2.339 0 0 2.625-4.55.654-6.509 0 0-1.263.145-1.35.448l.003.002ZM183.982 107.129s-2.447-2.353-1.607-6.143c.322-2.565 2.293-4.892 2.767-5.99.474-1.096.678-1.002.828-2.437.149-1.434.12-2.19.12-2.19s-2.009 10.374-.245 10.988c1.763.613 4.819-7.337 4.819-7.337l-1.588 4.002s-.796 1.816-.729 3.65c.07 1.833.469 3.739.469 3.739l.765 1.528.804.915s-.527.028-1.083-.126c-.556-.154-3.874-1.046-5.322-.599h.002Z"/><path fill="#fff" stroke="#14041E" stroke-linecap="round" stroke-linejoin="round" stroke-width=".361" d="M216.087 127.188c.643-.108 2.281-.294 2.279.767-.005 1.43-1.102 3.335-1.728 4.601-.917 1.851-1.841 4.112-2.579 6.042-3.689 9.652-4.957 19.874-8.011 29.713-.334 1.075-.876 2.129-2.216 1.927-1.858-.281-2.618-2.565-2.866-4.153-.789-5.043-.026-10.655.06-15.749.085-4.899-2.216-8.422-6.343-11.071-1.713-1.1-3.939-2.274-3.876-4.606.043-1.641.922-2.748 2.512-3.041 1.605-.296 3.398-.039 5.041-.145a51.204 51.204 0 0 0 5.814-.71c3.383-.611 6.708-1.527 9.846-2.947a8.792 8.792 0 0 1 2.065-.626l.002-.002ZM199.887 185.795c.087.898.262 1.86.919 2.479.181.17.397.31.64.368.896.214 1.644-.693 2.026-1.531.746-1.629 1.086-3.412 1.372-5.183.282-1.737.876-4.076.25-5.784-.685-1.875-2.002-1.61-3.044-.205-2.028 2.736-2.478 6.557-2.163 9.854v.002Z"/><path fill="#EAD1FF" d="M149.733 33.483c-.205.96-.26 1.995.13 2.898.387.902 1.309 1.626 2.288 1.537 2.902-.262 4.074-3.506 4.423-5.977.152-1.08.655-2.883-.371-3.7-1.058-.848-2.901-.107-3.84.608-1.347 1.025-2.288 3.034-2.63 4.632v.002ZM202.062 11.444c-.253-.147-.559-.221-.838-.14-1.152.34-1.111 2.465-.844 3.338.322 1.056 1.487 2.592 2.772 2.151 1.674-.572.796-2.815.339-3.912-.135-.323-.296-.578-.58-.785-.284-.207-.544-.474-.849-.652Z"/><path fill="#934200" d="M172.568 108.205s4.647 1.538 7.282-1.475c1.244-1.424.471-4.3 1.034-6.465.566-2.166 2.575-3.509 2.575-3.509l.602-.212s-1.74 2.83-1.86 5.128c-.121 2.296.539 3.867.539 3.867l1.025 1.485s-.21.274-2.094 1.09c-1.884.815-2.134.972-3.672 1.225-1.537.252-5.431-1.131-5.431-1.131v-.003Z"/><path stroke="#14041E" stroke-linecap="round" stroke-linejoin="round" stroke-width=".361" d="M101.991 74.84c.039 10.104 0 25.126 0 25.126M100.56 54.006c1.003 1.422 1.345 9.904 1.419 18.779M49.946 78.55s-11.31.602-9.505 3.48c3.725 2.124 15.075 6.073 26.852 1.818 11.776-4.254 20.501-17.08 24.479-24.2 3.467-6.21 5.88-8.27 7.914-6.61"/><path stroke="#14041E" stroke-linecap="round" stroke-linejoin="round" stroke-width=".361" d="M149.425 202.757c-.157-1.354-.352-6.237-.352-6.237-3.385-55.11-13.46-127.029-16.605-144.787-3.145-17.758-9.373-34.041-24.879-30.28-12.734 3.09-23.584 24.787-35.884 42.174-9.573 13.531-16.942 14.767-19.953 14.803m0 0c-.858.01-1.805.12-1.805.12l1.805-.12Z"/><path stroke="#14041E" stroke-linecap="round" stroke-linejoin="round" stroke-width=".361" d="M185.14 88.084c-.88 0-1.706.005-2.608.022-36.007.616-41.188 10.604-38.474 28.733 2.289 15.284 2.156 43.746 2.156 43.746M106.061 233.251c.926 5.73 2.04 10.828 3.378 14.792 7.77 23.03 33.512 27.498 56.201 22.691 22.691-4.81 34.25-28.794 38.967-62.089 4.716-33.296 9.155-61.875 21.086-84.903 10.98-21.194-4.307-34.085-34.881-35.523M102.306 192.877c.594 12.012 1.602 25.809 3.311 37.489M101.454 142.982s.041 32.067.722 47.041m-.253-87.29-.469 37.151"/><path stroke="#14041E" stroke-linecap="round" stroke-linejoin="round" stroke-width=".361" d="M186.048 90.904s-28.454-1.973-35.947 10.763c-7.4 12.578 26.883 20.964 46.614 19.113 17.469-1.638 30.588-8.205 26.774-17.565-.909-2.233-2.601-4.053-4.694-5.25-8.795-5.028-20.846-6.476-27.583-6.892"/><path stroke="#14041E" stroke-linecap="round" stroke-linejoin="round" stroke-width=".361" d="M183.705 107.006s-3.422-4.073 0-9.437c3.421-5.364 2.868-7.861 0-11.654-2.869-3.792-7.123-5.825-.648-15.816M191.913 65.821s-6.071 7.421-5.845 12.416c.226 4.996 5.159 7.77 5.159 12.27s-3.023 8.07-2.96 10.544c.152 5.956 2.279 6.901 2.279 6.901"/><path stroke="#14041E" stroke-linecap="round" stroke-linejoin="round" stroke-width=".361" d="M171.13 107.649s5.087 2.589 8.739 1.203c3.653-1.388 3.86-2.635 9.12-1.203 5.26 1.434 7.758-1.872 10.949-.635 3.19 1.237 4.531 5.351 9.711 3.641M179.392 46.095s-11.685 5.416-13.35 19.103c-1.665 13.687 22.289 13.04 25.34-13.872"/><path stroke="#14041E" stroke-linecap="round" stroke-linejoin="round" stroke-width=".361" d="M175.505 37.297s-11.468-4.192-21.148 5.92c-9.681 10.11-2.522 19.712 15.14 12.137"/><path stroke="#14041E" stroke-linecap="round" stroke-linejoin="round" stroke-width=".361" d="M179.083 31.07s-5.734-7.03-18.497-5.735-14.592 13.923-4.938 16.625"/><path stroke="#14041E" stroke-linecap="round" stroke-linejoin="round" stroke-width=".361" d="M188.986 28.531s-.751-13.646-12.496-17.715c-11.745-4.069-20.268 6.247-14.435 14.407M190.54 56.225s-1.381 16.743 12.767 19.702c14.152 2.96 19.891-20.253 1.95-28.67"/><path stroke="#14041E" stroke-linecap="round" stroke-linejoin="round" stroke-width=".361" d="M201.199 31.43s6.675-12.692 1.682-19.413c-4.995-6.72-18.237-6.581-17.874 5.22"/><path stroke="#14041E" stroke-linecap="round" stroke-linejoin="round" stroke-width=".361" d="M206.864 38.56s12.357-.09 14.298-13.965c1.942-13.872-13.171-14.965-16.389-5.357"/><path stroke="#14041E" stroke-linecap="round" stroke-linejoin="round" stroke-width=".361" d="M213.052 53.277s9.661 7.883 15.672 2.15c6.011-5.735 3.166-21.917-14.719-19.051M193.693 29.128s-14.89-3.234-17.758 7.308c-2.869 10.542 14.324 16.906 23.954 14.425 9.341-2.403 11.93-19.423-6.196-21.733ZM151.107 109.815c-.493-.479-.495-1.251-.257-1.742.238-.491.652-.89.83-1.405.106-.306.125-.645.296-.922.224-.363.659-.544.921-.883.26-.334.328-.801.638-1.09.33-.308.828-.32 1.254-.469.921-.323 1.484-1.285 2.375-1.685.895-.399 2.023-.192 2.808-.777.248-.185.44-.435.666-.645a2.69 2.69 0 0 1 2.633-.558c1.169.397 2.269-1.003 3.503-1.061.616-.03 1.244.238 1.834.065.534-.157.9-.636 1.345-.972a2.927 2.927 0 0 1 2.055-.58c.71.072 1.482.392 2.096.029.597-.352 1.578-.523 2.264-.438.287.033.561.125.847.159.284.036.594.01.825-.162.248-.185.713-.308 1.021-.325 1.063-.062 2.062.616 3.126.573.702-.029 1.366-.373 2.069-.375M189.305 97.519c.476-.491 1.494-.917 2.146-.708.366.116.691.344 1.064.43.931.215 2.016-.478 2.81.059.164.11.299.267.477.349.199.091.43.079.647.057 1.427-.142 2.931-.63 4.24-.045.248.11.481.257.738.344.804.264 1.86-.048 2.399.604.154.187.234.426.371.625.532.773 1.677.7 2.601.544.551-.094 1.177.048 1.605.407.202.168.373.382.609.503.371.19.816.106 1.23.043.688-.106 1.46-.125 2.006.308.294.233.496.578.828.751.465.243 1.03.079 1.555.127.637.058 1.229.47 1.508 1.045.467.033.963.517 1.114.96.049.144.082.313.212.392.101.063.226.048.344.046.785-.012 1.523.642 1.6 1.424.017.178.01.371.109.522.086.133.238.202.378.277.363.195.693.467.902.823.253.423.317.926.38 1.415.043.339.628 1.1.669 1.439.123.986-.152 1.677-.794 2.435M103.926 52.175c1.009 2.325 3.636 4.079 6.079 3.405 1.6-.44 2.82-1.812 3.441-3.352.62-1.537 1.005-3.224.986-4.882-.031-2.71-.508-6.983-4.386-7.565-3.16-.477-5.415 2.305-6.156 4.942-.536 1.91-.844 3.896-.462 5.819M105.477 74.096c.303 1.44.924 2.806 1.896 3.932 1.427 1.65 3.853 2.765 5.987 1.95 1.908-.728 3.049-2.857 3.6-4.717 1.059-3.576 1.157-7.948-.965-11.163-2.279-3.45-5.47-2.75-7.852.058-1.316 1.552-2.262 3.525-2.675 5.587-.13.652-.205 1.321-.217 1.993"/><path stroke="#14041E" stroke-linecap="round" stroke-linejoin="round" stroke-width=".411" d="M105.925 101.663c.346 1.64 1.053 3.199 2.162 4.482 1.626 1.882 4.391 3.152 6.825 2.222 2.175-.828 3.475-3.256 4.104-5.376 1.207-4.077 1.319-9.061-1.101-12.726-2.597-3.934-6.235-3.136-8.951.066-1.5 1.769-2.578 4.019-3.05 6.37a12.859 12.859 0 0 0-.247 2.27"/><path stroke="#14041E" stroke-linecap="round" stroke-linejoin="round" stroke-width=".502" d="M106.701 141.847c.422 2.001 1.286 3.903 2.638 5.469 1.985 2.296 5.358 3.846 8.327 2.711 2.654-1.011 4.241-3.973 5.007-6.56 1.473-4.974 1.61-11.055-1.342-15.527-3.17-4.799-7.608-3.825-10.921.08-1.831 2.159-3.146 4.904-3.722 7.772a15.554 15.554 0 0 0-.301 2.772"/><path stroke="#14041E" stroke-linecap="round" stroke-linejoin="round" stroke-width=".361" d="M111.566 189.546c.583 3.131 1.471 6.48 3.518 8.771 3.278 3.662 8.468.756 10.528-2.678 3.518-5.867 2.856-14.77.589-20.968-1.234-3.379-3.864-8.391-8.215-7.765-1.586.228-2.955 1.292-3.905 2.584-1.239 1.684-2.062 3.821-2.601 5.83-.585 2.188-.821 4.45-.794 6.711a33.11 33.11 0 0 0 .382 4.582M115.84 229.406c.053.414.11.799.178 1.21.609 3.709 1.338 8.333 3.941 11.243 3.278 3.662 8.468.755 10.528-2.679 3.518-5.866 2.856-14.769.589-20.968-1.234-3.378-3.864-8.39-8.215-7.765-1.586.229-2.955 1.292-3.905 2.585-1.239 1.684-2.062 3.821-2.601 5.83-.585 2.187-.821 4.449-.794 6.711 0 .202.004.303.009.505M100.809 54.54s-.559-.103-.251-.534c.308-.43 6.165-3.33 6.598-3.946.431-.616.402-1.571-1.017-1.14 0 0-5.951 3.515-6.844 4.562-.895 1.049 1.735 1.896 1.735 1.896M108.708 70.84s-7.594 1.764-8.15 2.847.166 1.454 2.695.9c2.529-.556 4.379-.9 5.999-1.744.97-.506.854-2.048-.544-2v-.002Z"/><path stroke="#14041E" stroke-linecap="round" stroke-linejoin="round" stroke-width=".411" d="M109.609 97.951s-8.657 2.011-9.291 3.246c-.634 1.234.189 1.657 3.073 1.026 2.883-.634 4.992-1.026 6.838-1.989 1.106-.576.974-2.335-.62-2.28v-.003Z"/><path stroke="#14041E" stroke-linecap="round" stroke-linejoin="round" stroke-width=".502" d="M111.198 137.318s-10.563 2.454-11.337 3.96c-.773 1.506.231 2.021 3.749 1.252 3.518-.774 6.092-1.252 8.344-2.427 1.349-.703 1.188-2.848-.756-2.781v-.004Z"/><path stroke="#14041E" stroke-linecap="round" stroke-linejoin="round" stroke-width=".361" d="M115.08 185.401s-12.51 3.708-14.798 5.919c-1.33 1.287.308 1.894 1.788 1.564 1.479-.33 12.702-4.276 14.242-5.696 1.543-1.417.7-2.406-1.232-1.787ZM122.761 223.523s-17.925 6.21-19.239 8.258c-.589.921-.163 2.12 1.901 1.631 2.065-.488 18.043-6.848 18.639-8.205.597-1.36-.327-1.93-1.304-1.684h.003Z"/><path stroke="#14041E" stroke-linecap="round" stroke-linejoin="round" stroke-width=".361" d="M113.794 169.899s3.198-5.092 7.637.272c4.24 5.123 7.708 28.485-3.698 29.737M118.931 213.063s3.198-5.092 7.637.272c4.24 5.123 7.746 28.918-3.657 30.17M109.515 62.847s4.04-1.718 6.304 2.767c2.267 4.486.132 13.911-4.165 14.633"/><path stroke="#14041E" stroke-linecap="round" stroke-linejoin="round" stroke-width=".411" d="M110.532 88.838s4.606-1.958 7.187 3.155c2.585 5.114.151 15.859-4.748 16.682"/><path stroke="#14041E" stroke-linecap="round" stroke-linejoin="round" stroke-width=".502" d="M112.319 126.199s5.62-2.389 8.769 3.849c3.153 6.239.185 19.349-5.793 20.354"/><path stroke="#14041E" stroke-linecap="round" stroke-linejoin="round" stroke-width=".361" d="M107.398 40.237s3.203-1.53 4.998 2.465c1.795 3.992.106 12.382-3.301 13.025M156.198 57.931s-5.789 5.299-8.008 13.08c0 0 10.886 1.17 17.768-4.194M220.712 26.912s5.597-2.493 14.231 0c0 0-1.391 6.439-8.711 11.249"/><path stroke="#14041E" stroke-linecap="round" stroke-linejoin="round" stroke-width=".361" d="M148.19 71.012s9.536-10.73 19.891-13.08M234.943 26.912s-7.421 4.283-19.156 8.198"/></svg>