<svg width="280" height="280" fill="none" xmlns="http://www.w3.org/2000/svg"><g clip-path="url(#clip0_5118_224)"><path d="M66.652 166.521s5.703 7.429 4.51 14.459c-1.195 7.031-13.664 37.809-11.144 46.695 0 0 .498 5.273 11.74 5.372 11.243.1 50.742-1.79 64.172-1.99 13.429-.201 27.658 2.486 33.03-.697 5.373-3.183 1.691-9.153 1.195-17.313-.495-8.159.895-11.144 4.478-14.925 3.582-3.78 36.811-15.11 48.553-55.56 11.742-40.45-.099-98.653-85.906-95.599-13.985.796-43.234-1.958-63.133 21.124-8.248 9.565-15.624 20.175-19.095 32.459-6.39 22.608-2.786 47.233 11.6 65.972v.003z" fill="#FDFF95"/><path d="M88.668 195.671s1.195 3.946 1.69 5.175c.497 1.228 1.776 4.032 1.948 4.469.173.435 1.295 2.439 1.295 2.439s.409-1.205 2.125-1.579c1.716-.374 9.754-.959 9.754-.959s4.859-.511 5.555.422c.697.933.832 1.742.832 1.742l.038.623s.386-2.375 2.611-3.01c2.227-.634 6.682-1.328 9.535-1.493 2.853-.165 3.697.598 3.997 1.409.297.813.132 2.222.132 2.222s.447-2.886 2.471-3.433c2.024-.546 5.131-.722 7.595-.846 2.461-.125 3.557.546 3.768 1.294.211.745.112 1.492.112 1.492s4.444-5.555 5.772-7.844c1.327-2.288 2.024-3.249 2.024-3.249s-.89-.079-1.124-1.149c0 0-1.33 1.675-4.513 2.143-3.184.468-9.154-.096-10.247-.628-1.093-.531-.994-2.886-.994-2.886l.33-10.213.448-5.919-13.781.645.328.25-.079 1.111-.099 12.469s.249 3.648-2.637 4.444c-2.885.796-10.762.297-10.762.297s-1.991-.083-2.604-1.873-.781-2.307-.781-2.307.59 3.491-3.763 4.336c-4.353.846-9.75.399-9.75.399s-1.21-.282-1.229.007h.003z" fill="#14041E"/><path d="M112.843 139.325l-.664 1.658s-3.183 14.526-12.336 17.312c-9.154 2.787-16.25-3.979-16.25-3.979s-16.583-13.928-7.826-38.205c10.348-22.021 25.919-13.442 25.919-13.442l.572.495s-4.304-2.344-12.413 1.935c-8.108 4.28-14.027 17.262-11.739 27.511 2.288 10.247 7.135 16.794 14.007 18.953 6.87 2.156 15.029.167 20.735-12.235l-.005-.003zM172.97 142.211l-.697 1.889s-.498 1.294-1.691 3.532c-1.393 3.381-5.471 9.003-11.243 10.895-5.772 1.889-12.288-1.294-13.829-3.084-5.273-2.388-17.412-22.485-5.777-42.52 12.23-18.642 25.543-9.581 25.543-9.581s-10.048-1.957-17.61 6.003c-7.562 7.959-10.613 19.899-6.367 29.914 4.247 10.015 9.817 13.285 16.451 13.242 6.634-.043 10.348-4.023 10.348-4.023l2.256-2.786 2.619-3.484-.003.003zM124.979 153.704s-1.106-2.388-2.538-2.078c-1.429.31-1.902 1.132-2.832 3.171-.928 2.039-2.072 4.627-2.769 5.357-.697.73-2.82 4.617-2.82 4.617s-2.09 3.458.499 4.628c1.07.422 3.63-.125 3.63-.125s-2.362-.821-1.741-2.985c.623-2.163 1.665-3.358 3.158-6.466 1.492-3.109 2.486-5.547 3.483-5.944.994-.399 1.927-.173 1.927-.173l.003-.002z" fill="#E4C565"/><path d="M113.573 125.697s-2.736-5.523-7.588-5.571c-4.851-.051-11.416 2.339-15.446 10.272-4.03 7.936-.546 15.497-.546 15.497s1.276 2.22 3.2 4.02c1.925 1.8 3.766 2.298 3.766 2.298s-7.991.634-13.77-7.368c-6.658-9.218-5.528-18.5-5.528-18.5s.313-15.076 13.959-22.169c0 0 5.159-2.542 10.638-1.006 0 0 8.795 6.643 10.984 18.25s.178 23.425-9.42 28.998c-7.511 3.214-10.977.684-10.977.684" fill="#14041E"/><path d="M95.38 151.598s-5.22-3.107-6.463-9.033c-1.243-5.925.78-11.231 3.598-14.747 2.82-3.517 6.453-7.135 11.485-7.58 5.031-.445 8.258 2.672 9.812 5.79 0 0 .676 4.218-.362 9.87-1.037 5.652-3.658 10.742-8.98 14.274-5.322 3.532-9.09 1.426-9.09 1.426z" fill="#FFFFD7"/><path d="M124.978 153.703s-1.723-.9-3.068 1.404c-1.345 2.303-3.873 7.442-3.873 7.442s-1.919 2.993-1.736 4.734c.183 1.742 1.378 1.889 3.318 1.79 1.94-.099 5.647-.521 5.647-.521s4.477-.521 4.676-2.787c.198-2.265.18-2.586-.57-4.452s-3.908-7.884-4.394-7.61zM160.644 103.18s-13.316-.468-19.591 16.659c-5.726 16.084 5.388 27.905 5.388 27.905s4.704 4.981 11.22 4.739c6.517-.242 12.487-4.422 15.82-11.683 2.136-5.774 2.09-14.028 2.09-14.028s.331-16.15-10.381-23.447l-4.546-.143v-.002z" fill="#14041E"/><path d="M162.601 103.197s-9.878-.038-11.469 12.548c-1.592 12.586 9.107 18.693 11.469 18.848 2.36.155 5.721 2.044 12.97-3.75 0 0 1.345-9.891-3.232-18.579-4.576-8.688-6.587-9.206-9.74-9.067h.002z" fill="#FFFFD7"/><path d="M93.148 132.102c-.135.508-.17 1.027-.025 1.53.373 1.305 1.726 1.933 3.007 1.648 1.432-.318 2.647-1.264 3.557-2.383.949-1.167 1.808-2.715 1.834-4.256.017-1.119-.633-2.095-1.778-2.268-1.037-.158-2.153.287-2.985.887a9.936 9.936 0 0 0-2.407 2.479c-.456.674-.974 1.503-1.203 2.363zM165.917 122.381c.353.392.773.7 1.271.852 1.299.394 2.558-.404 3.015-1.635.509-1.375.374-2.909-.073-4.282-.466-1.428-1.302-2.992-2.581-3.846-.931-.621-2.105-.606-2.868.261-.694.789-.926 1.966-.875 2.991a9.925 9.925 0 0 0 .778 3.368c.321.748.735 1.633 1.333 2.291z" fill="#14041E"/><path d="M183.748 152.193s4.493 1.889 7.836 15.07c4.168 16.435 26.451-11.124 26.451-11.124s-8.022 19.248-27.737 32.159c0 0-3.489 2.548-9.827 6.171-6.339 3.623-7.694 4.854-8.915 8.278-1.919 3.712-1.215 9.512-1.215 9.512s-2.146-5.23-.704-13.936c1.441-8.705 6.466-15.82 6.466-15.82s6.781-10.678 8.372-16.715c1.592-6.036 1.592-9.351-.729-13.597l.002.002z" fill="#E4C565"/><path d="M66.652 166.521s5.703 7.429 4.51 14.459c-1.195 7.031-13.664 37.809-11.144 46.695 0 0 .498 5.273 11.74 5.372 11.243.1 50.742-1.79 64.172-1.99 13.429-.201 27.658 2.486 33.03-.697 5.373-3.183 1.691-9.153 1.195-17.313-.498-8.159.895-11.144 4.478-14.925 3.582-3.78 36.811-15.11 48.553-55.56 11.742-40.45-.099-98.653-85.906-95.599-13.985.796-43.234-1.958-63.133 21.124-8.248 9.565-15.624 20.175-19.095 32.459-6.39 22.608-2.786 47.233 11.6 65.972v.003z" stroke="#14041E" stroke-width=".509" stroke-linecap="round" stroke-linejoin="round"/><path d="M170.115 212.262s-4.831-11.704 4.52-27.699c8.358-14.295 13.796-22.817 8.889-32.367M101.805 176.271a91.165 91.165 0 0 0-5.255-.01c-2.41.059-5.07-.071-7.389.7-2.026.673-2.064 2.252-2.24 4.116a34.874 34.874 0 0 0-.097 4.889c.166 3.54.77 7.064 1.724 10.473 1.686 6.016 4.597 12.805 9.94 16.458 1.072.735 2.255 1.315 3.516 1.645 10.877 2.853 29.25 1.394 35.685-4.246 6.433-5.637 21.325-28.787 19.931-33.264-1.393-4.478-16.865.432-55.815-.763v.002zM76.476 114.232c-3.659 7.254-4.393 15.65-2.428 23.591 1.869 7.541 6.53 15.959 13.73 19.555 1.022.511 2.095.92 3.201 1.218 6.692 1.797 12.703-1.325 16.435-6.919 4.241-6.354 6.293-14.678 6.298-22.253.005-6.394-1.492-12.733-4.711-18.283-2.098-3.621-4.971-7.206-8.833-9.034-8.355-3.949-17.236 1.991-21.81 8.886a31.684 31.684 0 0 0-1.884 3.239h.002z" stroke="#14041E" stroke-width=".509" stroke-linecap="round" stroke-linejoin="round"/><path d="M101.963 103.121s-12.761-4.058-21.317 12.128c-8.556 16.184 1.747 36.845 15.388 37.013 12.868.157 16.748-13.896 16.748-13.896M139.603 112.765c-4.302 6.893-5.797 15.187-4.558 23.273 1.177 7.678 5.054 16.486 11.899 20.719a16.843 16.843 0 0 0 3.076 1.503c6.502 2.398 12.772-.168 16.995-5.398 4.798-5.942 7.597-14.048 8.292-21.589.584-6.367-.334-12.817-3.034-18.637-1.762-3.796-4.294-7.628-7.976-9.797-7.961-4.691-17.345.42-22.527 6.87a31.623 31.623 0 0 0-2.169 3.056h.002z" stroke="#14041E" stroke-width=".509" stroke-linecap="round" stroke-linejoin="round"/><path d="M165.996 104.014s-12.34-5.197-22.329 10.142c-9.99 15.342-1.602 36.852 11.968 38.256 12.799 1.322 17.94-12.319 17.94-12.319M119.309 154.825c.246-.585.516-1.16.857-1.696.506-.791 1.317-1.579 2.321-1.567 1.599.018 2.471 2.202 3.163 3.339 1.424 2.342 2.883 4.716 3.847 7.295.468 1.248.666 2.684.099 3.892-1.304 2.777-5.154 2.482-7.689 2.749-1.263.132-2.527.267-3.793.399-1.089.114-2.533.521-3.608.239-.844-.221-1.383-1.111-1.439-1.981-.13-1.952 1.332-3.709 2.313-5.271.949-1.507 1.928-3.086 2.767-4.691.455-.867.78-1.802 1.162-2.71v.003zM88.442 195.537s6.135.897 10.877-.361c4.742-1.259 3.832-3.069 4.012-8.424.109-3.183.333-10.427.333-10.427" stroke="#14041E" stroke-width=".509" stroke-linecap="round" stroke-linejoin="round"/><path d="M103.336 188.145s-1.035 7.392 4.04 6.995c5.324-.414 10.016.664 11.607-1.393 1.592-2.057.961-3.979 1.094-6.235.132-2.255.015-11.093.015-11.093M133.578 176.172s-1.768 16.481-.265 18.34c1.503 1.859 14.211 1.475 15.006-1.012.796-2.487 2.04-13.448 1.691-18.388M148.581 192.458s-.218 1.996 1.328 1.866M93.758 208.125s-.473-1.874 2.296-2.072c2.769-.199 10.994-1.094 13.316-.862 2.321.231 2.408 2.024 2.364 3.084-.043 1.06.008 7.689.008 7.689" stroke="#14041E" stroke-width=".509" stroke-linecap="round" stroke-linejoin="round"/><path d="M111.722 208.822s-1.061-3.631 4.561-4.379c5.622-.745 8.805-1.195 10.844-.297 2.039.895.425 10.493.425 10.493" stroke="#14041E" stroke-width=".509" stroke-linecap="round" stroke-linejoin="round"/><path d="M128.142 207.21s.096-2.98 2.418-3.562c2.321-.583 8.688-1.211 9.982-.514 1.294.697 1.352 1.289 1.174 2.784M97.529 152.262c-6.31-1.676-9.469-7.717-9.202-13.944.313-7.241 5.09-14.18 11.65-17.211 5.591-2.583 11.025-.493 13.606 5.083" stroke="#14041E" stroke-width=".509" stroke-linecap="round" stroke-linejoin="round"/><path d="M93.087 132.102c-.135.508-.17 1.027-.026 1.53.374 1.305 1.727 1.933 3.008 1.648 1.432-.318 2.647-1.264 3.557-2.383.911-1.118 1.808-2.715 1.834-4.256.017-1.119-.634-2.095-1.778-2.268-1.037-.158-2.153.287-2.985.887a9.938 9.938 0 0 0-2.407 2.479c-.456.674-.974 1.503-1.203 2.363zM175.345 130.843c-3.583 3.377-8.549 5.19-13.329 3.641-5.039-1.63-8.675-5.716-10.376-10.648-3.204-9.291 1.907-22.11 13.239-20.519" stroke="#14041E" stroke-width=".509" stroke-linecap="round" stroke-linejoin="round"/><path d="M165.853 122.381c.354.392.773.7 1.271.852 1.3.394 2.558-.404 3.016-1.635.509-1.375.374-2.909-.074-4.282-.465-1.428-1.302-2.992-2.58-3.846-.931-.621-2.106-.606-2.869.261-.694.789-.925 1.966-.874 2.991a9.925 9.925 0 0 0 .778 3.368c.32.748.735 1.633 1.332 2.291zM72.622 164.265s0 13.466-1.788 18.215" stroke="#14041E" stroke-width=".509" stroke-linecap="round" stroke-linejoin="round"/></g><defs><clipPath id="clip0_5118_224"><path fill="#fff" transform="translate(52.013 46.848)" d="M0 0h174.987v186.204H0z"/></clipPath></defs></svg>