<svg xmlns="http://www.w3.org/2000/svg" fill="none" viewBox="0 0 280 280"><g clip-path="url(#a)"><path fill="#FCFF60" d="M245.403 127.273c-85.847 13.136-104.205 58.268-114.544 146.458-.254 2.154-3.387 2.129-3.605-.029-8.932-88.143-15.416-133.264-99.914-146.418-2.085-.323-2.024-3.347.072-3.59 85.703-10.067 103.121-26.336 113.348-111.11.257-2.143 3.376-2.118 3.604.026 9.041 84.715 16.458 101.006 100.981 111.073 2.096.25 2.147 3.271.058 3.59ZM92.886 40.406c-29.828 4.566-36.207 20.247-39.801 50.887-.087.747-1.175.74-1.251-.01-3.105-30.627-5.357-46.304-34.717-50.873-.726-.113-.704-1.164.025-1.248 29.778-3.496 35.83-9.15 39.384-38.608.091-.743 1.172-.736 1.252.007 3.14 29.437 5.718 35.098 35.086 38.594.73.087.747 1.139.022 1.247v.004ZM262.88 210.875c-29.828 4.566-36.207 20.247-39.801 50.887-.087.747-1.175.74-1.251-.01-3.105-30.627-5.357-46.304-34.717-50.874-.725-.112-.704-1.164.025-1.247 29.778-3.496 35.83-9.15 39.384-38.608.091-.744 1.172-.736 1.252.007 3.14 29.437 5.719 35.098 35.086 38.594.729.087.747 1.138.022 1.247v.004Z"/><path fill="#FFD83C" d="M27.339 127.283s75.559-12.312 99.146 46.993c2.437 6.132 10.709 7.031 14.459 1.603 11.996-17.364 38.651-41.633 95.41-47.203 0 0-8.446 1.679-17.915 4.391-4.185 1.201-8.577 2.8-12.515 4.211-8.254 2.955-31.964 11.242-51.12 43.242-17.077 28.527-21.142 73.365-21.142 73.365l-3.05 19.511s-.356 3.405-3.264.994c-.541-.631-1.705-14.615-1.705-14.615l-1.704-18.234s-4.519-47.113-19.369-71.048c-14.851-23.935-37.245-37.226-77.231-43.21ZM16.691 40.175s25.393-.99 34.333 13.48c1.476 2.39 4.863 2.574 6.615.377 4.754-5.97 14.248-13.825 30.974-13.052 0 0-20.98 3.735-27.576 18.567-6.6 14.83-7.736 28.806-7.736 28.806s.073 3.311-.993 3.5c-1.067.188-1.136-6.978-1.136-6.978s-1.276-19.51-7.59-30.154c-6.314-10.644-20.363-12.773-26.89-14.546ZM187.98 211.118s21.571 1.846 26.891 16.816c4.682 9.828 5.748 23.203 5.748 23.203l1.183 10.194s.141 1.509 1.087.99c.947-.519.425-6.1 3.217-18.445 2.793-12.344 7.924-20.907 15.801-26.085 7.877-5.179 16.461-6.173 16.461-6.173s-17.375-.355-31.939 9.067a2.522 2.522 0 0 1-2.763.003c-3.656-2.408-14.956-8.602-35.682-9.566l-.004-.004Z"/><path fill="#FFF7AE" d="M144.802 16.05s-.497-3.833-2.201-3.264c-1.705.57-.283 63.008-7.946 93.376-7.663 30.369 45.125 11.496 63.432 12.487 18.307.993 25.541 2.27 25.541 2.27s-33.846-4.044-51.939-19.584c-18.093-15.54-21.712-45.505-21.712-45.505l-2.981-20.588-2.201-19.192h.007Z"/><path stroke="#fff" stroke-linecap="round" stroke-linejoin="round" stroke-width="1.886" d="M61.203 26.722a25.373 25.373 0 0 0 4.058 5.077M66.61 33.181c.243.254.519.483.813.679M214.852 204.152a16.475 16.475 0 0 0 6.506-6.474M222.468 195.344c.159-.424.319-.852.475-1.277"/><path stroke="#14041E" stroke-linecap="round" stroke-linejoin="round" stroke-width=".943" d="M245.403 127.273c-85.847 13.136-104.205 58.268-114.544 146.458-.254 2.154-3.387 2.129-3.605-.029-8.932-88.143-15.416-133.264-99.914-146.418-2.085-.323-2.024-3.347.072-3.59 85.703-10.067 103.121-26.336 113.348-111.11.257-2.143 3.376-2.118 3.604.026 9.041 84.715 16.458 101.006 100.981 111.073 2.096.25 2.147 3.271.058 3.59ZM92.886 40.406c-29.828 4.566-36.207 20.247-39.801 50.887-.087.747-1.175.74-1.251-.01-3.105-30.627-5.357-46.304-34.717-50.873-.726-.113-.704-1.164.025-1.248 29.778-3.496 35.83-9.15 39.384-38.608.091-.743 1.172-.736 1.252.007 3.14 29.437 5.718 35.098 35.086 38.594.73.087.747 1.139.022 1.247v.004ZM262.88 210.875c-29.828 4.566-36.207 20.247-39.801 50.887-.087.747-1.175.74-1.251-.01-3.105-30.627-5.357-46.304-34.717-50.874-.725-.112-.704-1.164.025-1.247 29.778-3.496 35.83-9.15 39.384-38.608.091-.744 1.172-.736 1.252.007 3.14 29.437 5.719 35.098 35.086 38.594.729.087.747 1.138.022 1.247v.004Z"/></g><defs><clipPath id="a"><path fill="#fff" d="M0 0h280v280H0z"/></clipPath></defs></svg>