<svg xmlns="http://www.w3.org/2000/svg" fill="none" viewBox="0 0 280 280"><path fill="#FCFF60" d="M199.563 47.671c-17.925-12.531-39.693-19.876-63.577-19.876-21.679 0-41.932 6.044-59.14 16.526l-47.688 58.682c-4.053 11.541-6.259 23.94-6.259 36.852 0 61.889 50.64 110.999 113.087 112.059 61.885 1.05 113.545-44.481 113.19-107.726l-49.613-96.517Z"/><path fill="#000" d="M181.444 159.186c-8.833 2.568-17.733 4.873-26.869 6.318-22.2 3.506-44.71 2.856-66.773-1.267-10.334-1.929-21.236-3.532-31.488-.303-2.605.82-5.235 2.139-6.632 4.485-1.152 1.939-1.3 4.344-.875 6.561 6.742 34.99 43.38 50.787 74.93 55.967 36.224 5.948 71.037-12.077 89.912-42.837 5.261-8.578 11.988-20.992 8.556-31.344-2.446-7.377-11.722-6.206-17.593-4.51-7.751 2.238-15.435 4.688-23.171 6.934l.003-.004Z"/><path fill="#FFFFF3" d="M222.218 156.761s-24.342 32.408-85.496 36.165c-61.904 3.805-87.532-23.482-87.532-23.482s2.456-7.599 18.594-7.333c16.14.266 17.681 1.902 26.836 3.254 9.155 1.349 20.674 2.989 39.224 2.073 18.553-.916 35.784-4.729 51.167-9.299 15.38-4.566 22.562-7.754 28.776-7.156 6.218.599 8.468 4.984 8.427 5.778h.004Z"/><path fill="#FF673D" d="M184.169 218.263c-17.515-22.928-45.168-12.761-45.168-12.761-32.197-6.217-45.168 17.246-45.168 17.246s22.163 9.89 46.971 9.262c24.808-.628 43.365-13.743 43.365-13.743v-.004Z"/><path fill="#D09AFF" d="M174.093 34.437c2.013 1.61-.48 7.861-3.972 9.129-1.208.435-2.519.528-3.801.45-3.491-.207-6.827-1.607-9.765-3.506-2.937-1.899-5.515-4.289-8.068-6.683l4.821 5.287c1.688 1.85 3.499 4.17 2.856 6.59-.521 1.951-2.575 3.185-4.585 3.359-2.01.177-3.994-.488-5.885-1.194-7.345-2.744-14.704-6.55-19.13-13.022 1.452 2.054 2.904 4.108 4.359 6.158 1.124 1.585 2.298 3.377 2.055 5.302-.259 2.032-2.117 3.583-4.112 4.056-1.995.473-4.086.074-6.059-.48-4.33-1.216-8.494-3.203-11.878-6.162-3.384-2.96-5.959-6.942-6.838-11.353 0 0 14.039-4.312 30.593-4.567 16.551-.254 37.37 5.003 39.405 6.636h.004Z"/><path fill="#DB452C" d="M96.804 218.85s14.035-12.771 28.709-9.01c14.674 3.757 15.288 9.01 15.288 9.01s14.899-17.8 39.803-4.851c0 0-15.468-17.241-41.602-8.497 0 0-23.567-7.193-42.195 13.348h-.003Z"/><path fill="#FFD83C" d="M74.618 133.66s-39.031 15.757-44.093 27.612c-5.061 11.856 35.002 81.968 102 83.413 64.83 1.4 101.582-42.793 107.822-87.211a6.466 6.466 0 0 0-3.181-6.528c-8.486-4.847-28.695-16.821-29.833-21.616-1.444-6.081 16.769-17.933 21.395-17.645 4.625.289 20.452 32.504 20.452 32.504s1.748 31.418-17.929 60.127c-19.68 28.709-52.35 45.959-85.792 47.211-33.442 1.253-63.596-7.758-89.261-32.67-25.665-24.911-31.255-52.535-32.965-70.456-1.71-17.922 1.53-33.165 5.933-45.397 4.404-12.233 50.085 6.949 45.46 30.656h-.008Z"/><path fill="#FDFF95" d="M131.89 72.505c-1.796-2.504-37.997-5.541-38.77-5.733-.772-.192-18.387-26.408-20.36-27.9-1.976-1.493-10.791-3.185-10.791-3.185-.669-.24-1.489.004-1.85.742L43.54 70.015c-.218.44-.639.747-1.127.817L5.348 76.218c-1.226.178-1.714 1.685-.827 2.55l26.821 26.145c.351.344.514.839.429 1.323l-6.333 36.914c-.21 1.223 1.072 2.154 2.17 1.578l.265-.14c2.59-.651 9.587-2.387 12.694-2.93 3.853-.676 25.444-12.329 25.444-12.329l29.29 15.399c.376.199.775.214 1.126.107 0 0 12.084-2.213 12.373-7.322.247-4.389-4.304-26.537-5.594-32.696l-.247-1.67c1.555-1.4 24.036-21.63 26.175-24.328 2.216-2.796 4.544-3.805 2.748-6.314h.008Z"/><path fill="#FFFFC2" d="m62.386 36.025 14.217 28.092 3.188 6.4s1.149.383 2.401.439c1.253.051 33.202 4.92 33.202 4.92s1.493.237 6.07.455c4.578.218 11.955-2.161 10.699-3.402-1.256-1.242-3.255-1.582-7.411-2.424-4.156-.842-26.275-3.107-26.275-3.107l-5.59-.772L72.76 38.87s-8.109-3.24-10.377-2.845h.003Z"/><path fill="#DABE39" d="M117.702 76.347s1.541.35.964 2.084c-.657 1.034-6.41 6.17-6.41 6.17L91.97 104.523l-1.012 1.301.185.406 11.822-3.088 20.467-18.705 7.677-7.81 1.267-1.888v-1.367s-.65 2.087-10.913 2.955c-2.616-.147-3.757.015-3.757.015l-.004.004Z"/><path fill="#FFC518" d="m91.14 106.231 5.29 32.481 1.034 4.914-.214 1.034s3.975-.96 6.938-2.409c2.963-1.444 4.792-3.166 4.626-5.375-.166-2.209-4.663-27.531-4.663-27.531l-1.182-6.207-11.822 3.089-.007.004ZM62.383 36.025l8.264 16.022 8.819 18.288s8.157-3.805 13.655-3.565L80.792 49.949l-6.676-9.757s-.443-1.009-2.264-1.677c-1.822-.669-7.205-2.893-9.47-2.494v.004Z"/><path fill="#FDFF95" d="M147.177 72.505c1.796-2.504 37.997-5.541 38.77-5.733.772-.192 18.387-26.408 20.36-27.9 1.976-1.493 10.791-3.185 10.791-3.185.669-.24 1.489.004 1.851.742l16.577 33.586c.218.44.639.747 1.127.817l37.066 5.386c1.226.178 1.714 1.685.827 2.55l-26.821 26.145a1.494 1.494 0 0 0-.429 1.323l6.333 36.914c.21 1.223-1.072 2.154-2.169 1.578l-.266-.14c-2.59-.651-9.587-2.387-12.694-2.93-3.853-.676-25.444-12.329-25.444-12.329l-29.289 15.399a1.469 1.469 0 0 1-1.127.107s-12.084-2.213-12.373-7.322c-.247-4.389 4.304-26.537 5.594-32.696l.247-1.67c-1.555-1.4-24.036-21.63-26.175-24.328-2.216-2.796-4.544-3.805-2.748-6.314h-.008Z"/><path fill="#FFFFC2" d="m216.692 36.094-14.216 28.092-3.189 6.4s-1.148.383-2.401.439c-1.252.052-33.202 4.92-33.202 4.92s-1.492.237-6.07.455c-4.577.218-11.955-2.16-10.699-3.402 1.256-1.242 3.255-1.582 7.411-2.424 4.157-.842 26.275-3.107 26.275-3.107l5.59-.772 20.127-27.756s8.109-3.24 10.378-2.845h-.004Z"/><path fill="#DABE39" d="M161.364 76.416s-1.541.351-.965 2.084c.658 1.034 6.41 6.17 6.41 6.17l20.286 19.923 1.013 1.301-.185.406-11.822-3.088-20.467-18.705-7.677-7.81-1.268-1.888v-1.367s.651 2.087 10.914 2.956c2.615-.148 3.757.014 3.757.014l.004.004Z"/><path fill="#FFC518" d="m187.921 106.3-5.29 32.481-1.035 4.914.214 1.034s-3.975-.96-6.938-2.408c-2.963-1.449-4.791-3.167-4.625-5.376.166-2.209 4.662-27.531 4.662-27.531l1.182-6.206 11.823 3.088.007.004ZM216.695 36.094l-8.265 16.023-8.818 18.287s-8.158-3.805-13.655-3.565l12.328-16.82 6.676-9.758s.444-1.008 2.265-1.677c1.821-.669 7.204-2.893 9.469-2.494v.004Z"/><path fill="#FFD83C" d="M92.45 36.061s-6.265 4.304-3.757 12.591c2.505 8.287 13.211 19.104 13.211 19.104l-8.785-.983-11.22-15.76-5.046-6.695 15.601-8.26-.004.003ZM188.868 41.06s6.672 2.317 2.852 9.514c-6.506 12.247-10.311 15.812-22.939 18.029l14.793-1.689 2.375-.074 13.622-19.17-10.703-6.61Z"/><path fill="#FFC518" d="M251.742 144.9s-12.957-3.029-13.854-3.332c-.898-.307-12.576-5.767-12.576-5.767l-12.055-6.299s3.166-2.431 4.359-2.309c1.194.122 24.594 12.735 24.594 12.735l9.532 4.976v-.004ZM27.326 144.84s12.956-3.029 13.854-3.332c.898-.303 12.576-5.767 12.576-5.767l12.055-6.299s-3.166-2.431-4.36-2.309c-1.193.122-24.593 12.735-24.593 12.735l-9.532 4.976v-.004Z"/><path stroke="#14041E" stroke-linecap="round" stroke-linejoin="round" stroke-width=".792" d="M249.176 144.186c.355 63.241-51.305 108.775-113.19 107.726-62.447-1.057-113.087-50.171-113.087-112.06 0-12.912 2.202-25.31 6.259-36.852M76.853 44.318c17.205-10.481 37.457-16.526 59.14-16.526 23.884 0 45.652 7.345 63.577 19.877"/><path stroke="#14041E" stroke-linecap="round" stroke-linejoin="round" stroke-width=".792" d="m62.797 36.422 16.576 33.586c.218.44.64.746 1.127.817l37.066 5.386c1.227.177 1.715 1.685.828 2.55l-26.822 26.145a1.49 1.49 0 0 0-.428 1.322l6.332 36.915c.21 1.223-1.071 2.154-2.168 1.577l-33.154-17.43a1.498 1.498 0 0 0-1.393 0l-33.154 17.43c-1.097.577-2.38-.354-2.169-1.577l6.333-36.915a1.49 1.49 0 0 0-.429-1.322L4.521 78.764c-.887-.865-.4-2.372.827-2.55l37.066-5.386c.488-.07.91-.377 1.127-.816l16.577-33.586c.547-1.112 2.132-1.112 2.682 0l-.003-.004Z"/><path stroke="#14041E" stroke-linecap="round" stroke-linejoin="round" stroke-width=".792" d="M61.964 35.685s8.815 1.692 10.791 3.184c1.977 1.493 19.592 27.709 20.36 27.904.772.193 36.974 3.23 38.77 5.734 1.795 2.505-.532 3.517-2.749 6.314s-26.264 24.409-26.264 24.409l-11.733 3.007M102.878 103.226s6.218 29.178 5.926 34.284c-.288 5.109-12.372 7.326-12.372 7.326"/><path stroke="#14041E" stroke-linecap="round" stroke-linejoin="round" stroke-width=".792" d="M131.581 72.245s1.474.931 0 1.944c-1.474 1.012-11.767 2.663-14.309 1.98M79.799 70.517s5.53-3.484 13.333-3.75M26.882 144.835s9.83-2.504 13.684-3.18c3.853-.677 25.444-12.329 25.444-12.329M216.268 36.423l-16.576 33.586c-.218.44-.64.746-1.127.816l-37.066 5.387c-1.227.177-1.715 1.684-.828 2.549l26.822 26.145c.35.344.513.839.428 1.323l-6.332 36.915c-.211 1.223 1.071 2.153 2.168 1.577l33.154-17.43a1.498 1.498 0 0 1 1.393 0l33.154 17.43c1.097.576 2.379-.354 2.169-1.577l-6.333-36.915a1.494 1.494 0 0 1 .429-1.323l26.821-26.145c.887-.865.399-2.372-.827-2.55l-37.066-5.386a1.497 1.497 0 0 1-1.127-.816l-16.577-33.586c-.547-1.112-2.132-1.112-2.682 0h.003Z"/><path stroke="#14041E" stroke-linecap="round" stroke-linejoin="round" stroke-width=".792" d="M217.105 35.685s-8.814 1.692-10.791 3.184c-1.977 1.493-19.592 27.709-20.36 27.904-.768.196-36.974 3.23-38.769 5.734-1.796 2.505.532 3.517 2.748 6.314 2.217 2.797 26.264 24.409 26.264 24.409l11.734 3.007"/><path stroke="#14041E" stroke-linecap="round" stroke-linejoin="round" stroke-width=".792" d="M176.197 103.226s-6.218 29.178-5.926 34.284c.292 5.106 12.372 7.326 12.372 7.326M147.49 72.245s-1.474.931 0 1.944c1.474 1.012 11.767 2.663 14.309 1.98M199.277 70.517s-5.531-3.484-13.334-3.75M252.18 144.835s-9.83-2.504-13.684-3.18c-3.853-.677-25.443-12.329-25.443-12.329M181.626 159.183c-8.833 2.568-17.733 4.873-26.87 6.318-22.199 3.506-44.71 2.856-66.773-1.267-10.333-1.929-21.235-3.532-31.487-.303-2.605.82-5.235 2.139-6.632 4.485-1.153 1.939-1.3 4.344-.875 6.561 6.742 34.99 43.38 50.787 74.93 55.967 36.224 5.948 71.036-12.077 89.911-42.837 5.261-8.578 11.989-20.992 8.557-31.344-2.446-7.377-11.723-6.206-17.593-4.51-7.751 2.238-15.436 4.688-23.172 6.934l.004-.004Z"/><path stroke="#14041E" stroke-linecap="round" stroke-linejoin="round" stroke-width=".792" d="M49.357 169.445s25.629 27.287 87.533 23.482c61.15-3.758 85.496-36.165 85.496-36.165M94.001 222.748s12.971-23.463 45.168-17.246c0 0 27.653-10.167 45.168 12.761"/><path stroke="#14041E" stroke-linecap="round" stroke-linejoin="round" stroke-width=".792" d="M139.173 205.502s1.629 4.77 1.629 13.348M104.091 32.365c.879 4.412 3.45 8.39 6.838 11.353 3.384 2.96 7.548 4.947 11.878 6.163 1.973.554 4.067.957 6.059.48 1.995-.473 3.853-2.024 4.112-4.056.243-1.929-.931-3.717-2.055-5.302a3080.17 3080.17 0 0 0-4.359-6.159c4.422 6.473 11.785 10.278 19.13 13.023 1.891.706 3.872 1.37 5.885 1.194 2.01-.178 4.064-1.408 4.585-3.359.643-2.42-1.168-4.74-2.856-6.59l-4.821-5.287c2.549 2.394 5.131 4.784 8.068 6.683 2.937 1.899 6.274 3.3 9.765 3.506 1.282.078 2.593-.015 3.801-.45 3.492-1.264 5.427-5.712 3.972-9.13"/></svg>