<svg xmlns="http://www.w3.org/2000/svg" fill="none" viewBox="0 0 280 280"><path fill="#FF673D" d="M96.502 70.548c-1.037.481-2.87 1.566-3.924 2.064-.797.38-55.734 27.861-49.527 82.847 6.208 54.985 82.944 97.085 106.26 105.752 23.317 8.667 51.804 3.127 71.801-20.189 19.997-23.317 32.551-60.06 31.979-63.353-.578-3.299-18.035-.503-19.19-18.339-1.032-15.934 12.373-20.681 12.373-20.681s-8.881-3.829-5.545-17.158c3.336-13.324 17.553-12.976 17.553-12.976s-11.057-60.937-80.665-59.653"/><path fill="#fff" d="M95.493 134.612c-.593 1.636-.53 3.539.834 4.785 2.818 2.561 6.924.161 7.443-3.261.807-5.326-6.486-6.464-8.277-1.524ZM93.374 167.2c-.593 1.636-.53 3.54.834 4.785 2.818 2.561 6.924.161 7.443-3.261.807-5.325-6.486-6.464-8.277-1.524ZM136.015 145.311c-.594 1.636-.53 3.539.834 4.785 2.817 2.561 6.924.16 7.442-3.262.808-5.325-6.485-6.464-8.276-1.523ZM197.93 115.802c-.594 1.636-.53 3.54.834 4.786 2.818 2.561 6.924.16 7.442-3.262.808-5.325-6.485-6.464-8.276-1.524ZM223.828 81.338c-.593 1.636-.529 3.539.834 4.785 2.818 2.56 6.924.16 7.443-3.262.807-5.325-6.486-6.464-8.277-1.523ZM175.985 148.599c-.593 1.636-.529 3.539.834 4.785 2.818 2.561 6.924.16 7.443-3.262.807-5.325-6.485-6.464-8.277-1.523ZM170.272 196.89c-.594 1.636-.53 3.54.834 4.785 2.817 2.561 6.924.161 7.442-3.261.808-5.325-6.485-6.464-8.276-1.524ZM150.855 178.487c-.593 1.636-.529 3.539.835 4.785 2.817 2.561 6.924.161 7.442-3.261.808-5.326-6.485-6.464-8.277-1.524ZM211.44 147.925c-.593 1.636-.529 3.54.835 4.785 2.817 2.561 6.924.161 7.442-3.261.807-5.325-6.485-6.464-8.277-1.524ZM116.622 196.216c-.593 1.636-.529 3.54.834 4.786 2.818 2.561 6.924.16 7.443-3.262.807-5.325-6.486-6.464-8.277-1.524ZM132.673 222.543c-.594 1.636-.529 3.54.834 4.786 2.818 2.561 6.924.16 7.443-3.262.807-5.325-6.486-6.464-8.277-1.524ZM162.69 231.114c-.593 1.636-.529 3.54.835 4.785 2.817 2.561 6.923.161 7.442-3.261.807-5.325-6.485-6.464-8.277-1.524ZM210.873 201.873c-.593 1.636-.529 3.54.834 4.785 2.818 2.561 6.924.161 7.443-3.261.807-5.325-6.486-6.464-8.277-1.524ZM194.169 236.691c.075.246.177.492.358.674.225.23.551.337.877.374 1.177.123 2.251-.636 3.112-1.444a17.844 17.844 0 0 0 1.973-2.186c.412-.546.802-1.139.914-1.813.268-1.615-.283-2.855-1.909-2.748-.892.059-1.828.208-2.593.695-2.047 1.305-3.47 4.074-2.726 6.453l-.006-.005ZM53.055 154.844c.262.363.578.716.99.887.443.188.94.15 1.422.107.577-.048 1.181-.107 1.679-.406.374-.23.657-.588.887-.962 1.342-2.219.93-5.112-.155-7.464-.155-.337-.331-.679-.626-.909-1.892-1.476-3.977.705-4.672 2.251-.941 2.079-.877 4.598.475 6.496ZM70.704 191.046c.304.193.636.353.983.428.294.064.605.069.904.037 1.711-.187 3.128-1.673 3.454-3.357.326-1.69-.342-3.481-1.535-4.721-1.86-1.931-4.662-1.952-5.833.572-1.139 2.459-.32 5.587 2.021 7.041h.006Z"/><path fill="#C31C12" d="M81.317 109.611s.246 21.36 2.369 33.641c.07.412.663.407.727-.005 1.272-7.689 7.303-34.064 32.299-55.804 0 0 18.633 35.203 33.444 51.58.208.23.593.112.636-.193.791-5.261 5.138-36.576-.118-59 0 0 14.891-1.674 28.279 8.929 10.506 8.32 14.27 13.89 15.404 15.901a.367.367 0 0 0 .679-.091c1.042-4.261 4.063-22.435-15.244-38.1 0 0 11.715-16.345 37.24-10.352 0 0-14.532-7.704-39.416-7.25-24.883.455-65.192 12.586-81.793 22.419C78.772 78.504 60.679 98.97 60.679 98.97s-4.144 3.294-9.817 14.901c0 0 12.426-17.895 33.24-28.353l-2.79 24.103.005-.011Z"/><path fill="#21A255" d="M174.393 51.16s22.819-18.905 59.76-14.146c0 0-19.863-25.868-70.213-6.48 9.052-9.86 33.422-15.265 33.422-15.265-36.459-6.09-64.347 23.119-64.347 23.119C113.558 25.02 48.5 48.21 62.957 45.862c.23-.037.46-.075.69-.107 14.292-2.181 30.348-.497 30.348-.497s.016 0 .032-.005c-22.103 4.443-55.654 15.885-72.56 45.2 0 0 38.437-25.546 81.553-25.15l.85-.487c-8.277 6.33-18.174 15.613-23.504 26.814-10.255 21.542-4.577 47.949-4.577 47.949s8.598-53.21 50.671-69.806c0 0-.449-6.486.427-9.1 0 0-3.373 10.463 8.582 35.138 11.955 24.67 28.637 42.362 28.637 42.362s10.613-41.357-6.78-66.78c0 0-.952-.476-2.336-1.289 3.892 2.01 9.158 3.802 16.189 4.604 20.585 2.352 31.016 20.707 31.016 20.707s-3.555-38.934-33.55-45.88c1.107.182 2.026.375 2.55.578 2.321.898 3.198 1.043 3.198 1.043v.005Z"/><path fill="#0E4E25" d="M126.889 60.678s-46.05 10.32-51.098 78.906c0 0 6.507-31.935 20.943-47.21 14.436-15.276 23.696-19.858 23.696-19.858l6.256-2.808s-.957-2.737.203-9.03ZM141.579 52.979s-3.005 10.035 4.32 17.569c7.325 7.533 10.517 8.95 16.415 10.265 0 0-3.048-6.96-4.989-9.415 0 0-8.287-3.71-10.939-7.892-2.652-4.18-4.807-10.522-4.807-10.522v-.005ZM21.473 90.459s21.349-18.724 42.832-26.953c21.478-8.228 53.461-7.849 53.461-7.849s-10.522 6.614-14.735 9.657c0 0-39.582-1.321-81.553 25.15l-.005-.005ZM159.149 48.477s26.921-17.473 49.516-16.495c22.595.979 25.488 5.032 25.488 5.032s-17.12-3.043-36.016 2.502c-15.692 4.603-23.739 11.645-23.739 11.645s-8.41-3.064-15.243-2.684h-.006Z"/><path fill="#26BB62" d="M126.886 60.678s3.774.871 8.897 14.051c5.127 13.18 18.408 39.234 22.595 44.308 4.186 5.074 7.426 8.106 7.426 8.106s-.085 3.127-.577 5.683c-.492 2.556-1.123 5.352-1.123 5.352s-9.907-11.923-11.062-13.495c-1.15-1.566-13.26-18.847-19.099-32.658-5.833-13.81-6.614-18.975-6.614-18.975s-1.186-7.704-.449-12.377l.006.005Z"/><path stroke="#14041E" stroke-linecap="round" stroke-linejoin="round" stroke-width=".802" d="M96.754 70.548c-1.037.481-2.871 1.567-3.924 2.064-.797.38-55.734 27.861-49.527 82.847 6.208 54.985 82.944 97.085 106.26 105.752 23.317 8.667 51.804 3.128 71.801-20.189s32.551-60.06 31.979-63.353c-.573-3.294-18.035-.503-19.19-18.339-1.032-15.933 12.373-20.681 12.373-20.681s-8.881-3.829-5.545-17.158c3.336-13.324 17.553-12.976 17.553-12.976s-11.057-60.936-80.665-59.653M115.457 42.467s-67.47 2.016-93.984 47.992c0 0 38.437-25.547 81.553-25.15"/><path stroke="#14041E" stroke-linecap="round" stroke-linejoin="round" stroke-width=".802" d="M117.761 55.657S90.621 70.1 80.366 91.641c-10.255 21.541-4.576 47.949-4.576 47.949s8.597-53.21 50.67-69.807"/><path stroke="#14041E" stroke-linecap="round" stroke-linejoin="round" stroke-width=".802" d="M126.887 60.678s-3.373 10.463 8.582 35.138c11.955 24.675 28.637 42.362 28.637 42.362s10.613-41.356-6.78-66.78"/><path stroke="#14041E" stroke-linecap="round" stroke-linejoin="round" stroke-width=".802" d="M158.845 48.477c39.052-.166 43.351 46.938 43.351 46.938S191.77 77.06 171.18 74.708c-20.585-2.353-26.092-13.175-26.092-13.175s-2.353-3.94-3.513-8.554"/><path stroke="#14041E" stroke-linecap="round" stroke-linejoin="round" stroke-width=".802" d="M174.394 51.16s22.819-18.905 59.76-14.146c0 0-24.194-31.52-86.889 1.095"/><path stroke="#14041E" stroke-linecap="round" stroke-linejoin="round" stroke-width=".802" d="M93.994 45.263s-16.062-1.69-30.348.498c-.23.037-.46.07-.69.107-14.457 2.347 50.596-20.842 70.058-7.475 0 0 27.888-29.209 64.347-23.12 0 0-24.37 5.406-33.422 15.26M95.417 134.863c-.594 1.636-.53 3.54.834 4.785 2.818 2.561 6.924.161 7.443-3.261.807-5.325-6.486-6.464-8.277-1.524ZM93.293 167.451c-.594 1.636-.53 3.54.834 4.785 2.818 2.561 6.924.161 7.443-3.261.807-5.325-6.486-6.464-8.277-1.524ZM135.939 145.562c-.594 1.636-.53 3.539.834 4.785 2.817 2.561 6.924.16 7.442-3.261.808-5.326-6.485-6.465-8.276-1.524ZM197.855 116.054c-.594 1.636-.53 3.539.834 4.785 2.817 2.561 6.924.16 7.442-3.262.808-5.325-6.485-6.464-8.276-1.523ZM223.752 81.589c-.594 1.636-.529 3.54.834 4.785 2.818 2.561 6.924.16 7.443-3.261.807-5.326-6.486-6.465-8.277-1.524ZM175.911 148.85c-.593 1.636-.529 3.54.834 4.785 2.818 2.561 6.924.161 7.443-3.261.807-5.325-6.486-6.464-8.277-1.524ZM170.196 197.141c-.593 1.636-.529 3.54.834 4.786 2.818 2.561 6.924.16 7.443-3.262.807-5.325-6.486-6.464-8.277-1.524ZM150.781 178.738c-.593 1.636-.529 3.54.834 4.785 2.818 2.561 6.924.161 7.443-3.261.807-5.325-6.486-6.464-8.277-1.524ZM211.364 148.176c-.593 1.637-.529 3.54.834 4.786 2.818 2.561 6.924.16 7.443-3.262.807-5.325-6.486-6.464-8.277-1.524ZM116.548 196.468c-.594 1.636-.529 3.539.834 4.785 2.818 2.561 6.924.16 7.443-3.262.807-5.325-6.486-6.464-8.277-1.523ZM132.598 222.795c-.594 1.636-.53 3.539.834 4.785 2.817 2.561 6.924.16 7.442-3.261.808-5.326-6.485-6.465-8.276-1.524ZM162.614 231.366c-.593 1.636-.529 3.539.834 4.785 2.818 2.561 6.924.16 7.443-3.262.807-5.325-6.486-6.464-8.277-1.523ZM210.798 202.124c-.594 1.637-.529 3.54.834 4.786 2.818 2.561 6.924.16 7.443-3.262.807-5.325-6.486-6.464-8.277-1.524ZM194.097 236.942c.075.246.176.492.358.674.225.23.551.337.877.374 1.176.123 2.251-.636 3.112-1.444a17.844 17.844 0 0 0 1.973-2.186c.411-.546.802-1.139.914-1.813.267-1.615-.283-2.855-1.909-2.748-.893.059-1.828.208-2.593.695-2.048 1.305-3.47 4.074-2.727 6.453l-.005-.005ZM52.98 155.095c.261.364.577.716.988.888.444.187.941.149 1.422.107.578-.049 1.182-.107 1.68-.407.374-.23.657-.588.887-.962 1.342-2.219.93-5.112-.155-7.464-.155-.337-.332-.679-.626-.909-1.892-1.476-3.978.706-4.673 2.251-.94 2.08-.877 4.598.476 6.496ZM70.63 191.297c.304.193.636.353.983.428.294.064.604.07.904.038 1.71-.188 3.128-1.674 3.454-3.358.326-1.69-.342-3.481-1.535-4.721-1.86-1.93-4.662-1.952-5.833.572-1.139 2.459-.32 5.587 2.021 7.041h.005Z"/><path stroke="#14041E" stroke-linecap="round" stroke-linejoin="round" stroke-width=".802" d="M130.837 37.136s5.133 2.807 7.897 6.855M58.098 122.437h.208M151.535 241.915h.209"/></svg>