<svg xmlns="http://www.w3.org/2000/svg" fill="none" viewBox="0 0 280 280"><g clip-path="url(#a)"><path fill="#FCFF60" d="M144.902 218.962c43.008 0 77.873-34.865 77.873-77.873 0-43.009-34.865-77.874-77.873-77.874-43.009 0-77.874 34.865-77.874 77.874 0 43.008 34.865 77.873 77.874 77.873ZM22.529 172.648c-4.474.665-8.676 2.51-12.757 4.441-2.215 1.048-4.474 2.183-6.133 3.983-1.659 1.801-2.608 4.475-1.746 6.777.764 2.041 2.804 3.405 4.932 3.874 2.128.47 4.344.186 6.494-.207a60.826 60.826 0 0 0 12.047-3.558c4.169-1.713 11.851-5.914 10.41-11.654-1.341-5.38-9.231-4.256-13.247-3.656ZM70.237 224.08c-2.575 3.721-4.103 8.042-5.478 12.353-.753 2.335-1.474 4.758-1.277 7.202.185 2.445 1.484 4.955 3.743 5.904 2.008.84 4.398.284 6.199-.949 1.8-1.234 3.11-3.045 4.288-4.878a60.77 60.77 0 0 0 5.642-11.23c1.593-4.212 3.787-12.691-1.386-15.572-4.845-2.696-9.418 3.83-11.72 7.17h-.011ZM137.392 243.787c-.421 4.506.367 9.021 1.281 13.452.489 2.405 1.049 4.87 2.419 6.904 1.36 2.039 3.722 3.59 6.157 3.31 2.162-.252 3.972-1.908 4.936-3.866.965-1.958 1.218-4.178 1.347-6.354a60.821 60.821 0 0 0-.588-12.553c-.677-4.453-2.922-12.918-8.843-12.893-5.544.026-6.33 7.955-6.7 11.995l-.009.005ZM25.627 121.719c-4.158-1.757-8.709-2.379-13.205-2.859-2.444-.262-4.954-.469-7.311.207-2.358.677-4.551 2.455-5.02 4.867-.415 2.139.622 4.365 2.182 5.871 1.572 1.517 3.612 2.423 5.642 3.209a60.755 60.755 0 0 0 12.135 3.241c4.453.709 13.194 1.135 14.962-4.518 1.658-5.293-5.664-8.447-9.396-10.029l.01.011ZM72.311 61.262c-2.652-3.656-6.231-6.537-9.832-9.265-1.953-1.484-3.994-2.957-6.362-3.601-2.368-.644-5.173-.251-6.81 1.572-1.462 1.614-1.724 4.059-1.168 6.165.568 2.106 1.834 3.94 3.176 5.664a61.042 61.042 0 0 0 8.72 9.047c3.437 2.902 10.716 7.791 15.146 3.863 4.158-3.678-.49-10.16-2.87-13.434v-.01ZM217.002 63.302c3.906-2.27 7.126-5.544 10.203-8.85 1.67-1.8 3.35-3.678 4.212-5.97.873-2.291.764-5.117-.883-6.94-1.463-1.615-3.864-2.128-6.013-1.779-2.15.35-4.104 1.43-5.948 2.598a60.628 60.628 0 0 0-9.876 7.77c-3.241 3.132-8.828 9.876-5.358 14.688 3.241 4.507 10.16.535 13.663-1.506v-.01ZM258.928 125.015c4.419-.928 8.512-3.023 12.473-5.195 2.15-1.178 4.332-2.444 5.882-4.343 1.55-1.91 2.335-4.616 1.342-6.864-.884-1.997-3.001-3.23-5.151-3.58-2.149-.349-4.354.066-6.46.59a61.34 61.34 0 0 0-11.818 4.267c-4.06 1.953-11.481 6.602-9.702 12.255 1.67 5.292 9.473 3.699 13.445 2.859l-.011.011ZM246.775 180.691c3.797 2.445 8.173 3.831 12.528 5.064 2.357.665 4.801 1.309 7.235 1.036 2.433-.272 4.911-1.647 5.773-3.939.774-2.041.131-4.409-1.157-6.166-1.288-1.757-3.143-3.012-5.02-4.114a61.27 61.27 0 0 0-11.404-5.26c-4.267-1.451-12.811-3.361-15.518 1.91-2.531 4.932 4.147 9.287 7.552 11.48l.011-.011ZM207.463 223.098c1.976 4.07 4.987 7.53 8.054 10.847 1.67 1.801 3.416 3.612 5.642 4.66 2.226 1.037 5.052 1.146 6.984-.36 1.724-1.342 2.412-3.689 2.226-5.86-.185-2.172-1.124-4.202-2.139-6.133a61.487 61.487 0 0 0-6.995-10.433c-2.881-3.459-9.188-9.538-14.241-6.449-4.736 2.892-1.298 10.083.48 13.739l-.011-.011ZM142.12 34.482c.862-4.441.535-9.014.077-13.51-.251-2.444-.557-4.943-1.714-7.104-1.156-2.16-3.35-3.95-5.794-3.907-2.183.033-4.147 1.506-5.304 3.35-1.157 1.845-1.637 4.038-1.975 6.188a61.164 61.164 0 0 0-.677 12.55c.218 4.496 1.615 13.15 7.508 13.717 5.522.524 7.093-7.29 7.868-11.262l.011-.022Z"/><path fill="#FFD83C" d="M67.62 131.66s7.192 57.084 91.492 49.642c65.335-5.762 56.212-69.602 56.212-69.602s10.804 9.691 6.133 43.127c-4.485 32.084-34.353 62.727-76.553 64.32-39.81 1.506-63.938-33.578-63.938-33.578S64.957 165.707 67.62 131.66Z"/><path stroke="#14041E" stroke-linecap="round" stroke-linejoin="round" stroke-width=".8" d="M144.904 219.158c43.008 0 77.873-34.865 77.873-77.873s-34.865-77.874-77.873-77.874c-43.009 0-77.874 34.866-77.874 77.874 0 43.008 34.865 77.873 77.874 77.873ZM22.529 172.833c-4.474.666-8.676 2.51-12.757 4.442-2.215 1.047-4.474 2.182-6.133 3.983-1.659 1.8-2.608 4.474-1.746 6.777.764 2.04 2.804 3.404 4.932 3.874 2.128.469 4.344.185 6.494-.208a60.89 60.89 0 0 0 12.047-3.557c4.169-1.714 11.851-5.915 10.41-11.655-1.341-5.38-9.231-4.256-13.247-3.656ZM70.237 224.266c-2.575 3.721-4.103 8.043-5.478 12.353-.753 2.336-1.474 4.758-1.277 7.203.185 2.444 1.484 4.954 3.743 5.904 2.008.84 4.398.283 6.199-.95 1.8-1.233 3.11-3.045 4.288-4.878a60.793 60.793 0 0 0 5.642-11.229c1.593-4.212 3.787-12.692-1.386-15.573-4.845-2.695-9.418 3.831-11.72 7.17h-.011ZM137.366 243.948c-.37 4.51.467 9.017 1.432 13.437.516 2.399 1.103 4.857 2.495 6.876 1.383 2.024 3.763 3.549 6.194 3.241 2.159-.276 3.95-1.953 4.893-3.921.943-1.968 1.171-4.192 1.275-6.369a60.729 60.729 0 0 0-.728-12.546c-.727-4.444-3.067-12.884-8.987-12.793-5.544.088-6.241 8.026-6.565 12.069l-.009.006ZM25.627 121.904c-4.158-1.757-8.709-2.379-13.205-2.859-2.444-.262-4.954-.469-7.311.207-2.358.677-4.551 2.456-5.02 4.868-.415 2.138.622 4.365 2.182 5.871 1.572 1.517 3.612 2.422 5.642 3.208a60.755 60.755 0 0 0 12.135 3.241c4.453.709 13.194 1.135 14.962-4.518 1.658-5.293-5.664-8.446-9.396-10.029l.01.011ZM72.311 61.458c-2.652-3.655-6.231-6.536-9.832-9.265-1.953-1.484-3.994-2.957-6.362-3.6-2.368-.645-5.173-.252-6.81 1.57-1.462 1.616-1.724 4.06-1.168 6.166.568 2.106 1.834 3.94 3.176 5.664a61.042 61.042 0 0 0 8.72 9.047c3.437 2.902 10.716 7.791 15.146 3.863 4.158-3.678-.49-10.16-2.87-13.434v-.01ZM217.002 63.488c3.906-2.27 7.126-5.544 10.203-8.85 1.67-1.801 3.35-3.678 4.212-5.97.873-2.292.764-5.118-.883-6.94-1.463-1.616-3.864-2.128-6.013-1.78-2.15.35-4.104 1.43-5.948 2.598a60.629 60.629 0 0 0-9.876 7.77c-3.241 3.132-8.828 9.876-5.358 14.688 3.241 4.507 10.16.535 13.663-1.506v-.01ZM258.928 125.2c4.419-.927 8.512-3.023 12.473-5.194 2.15-1.179 4.332-2.445 5.882-4.344 1.55-1.898 2.335-4.616 1.342-6.864-.884-1.997-3.001-3.23-5.151-3.579-2.149-.349-4.354.065-6.46.589a61.407 61.407 0 0 0-11.818 4.267c-4.06 1.953-11.481 6.602-9.702 12.255 1.67 5.293 9.473 3.699 13.445 2.859l-.011.011ZM246.775 180.887c3.797 2.445 8.173 3.831 12.528 5.064 2.357.665 4.801 1.309 7.235 1.036 2.433-.272 4.911-1.647 5.773-3.939.774-2.041.131-4.409-1.157-6.166-1.288-1.757-3.143-3.012-5.02-4.114a61.27 61.27 0 0 0-11.404-5.26c-4.267-1.451-12.811-3.361-15.518 1.91-2.531 4.933 4.147 9.287 7.552 11.48l.011-.011ZM207.463 223.283c1.976 4.071 4.987 7.53 8.054 10.847 1.67 1.801 3.416 3.613 5.642 4.66 2.226 1.037 5.052 1.146 6.984-.36 1.724-1.342 2.412-3.688 2.226-5.86-.185-2.172-1.124-4.201-2.139-6.133a61.567 61.567 0 0 0-6.995-10.433c-2.881-3.459-9.188-9.537-14.241-6.449-4.736 2.892-1.298 10.083.48 13.739l-.011-.011ZM142.12 34.667c.862-4.441.535-9.013.077-13.51-.251-2.444-.557-4.943-1.714-7.104-1.156-2.16-3.35-3.95-5.794-3.906-2.183.032-4.147 1.506-5.304 3.35s-1.637 4.038-1.975 6.187a61.164 61.164 0 0 0-.677 12.55c.218 4.496 1.615 13.15 7.508 13.717 5.522.524 7.093-7.29 7.868-11.262l.011-.022Z"/><path fill="#fff" stroke="#14041E" stroke-linecap="round" stroke-linejoin="round" stroke-width=".8" d="M127.278 74.936c4.3.621 7.617 2.99 7.072 8.697-1.103 11.426-16.359 13.87-24.303 18.595-4.016 2.39-6.821 5.97-10.509 8.752-3.536 2.674-10.192 4.3-11.84-1.342-2.26-7.748 4.583-17.21 9.756-22.23 4.867-4.724 10.771-8.511 17.154-10.825 3.34-1.2 8.469-2.259 12.681-1.647h-.011ZM74.08 130.743c-.098.819-.12 1.561-.054 2.15.273 2.292 1.517 4.551 3.557 5.642 8.829 4.725 12.746-13.826 7.563-18.421-5.719-5.074-10.356 4.922-11.066 10.64v-.011Z"/></g><defs><clipPath id="a"><path fill="#fff" d="M0 0h280v280H0z"/></clipPath></defs></svg>