<svg xmlns="http://www.w3.org/2000/svg" fill="none" viewBox="0 0 280 280"><g clip-path="url(#a)"><path fill="#991310" stroke="#14041E" stroke-linecap="round" stroke-linejoin="round" stroke-width=".47" d="M206.086 102.242c-.15.426-.755.416-.889-.013-1.738-5.596-9.927-25.157-38.325-19.784-33.245 6.291-36.921 67.8 13.559 106.319 10.452 7.471 16.684 12.381 21.406 14.432 0 0 5.295 3.93 11.423 1.522 2.683-1.055 1.594-2.095-.814-2.662 11.348-6.864 60.528-39.514 63.071-83.422 2.944-50.843-53.377-61.534-69.431-16.389v-.003Z"/><path fill="#991310" stroke="#14041E" stroke-linecap="round" stroke-linejoin="round" stroke-width=".47" d="M67.27 103.09c-.15.423-.754.417-.889-.012-1.738-5.596-9.926-25.157-38.324-19.784-33.246 6.29-36.922 67.8 13.559 106.318 11.097 7.935 17.435 12.973 22.26 14.777-.382.197-.71.407-.964.633 0 0 3.99 1.28 7.662-.47 0 0 .003 0 .006-.003.47-.185.943-.414 1.422-.686l.25-.144c2.29-1.19 2.931-1.772 2.931-1.772 13.694-8.568 59.076-40.332 61.516-82.464 2.943-50.844-53.377-61.534-69.432-16.39l.004-.003Z"/><path fill="#991310" stroke="#14041E" stroke-linecap="round" stroke-linejoin="round" stroke-width=".47" d="M133.086 122.549c-1.964 1.791 7.458-3.182 13.433.294l-4.356-4.509c-2.013-.398-5.407.075-5.407.075l-3.67 4.14Z"/><path fill="#FF3D3D" d="M63.995 103.09c-.15.426-.755.417-.89-.012-1.737-5.596-9.925-25.157-38.323-19.784-33.246 6.29-36.922 67.8 13.558 106.318 18.077 12.926 23.526 18.174 30.387 14.254 6.86-3.92 62-37.82 64.696-84.383 2.944-50.844-53.377-61.534-69.431-16.39l.003-.003Z"/><path fill="#14041E" d="M64.647 192.261s-42.968-17.153-54.24-58.815C-.868 91.783 37.792 86.068 48.961 99.79c11.436 14.05 15.112 22.013 22.22 8.414 7.725-14.783 23.473-32.76 43.948-16.255 23.103 18.625-4.568 78.443-50.483 100.312Z"/><path fill="#FF3D3D" d="M210.461 103.09c-.15.426-.755.417-.889-.012-1.738-5.596-9.927-25.157-38.325-19.784-33.245 6.29-36.921 67.8 13.559 106.318 18.077 12.926 23.526 18.174 30.386 14.254 6.861-3.92 62.001-37.82 64.697-84.383 2.943-50.844-53.377-61.534-69.431-16.39l.003-.003Z"/><path fill="#14041E" d="M211.112 192.261s-42.968-17.153-54.241-58.816c-11.273-41.662 27.387-47.377 38.556-33.655 11.436 14.05 15.112 22.013 22.22 8.414 7.725-14.783 23.472-32.76 43.948-16.255 23.103 18.625-4.568 78.443-50.483 100.312Z"/><path fill="#FF3D3D" d="M131.874 130.327s9.447-3.62 15.262 0l-.617-7.484c-5.1-3.62-13.383 0-13.383 0l-1.265 7.484h.003Z"/><path fill="#3E1562" d="M19.44 154.09s7.09-17.05 24.243-16.887c17.153.163 27.775 1.823 36.104-11.423 8.332-13.246 13.602-24.709 22.871-29.256 8.496-4.165 16.377-.113 16.377-.113s6.385 6.567 3.498 24.822c0 0-13.668-5.57-21.021 4.547-7.352 10.117-15.775 37.163-35.663 36.383-19.884-.78-25.16-.927-30.039 11.317 0 0-11.58-11.245-16.376-19.39h.006ZM8.681 125.32s7.753-20.733 39.082-26.826c0 0-10.662-9.911-25.589-3.082-10.596 4.625-15.19 15.735-13.496 29.908h.003ZM165.953 154.09s7.089-17.05 24.242-16.887c17.154.163 27.775 1.823 36.105-11.423 8.332-13.246 13.602-24.709 22.871-29.256 8.495-4.165 16.377-.113 16.377-.113s6.385 6.567 3.497 24.822c0 0-13.668-5.57-21.02 4.547-7.353 10.117-15.776 37.163-35.663 36.383-19.884-.78-25.16-.927-30.039 11.317 0 0-11.58-11.245-16.377-19.39h.007ZM155.19 125.32s7.753-20.733 39.082-26.826c0 0-10.662-9.911-25.589-3.082-10.597 4.625-15.19 15.735-13.496 29.908h.003Z"/><path fill="#C31C12" d="M82.896 78.945S76.818 81.71 70.264 90.7c-6.55 8.99 2.148 11.93 9.379 4.762 7.23-7.167 12.675-11.1 22.05-9.898 0 0-4.283-3.028-10.778-1.985-6.494 1.043-3.682-8.301 7.472-8.99 0 0-8.686.031-15.49 4.359v-.003ZM133.139 122.843s3.607-1.466 6.037-1.525l2.427-.06s-2.918.508-3.817 3.511c-.899 3.002 3.31 3.951 3.31 3.951s-2.023-.316-9.069 1.422l1.112-7.296v-.003ZM226.048 81.083s9.25-5.483 12.763-1.888c3.514 3.595-3.983 9.119-3.983 9.119s6.739-5.167 16.174-2.105a39.056 39.056 0 0 1 3.034 1.046s-6.037-2.424-4.321-7.296c1.716-4.872 10.537-1.653 10.537-1.653s-15.789-9.945-34.207 2.777h.003Z"/><path fill="#14041E" d="M135.331 129.394s-3.21.601-3.454.933c-.244.332-1.822 6.291-1.822 6.291s1.606-3.63 2.893-4.732c1.287-1.102 2.057-1.071 2.057-1.071l.326-1.421ZM143.009 130.327s2.17.316 3.272 2.677c1.102 2.361 3.062 7.343 3.062 7.343l-2.207-10.024s-2.693-1.218-4.368-1.412l.241 1.412v.004ZM57.986 93.502s3.063 2.728 5.574 6.526c.56.845.749-1.954.749-1.954l.848 1.77-1.168 3.246s-.188.705-.798.276c-.61-.429-2.145-6.585-5.208-9.864h.004ZM215.194 93.502s-2.686 3.044-5.198 6.842c-.56.846-1.634-3.441-1.634-3.441l-.752 1.487 1.91 4.688s.113.61.464.291c.551-.504 2.145-6.585 5.207-9.864l.003-.003Z"/><path fill="#FF6564" d="M61.153 197.334c-.655.404-1.253.933-1.616 1.613-.363.679-.467 1.522-.15 2.226.441.983 1.547 1.475 2.59 1.747 1.27.335 2.608.48 3.91.285 1.303-.194 2.568-.748 3.504-1.672.733-.723 1.265-1.75 1.077-2.762-.303-1.644-1.938-1.835-3.278-2.185-1.174-.31-2.352-.385-3.557-.179-.858.144-1.75.445-2.477.93l-.003-.003ZM113.821 82.94c-1.353.627-2.336 1.879-1.869 3.482.444 1.532 2.295 2.508 3.444 3.47 1.447 1.212 2.878 2.455 4.146 3.858 1.155 1.28 2.076 2.777 2.928 4.268.322.563.745 1.117 1.356 1.35.851.325 1.86-.11 2.404-.84.545-.733.696-1.69.652-2.602-.163-3.488-2.192-6.535-4.516-9.006-1.55-1.65-3.306-3.667-5.602-4.293-.92-.25-2.016-.119-2.943.31v.003Z"/><path stroke="#14041E" stroke-linecap="round" stroke-linejoin="round" stroke-width=".47" d="M63.941 102.868c-.15.426-.754.416-.889-.013-1.738-5.595-9.926-25.157-38.324-19.783-33.246 6.29-36.922 67.799 13.558 106.318 18.078 12.926 23.526 18.174 30.387 14.254 6.86-3.921 62-37.821 64.696-84.384 2.944-50.843-53.376-61.533-69.43-16.389l.002-.003Z"/><path stroke="#14041E" stroke-linecap="round" stroke-linejoin="round" stroke-width=".47" d="M64.593 192.039s-42.968-17.153-54.24-58.816C-.92 91.561 37.738 85.846 48.907 99.568c11.436 14.05 15.112 22.013 22.22 8.413 7.725-14.782 23.473-32.76 43.949-16.254 23.103 18.625-4.569 78.443-50.484 100.312ZM210.41 102.868a.468.468 0 0 1-.889-.013c-1.738-5.595-9.926-25.157-38.324-19.783-33.246 6.29-36.922 67.799 13.558 106.318 18.077 12.926 23.526 18.174 30.387 14.254 6.86-3.921 62-37.821 64.696-84.383 2.944-50.844-53.377-61.534-69.431-16.39l.003-.003Z"/><path stroke="#14041E" stroke-linecap="round" stroke-linejoin="round" stroke-width=".47" d="M211.061 192.039s-42.968-17.153-54.241-58.816c-11.273-41.662 27.387-47.377 38.556-33.656 11.436 14.051 15.112 22.014 22.22 8.414 7.725-14.783 23.473-32.76 43.949-16.254 23.103 18.625-4.569 78.443-50.484 100.312ZM133.084 122.62s8.282-3.619 13.383 0M131.823 130.104s9.447-3.62 15.262 0"/><path fill="#fff" stroke="#14041E" stroke-linecap="round" stroke-linejoin="round" stroke-width=".47" d="M18.605 102.505c-6.47 6.932-8.107 17.949-3.93 26.463.893 1.816 2.136 3.616 4.02 4.352.57.222 1.225.335 1.789.091.952-.413 1.224-1.613 1.328-2.646.413-4.221-.026-8.558 1.09-12.651 1.108-4.067 3.691-7.656 4.477-11.798.326-1.716.298-3.605-.648-5.076-2.277-3.551-6.075-.934-8.126 1.262v.003ZM21.371 145.614c4.062 1.196 6.069-6.238 1.547-7.14-4.293-.854-5.282 6.041-1.547 7.14Z"/></g><defs><clipPath id="a"><path fill="#fff" d="M0 0h280v280H0z"/></clipPath></defs></svg>