<svg xmlns="http://www.w3.org/2000/svg" fill="none" viewBox="0 0 280 280"><path fill="#F673FF" d="M129.614 113.12c36.114 5.785 94.143 11.897 111.487 3.657 22.592-10.737 16.548-41.18 11.178-46.71C235.36 52.649 150.497 12.463 51.461 33.892c0 0-12.019 2.644-15.263 9.254C32.029 51.64 25.982 72.35 32.23 80.88c6.249 8.532 50.07 21.944 72.342 27.477l.045.01"/><path fill="#770079" d="M48.432 62.983s-4.523 1.583-2.982 5.668C48.336 75.29 65.588 80.66 65.588 80.66s13.674 4.795 26.808 8.608c13.135 3.813 27.832 8.004 50.22 11.881 22.388 3.878 25.827 4.066 25.827 4.066s15.676 2.42 32.604 2.545c16.929.124 21.599-1.084 21.599-1.084s6.882-1.483 9.423-4.347c2.89-2.74 2.417-7.963-10.842-13.934-13.096-5.6-19.294-6.754-19.294-6.754s-7.16-2.563-24.923-6.505c-17.763-3.94-30.609-6.424-30.609-6.424l-16.983-2.893s-15.919-2.615-25.566-3.558c-9.646-.943-20.901-1.694-20.901-1.694S60 59.282 48.429 62.99l.003-.007Z"/><path fill="#FACAFF" d="M47.872 63.232s-9.832 2.465-11.491 8.254c-1.691 5.9 3.944 10.09 3.944 10.09s3.711 4.086 19.806 10.342c16.196 6.044 25.098 8.755 25.098 8.755s14.484 4.305 20.291 5.654c5.808 1.349 21.401 4.018 35.826 6.268 14.426 2.251 28.852 3.251 28.852 3.251s18.824 1.627 36.209 1.503c17.386-.125 25.703-2.746 25.703-2.746l6.108-1.653s6.368-2.388 7.058-6.201c.688-3.813-7.786-10.133-7.786-10.133l-6.317-3.784-7.255-3.504s8.924 5.118 9.592 9.02c.665 3.904-3.986 6.982-14.096 8.842-9.19 1.442-25.409.358-25.409.358s-17.865-.809-35.222-3.698c-16.916-2.513-25.421-4.453-25.421-4.453s-23.996-5.316-28.331-6.524c-4.337-1.208-9.82-2.79-9.82-2.79l-17.158-5.255-13.115-4.472s-8.598-3.283-10.724-4.408c-2.126-1.125-6.307-3.772-7.537-5.536-1.23-1.762-1.694-2.414-1.55-4.162.143-1.749 2.167-2.567 2.167-2.567l.572-.447.006-.004Z"/><path fill="#F99" d="M167.575 186.927c3.446-6.715 2.817-5.336 2.587-4.875 8.812-18.163 2.576-24.888-1.001-26.058-1.441-.927-7.786-1.553-9.781 1.707.262-.777.495-1.534.69-2.266 3.728-14.061-13.287-17.159-24.069-4.555h-.003c.281-.358.537-.687.757-.975 4.926-6.371 1.081-19.23-10.334-17.184-7.489 1.339-11.747 4.925-13.789 7.233 3.404-4.638 9.42-13.118 14.87-22.253 8.173-13.701 9.375-39.42-3.126-40.621-12.499-1.202-11.297 12.738-19.23 30.283-7.515 16.622-25.598 33.461-27.48 35.184-5.527 1.109-10.74 3.151-15.097 6.584a23.298 23.298 0 0 0-3.254 3.098c-18.108 20.991-31.207 81.995 9.893 97.904 8.085 3.13 25.246 4.941 49.868-10.728 4.894-3.114 22.382-18.245 25.866-23.628 9.202-9.45 17.73-20.891 20.145-24.87l2.488-3.98Z"/><path fill="#14041E" d="M41.908 49.43s-4.587 1.586-5.169 3.127c-.585 1.543-1.013 5.044 2.267 4.44 3.28-.605 7.032-2.98 16.829-4.939 9.797-1.96 13.55-1.752 17.718-1.793 4.168-.042 8.864.246 8.864.246s3.934.63 4.52-1.413c.585-2.042.207-4.462-1.918-5.297-2.126-.834-18.054-2.876-43.111 5.63ZM108.116 44.514s-6.504.246-7.339 1.998c-.834 1.752-.668 4.587 1.001 4.587 1.668 0 5.587-.083 14.633.71 9.046.792 12.716 1.505 12.716 1.505l8.442 1.934s7.252 1.528 8.368 1.192c1.115-.335 1.304-1.253 1.304-1.253s1.25-4.721-.281-5.408c-1.531-.688-4.379-1.25-4.379-1.25s-11.683-2.298-34.471-4.012l.006-.003ZM166.102 54.497s-4.191-1.093-5.597-.374c-1.406.719-2.314 3.845-1.093 4.532 1.221.688 8.349 1.47 12.258 2.314 3.91.844 13.643 3.533 22.024 6.93 6.505 2.398 6.984 2.462 6.984 2.462s2.41.668 3.117 0c.706-.668.914-2.366.984-2.8.067-.432.067-1.934-.118-2.123-.185-.188-2.532-1.656-5.098-2.595-2.564-.937-15.069-5.243-33.458-8.35l-.003.004ZM226.715 73.298s-5.463-2.25-6.649-1.23c-1.189 1.023-1.212 3.564-1.212 3.564s.045.71 1.922 1.627c1.876.917 11.027 4.846 13.217 6.035 2.19 1.189 7.473 4.379 9.724 6.255 2.25 1.876 3.439 3.066 4.471 3.785 1.033.719 2.638 1.307 3.197.217.559-1.09.483-3.657.483-3.657s.201-.153-.723-1c-.924-.847-2.145-2.001-2.145-2.001s-9.359-8.797-22.285-13.592v-.003Z"/><path fill="#FCFF60" d="M38.822 56.801S41.99 42.344 56 39.716c11.3-2.627 18.888 1.96 18.888 1.96s3.759 1.911 6.195 5.04c2.435 3.13 2.423 3.948 2.423 3.948l-7.66-.358s-9.144-.157-14.68.796a147.81 147.81 0 0 0-10.124 2.122l-8.982 2.874s-3.612 1.237-3.235.703h-.003ZM102.419 51.096s11.785.287 17.916 1.045c6.131.757 12.009 2.042 12.009 2.042l8.285 1.66s2.81.587 3.389.594c.578.003 1.157 0 1.157 0s-3.951-15.302-19.834-16.551c-15.8-.793-21.445 9.503-22.919 11.213l-.003-.003ZM160.684 59.227s7.799-10.788 25.728-6.54c13.585 3.842 15.918 18.054 15.918 18.054s-.07.16-2.531-.505c-2.462-.665-10.59-4.002-10.59-4.002s-14.857-5.882-28.525-7.007ZM219.291 76.239s10.507-6.671 21.733-.981c6.505 3.471 7.694 9.663 7.694 9.663l.431 2.112.198 5.613v1.273h-.163l-3.343-2.618s-5.098-4.533-11.853-8.004c-6.754-3.472-9.461-4.335-9.461-4.335l-4.753-2.276-.48-.444-.003-.003ZM29.329 71.253s-14.605-3.056-15.762-7.045c-1.157-3.99 6.46-5.955 11.127-6.38 4.667-.426 6.518-.227 6.518-.227s-1.247 3.078-1.883 13.652ZM257.066 93.919s8.924 3.947 8.934 8.544c.009 4.596-7.371 5.958-7.371 5.958l-7.627.742s5.066-6.595 6.067-15.248l-.003.004Z"/><path fill="#FACAFF" d="m95.115 32.384 4.309.054s-.94.543-1.253 2.503c-.313 1.96-.937 8.464-.937 8.464l-1.49 14.186s-.303 1.637-.188 2.18c.115.544.595 1.563.595 1.563l-4.002-.096s-.582-1.26-.646-2.071c-.064-.812-.083-1.627-.083-1.627l1.793-15.426.783-7.662s.18-1.477 1.122-2.068h-.003ZM154.173 38.156l2.791.518s.975.969.508 4.69c-.47 3.72-1.375 7.38-1.375 7.38l-3.97 16.98s-.987 1.69-2.387 1.642c-1.148-.23-3.047-.604-3.047-.604s1.71-.182 2.257-1.901c.547-1.72 1.407-5.224 1.407-5.224l3.704-16.806s.486-2.628.524-3.44c.039-.812-.415-3.238-.415-3.238l.003.003ZM210.7 52.88s.837 1.175.63 3.825c-.208 2.647-1.794 12.968-1.794 12.968l-1.917 10.507-.208.793s-.48.415-.729.604-1.806.802-1.806.802l2.471.886 1 .355s2.148-.812 2.42-1.564c.272-.75 1.375-6.565 1.375-6.565l1.604-10.59.959-7.358s0-1.209-.415-2.398c-.416-1.189-.627-1.396-.627-1.396l-2.963-.864v-.006Z"/><path fill="#FCFF60" d="M89.345 180.332c-.032.006-.067.016-.099.025-3.471.863-6.377 3.245-8.368 6.16-1.899 2.784-2.835 6.393-1.96 9.704.927 3.491 4.226 6.17 7.924 5.661 2.794-.383 5.093-2.448 6.892-4.481 2.471-2.794 4.453-5.939 5.025-9.688.275-1.803.102-3.619-1.007-5.128-1.927-2.618-5.453-2.96-8.407-2.253Z"/><path fill="#FBFFB7" d="M112.348 193.808c-.036 0-.067.006-.103.01-4.497.402-8.764 3.282-10.941 7.259-1.723 3.145-2.129 8.1.195 11.05 4.216 5.351 11.782 1.442 15.209-2.717 2.416-2.934 5.6-8.24 3.599-12.079-1.502-2.884-4.932-3.766-7.959-3.523Z"/><path fill="#FCFF60" d="M123.992 213.62c-.527 1.131-.872 2.336-.863 3.516.026 3.96 5.063 4.069 7.895 3.487 4.421-.908 8.193-3.682 11.019-7.128 1.358-1.656 2.704-3.813 2.429-6.06-.543-4.427-7.099-3.389-10.002-2.497-3.283 1.01-6.431 2.963-8.605 5.693-.69.866-1.368 1.892-1.876 2.986l.003.003Z"/><path fill="#FBFFB7" d="M115.28 149.783c-1.876.365-3.711 1.26-4.872 2.775-5.504 7.182 8.238 10.925 13.058 11.095 2.34.083 5.105-.617 6.879-2.209 3.231-2.896.777-7.563-2.167-9.151-3.756-2.024-8.663-3.334-12.895-2.513l-.003.003ZM112.814 207.933a95.737 95.737 0 0 1-.888-6.239c-.01-.08-.02-.16-.064-.224-.087-.118-.256-.131-.406-.128-2.008.042-4.015.323-6.013.125.224 1.787.173 3.641.01 5.434-.023.249-.042.527.105.729.138.188.381.259.608.31.984.227 1.994.313 3.001.361.444.022.889.035 1.333.022.732-.022 1.605-.214 2.314-.39Z"/><path fill="#E66981" d="M77.864 142.367s12.607-11.433 20.285-23.021c7.678-11.587 8.509-15.924 8.509-15.924s-10.558 28.518-3.085 33.77c7.474 5.255 20.982-14.697 20.982-14.697l-10.046 14.518-4.648 6.614s-17.76-4.136-31.993-1.263l-.004.003ZM72.072 173.069s8.129.055 6.818 5.374c-1.314 5.319-12.134 12.022-9.63 24.222 2.032 9.922 13.383 2.82 13.383 2.82s-8.087-1.25-7.087-10.923c1-9.672 7.25-16.289 8.669-17.9 1.42-1.611 5.006-4.529 5.006-4.529l2.333-2.001s-9.631.124-19.492 2.941v-.004ZM100.92 196.023s-8.024 8.605-9.772 16.193c-1.752 7.589 4.085 14.369 12.757 7.033 0 0-5.754-.918-7.297-7.88-1.544-6.961 4.312-15.343 4.312-15.343v-.003ZM109.787 218.619s-2.359 5.338 2.039 8.547c4.402 3.21 11.3-2.585 11.3-2.585s-7.103-.774-7.013-9.101c0 0-5.284 3.011-6.329 3.139h.003Z"/><path fill="#E66981" d="M77.911 186.028s9.58-11.552 15.864-12.709c6.284-1.157 15.599.562 19.042 1.064 3.439.502 11.385-1.221 15.045-4.098 0 0-6.69 2.845-16.279 1.595-9.59-1.249-15.51-1.595-15.51-1.595s-3.867-.175-4.58 0c-.713.176-4.165 3.398-5.274 4.434-1.11 1.036-4.862 4.485-8.301 11.309h-.007ZM135.886 160.709s-.035-5.517 5.003-11.172 9.797-6.684 13.882-5.907c0 0-5.463-2.183-12.798 2.026-4.213 2.628-7.34 6.671-7.34 6.671l-.709 1.167s2.378 2.628 1.959 7.215h.003Z"/><path fill="#E66981" d="M96.726 211.855s-1.077-6.952 7.678-17.519c8.755-10.571 20.412-23.108 20.412-23.108l-5.43.857-12.547 15.79s-5.354 7.061-6.731 9.73c-1.378 2.67-4.184 6.982-3.385 14.247l.003.003ZM159.505 157.33s-4.149 11.328-12.987 23.823c-8.838 12.495-15.468 20.189-15.468 20.189s-5.795 7.02-9.257 9.772c-3.462 2.752-5.277 4.104-5.277 4.104l-.4.46s.313 3.606 1.995 6.131c0 0-1.755-3.446 1.151-6.591 2.905-3.145 16.538-13.978 36.052-42.542 9.794-15.346 8.538-19.827 4.191-15.346Z"/><path fill="#49004A" d="M79.33 85.266s19.104 6.316 27.891 1.812c5.006-2.567 1.688-7.38 1.752-11.258.064-3.877 17.814-1.093 22.203.374 12.341 4.127-1.535 3.484-1.535 3.484s-3.301-4.235-10.267-2.026c-1.233.54-2.25 1-3.001 1.834-.751.835-2.001 2.043-3.628 6.256-1.627 4.21-2.826 8.32-2.826 8.32s-24.932-6.489-30.59-8.8v.004ZM133.277 88.229s1.774 7.77 9.28 10.772c7.505 3.002 16.228 4.849 16.228 4.849s-7.473-.841-11.725-1.723c-4.251-.882-11.136-2.19-11.136-2.19l-2.56-.54s.569-8.253-.087-11.168Z"/><path fill="#C01FC3" d="M104.576 108.357s-4.491-.767-4.948-1.266c-.457-.502.454-2.074 2.928-1.505 2.474.569 2.912.61 2.912.61l-.892 2.161Z"/><path fill="#FBFFB7" d="M36.023 43.507s5.008-4.082 12.97-6.501C56.957 34.586 69.8 33.21 69.8 33.21s35.983-3.292 74.692 3.21c37.153 6.504 43.654 9.257 43.654 9.257s5.565 1.687 11.946 3.628c6.38 1.94 13.946 4.628 23.641 8.819a463.993 463.993 0 0 1 17.385 7.943s7.755 3.845 9.225 5.159c1.471 1.314 2.845 2.784 3.91 4.44a28.752 28.752 0 0 1 1.719 3.065s-1.007-5.478-3.692-8.665c-2.685-3.187-10.916-8.4-10.916-8.4s-18.379-12.361-51.319-22.117c-33.106-10.257-71.546-11.59-71.546-11.59s-12.048-.31-27.893.418c-15.845.73-30.66 3.862-30.66 3.862s-9.995 2.167-12.786 2.956c-2.79.79-9.005 3.702-11.136 8.311Z"/><path fill="#F08EE4" d="M98.778 91.208s5.252 3.126 5.505 7.214c.252 4.088-9.577 5.003-9.577 5.003l6.505 1.735 4.312 1.17s1.33-3.088 2.432-6.111c1.1-3.024 1.969-6.147 1.969-6.147s-9.432-2.484-11.143-2.861l-.003-.003ZM147.058 102.13s-7.339-.208-9.631 3.209c-2.292 3.421 1.208 6.838 1.208 6.838l-8.058-1.042s1.63-5.633 1.969-7.09c.342-1.458.812-4.648.812-4.648s12.07 2.564 13.697 2.73l.003.003Z"/><path fill="#fff" fill-opacity=".4" d="M47.028 194.441c-.87 2.666-.812 6.019.585 8.362.588.988 1.662 1.902 2.774 1.614 1.087-.281 1.586-1.524 1.822-2.624.607-2.797.675-6.175-1.026-8.627-1.112-1.605-2.9-1.624-3.74.201a10.2 10.2 0 0 0-.418 1.071l.003.003ZM49.036 214.192c-.045.393-.073.761-.096 1.074-.495 6.207 1.813 12.767 6.112 17.296 1.215 1.282 2.9 2.468 4.612 2.947 2.6.726 4.108-1.438 3.091-3.772-.927-2.122-2.416-3.919-3.55-5.923-1.513-2.666-2.168-5.686-2.865-8.637-.332-1.409-.633-2.857-1.218-4.19-.55-1.253-2.049-3.679-3.759-3.219-1.656.448-2.129 2.701-2.317 4.424h-.01Z"/><path stroke="#14041E" stroke-linecap="round" stroke-linejoin="round" stroke-width=".479" d="M77.557 142.569s19.572-17.66 27.502-35.206c7.93-17.545 6.729-31.485 19.23-30.283 12.498 1.202 11.296 26.92 3.126 40.621-8.173 13.7-17.625 25.932-17.625 25.932"/><path stroke="#14041E" stroke-linecap="round" stroke-linejoin="round" stroke-width=".479" d="M72.212 172.897s14.26-5.127 36.213-1.442c6.485 1.09 14.045 1.256 20.131-1.585 5.258-2.455 9.381-9.535 6.044-15.19-2.116-3.583-7.371-5.578-11.005-7.016-6.364-2.522-13.118-4.124-19.882-5.108-13.316-1.937-30.072-2.215-41.231 6.575a23.355 23.355 0 0 0-3.254 3.097C41.12 173.22 28.02 234.224 69.12 250.133c26.576 9.168 59.886-13.684 76.069-34.356"/><path stroke="#14041E" stroke-linecap="round" stroke-linejoin="round" stroke-width=".479" d="m133.802 153.6 2.864-3.695c4.925-6.371 1.08-19.23-10.335-17.184-11.417 2.042-15.32 9.298-15.32 9.298M91.72 170.129s-14.54 9.458-16.103 23.638c-1.563 14.179 13.7 16.343 24.635 2.643 5.098-6.386 12.287-15.544 19.01-24.146"/><path stroke="#14041E" stroke-linecap="round" stroke-linejoin="round" stroke-width=".479" d="M107.137 187.725s-14.697 16.261-9.65 26.355c5.047 10.095 17.785 4.843 29.804-8.455 12.018-13.297 28.963-36.129 32.687-50.19 3.727-14.062-13.288-17.159-24.07-4.555"/><path stroke="#14041E" stroke-linecap="round" stroke-linejoin="round" stroke-width=".479" d="M116.116 215.48s-.403 9.656 9.132 9.174c9.535-.48 22.593-6.972 39.179-32.687 16.583-25.719 8.813-34.612 4.648-35.973-1.442-.927-7.787-1.554-9.781 1.707M129.614 113.158c36.114 5.786 94.143 11.897 111.487 3.657 22.592-10.737 16.548-41.18 11.178-46.71C235.36 52.687 150.497 12.501 51.461 33.931c0 0-12.019 2.643-15.263 9.253-4.169 8.493-10.216 29.203-3.967 37.735 6.249 8.531 50.07 21.943 72.342 27.476a.726.726 0 0 0 .045.01"/><path stroke="#14041E" stroke-linecap="round" stroke-linejoin="round" stroke-width=".479" d="M105.519 106.328s-46.968-12.303-62.83-22.76c-15.863-10.455-10.78-34.37 90.931-17.065 101.714 17.305 111.006 34.624 111.649 39.825.642 5.2-16.171 19.083-114.772 4.798M35.287 45.217s1.752-7.8 31.476-11.645c29.724-3.845 94.781-.24 152.225 22.353 30.283 13.7 34.694 14.592 37.609 25.438"/><path stroke="#14041E" stroke-linecap="round" stroke-linejoin="round" stroke-width=".479" d="M95.556 32.272s-1.432-.144-1.614 3.043c-.182 3.187-2.582 21.93-2.525 23.433.06 1.502.831 2.413.831 2.413M99.593 32.361s-1.38.122-1.563 3.308c-.182 3.187-2.583 21.931-2.525 23.434.06 1.502.831 2.413.831 2.413M154.014 38.016s1.042 1.326.32 5.412c-.723 4.085-4.875 21.464-5.169 23.014-.441 2.324-2.762 2.324-2.762 2.324M156.899 38.533s1.282 1.305.56 5.393c-.723 4.085-4.875 21.464-5.169 23.014-.441 2.324-2.762 2.324-2.762 2.324M133.277 99.429c26.371 5.424 55.52 9.215 81.97 8.148 3.606-.144 7.18-.767 10.594-1.937 20.783-7.135-6.729-18.214-6.729-18.214M48.878 62.983s-10.238 2.94 2.823 11.562c4.83 3.187 27.934 11.846 58.217 19.52"/><path stroke="#14041E" stroke-linecap="round" stroke-linejoin="round" stroke-width=".479" d="M35.9 73.947s-2.228-9.56 18.764-13.55c20.99-3.989 76.798 3.42 103.015 8.369 26.218 4.948 90.633 19.863 87.587 37.562"/><path stroke="#14041E" stroke-linecap="round" stroke-linejoin="round" stroke-width=".479" d="M210.347 52.688s1.349 1.393 1.029 3.957c-.319 2.563-3.27 23.574-4.078 24.405-.809.83-2.596 1.384-2.596 1.384M213.706 53.89s1.349 1.393 1.03 3.956c-.32 2.564-3.27 23.574-4.079 24.405-.809.831-2.525 1.273-2.525 1.273M89.345 180.332c-.032.006-.067.016-.099.025-3.471.863-6.377 3.245-8.368 6.16-1.899 2.784-2.835 6.393-1.96 9.704.927 3.491 4.226 6.17 7.924 5.661 2.794-.383 5.093-2.448 6.892-4.481 2.471-2.794 4.453-5.939 5.025-9.688.275-1.803.102-3.619-1.007-5.128-1.927-2.618-5.453-2.96-8.407-2.253ZM112.348 193.808c-.036 0-.067.006-.103.01-4.497.402-8.764 3.282-10.941 7.259-1.723 3.145-2.129 8.1.195 11.05 4.216 5.351 11.782 1.442 15.209-2.717 2.416-2.934 5.6-8.24 3.599-12.079-1.502-2.884-4.932-3.766-7.959-3.523ZM123.992 213.62c-.527 1.131-.872 2.336-.863 3.516.026 3.96 5.063 4.069 7.895 3.487 4.421-.908 8.193-3.682 11.019-7.128 1.358-1.656 2.704-3.813 2.429-6.06-.543-4.427-7.099-3.389-10.002-2.497-3.283 1.01-6.431 2.963-8.605 5.693-.69.866-1.368 1.892-1.876 2.986l.003.003ZM115.28 149.783c-1.876.365-3.711 1.26-4.872 2.775-5.504 7.182 8.238 10.925 13.058 11.095 2.34.083 5.105-.617 6.879-2.209 3.231-2.896.777-7.563-2.167-9.151-3.756-2.024-8.663-3.334-12.895-2.513l-.003.003ZM41.926 49.488c-.588.246-1.176.499-1.765.764-3.896 1.553-3.615 2.483-3.755 4.197-.141 1.713.16 3.452 4.398 2.132 0 0 10.094-4.565 23.954-5.926 13.86-1.362 19.067 1.042 21.311-.56 2.244-1.601 1.122-5.367-.722-6.169-.656-.284-3.734-.834-8.436-.972"/><path stroke="#14041E" stroke-linecap="round" stroke-linejoin="round" stroke-width=".479" d="M39.005 56.91s2.624-14.7 17.305-17.315c21.151-3.766 27.196 10.861 27.196 10.861"/><path stroke="#14041E" stroke-linecap="round" stroke-linejoin="round" stroke-width=".479" d="M40.012 56.801s2.979-13.853 16.835-15.905c14.67-2.174 22.114 4.404 25.658 9.742M108.342 44.514c-1.586.051-2.983.186-4.121.416-3.966.36-4.005 2.643-3.944 4.385.061 1.742 1.084 1.78 2.944 1.803 0 0 13.521-.026 25.358 2.27 11.836 2.295 16.404 3.679 17.785 2.895 1.381-.78 1.863-5.149 1.023-6.29-.227-.307-2.717-.972-6.441-1.736"/><path stroke="#14041E" stroke-linecap="round" stroke-linejoin="round" stroke-width=".479" d="M102.415 51.099s3.363-7.07 12.738-9.957c9.375-2.883 15.295-.601 18.463.962 3.167 1.563 8.208 5.044 11.577 14.4"/><path stroke="#14041E" stroke-linecap="round" stroke-linejoin="round" stroke-width=".479" d="M103.858 51.121s6.812-11.46 22.433-9.938c0 0 13.122 1.627 17.098 15.155M166.338 54.426a221.496 221.496 0 0 0-3.475-.537c-3.366-.502-3.845 2.305-4.056 3.449-.211 1.144.901 1.921 2.375 1.921 0 0 14.461 1.934 24.996 5.799 12.061 4.423 15.864 6.37 17.306 5.526 1.442-.84 1.358-3.41 1.221-4.926-.045-.508-1.854-1.556-5.271-2.896"/><path stroke="#14041E" stroke-linecap="round" stroke-linejoin="round" stroke-width=".479" d="M160.684 59.227s4.465-6.6 14.738-7.447c9.555-.79 16.696 1.946 21.813 7.93 2.704 3.161 4.498 7.048 5.095 11.031"/><path stroke="#14041E" stroke-linecap="round" stroke-linejoin="round" stroke-width=".479" d="M162.306 59.26s5.91-8.762 23.273-5.361c12.137 2.66 15.407 16.542 15.407 16.542M227.017 73.26a41.135 41.135 0 0 0-4.025-1.23c-3.564-1.08-3.404 1-3.925 2.122-.521 1.122-.259 2.442 2.503 3.404 0 0 16.884 6.61 24.517 14 6.214 6.017 5.769.122 5.769-1.502 0-.428-1.032-1.649-2.816-3.28"/><path stroke="#14041E" stroke-linecap="round" stroke-linejoin="round" stroke-width=".479" d="M219.414 76.338c5.965-4.459 15.938-4.42 22.209-.614 2.752 1.672 5.057 4.194 6.383 7.167 1.551 3.474 1.455 7.31 1.177 11.028"/><path stroke="#14041E" stroke-linecap="round" stroke-linejoin="round" stroke-width=".479" d="M220.649 77.179s9.337-6.233 20.573-.464c9.314 5.047 7.988 16.833 7.988 16.833M31.21 57.642s-14.722-.694-17.545 4.593c-2.825 5.287 15.893 9.018 15.893 9.018"/><path stroke="#14041E" stroke-linecap="round" stroke-linejoin="round" stroke-width=".479" d="M30.703 59.947s-13.553-.298-15.414 3.04c-1.863 3.336 3.254 4.935 3.254 4.935M256.943 93.919s9.848 3.83 9.004 9.627c-.841 5.799-15.103 5.62-15.103 5.62"/><path stroke="#14041E" stroke-linecap="round" stroke-linejoin="round" stroke-width=".479" d="M256.597 96.099s7.259 3.25 7.499 7.176c.239 3.925-6.157 5.28-6.157 5.28"/></svg>