<svg width="280" height="280" fill="none" xmlns="http://www.w3.org/2000/svg"><g clip-path="url(#clip0_5118_169)"><path d="M141.256 87.367S130.421 69.1 106.822 71.1c-23.6 2.001-43.4 31.399-60.598 42.398-17.198 10.999-29.298 11.3-29.298 11.3 3.005 3.131 5.992 6.279 8.967 9.438 6.373 6.764 14.157 13.078 19.432 20.717 7.66 11.093 16.74 22.375 26.699 31.542 9.693 8.921 17.916 16.549 30.412 20.796 9.773 3.322 20.074 4.904 30.385 5.001 0 0 53.399 4.4 79.196-33.098 25.8-37.499 37.2-61.497 50.999-69.297 0 0-24.599-.943-45.561-17.4-9.915-7.784-15.767-24.251-41.166-25.45-25.398-1.2-35.035 20.319-35.035 20.319h.002z" fill="#A238FF"/><path opacity=".98" d="M205.434 147.285c26.919-15.129 37.839-34.016 37.839-34.016s1.704.197 3.721.33c2.016.133 3.432-.1 3.432-.1-8.303.764-50.772-6.238-82.197-7.199-20.4-.626-39.397-.401-70.597 6.8-31.2 7.202-66.196 14.6-66.196 14.6l4.242-.902 2.941-.629s10.23 17.587 37.041 29.332l17.891 6.097c11.684 2.962 25.522 4.656 41.782 4.101 21.604-.736 39.454-4.973 53.989-10.743l16.115-7.669-.003-.002z" fill="#14041E"/><path d="M103.124 163.589s2.325-10.59 4.95-14.066c2.624-3.475 4.899-3.25 6.199.151 1.301 3.401 1.871 8.617 2.364 10.705.493 2.088 1.827 4.385 1.827 4.385l.767.8-9.167-.866-6.94-1.109zM160.596 163.098s3.366-6.266 4.766-9.999c1.4-3.734 2.4-8.737 6.2-8.967 3.799-.23 4.599 3.135 5.466 4.835.866 1.699 2.3 6.265 2.3 6.265l.866 3.3-9.8 2.333-9.8 2.233h.002z" fill="#FFF7C4"/><path d="M38.882 126.166s5.556 8.163 16.235 17.273c5.229 3.738 12.532 8.06 12.532 8.06l8.275 3.999s3.309 6.156 7.46 9.279c4.147 3.12 4.913 2.987 7.548 1.855 1.968-1.367 2.967-5.101 2.967-5.101s9.1 2.868 25.332 4.033c16.232 1.168 33.546-1.288 33.546-1.288s8.818-.731 19.569-3.877c10.751-3.145 15.098-4.602 15.098-4.602l1.873-.843s12.627-5.607 18.376-8.755c5.75-3.149 12.849-9.1 17.799-12.801 4.95-3.7 10-9.601 10-9.601l5.698-7.132 2.346-3.368s4.421.235 4.787.235c.365 0 2.1-.033 2.1-.033s-30.006 28.473-41.799 41.498c-17.206 19.005-32.976 27.366-68.655 29.5-30.947 1.85-40.84.414-71.691-24.79-7.84-6.404-15.302-13.258-22.417-20.457-4.405-4.459-10.145-9.693-14.43-11.55l7.449-1.531.002-.003z" fill="#6E14BD"/><path d="M53.826 122.941s2.03 15.262 6.673 18.809c4.449 3.398 6.749-4 7.4-6.2.652-2.2.8-3.151.8-3.151l1.25 5.425s3.649 20.84 15.65 28.609c9.266 5.499 10.433-15.499 10.433-15.499l1.38-10.178.338-4.005s.199 5.451 5.775 6.575c3.726.55 12.2.9 12.2.9s17.607 1.275 24.974.276c7.368-.999 12.637-.378 22.693-2.165 10.055-1.786 17.954-2.936 19.431-5.486 1.475-2.551 2.126-4.549 2.001-5.451-.125-.9.376 2.226.476 3.774.099 1.552 1.528 12.313 3.664 18.451s4.536 8.144 7.337 7.74c2.801-.401 6.266-7.536 7.334-9.534 1.068-1.999 3.033-6.2 4.866-11.234 1.832-5.034 4.5-13.649 4.5-13.649l1.265-4.007s.002 9.525 4.469 9.757c4.467.233 8.116-6.151 10.667-12.849 2.55-6.7 2.361-7.766 2.361-7.766s-15.905-1.661-31.333-3.473c-15.427-1.811-17.727-1.612-23.461-1.944-5.732-.332-29.866-1.666-44.115.483-14.249 2.149-25 2.9-44.148 8.149-16.299 3.649-34.872 7.641-34.872 7.641l-.008.002z" fill="#FFF7C4"/><path d="M141.331 87.367S130.496 69.1 106.896 71.1c-23.6 2.001-43.4 31.399-60.598 42.398C29.1 124.498 17 124.799 17 124.799c3.005 3.131 5.992 6.279 8.967 9.438 6.373 6.764 14.157 13.078 19.432 20.717 7.661 11.093 16.74 22.375 26.7 31.542 9.692 8.921 17.915 16.549 30.412 20.796 9.772 3.322 20.073 4.904 30.384 5.001 0 0 53.399 4.4 79.196-33.098 25.798-37.499 37.2-61.497 50.999-69.297 0 0-24.598-.943-45.561-17.4-9.915-7.784-15.767-24.251-41.166-25.45-25.398-1.2-35.035 20.319-35.035 20.319h.003z" stroke="#14041E" stroke-width=".511" stroke-linecap="round" stroke-linejoin="round"/><path d="M31.702 127.7s35-7.401 66.196-14.599c31.197-7.199 50.197-7.424 70.597-6.8 31.425.963 73.896 7.962 82.197 7.198M205.854 147.173c26.919-15.129 37.685-33.904 37.685-33.904M93.91 161.621c11.683 2.962 25.426 4.633 41.686 4.078 21.604-.736 39.344-4.929 53.88-10.699M38.883 126.167s10.23 17.586 37.04 29.331" stroke="#14041E" stroke-width=".511" stroke-linecap="round" stroke-linejoin="round"/><path d="M66.356 120.197s4.293 31.358 14.045 41.8c12.233 13.099 14.234.567 16.5-17.032 2.267-17.6 2.543-32.22 2.543-32.22M217.532 110.463s-6.9 30.201-16.337 45.835c-7.383 12.23-13.071.657-15.338-16.943-2.267-17.599-2.543-32.219-2.543-32.219" stroke="#14041E" stroke-width=".511" stroke-linecap="round" stroke-linejoin="round"/><path d="M53.827 122.941s2.806 18.157 8.139 19.491c5.333 1.334 6.527-10.278 6.527-10.278M214.396 122.454s-.37 11.847 5.763 10.178c6.133-1.669 11.121-16.432 11.594-20.549M98.077 134.388s-1.58 8.177 6.821 9.11c8.399.933 25.999 2.1 44.398.401 18.399-1.699 29.666-3.749 32.948-6.55 3.281-2.8 2.33-9.649 2.33-9.649" stroke="#14041E" stroke-width=".511" stroke-linecap="round" stroke-linejoin="round"/><path d="M118.94 108.956s-2.211 5.287-2.31 18.087c-.1 12.8 3.567 17.543 3.567 17.543M141.331 106.484s-1.661 2.791-1.36 10.404c.299 7.612-.646 24.887-1.359 27.698M162.896 106.155s1.636 24.892-1.047 36.384M103.124 163.589s3.074-15.839 8.075-16.491c5.001-.649 3.427 13.291 7.789 18.372M160.543 163.121s4.219-7.756 5.951-13.288c1.733-5.533 4.401-6.425 7.467-5.247 3.067 1.178 6.044 13.777 6.044 13.777M251.959 113.599h1.066M140.551 90.3s.108-2.647 2.497-5.986" stroke="#14041E" stroke-width=".511" stroke-linecap="round" stroke-linejoin="round"/></g><defs><clipPath id="clip0_5118_169"><path fill="#fff" transform="translate(17 67)" d="M0 0h246.09v145.452H0z"/></clipPath></defs></svg>