<svg xmlns="http://www.w3.org/2000/svg" fill="none" viewBox="0 0 280 280"><path fill="#FF3D3D" d="M64.984 131.813c-2.264 1.199-4.957 1.308-7.359.421-3.41-1.262-9.927-3.118-12.62-.148-3.729 4.112-35.648 62.942-35.477 70.996.17 8.055 35.733 48.932 128.025 49.188 92.292.256 133.682-73.266 132.138-85.351-1.544-12.082-72.11-118.64-81.751-122.497-9.641-3.856-71.64-19.41-80.381-15.981-8.741 3.426-30.849 45.417-31.706 50.729-.857 5.311 5.529 2.913 10.926 9.47 4.94 5.998.085 11.783-4.028 12.427a.741.741 0 0 0-.538 1.074c1.274 2.496 3.935 9.079.065 14.778-3.75 5.529-9.772 4.386-12.367 3.558a.742.742 0 0 0-.953.841c.454 2.51.798 7.966-3.978 10.495h.004Z"/><path fill="#C31C12" d="M175.244 169.103S119.729 38.296 114.503 31.611c-5.227-6.685-9.996-.999-9.996-.999s.851-3.268 8.82-2.802c7.969.47 23.779 3.617 23.779 3.617s24.808 5.335 34.833 8.035c10.025 2.7 15.961 4.628 16.796 5.164.834.535 1.885 1.777 1.885 1.777s14.194 16.198 26.65 34.6c12.457 18.401 31.236 47.216 31.236 47.216l11.465 18.997 5.219 9.024s-7.246 3.981-30.881 6.448l-22.091 1.856s-29.176.778-34.448 3.222c-1.63.516-2.523 1.337-2.523 1.337"/><path fill="#17723C" d="M10.553 198.421s-2.128 4.858 0 7.755c2.13 2.898 28.175 44.865 127.004 46.097 96.214-.141 129.507-75.72 129.507-75.72l2.119-5.403s.88-2.865.282-4.793c-.601-1.928-1.071-2.658-1.071-2.658l-91.96 17.279s-49.471 39.021-93.564 40.049c-44.093 1.028-72.313-22.603-72.313-22.603l-.004-.003Z"/><path fill="#0F4C27" d="M265.249 156.66c-29.892 10.049-72.937 6.662-87.335 11.29-14.398 4.629-33.677 39.077-82.523 47.303-48.846 8.225-82.973-21.362-82.973-21.362l-1.807 4.671s21.283 25.175 68.07 28.772c46.786 3.601 74.294-21.338 87.407-31.107 13.11-9.77 14.138-10.798 30.08-13.626 15.938-2.828 71.946-2.556 72.865-17.988"/><path fill="#093318" d="m12.358 193.75-1.806 4.671s5.325 6.281 12.86 10.833c7.536 4.55 12.148 6.823 12.148 6.823s-10.22-5.656-10.348-9.385c-.128-3.728 5.141-1.606 5.141-1.606s-13.882-7.053-17.995-11.333v-.003ZM75.627 216.665s8.018-.125 8.094 5.358c.065 4.819-10.755 4.569-10.755 4.569s23.993 3.686 45.417-3.426c10.455-2.572 20.392-8.465 20.392-8.465s-15.334 5.719-20.563 3.064c-5.23-2.654 2.283-9.782 2.283-9.782s-19.67 9.119-44.868 8.682ZM169.151 173.318s5.033-5.897 13.974-6.731c8.941-.834 24.486-1.994 24.486-1.994s-14.589 2.763-14.911 9.191c-.321 6.429 14.911 7.378 14.911 7.378s-19.174 1.856-25.301 4.467c-6.126 2.612-13.067 8.249-13.067 8.249s6.813-5.634 5.942-12.765c-1.162-9.533-9.716-4.671-9.716-4.671l3.682-3.124Z"/><path fill="#14041E" d="M48.593 172.336c-.93 2.391-1.501 5.078-.687 7.512.467 1.393 1.646 2.759 3.111 2.664 1.39-.092 2.349-1.419 2.917-2.69.693-1.544 1.12-3.19 1.547-4.829l.877-3.38 1.607-6.179c.266-1.025 1.685-3.906.354-4.494-1.31-.581-2.821 1.308-3.6 2.08a27.096 27.096 0 0 0-3.36 4.043 26.38 26.38 0 0 0-2.77 5.273h.004ZM83.067 143.534c-.637 2.486-.886 5.223.214 7.538.63 1.328 1.961 2.546 3.406 2.274 1.37-.257 2.162-1.689 2.576-3.019.502-1.616.732-3.302.959-4.977.158-1.153.312-2.306.47-3.459l.857-6.327c.141-1.047 1.209-4.076-.184-4.503-1.373-.421-2.644 1.636-3.328 2.493a26.83 26.83 0 0 0-4.976 9.98h.006ZM114.701 160.04c.394 2.536 1.242 5.148 3.166 6.846 1.104.972 2.806 1.567 4.028.749 1.156-.775 1.32-2.405 1.179-3.788-.174-1.681-.627-3.324-1.077-4.953-.312-1.12-.621-2.244-.933-3.364l-1.705-6.153c-.283-1.021-.496-4.224-1.945-4.066-1.425.154-1.787 2.546-2.076 3.603a26.932 26.932 0 0 0-.884 5.184 26.496 26.496 0 0 0 .244 5.949l.003-.007ZM81.589 187.269c-.47 2.522-.539 5.269.713 7.509.716 1.284 2.125 2.408 3.55 2.043 1.347-.348 2.047-1.83 2.372-3.183.394-1.646.513-3.341.628-5.029.079-1.16.157-2.322.24-3.482.144-2.122.292-4.247.436-6.369.073-1.055.933-4.149-.483-4.484-1.396-.329-2.529 1.806-3.153 2.706a26.95 26.95 0 0 0-2.556 4.596 26.534 26.534 0 0 0-1.747 5.693ZM100.531 66.618c-.47 2.523-.538 5.269.713 7.51.716 1.284 2.125 2.407 3.551 2.043 1.347-.349 2.046-1.83 2.372-3.184.394-1.645.512-3.34.627-5.029.079-1.16.158-2.322.24-3.482.144-2.122.292-4.247.437-6.37.072-1.054.933-4.148-.483-4.483-1.396-.328-2.529 1.807-3.154 2.707a26.95 26.95 0 0 0-2.555 4.595 26.543 26.543 0 0 0-1.748 5.693ZM118.993 111.2c.348 2.543 1.147 5.171 3.042 6.905 1.084.992 2.776 1.62 4.014.822 1.17-.753 1.367-2.379 1.248-3.768-.141-1.685-.565-3.334-.985-4.974-.289-1.126-.578-2.253-.871-3.38-.528-2.063-1.061-4.122-1.589-6.185-.263-1.025-.418-4.231-1.869-4.103-1.429.128-1.833 2.513-2.142 3.564a27.064 27.064 0 0 0-.979 5.167 26.507 26.507 0 0 0 .131 5.952Z"/><path fill="#E6DCAB" d="M173.2 164.304s5.184-2.02 13.337-2.536c8.153-.516 58.241-2.014 76.235-9.385l2.228 4.211s-10.969 4.668-40.703 6.935l-14.868 1.025s-17.4.959-20.908 1.343c-3.508.385-7.21 1.143-8.485 1.324-1.274.181-4.793 1.531-4.793 1.531l-2.043-4.448Z"/><path fill="#0F4C27" d="M194.049 183.235s-71.393 95.771-184.288 21.151c0 0 1.429 3.344 3.176 5.489l1.748 2.142s108.838 79.166 200.913-31.364c0 0-14.585.814-17.009 1.383-2.424.568-4.457.854-4.457.854l-.086.345h.003Z"/><path fill="#0F4C27" d="M233.773 178.905s-49.595 94.694-175.255 60.564c0 0 30.129 9.513 42.532 10.281 12.404.772 110.99 8.791 149.555-73.594l-16.832 2.749Z"/><path fill="#26A559" d="M268.972 164.948s-.477 4.648-6.899 7.227c-6.422 2.578-11.927 4.957-25.605 6.293-12.696 1.482-14.138 1.426-14.138 1.426l-17.033 1.478s-9.059.67-14.588 2.103c-5.528 1.432-9.352 2.043-14.91 5.577-5.558 3.535-10.962 8.124-10.962 8.124s-13.835 11.336-27.724 18.461c-13.889 7.125-23.099 8.731-23.099 8.731s20.566 0 52.959-25.195c12.512-8.685 15.866-10.738 23.736-12.634 7.871-1.895 46.531-.732 71.726-11.53 9.513-4.198 6.537-10.061 6.537-10.061Z"/><path fill="#FF6F72" d="M81.45 84.386s-4.34-2.09-3.502-4.05c9.29-21.789 24.305-46.731 30.79-47.066 7.64-.398 59.197 136.08 60.001 135.833l5.348-2.884-32.303-74.679-20.094-45.554-3.939-8.347-3.012-5.703s-2.391-4.53-6.997-3.718c-2.848.299-8.626 8.754-8.626 8.754s-7.121 9.237-13.997 22.09c-6.875 12.855-8.613 17.74-8.613 17.74s-1.425 3.52-.262 4.91c1.162 1.39 5.21 2.674 5.21 2.674h-.004Z"/><path fill="#FF3D3D" d="M116.231 34.774s.158-3.183 3.436-2.789c41.196 4.95 65.245 12.795 68.467 14.034 3.223 1.238 5.575 4.007 5.575 4.007s-4.077-5.124-5.726-5.722c-1.649-.601-30.454-9-43.656-11.405-13.202-2.405-26.25-5.713-35.309-4.813 0 0 4.621.588 7.21 6.688h.003Z"/><path fill="#FF6F72" d="M15.336 196.01s18.638-42.766 33.4-62.265c2.595-3.43 10.114-1.153 10.114-1.153s-9.178-4.087-13.228-1.242c-1.448.627-4.861 7.145-4.861 7.145l-19.565 36.646-8.16 17.183-.614 1.564 2.917 2.118-.003.004ZM165.535 161.469s2.556 4.957-2.707 11.842c2.152-.187 7.532-4.556 7.532-4.556l-4.825-7.283v-.003Z"/><path fill="#FFFECF" d="m12.422 193.891 1.465-3.403s35.855 27.882 82.815 19.653c33.335-5.229 76.499-45.837 76.499-45.837l2.043 4.802s-2.083.184-7.546 5.069c-5.462 4.885-18.07 16.096-20.277 17.778-2.211 1.682-19.634 15.771-43.091 21.233-29.886 7.841-49.809.066-53.666-.322-3.856-.384-14.529-4.864-21.098-8.041-6.57-3.173-15.15-9.441-15.15-9.441l-1.994-1.488v-.003Z"/><path fill="#fff" stroke="#14041E" stroke-linecap="round" stroke-linejoin="round" stroke-width=".493" d="M246.198 185.009c-2.631.367-5.574.916-7.076 3.11-.486.713-.772 1.541-1.057 2.352-2.155 6.117-4.767 12.154-8.705 17.305-2.287 2.993-5.059 5.762-6.261 9.329-.181.536-.309 1.173.023 1.63.584.801 1.842.289 2.647-.286a129.711 129.711 0 0 0 26.171-24.942c1.137-1.436 6.166-7.421 4.329-9.333-.765-.798-2.742-.21-3.656-.075-2.138.318-4.28.611-6.422.91h.007ZM213.812 223.879c-1.12.926-2.151 1.961-2.775 3.291-.155.325-.283.706-.148 1.038.732 1.82 3.659.493 4.786-.082 1.714-.87 6.553-3.439 4.668-6.041-1.531-2.112-5.2.69-6.531 1.794Z"/><path fill="#14041E" d="M162.305 90.785c.91 1.964 2.313 3.89 3.949 5.298 1.182 1.019 2.342.092 2.463-1.261.158-1.757-.844-3.328-1.757-4.737-.867-1.343-2.842-5.955-5.069-4.944-1.872.851-.154 4.419.414 5.64v.004ZM169.998 58.62c.91 1.964 2.313 3.889 3.949 5.298 1.182 1.018 2.342.092 2.464-1.262.157-1.757-.845-3.327-1.758-4.736-.867-1.344-2.841-5.956-5.068-4.944-1.873.85-.155 4.418.413 5.64v.003ZM199.267 110.566c.91 1.965 2.313 3.89 3.948 5.299 1.183 1.018 2.343.092 2.464-1.261.158-1.758-.844-3.328-1.757-4.737-.868-1.344-2.842-5.956-5.069-4.944-1.872.851-.154 4.418.414 5.64v.003ZM197.597 84.471c.91 1.965 2.313 3.89 3.949 5.299 1.182 1.018 2.342.092 2.463-1.262.158-1.757-.844-3.327-1.757-4.736-.867-1.344-2.842-5.956-5.069-4.944-1.872.85-.154 4.418.414 5.64v.003ZM184.439 136.399c.91 1.964 2.312 3.889 3.948 5.298 1.183 1.019 2.342.092 2.464-1.261.158-1.757-.844-3.328-1.757-4.737-.868-1.343-2.842-5.955-5.069-4.944-1.872.851-.154 4.419.414 5.641v.003Z"/><path stroke="#14041E" stroke-linecap="round" stroke-linejoin="round" stroke-width=".493" d="M64.921 131.672c-2.263 1.199-4.957 1.307-7.358.42-3.41-1.261-9.927-3.117-12.62-.147-3.729 4.112-35.648 62.941-35.477 70.996.17 8.054 35.733 48.932 128.025 49.188 92.292.256 133.681-73.266 132.138-85.352-1.544-12.081-72.11-118.64-81.751-122.496-9.642-3.857-71.64-19.41-80.382-15.981-8.74 3.426-30.848 45.417-31.705 50.728-.858 5.312 5.528 2.914 10.925 9.47 4.94 5.999.086 11.784-4.027 12.427A.742.742 0 0 0 82.15 102c1.275 2.496 3.935 9.079.066 14.778-3.751 5.529-9.773 4.386-12.368 3.558a.742.742 0 0 0-.952.841c.453 2.509.798 7.966-3.978 10.495h.003Z"/><path stroke="#14041E" stroke-linecap="round" stroke-linejoin="round" stroke-width=".493" d="M12.36 193.75s34.126 29.587 82.972 21.361c48.847-8.225 68.126-42.674 82.523-47.302 14.398-4.628 57.443-1.242 87.336-11.29"/><path stroke="#14041E" stroke-linecap="round" stroke-linejoin="round" stroke-width=".493" d="M10.553 198.421s21.282 25.175 68.07 28.772c46.786 3.6 74.293-21.338 87.407-31.108 13.11-9.769 14.138-10.797 30.079-13.625 15.939-2.829 71.946-2.556 72.866-17.988M104.444 30.471s4.767-5.686 9.996.999c5.227 6.685 60.741 137.492 60.741 137.492M48.53 172.194c-.93 2.392-1.502 5.079-.687 7.513.466 1.393 1.646 2.759 3.11 2.664 1.39-.092 2.35-1.419 2.918-2.69.693-1.544 1.12-3.19 1.547-4.829l.877-3.38 1.606-6.179c.266-1.025 1.685-3.906.355-4.494-1.31-.581-2.822 1.307-3.6 2.079a27.155 27.155 0 0 0-3.36 4.044 26.383 26.383 0 0 0-2.77 5.272h.003ZM83.005 143.393c-.637 2.486-.887 5.222.213 7.538.631 1.327 1.962 2.546 3.407 2.273 1.37-.256 2.161-1.688 2.575-3.018.503-1.616.733-3.302.96-4.977.157-1.153.312-2.306.47-3.459.285-2.109.57-4.218.857-6.327.14-1.047 1.208-4.076-.184-4.503-1.373-.421-2.645 1.636-3.328 2.493a26.83 26.83 0 0 0-4.977 9.98h.007ZM114.637 159.899c.395 2.536 1.242 5.147 3.167 6.846 1.104.972 2.805 1.567 4.027.749 1.157-.776 1.321-2.405 1.18-3.788-.175-1.682-.628-3.324-1.078-4.953-.312-1.121-.621-2.244-.933-3.364l-1.705-6.153c-.282-1.021-.496-4.224-1.944-4.066-1.426.154-1.787 2.545-2.076 3.603a26.855 26.855 0 0 0-.884 5.184 26.554 26.554 0 0 0 .243 5.949l.003-.007Z"/><path stroke="#14041E" stroke-linecap="round" stroke-linejoin="round" stroke-width=".493" d="M81.526 187.127c-.47 2.523-.538 5.269.713 7.51.716 1.284 2.126 2.408 3.551 2.043 1.347-.348 2.047-1.83 2.372-3.183.394-1.646.512-3.341.627-5.029.08-1.16.158-2.323.24-3.482l.437-6.37c.072-1.054.933-4.149-.483-4.484-1.396-.328-2.53 1.807-3.154 2.707a26.95 26.95 0 0 0-2.555 4.596 26.543 26.543 0 0 0-1.748 5.692ZM100.47 66.477c-.47 2.523-.539 5.269.713 7.51.716 1.284 2.125 2.407 3.55 2.042 1.347-.348 2.047-1.83 2.372-3.183.394-1.645.513-3.34.628-5.029.078-1.16.157-2.322.239-3.482.145-2.122.293-4.247.437-6.37.073-1.054.933-4.148-.483-4.483-1.396-.329-2.529 1.806-3.153 2.707a26.963 26.963 0 0 0-2.556 4.595 26.543 26.543 0 0 0-1.747 5.693ZM118.931 111.063c.348 2.542 1.146 5.17 3.042 6.904 1.084.992 2.775 1.62 4.014.822 1.169-.753 1.366-2.379 1.248-3.768-.141-1.685-.565-3.334-.985-4.973-.29-1.127-.579-2.254-.871-3.381-.529-2.062-1.061-4.122-1.59-6.185-.263-1.025-.417-4.231-1.869-4.103-1.429.128-1.833 2.513-2.142 3.564a27.15 27.15 0 0 0-.979 5.167 26.517 26.517 0 0 0 .132 5.953ZM162.246 90.644c.909 1.964 2.312 3.889 3.948 5.298 1.183 1.019 2.342.092 2.464-1.261.157-1.758-.845-3.328-1.758-4.737-.867-1.344-2.841-5.956-5.068-4.944-1.873.851-.155 4.418.414 5.64v.004ZM169.935 58.478c.91 1.964 2.313 3.89 3.948 5.299 1.183 1.018 2.343.092 2.464-1.262.158-1.757-.844-3.327-1.757-4.737-.868-1.343-2.842-5.955-5.069-4.943-1.872.85-.154 4.418.414 5.64v.003ZM199.206 110.425c.91 1.965 2.313 3.89 3.949 5.299 1.182 1.018 2.342.092 2.464-1.262.157-1.757-.845-3.327-1.758-4.736-.867-1.344-2.841-5.956-5.068-4.944-1.873.851-.155 4.418.413 5.64v.003ZM197.535 84.333c.91 1.965 2.312 3.89 3.948 5.299 1.183 1.018 2.342.092 2.464-1.261.157-1.758-.845-3.328-1.758-4.737-.867-1.344-2.841-5.956-5.068-4.944-1.873.85-.155 4.418.414 5.64v.003ZM184.38 136.261c.91 1.964 2.313 3.889 3.949 5.299 1.182 1.018 2.342.091 2.463-1.262.158-1.757-.844-3.327-1.757-4.737-.867-1.343-2.841-5.955-5.069-4.943-1.872.85-.154 4.418.414 5.64v.003Z"/></svg>