<svg xmlns="http://www.w3.org/2000/svg" width="150" height="150" fill="none"><path fill="#FF673D" d="M74.984 47.297s-.281.65-6.67-.65c-6.39-1.3-34.618-3.993-42.554 22.697-7.935 26.69 13.226 45.772 48.533 44.484 35.308-1.287 53.959-18.042 51.371-43.507-2.531-24.895-25.456-30.905-50.68-23.023Z"/><path fill="#14041E" d="M63.578 74.755c-3.905.54-7.825.956-11.756 1.243-.824.06-1.649.114-2.469.22-1.871.236-3.805.75-5.688.647-.116-1.779.359-3.545.975-5.214 1.9-5.142 5.39-9.873 10.284-12.189 1.62 2.177 2.906 4.705 4.156 7.121 1.44 2.784 2.884 5.488 4.497 8.172ZM75.916 64.586s-.96-6.06-5.133-4.919c-6.045 1.654-4.447 10.33 3.885 16.937 0 0 6.9-5.88 9.2-11.082 2.3-5.202-.154-7.908-4.345-6.347-3.205 1.56-3.608 5.41-3.608 5.41ZM87.678 73.42c3.94.074 7.882.02 11.817-.159.825-.037 1.651-.08 2.477-.074 1.886.014 3.865.294 5.723-.031-.087-1.781-.761-3.479-1.564-5.063-2.476-4.881-6.484-9.167-11.609-10.888-1.36 2.354-2.347 5.017-3.313 7.565-1.113 2.936-2.237 5.792-3.53 8.65ZM64.392 83.5s-9.099 1.327-15.795 1.432c0 0 1.764 10.952 7.208 15.166s11.654 6.087 22.081 4.449c0 0-.588-7.154 0-7.908.588-.755 4.32-2.055 7.08-3.018 2.76-.962 4.216-1.093 4.497-.364.281.728.639 7.856.639 7.856s9.514-6.283 11.168-22.099c0 0-15.615 2.745-23.691 3.005-1.33.156-2.607.182-2.863 1.769-.256 1.586.256 4.578-.434 5.514-.69.937-7.437 1.925-8.945 1.223s-.945-7.023-.945-7.023V83.5Z" opacity=".98"/><path fill="#22A255" d="M79.322 46.073s-.639-1.957-.313-3.244c.327-1.288 1.036-2.303 1.591-3.61.556-1.307 1.822-2.81 0-3.044-1.82-.234-4.236.098-4.619.645-.383.546-1.06 3.102-1.763 4.507-.703 1.405-2.977 3.717-3.513 4.42-.535.703-.909 1.141-.909 1.141s2.595.497 3.48.576c.884.078 1.08.065 2.397-.377 1.315-.442 3.088-.862 3.088-.862l.561-.15v-.002Z"/><path fill="#C53423" d="m56.527 61.937-1.707-2.519s-4.626 2.032-8 7.624c-3.372 5.593-3.22 9.377-3.22 9.377l-.015.3s.131.221 1.191.09c1.061-.13 2.16-.234 2.16-.234l1.142-.26s.199-2.718.736-4.41c.536-1.691 1.73-5.118 4.338-7.362 2.607-2.244 3.374-2.608 3.374-2.608v.002ZM72.515 74.73l2.086 1.83s2.894-2.768 3.7-3.529c.805-.76 3.775-3.707 5.404-7.414 1.63-3.707 1.003-5.769-.428-6.523-1.431-.755-3.425-.807-5.66 1.483 0 0 2.746-1.587 3.744 1.261.651 1.77-1.29 4.774-1.29 4.774l-2.466 3.121-2.735 2.861-2.354 2.134v.001ZM93.092 59.86l1.367-2.7s2.632.685 5.417 3.052c2.785 2.367 3.936 4.078 4.99 5.638 1.054 1.56 1.974 3.902 1.974 3.902l.517 1.815.115.605.157.898-4.499.109s-.75-8.871-10.04-13.319h.002ZM60.82 83.914s-.328 5.213.797 6.02c1.125.806 2.888.82 2.888.82l1.227.031h.192s-.933-.174-1.214-.994c-.281-.82-.46-2.523-.499-3.616-.038-1.093.102-2.718.102-2.718l-3.492.458ZM77.827 104.521s2.6-.163 2.741-.501c.14-.338-.244-2.38-.244-2.38s-.547-4.318-.49-5.021c.056-.703.306-1.054.632-1.269.327-.214.422-.234.422-.234s-2.894.956-3.163 1.62c-.104.331-.172 1.911-.172 1.911l.134 3.337.14 2.536v.001Z"/><path fill="#C53423" d="M24.71 86.344s2.087 4.5 4.846 3.954c2.76-.547 2.986-6.67 2.986-6.67s2.872 9.311 7.932 9.389c5.06.078 4.072-5.06 4.072-5.06s3.348 20.16 25.046 22.423c21.698 2.264 33.071-11.844 36.521-23.26 0 0 .306 9.577 4.907 8.561 4.601-1.014 6.747-14.983 6.747-14.983s.537 6.366 3.527 6.422c2.99.055 4.523-9.258 4.523-9.258s.592 17.037-18.029 27.769c-15.4 8.742-34.242 8.196-34.242 8.196l-3.776.006s-7.515.137-16.217-1.892c-8.701-2.029-24.833-8.013-28.843-25.598Z"/><path fill="#812217" d="M77.68 101.341s.115 1.235 1.406 1.235 1.15-1.925 1.15-1.925.473 3.252.32 3.448c-.154.195-.613.173-.613.173s-2.087.321-2.175.25c-.087-.072-.087-3.18-.087-3.18v-.001ZM60.776 85.562l.067-1.647 3.471-.46-.108 2.482s-.221-1.151-1.975-.868c-1.753.283-1.403 2.342-1.403 2.342l-.052-1.85ZM49.724 63.246s1.62-1.382 3.23-.978c1.61.403 1.073 1.431 1.073 1.431l2.415-1.762.051-.086-1.674-2.434s-2.926 1.244-5.095 3.83ZM84.688 62.447s.507-3.418-2.905-3.756c-1.661-.045-2.48.592-3.189 1.017-.708.427-.976.869-.976.869s1.993-1.158 3.13.195c1.138 1.354.589 3.149.589 3.149s.306-2.459 1.661-2.94c1.355-.482 1.691 1.467 1.691 1.467v-.001ZM93.176 59.861l1.966 1.08s-.632-1.386.39-2.312c1.022-.925 2.09-.032 2.09-.032l-3.163-1.434-1.283 2.699v-.001Z"/><path fill="#17713B" d="m69.796 46.887 2.965-3.515s1.082-1.234 1.42-1.973c.338-.74.147.611-1.173 2.425-1.32 1.815.795.824 2.325-1.383 0 0-1.537 3.178-.809 3.256.73.078 1.18-1.6 1.18-1.6s.009 1.756.756 1.56c.748-.195 1.014-2.75 1.014-2.75s.29 1.386.768 1.19c.48-.195 1.29-2.68 1.29-2.68s-.616 1.022-.608 2.544c.008 1.521.398 2.112.398 2.112s-3.333 1-4.25 1.207c-.917.208-.508.233-1.008.219-.5-.014-4.269-.613-4.269-.613l.001.001ZM76.215 36.625s-.722.32-.17.93c.55.61 3.157.897 4.549.454 1.393-.441 1.258-1.796-.269-1.846-1.526-.052-3.136-.037-4.11.462Z"/><path fill="#FF955E" d="M94.459 57.16s3.326.436 7.694 5.198c4.368 4.762 5.16 8.715 5.16 8.715s.464 1.877.317 1.997c-.148.12-.681.109-.681.109s1.309.01 1.636 0c.326-.011-2.831-13.319-14.127-16.018ZM43.865 76.923l-1.416.042s.46-12.838 12.37-17.548c0 0-3.7 1.475-7.15 6.141-3.45 4.667-4.044 9.794-4.044 9.794l-.041 1.002v.48l.28.09ZM43.584 48.897s6.84-2.042 8.858-1.756c2.02.286-.869 1.638-.869 1.638s8.596-2.088 11.94-1.317c3.344.77-.158 2.357-1.206 5.792 0 0 6.768-4.553 10.7-4.397 3.93.157 5.36 5.501 5.36 5.501s-.445-7.039 4.718-7.246c5.163-.207 7.717.7 7.717.7s-2.657-1.793.615-2.494c3.27-.701 12.357 2.837 12.357 2.837s-4.064-2.01-3.719-3.063c.344-1.055 4.425.058 4.425.058s-5.844-2.062-17.766-.602c-4.409.911-6.727 1.332-6.727 1.332l-4.543 1.26-.78.359s-1.655-.03-3.006-.252c-1.35-.222-6.744-1.868-16.15-1.17-6.695.49-11.925 2.819-11.925 2.819h.001Z"/><path fill="#F29261" d="M27.98 65.616c-.124.662-.115 1.51.476 1.816.577.299 1.245-.163 1.698-.633 1.722-1.795 2.843-4.124 3.476-6.55.212-.81.194-2.177-.969-2.156-.888.016-1.704 1.253-2.184 1.887a13.493 13.493 0 0 0-2.498 5.635ZM26.43 71.218c.024.243.082.496.244.677.206.232.551.298.849.22.297-.078.55-.282.75-.519.437-.52.652-1.23.58-1.91-.028-.257-.1-.52-.272-.709-1.342-1.478-2.26 1.158-2.15 2.242h-.001ZM122.932 62.648a8.913 8.913 0 0 0-.27-.39c-.312-.424-.802-.598-1.277-.3-.86.54-1.058 2.011-1.128 2.934-.089 1.165.076 2.338.37 3.463.39 1.491.827 3.253 2.049 4.284.808.682 2.213 1.033 2.351-.395.166-1.722-.192-3.431-.438-5.126-.213-1.476-.819-3.176-1.657-4.47Z"/><path stroke="#14041E" stroke-linecap="round" stroke-linejoin="round" stroke-width=".429" d="M74.984 47.297s-.281.65-6.67-.65c-6.39-1.3-34.618-3.993-42.554 22.697-7.935 26.69 13.226 45.772 48.533 44.484 35.308-1.287 53.959-18.042 51.371-43.507-2.531-24.895-25.456-30.905-50.68-23.023v0Z"/><path stroke="#14041E" stroke-linecap="round" stroke-linejoin="round" stroke-width=".429" d="M69.796 46.887s.373-.438.91-1.141c.536-.703 2.81-3.015 3.512-4.42.702-1.405 1.38-3.96 1.763-4.507.383-.547 2.8-.878 4.62-.645 1.82.235.555 1.737 0 3.044-.556 1.307-1.265 2.321-1.592 3.61-.326 1.287.313 3.244.313 3.244"/><path stroke="#14041E" stroke-linecap="round" stroke-linejoin="round" stroke-width=".429" d="M75.945 36.876s-.625 1.085 2.039 1.32c2.665.234 3.706-.573 3.564-1.32M63.514 74.71c-3.904.54-7.825.956-11.755 1.243-.824.06-1.65.114-2.47.22-1.87.236-3.804.75-5.687.647-.117-1.779.358-3.545.975-5.214 1.9-5.142 5.39-9.873 10.283-12.189 1.62 2.177 2.906 4.705 4.156 7.121 1.441 2.784 2.884 5.488 4.497 8.172h.001ZM75.852 64.542s-.96-6.06-5.133-4.918c-6.044 1.653-4.447 10.329 3.885 16.936 0 0 6.9-5.88 9.2-11.082 2.3-5.202-.154-7.908-4.345-6.347-3.205 1.56-3.608 5.41-3.608 5.41h0Z"/><path stroke="#14041E" stroke-linecap="round" stroke-linejoin="round" stroke-width=".429" d="M56.526 61.937s-7.753 3.986-8.448 14.418M87.613 73.375c3.94.074 7.882.02 11.817-.159.825-.037 1.651-.08 2.477-.074 1.886.014 3.865.294 5.723-.031-.087-1.781-.761-3.479-1.564-5.063-2.476-4.881-6.484-9.167-11.609-10.888-1.36 2.354-2.347 5.017-3.313 7.565-1.113 2.936-2.237 5.792-3.53 8.65Z"/><path stroke="#14041E" stroke-linecap="round" stroke-linejoin="round" stroke-width=".429" d="M93.092 59.861s8.157 3.04 10.04 13.319M64.327 83.456s-9.099 1.326-15.795 1.43c0 0 1.764 10.953 7.208 15.167s11.654 6.087 22.081 4.449c0 0-.588-7.154 0-7.908.588-.755 4.32-2.055 7.08-3.018 2.76-.962 4.216-1.093 4.497-.364.281.728.639 7.856.639 7.856s9.514-6.283 11.169-22.099c0 0-15.616 2.745-23.692 3.005-1.33.156-2.607.182-2.863 1.769-.256 1.586.256 4.578-.434 5.514-.69.937-7.437 1.925-8.945 1.223s-.945-7.023-.945-7.023v-.001Z"/><path stroke="#14041E" stroke-linecap="round" stroke-linejoin="round" stroke-width=".429" d="M60.82 83.914s-.346 4.51.67 5.876c1.016 1.366 5.52.926 5.52.926M77.622 104.533s2.69-.201 2.934-.434c.243-.235-.953-6.699-.722-7.908.23-1.21 3.194-1.956 3.194-1.956M77.455 60.742s2.899-2.04 3.972 1.315c1.049 4.358-8.912 12.671-8.912 12.671M67.437 46.484s-10.087-1.138-19.173 3.818C39.178 55.258 36.916 60.72 36.916 60.72M34.731 67.222s-2.262 4.81-.881 9.611M37.721 96.541s11.387 18.123 34.791 17.334M32.54 83.628a10.555 10.555 0 0 0 1.29 6.173M62.241 53.366c.818-1.865 2.528-3.147 4.234-4.224a17.17 17.17 0 0 1 1.18-.694 10.478 10.478 0 0 1 4.074-1.168M76.747 46.787c.256.016.43.269.534.508.23.535.317 1.12.401 1.697l.168 1.148M81.932 45.46c2.672.363 5.385.738 7.846 1.855.346.157.686.328 1.025.499M103.775 48.155s-6.046-3.931-16.71-3.585M106.752 96.853s-3.297 13.189-19.68 15.726"/><path stroke="#14041E" stroke-linecap="round" stroke-linejoin="round" stroke-width=".429" d="M117.767 80.698s.746 21.16-15.664 27.711M118.065 72.739l.089 2.965M107.182 51.205a3.847 3.847 0 0 1 1.288 1.64M115.31 60.1l.381.469M27.96 79.843l.15 1.327M71.835 47.351a11.63 11.63 0 0 0 2.345-2.94M74.787 43.372c.17-.318.352-.628.546-.931M74.408 47.463a26.574 26.574 0 0 0 1.297-3.31M77.352 44.097c-.094.812-.188 1.639-.042 2.442M78.243 45.443c.062.26.147.515.25.76M77.49 43.279a.758.758 0 0 1 .009-.352M67.496 79.111v-.05M70.103 80.672v.104M86.814 77.97c-.053-.029-.122.047-.09.099a.19.19 0 0 0 .186-.107M113.947 81.123c-.053-.028-.122.048-.09.1a.19.19 0 0 0 .186-.107M107.183 61.257c-.053-.028-.122.048-.091.1a.19.19 0 0 0 .187-.107M64.315 58.046c-.053-.028-.121.048-.09.1a.19.19 0 0 0 .186-.107M47.817 82.128c.12.017.246 0 .358-.05M85.157 98.501l.086.226a.143.143 0 0 0 .036-.154M112.44 77.63a.21.21 0 0 0 .027.09c.022.032.058.05.096.06.283.066.376-.457.096-.477-.134-.009-.23.184-.219.325v.001ZM39.554 65.413a.2.2 0 0 0 .027.091c.021.032.058.051.096.06.283.066.376-.457.096-.477-.134-.009-.23.185-.22.325v.001ZM84.857 102.676a.193.193 0 0 0 .027.09.156.156 0 0 0 .096.06c.283.066.376-.456.096-.476-.134-.009-.23.184-.22.325v.001Z"/></svg>